<svg xmlns="http://www.w3.org/2000/svg" xmlns:xlink="http://www.w3.org/1999/xlink" width="1076" height="574" viewBox="0 0 1076 574">
  <defs>
    <clipPath id="clip-path">
      <rect id="Rectangle_2" data-name="Rectangle 2" width="1076" height="574"/>
    </clipPath>
    <filter id="Path_1" x="67.203" y="68.95" width="336.878" height="252.775" filterUnits="userSpaceOnUse">
      <feOffset dx="1" dy="2" input="SourceAlpha"/>
      <feGaussianBlur stdDeviation="3" result="blur"/>
      <feFlood flood-opacity="0.302"/>
      <feComposite operator="in" in2="blur"/>
      <feComposite in="SourceGraphic"/>
    </filter>
    <filter id="Path_2" x="67.927" y="300.614" width="335.239" height="62.996" filterUnits="userSpaceOnUse">
      <feOffset dx="1" dy="2" input="SourceAlpha"/>
      <feGaussianBlur stdDeviation="3" result="blur-2"/>
      <feFlood flood-opacity="0.302"/>
      <feComposite operator="in" in2="blur-2"/>
      <feComposite in="SourceGraphic"/>
    </filter>
    <filter id="Path_3" x="181.674" y="301.941" width="222.746" height="227.38" filterUnits="userSpaceOnUse">
      <feOffset dx="1" dy="2" input="SourceAlpha"/>
      <feGaussianBlur stdDeviation="3" result="blur-3"/>
      <feFlood flood-opacity="0.302"/>
      <feComposite operator="in" in2="blur-3"/>
      <feComposite in="SourceGraphic"/>
    </filter>
    <filter id="Path_4" x="382.504" y="302.381" width="224.027" height="214.141" filterUnits="userSpaceOnUse">
      <feOffset dx="1" dy="2" input="SourceAlpha"/>
      <feGaussianBlur stdDeviation="3" result="blur-4"/>
      <feFlood flood-opacity="0.302"/>
      <feComposite operator="in" in2="blur-4"/>
      <feComposite in="SourceGraphic"/>
    </filter>
    <filter id="Path_5" x="358.273" y="75.392" width="173.318" height="207.123" filterUnits="userSpaceOnUse">
      <feOffset dx="1" dy="2" input="SourceAlpha"/>
      <feGaussianBlur stdDeviation="3" result="blur-5"/>
      <feFlood flood-opacity="0.302"/>
      <feComposite operator="in" in2="blur-5"/>
      <feComposite in="SourceGraphic"/>
    </filter>
    <filter id="Path_6" x="383.275" y="144.708" width="402.688" height="177.373" filterUnits="userSpaceOnUse">
      <feOffset dx="1" dy="2" input="SourceAlpha"/>
      <feGaussianBlur stdDeviation="3" result="blur-6"/>
      <feFlood flood-opacity="0.302"/>
      <feComposite operator="in" in2="blur-6"/>
      <feComposite in="SourceGraphic"/>
    </filter>
    <filter id="Path_7" x="418.632" y="258.884" width="306.147" height="135.676" filterUnits="userSpaceOnUse">
      <feOffset dx="1" dy="2" input="SourceAlpha"/>
      <feGaussianBlur stdDeviation="3" result="blur-7"/>
      <feFlood flood-opacity="0.302"/>
      <feComposite operator="in" in2="blur-7"/>
      <feComposite in="SourceGraphic"/>
    </filter>
    <filter id="Path_8" x="557.749" y="272.718" width="475.592" height="163.493" filterUnits="userSpaceOnUse">
      <feOffset dx="1" dy="2" input="SourceAlpha"/>
      <feGaussianBlur stdDeviation="3" result="blur-8"/>
      <feFlood flood-opacity="0.302"/>
      <feComposite operator="in" in2="blur-8"/>
      <feComposite in="SourceGraphic"/>
    </filter>
    <filter id="Ellipse_1" x="254" y="165" width="279" height="279" filterUnits="userSpaceOnUse">
      <feOffset dx="1" dy="2" input="SourceAlpha"/>
      <feGaussianBlur stdDeviation="3" result="blur-9"/>
      <feFlood flood-opacity="0.302"/>
      <feComposite operator="in" in2="blur-9"/>
      <feComposite in="SourceGraphic"/>
    </filter>
    <filter id="Ellipse_2" x="163" y="77" width="109" height="109" filterUnits="userSpaceOnUse">
      <feOffset dx="1" dy="2" input="SourceAlpha"/>
      <feGaussianBlur stdDeviation="3" result="blur-10"/>
      <feFlood flood-opacity="0.302"/>
      <feComposite operator="in" in2="blur-10"/>
      <feComposite in="SourceGraphic"/>
    </filter>
    <filter id="Ellipse_3" x="4" y="265" width="146" height="146" filterUnits="userSpaceOnUse">
      <feOffset dx="1" dy="2" input="SourceAlpha"/>
      <feGaussianBlur stdDeviation="3" result="blur-11"/>
      <feFlood flood-opacity="0.302"/>
      <feComposite operator="in" in2="blur-11"/>
      <feComposite in="SourceGraphic"/>
    </filter>
    <filter id="Ellipse_4" x="-7" y="-6" width="157" height="157" filterUnits="userSpaceOnUse">
      <feOffset dx="1" dy="2" input="SourceAlpha"/>
      <feGaussianBlur stdDeviation="3" result="blur-12"/>
      <feFlood flood-opacity="0.302"/>
      <feComposite operator="in" in2="blur-12"/>
      <feComposite in="SourceGraphic"/>
    </filter>
    <filter id="Ellipse_5" x="529" y="437" width="136" height="136" filterUnits="userSpaceOnUse">
      <feOffset dx="1" dy="2" input="SourceAlpha"/>
      <feGaussianBlur stdDeviation="3" result="blur-13"/>
      <feFlood flood-opacity="0.302"/>
      <feComposite operator="in" in2="blur-13"/>
      <feComposite in="SourceGraphic"/>
    </filter>
    <filter id="Ellipse_6" x="725" y="108" width="103" height="103" filterUnits="userSpaceOnUse">
      <feOffset dx="1" dy="2" input="SourceAlpha"/>
      <feGaussianBlur stdDeviation="3" result="blur-14"/>
      <feFlood flood-opacity="0.302"/>
      <feComposite operator="in" in2="blur-14"/>
      <feComposite in="SourceGraphic"/>
    </filter>
    <filter id="Ellipse_7" x="577" y="141" width="76" height="76" filterUnits="userSpaceOnUse">
      <feOffset dx="1" dy="2" input="SourceAlpha"/>
      <feGaussianBlur stdDeviation="3" result="blur-15"/>
      <feFlood flood-opacity="0.302"/>
      <feComposite operator="in" in2="blur-15"/>
      <feComposite in="SourceGraphic"/>
    </filter>
    <filter id="Ellipse_8" x="438" y="2" width="169" height="169" filterUnits="userSpaceOnUse">
      <feOffset dx="1" dy="2" input="SourceAlpha"/>
      <feGaussianBlur stdDeviation="3" result="blur-16"/>
      <feFlood flood-opacity="0.302"/>
      <feComposite operator="in" in2="blur-16"/>
      <feComposite in="SourceGraphic"/>
    </filter>
    <filter id="Ellipse_9" x="641" y="197" width="145" height="145" filterUnits="userSpaceOnUse">
      <feOffset dx="1" dy="2" input="SourceAlpha"/>
      <feGaussianBlur stdDeviation="3" result="blur-17"/>
      <feFlood flood-opacity="0.302"/>
      <feComposite operator="in" in2="blur-17"/>
      <feComposite in="SourceGraphic"/>
    </filter>
    <filter id="Ellipse_10" x="126" y="453" width="131" height="131" filterUnits="userSpaceOnUse">
      <feOffset dx="1" dy="2" input="SourceAlpha"/>
      <feGaussianBlur stdDeviation="3" result="blur-18"/>
      <feFlood flood-opacity="0.302"/>
      <feComposite operator="in" in2="blur-18"/>
      <feComposite in="SourceGraphic"/>
    </filter>
    <filter id="Ellipse_11" x="745" y="323" width="194" height="194" filterUnits="userSpaceOnUse">
      <feOffset dx="1" dy="2" input="SourceAlpha"/>
      <feGaussianBlur stdDeviation="3" result="blur-19"/>
      <feFlood flood-opacity="0.302"/>
      <feComposite operator="in" in2="blur-19"/>
      <feComposite in="SourceGraphic"/>
    </filter>
    <filter id="Ellipse_12" x="960" y="220" width="125" height="125" filterUnits="userSpaceOnUse">
      <feOffset dx="1" dy="2" input="SourceAlpha"/>
      <feGaussianBlur stdDeviation="3" result="blur-20"/>
      <feFlood flood-opacity="0.302"/>
      <feComposite operator="in" in2="blur-20"/>
      <feComposite in="SourceGraphic"/>
    </filter>
  </defs>
  <g id="a" clip-path="url(#clip-path)">
    <rect id="Rectangle_1" data-name="Rectangle 1" width="1076" height="574" fill="rgba(255,255,255,0)"/>
    <g transform="matrix(1, 0, 0, 1, 0, 0)" filter="url(#Path_1)">
      <path id="Path_1-2" data-name="Path 1" d="M0,0S61.719-9.282,140.969,48.468,317,231,317,231" transform="translate(75.5 78.5)" fill="none" stroke="#fff" stroke-width="4"/>
    </g>
    <g transform="matrix(1, 0, 0, 1, 0, 0)" filter="url(#Path_2)">
      <path id="Path_2-2" data-name="Path 2" d="M0,27S64.921,46.406,143.921,39.656,316,0,316,0" transform="translate(76.5 309.5)" fill="none" stroke="#fff" stroke-width="4"/>
    </g>
    <g transform="matrix(1, 0, 0, 1, 0, 0)" filter="url(#Path_3)">
      <path id="Path_3-2" data-name="Path 3" d="M0,207s81.648-37.023,132.148-88.773S202,0,202,0" transform="translate(190.5 309.5)" fill="none" stroke="#fff" stroke-width="4"/>
    </g>
    <g transform="matrix(1, 0, 0, 1, 0, 0)" filter="url(#Path_4)">
      <path id="Path_4-2" data-name="Path 4" d="M204,194s-96.123,1.453-147.123-47.047S0,0,0,0" transform="translate(392.5 309.5)" fill="none" stroke="#fff" stroke-width="4"/>
    </g>
    <g transform="matrix(1, 0, 0, 1, 0, 0)" filter="url(#Path_5)">
      <path id="Path_5-2" data-name="Path 5" d="M129,0S59.411-3.163,19.7,43.3-24.229,186.929-24.229,186.929" transform="translate(392.5 84.5)" fill="none" stroke="#fff" stroke-width="4"/>
    </g>
    <g transform="matrix(1, 0, 0, 1, 0, 0)" filter="url(#Path_6)">
      <path id="Path_6-2" data-name="Path 6" d="M383,0S311.459-17,215.709,21,0,152,0,152" transform="translate(392.5 157.5)" fill="none" stroke="#fff" stroke-width="4"/>
    </g>
    <g transform="matrix(1, 0, 0, 1, 0, 0)" filter="url(#Path_7)">
      <path id="Path_7-2" data-name="Path 7" d="M322.159-12.62s-70.8,4.253-147.174,29.654S35.5,101.6,35.5,101.6" transform="translate(392.5 280.5)" fill="none" stroke="#fff" stroke-width="4"/>
    </g>
    <g transform="matrix(1, 0, 0, 1, 0, 0)" filter="url(#Path_8)">
      <path id="Path_8-2" data-name="Path 8" d="M629,0S587.192,98.479,426.5,136.751,174.986,15.937,174.986,15.937" transform="translate(392.5 280.5)" fill="none" stroke="#fff" stroke-width="4"/>
    </g>
    <g transform="matrix(1, 0, 0, 1, 0, 0)" filter="url(#Ellipse_1)">
      <circle id="Ellipse_1-2" data-name="Ellipse 1" cx="130.5" cy="130.5" r="130.5" transform="translate(262 172)" fill="#fff"/>
    </g>
    <g transform="matrix(1, 0, 0, 1, 0, 0)" filter="url(#Ellipse_2)">
      <circle id="Ellipse_2-2" data-name="Ellipse 2" cx="45.5" cy="45.5" r="45.5" transform="translate(171 84)" fill="#fff"/>
    </g>
    <g transform="matrix(1, 0, 0, 1, 0, 0)" filter="url(#Ellipse_3)">
      <circle id="Ellipse_3-2" data-name="Ellipse 3" cx="64" cy="64" r="64" transform="translate(12 272)" fill="#fff"/>
    </g>
    <g transform="matrix(1, 0, 0, 1, 0, 0)" filter="url(#Ellipse_4)">
      <circle id="Ellipse_4-2" data-name="Ellipse 4" cx="69.5" cy="69.5" r="69.5" transform="translate(1 1)" fill="#fff"/>
    </g>
    <g transform="matrix(1, 0, 0, 1, 0, 0)" filter="url(#Ellipse_5)">
      <circle id="Ellipse_5-2" data-name="Ellipse 5" cx="59" cy="59" r="59" transform="translate(537 444)" fill="#fff"/>
    </g>
    <g transform="matrix(1, 0, 0, 1, 0, 0)" filter="url(#Ellipse_6)">
      <circle id="Ellipse_6-2" data-name="Ellipse 6" cx="42.5" cy="42.5" r="42.5" transform="translate(733 115)" fill="#fff"/>
    </g>
    <g transform="matrix(1, 0, 0, 1, 0, 0)" filter="url(#Ellipse_7)">
      <circle id="Ellipse_7-2" data-name="Ellipse 7" cx="29" cy="29" r="29" transform="translate(585 148)" fill="#fff"/>
    </g>
    <g transform="matrix(1, 0, 0, 1, 0, 0)" filter="url(#Ellipse_8)">
      <circle id="Ellipse_8-2" data-name="Ellipse 8" cx="75.5" cy="75.5" r="75.5" transform="translate(446 9)" fill="#fff"/>
    </g>
    <g transform="matrix(1, 0, 0, 1, 0, 0)" filter="url(#Ellipse_9)">
      <circle id="Ellipse_9-2" data-name="Ellipse 9" cx="63.5" cy="63.5" r="63.5" transform="translate(649 204)" fill="#fff"/>
    </g>
    <g transform="matrix(1, 0, 0, 1, 0, 0)" filter="url(#Ellipse_10)">
      <circle id="Ellipse_10-2" data-name="Ellipse 10" cx="56.5" cy="56.5" r="56.5" transform="translate(134 460)" fill="#fff"/>
    </g>
    <g transform="matrix(1, 0, 0, 1, 0, 0)" filter="url(#Ellipse_11)">
      <circle id="Ellipse_11-2" data-name="Ellipse 11" cx="88" cy="88" r="88" transform="translate(753 330)" fill="#fff"/>
    </g>
    <g transform="matrix(1, 0, 0, 1, 0, 0)" filter="url(#Ellipse_12)">
      <circle id="Ellipse_12-2" data-name="Ellipse 12" cx="53.5" cy="53.5" r="53.5" transform="translate(968 227)" fill="#fff"/>
    </g>
    <path id="Path_9" data-name="Path 9" d="M30.75.41a24.659,24.659,0,0,1-11.111-2.5,27.621,27.621,0,0,1-8.651-6.642A30.2,30.2,0,0,1,5.412-18.2,31.254,31.254,0,0,1,3.444-29.11,30.265,30.265,0,0,1,5.535-40.262a30.741,30.741,0,0,1,5.781-9.43,27.951,27.951,0,0,1,8.692-6.519A24.532,24.532,0,0,1,30.832-58.63a24.012,24.012,0,0,1,11.111,2.583,27.906,27.906,0,0,1,8.61,6.765,31.27,31.27,0,0,1,5.535,9.471,30.7,30.7,0,0,1,1.968,10.783,30.265,30.265,0,0,1-2.091,11.152,30.638,30.638,0,0,1-5.74,9.389,27.765,27.765,0,0,1-8.651,6.478A24.532,24.532,0,0,1,30.75.41ZM9.184-29.11a27.117,27.117,0,0,0,1.558,9.143,24.877,24.877,0,0,0,4.428,7.79,21.766,21.766,0,0,0,6.806,5.412A19.017,19.017,0,0,0,30.75-4.756a18.769,18.769,0,0,0,8.938-2.132,21.794,21.794,0,0,0,6.806-5.576,25.766,25.766,0,0,0,4.305-7.79,26.7,26.7,0,0,0,1.517-8.856,26.491,26.491,0,0,0-1.6-9.143A25,25,0,0,0,46.248-46a22.035,22.035,0,0,0-6.806-5.371A18.838,18.838,0,0,0,30.75-53.38a19.067,19.067,0,0,0-8.938,2.091,21.3,21.3,0,0,0-6.806,5.535,25.766,25.766,0,0,0-4.305,7.79A26.7,26.7,0,0,0,9.184-29.11Zm93.726-18.2a17.719,17.719,0,0,0-6.56-4.51A23.953,23.953,0,0,0,87-53.546q-7.708,0-11.234,2.911a9.718,9.718,0,0,0-3.526,7.913,8.733,8.733,0,0,0,.943,4.3A8.231,8.231,0,0,0,76.1-35.506a20.4,20.4,0,0,0,5.043,2.132q3.075.9,7.257,1.8a78.88,78.88,0,0,1,8.4,2.214,24.127,24.127,0,0,1,6.355,3.075,12.754,12.754,0,0,1,4.018,4.469,13.875,13.875,0,0,1,1.394,6.56,14.734,14.734,0,0,1-1.558,6.97,13.892,13.892,0,0,1-4.346,4.92A19.382,19.382,0,0,1,96.022-.451a35.516,35.516,0,0,1-8.446.943,34.714,34.714,0,0,1-23.37-8.446l2.87-4.674a22.75,22.75,0,0,0,3.731,3.116,27.044,27.044,0,0,0,4.838,2.583,30.739,30.739,0,0,0,5.7,1.722,32.143,32.143,0,0,0,6.4.615q6.97,0,10.865-2.5a8.4,8.4,0,0,0,3.895-7.585,8.7,8.7,0,0,0-1.107-4.551,9.588,9.588,0,0,0-3.321-3.2,23.53,23.53,0,0,0-5.494-2.337q-3.28-.984-7.626-1.968-4.6-1.067-8.041-2.213a21.423,21.423,0,0,1-5.822-2.87,11.18,11.18,0,0,1-3.567-4.141A13.4,13.4,0,0,1,66.338-41.9a16.364,16.364,0,0,1,1.517-7.175,14.1,14.1,0,0,1,4.305-5.248,20.386,20.386,0,0,1,6.56-3.2,29.641,29.641,0,0,1,8.364-1.107,28.557,28.557,0,0,1,10.373,1.763,27.854,27.854,0,0,1,8.241,4.961ZM118.654,0V-58.22h5.74V-5.084h33.62V0Zm40.262-29.52a31.119,31.119,0,0,1,1.845-10.455,28.984,28.984,0,0,1,5.371-9.307,27.561,27.561,0,0,1,8.692-6.683,25.865,25.865,0,0,1,11.726-2.583,24.284,24.284,0,0,1,13.325,3.526,21.451,21.451,0,0,1,8.159,9.184l-4.51,2.788a17.227,17.227,0,0,0-3.4-4.838,18.921,18.921,0,0,0-4.3-3.2,18.193,18.193,0,0,0-4.756-1.763,22.8,22.8,0,0,0-4.838-.533,19.474,19.474,0,0,0-9.266,2.132,21.331,21.331,0,0,0-6.765,5.576,24.336,24.336,0,0,0-4.141,7.749,28.187,28.187,0,0,0-1.394,8.733,25.888,25.888,0,0,0,1.681,9.266,26.28,26.28,0,0,0,4.592,7.831,22.084,22.084,0,0,0,6.888,5.412,18.912,18.912,0,0,0,8.651,2.009,21.734,21.734,0,0,0,5.043-.615,19.436,19.436,0,0,0,5-1.968,21.051,21.051,0,0,0,4.469-3.362,17.388,17.388,0,0,0,3.444-4.879l4.756,2.46a17.8,17.8,0,0,1-3.936,5.781,25.879,25.879,0,0,1-5.658,4.223,28.2,28.2,0,0,1-6.6,2.624,27.256,27.256,0,0,1-6.847.9,23.289,23.289,0,0,1-10.988-2.624,28.816,28.816,0,0,1-8.61-6.847,31.774,31.774,0,0,1-5.617-9.594,31.018,31.018,0,0,1-2.016-10.943Z" transform="translate(287 332)" fill="#100330"/>
    <path id="Path_10" data-name="Path 10" d="M-65.655,0V-31.95h3.15V-2.79h18.45V0Zm25.6,0V-23.445h3.06V0Zm0-28.35v-4.5h3.06v4.5ZM-10.53,0h-3.06V-13.1q0-4.185-1.238-6.075a4.228,4.228,0,0,0-3.8-1.89,7.8,7.8,0,0,0-2.7.5,9.1,9.1,0,0,0-2.5,1.4,10.677,10.677,0,0,0-2.048,2.138,8.378,8.378,0,0,0-1.3,2.678V0h-3.06V-23.445h2.79v5.31a11.014,11.014,0,0,1,4.118-4.14A11.29,11.29,0,0,1-17.5-23.85a6.9,6.9,0,0,1,3.285.72,5.6,5.6,0,0,1,2.16,2.025,9.328,9.328,0,0,1,1.17,3.195,22.431,22.431,0,0,1,.36,4.185ZM12.735,0,4.1-12.015-.94-7.335V0H-4V-32.85H-.94v22.32L12.24-23.4H15.7L6.12-13.815,16.065,0Zm16.02.45a11.271,11.271,0,0,1-4.7-.968A11.524,11.524,0,0,1,20.34-3.173a12.328,12.328,0,0,1-2.452-3.892,12.66,12.66,0,0,1-.878-4.725,12.367,12.367,0,0,1,.878-4.657,12.055,12.055,0,0,1,2.43-3.825,11.533,11.533,0,0,1,3.713-2.61,11.316,11.316,0,0,1,4.68-.968,11.271,11.271,0,0,1,4.7.968A11.18,11.18,0,0,1,37.08-20.25a12.275,12.275,0,0,1,2.385,3.825,12.357,12.357,0,0,1,.855,4.59v.72a1.811,1.811,0,0,1-.045.495H20.2a9.869,9.869,0,0,0,.877,3.488A9.586,9.586,0,0,0,22.99-4.365a8.569,8.569,0,0,0,2.677,1.823,8.012,8.012,0,0,0,3.218.652,8.311,8.311,0,0,0,2.25-.315,9.1,9.1,0,0,0,2.07-.855,7.7,7.7,0,0,0,1.71-1.328A5.7,5.7,0,0,0,36.09-6.12l2.655.72a7.8,7.8,0,0,1-1.53,2.362,10.681,10.681,0,0,1-2.3,1.845A11.24,11.24,0,0,1,32.04.023,12.486,12.486,0,0,1,28.755.45ZM37.4-12.96a9.468,9.468,0,0,0-.877-3.442,9.371,9.371,0,0,0-1.89-2.678,8.359,8.359,0,0,0-2.655-1.755,8.259,8.259,0,0,0-3.218-.63,8.426,8.426,0,0,0-3.24.63,8.294,8.294,0,0,0-2.677,1.755,8.625,8.625,0,0,0-1.845,2.7,10.222,10.222,0,0,0-.833,3.42ZM54.675.45a10.1,10.1,0,0,1-4.5-1.013A11.451,11.451,0,0,1,46.62-3.24,12.314,12.314,0,0,1,44.3-7.088a12.707,12.707,0,0,1-.833-4.567,13.653,13.653,0,0,1,.81-4.7,12.563,12.563,0,0,1,2.228-3.892A10.5,10.5,0,0,1,49.88-22.88a9.565,9.565,0,0,1,4.3-.968A9.174,9.174,0,0,1,59.445-22.3a11.75,11.75,0,0,1,3.6,3.757V-32.85H66.1V-3.96q0,1.26,1.08,1.26V0A5.808,5.808,0,0,1,66.1.135a2.807,2.807,0,0,1-1.89-.7A2.151,2.151,0,0,1,63.4-2.25v-2.3A10.253,10.253,0,0,1,59.625-.9,9.917,9.917,0,0,1,54.675.45Zm.675-2.7a7.29,7.29,0,0,0,2.408-.45,9.891,9.891,0,0,0,2.408-1.238,8.29,8.29,0,0,0,1.912-1.845,4.99,4.99,0,0,0,.967-2.273V-15.3a8.044,8.044,0,0,0-1.3-2.273,10.5,10.5,0,0,0-1.957-1.868A9.2,9.2,0,0,0,57.42-20.7a7.329,7.329,0,0,0-2.475-.45,7.2,7.2,0,0,0-3.42.81,8.65,8.65,0,0,0-2.633,2.14A9.539,9.539,0,0,0,47.2-15.165a10.771,10.771,0,0,0-.585,3.51,9.716,9.716,0,0,0,.675,3.6,9.649,9.649,0,0,0,1.85,2.993,8.924,8.924,0,0,0,2.767,2.047,7.867,7.867,0,0,0,3.443.765ZM-44.055,53V21.05H-33.21a16.445,16.445,0,0,1,6.682,1.26,13.59,13.59,0,0,1,4.77,3.42,14.416,14.416,0,0,1,2.88,5.063,19.442,19.442,0,0,1,.968,6.187,19.053,19.053,0,0,1-1.08,6.592,14.3,14.3,0,0,1-3.083,5.04,13.775,13.775,0,0,1-4.815,3.24A16.6,16.6,0,0,1-33.21,53Zm23-16.02a16.5,16.5,0,0,0-.81-5.288,11.951,11.951,0,0,0-2.363-4.163,10.581,10.581,0,0,0-3.8-2.722A13,13,0,0,0-33.2,23.84h-7.7V50.21h7.7a12.769,12.769,0,0,0,5.235-1.01,10.661,10.661,0,0,0,3.8-2.79,12.1,12.1,0,0,0,2.318-4.185,16.775,16.775,0,0,0,.79-5.245Zm14.44,16.47A8.283,8.283,0,0,1-9.7,52.888a7.779,7.779,0,0,1-2.475-1.553,7.02,7.02,0,0,1-1.642-2.317A7.006,7.006,0,0,1-14.4,46.16a5.773,5.773,0,0,1,.72-2.835,6.863,6.863,0,0,1,2.025-2.25A9.915,9.915,0,0,1-8.55,39.612,14.3,14.3,0,0,1-4.59,39.1a21.629,21.629,0,0,1,3.645.315,15.8,15.8,0,0,1,3.285.9v-2.12A6.8,6.8,0,0,0,.585,33.268a6.43,6.43,0,0,0-4.86-1.823,10.328,10.328,0,0,0-3.69.72,17.8,17.8,0,0,0-3.825,2.07l-1.08-2.025a15.833,15.833,0,0,1,8.82-3.06,9.463,9.463,0,0,1,6.93,2.475,9.149,9.149,0,0,1,2.52,6.84V49.04q0,1.26,1.125,1.26V53a7.3,7.3,0,0,1-1.17.135,2.635,2.635,0,0,1-1.823-.585,2.2,2.2,0,0,1-.7-1.62l-.09-1.845a10.634,10.634,0,0,1-4.073,3.24A12.529,12.529,0,0,1-6.615,53.45Zm.72-2.34a10.579,10.579,0,0,0,4.388-.9A7.165,7.165,0,0,0,1.53,47.825a2.8,2.8,0,0,0,.608-.878,2.241,2.241,0,0,0,.2-.877V42.245a18.756,18.756,0,0,0-3.173-.9,17.76,17.76,0,0,0-3.352-.315A9.326,9.326,0,0,0-9.45,42.38a4.1,4.1,0,0,0-2.025,3.555,4.855,4.855,0,0,0,.427,2.025A5.131,5.131,0,0,0-9.877,49.6,5.479,5.479,0,0,0-8.1,50.7a6,6,0,0,0,2.2.41Zm28.98.765q-.27.135-.787.36t-1.193.45a13.959,13.959,0,0,1-1.53.4,8.721,8.721,0,0,1-1.8.18,6.542,6.542,0,0,1-1.89-.27,4.407,4.407,0,0,1-1.575-.833,4.1,4.1,0,0,1-1.08-1.417,4.577,4.577,0,0,1-.405-1.98V31.985H9.585v-2.43h3.24v-7.92h3.06v7.92h5.4v2.43h-5.4v15.93a2.43,2.43,0,0,0,.922,1.912,3.16,3.16,0,0,0,1.913.608,5.747,5.747,0,0,0,2.3-.428,10.118,10.118,0,0,0,1.26-.607Zm9.72,1.575a8.283,8.283,0,0,1-3.083-.562,7.779,7.779,0,0,1-2.475-1.553A6.993,6.993,0,0,1,25.02,46.16a5.773,5.773,0,0,1,.72-2.835,6.863,6.863,0,0,1,2.025-2.25,9.915,9.915,0,0,1,3.1-1.462,14.3,14.3,0,0,1,3.96-.517,21.629,21.629,0,0,1,3.645.315,15.8,15.8,0,0,1,3.285.9V38.195A6.8,6.8,0,0,0,40,33.268a6.43,6.43,0,0,0-4.86-1.823,10.328,10.328,0,0,0-3.69.72,17.8,17.8,0,0,0-3.825,2.07L26.55,32.21a15.833,15.833,0,0,1,8.82-3.06,9.463,9.463,0,0,1,6.93,2.475,9.149,9.149,0,0,1,2.52,6.84V49.04q0,1.26,1.125,1.26V53a7.3,7.3,0,0,1-1.17.135,2.635,2.635,0,0,1-1.823-.585,2.2,2.2,0,0,1-.7-1.62l-.09-1.845a10.634,10.634,0,0,1-4.073,3.24,12.529,12.529,0,0,1-5.284,1.125Zm.72-2.34a10.579,10.579,0,0,0,4.388-.9,7.165,7.165,0,0,0,3.037-2.385,2.8,2.8,0,0,0,.608-.878,2.241,2.241,0,0,0,.2-.877V42.245a18.756,18.756,0,0,0-3.173-.9,17.761,17.761,0,0,0-3.353-.315,9.326,9.326,0,0,0-5.265,1.35,4.1,4.1,0,0,0-2.025,3.555,4.855,4.855,0,0,0,.427,2.025,5.131,5.131,0,0,0,1.17,1.643,5.479,5.479,0,0,0,1.778,1.1,6,6,0,0,0,2.208.407Z" transform="translate(840 413)" fill="#100330"/>
    <path id="Path_11" data-name="Path 11" d="M-29.2-26.98V0h-2.622V-12.616h-16V0h-2.66V-26.98h2.66v12.008h16V-26.98Zm7.372,33.06q.3.038.589.057t.551.019a2.555,2.555,0,0,0,1.083-.19,2.013,2.013,0,0,0,.779-.836,13.616,13.616,0,0,0,.855-1.862Q-17.5,2.052-16.625,0l-8.626-19.8h2.66l7.334,17.4,6.8-17.4h2.47L-16.245,5.738a4.644,4.644,0,0,1-1.387,1.919,3.968,3.968,0,0,1-2.641.817q-.38,0-.722-.019a8.08,8.08,0,0,1-.836-.1ZM7.733.38A7.823,7.823,0,0,1,3.306-.893,10.125,10.125,0,0,1,.209-4.1V8.1H-2.375V-19.8H-.057v3.838A9.6,9.6,0,0,1,3.1-18.981,8.07,8.07,0,0,1,7.315-20.14a8.293,8.293,0,0,1,3.762.855,9.671,9.671,0,0,1,2.964,2.28A10.584,10.584,0,0,1,16-13.718a10.78,10.78,0,0,1,.7,3.838,11.972,11.972,0,0,1-.646,3.952A10.083,10.083,0,0,1,14.212-2.66a8.862,8.862,0,0,1-2.85,2.223A8.077,8.077,0,0,1,7.733.38ZM7.011-1.9a6.188,6.188,0,0,0,2.907-.684,7.23,7.23,0,0,0,2.242-1.8A8.1,8.1,0,0,0,13.585-6.93a8.928,8.928,0,0,0,.494-2.945,8.2,8.2,0,0,0-.57-3.04,8.391,8.391,0,0,0-1.558-2.546,7.4,7.4,0,0,0-2.337-1.748,6.643,6.643,0,0,0-2.907-.646,5.987,5.987,0,0,0-2.071.4A8.51,8.51,0,0,0,2.622-16.4a7.171,7.171,0,0,0-1.6,1.558A4.2,4.2,0,0,0,.2-12.961v6.08A9.086,9.086,0,0,0,1.368-4.9a8.178,8.178,0,0,0,1.6,1.577A7.644,7.644,0,0,0,4.883-2.28a6.079,6.079,0,0,0,2.128.38ZM29.621.38A9.518,9.518,0,0,1,25.65-.437a9.731,9.731,0,0,1-3.135-2.242,10.411,10.411,0,0,1-2.071-3.287,10.691,10.691,0,0,1-.741-3.99,10.443,10.443,0,0,1,.741-3.933,10.18,10.18,0,0,1,2.052-3.23,9.739,9.739,0,0,1,3.135-2.2,9.556,9.556,0,0,1,3.952-.817,9.518,9.518,0,0,1,3.971.817,9.441,9.441,0,0,1,3.1,2.223,10.366,10.366,0,0,1,2.014,3.23A10.434,10.434,0,0,1,39.39-9.99v.608a1.529,1.529,0,0,1-.038.418H22.4a8.334,8.334,0,0,0,.741,2.945,8.1,8.1,0,0,0,1.615,2.337,7.236,7.236,0,0,0,2.261,1.539,6.766,6.766,0,0,0,2.717.551,7.018,7.018,0,0,0,1.9-.266,7.681,7.681,0,0,0,1.748-.722A6.5,6.5,0,0,0,34.826-3.7a4.814,4.814,0,0,0,.988-1.463l2.242.608a6.584,6.584,0,0,1-1.292,2A9.019,9.019,0,0,1,34.826-1,9.491,9.491,0,0,1,32.4.019,10.544,10.544,0,0,1,29.621.38Zm7.3-11.324a8,8,0,0,0-.741-2.907,7.913,7.913,0,0,0-1.6-2.261,7.059,7.059,0,0,0-2.242-1.482,6.975,6.975,0,0,0-2.717-.532,7.115,7.115,0,0,0-2.736.532,7,7,0,0,0-2.261,1.482,7.283,7.283,0,0,0-1.558,2.28,8.632,8.632,0,0,0-.7,2.888Zm16.34-6.574a8.128,8.128,0,0,0-4.56,1.444,7.281,7.281,0,0,0-2.736,3.762V0H43.377V-19.8h2.432v4.75a9,9,0,0,1,2.964-3.572,6.87,6.87,0,0,1,3.99-1.292,2.6,2.6,0,0,1,.494.038ZM-22.629,45h-2.584V33.942a9.263,9.263,0,0,0-1.1-5.092,3.685,3.685,0,0,0-3.268-1.634,5.544,5.544,0,0,0-2.147.418,6.6,6.6,0,0,0-1.862,1.178,8.076,8.076,0,0,0-1.5,1.805,8.7,8.7,0,0,0-.988,2.3V45h-2.584V33.942a9.5,9.5,0,0,0-1.064-5.13A3.655,3.655,0,0,0-43,27.216a5.828,5.828,0,0,0-3.99,1.558,8.676,8.676,0,0,0-2.508,4.1V45h-2.584V25.2h2.356v4.484a9.36,9.36,0,0,1,3.192-3.553,7.9,7.9,0,0,1,4.37-1.273,5.627,5.627,0,0,1,4.009,1.406,6.121,6.121,0,0,1,1.843,3.686q2.774-5.092,7.638-5.092a6.034,6.034,0,0,1,2.831.608A4.79,4.79,0,0,1-23.978,27.2a8.1,8.1,0,0,1,1.026,2.7,17.571,17.571,0,0,1,.323,3.515Zm14.022.38a9.518,9.518,0,0,1-3.971-.817,9.731,9.731,0,0,1-3.135-2.242,10.411,10.411,0,0,1-2.071-3.287,10.691,10.691,0,0,1-.741-3.99,10.443,10.443,0,0,1,.741-3.933,10.18,10.18,0,0,1,2.052-3.23,9.739,9.739,0,0,1,3.135-2.2,9.556,9.556,0,0,1,3.952-.817,9.518,9.518,0,0,1,3.971.817,9.441,9.441,0,0,1,3.1,2.223A10.366,10.366,0,0,1,.437,31.13a10.434,10.434,0,0,1,.722,3.876v.608a1.529,1.529,0,0,1-.038.418H-15.827a8.334,8.334,0,0,0,.741,2.945,8.1,8.1,0,0,0,1.615,2.337,7.236,7.236,0,0,0,2.261,1.539,6.766,6.766,0,0,0,2.717.551,7.018,7.018,0,0,0,1.9-.266,7.681,7.681,0,0,0,1.748-.722A6.5,6.5,0,0,0-3.4,41.295a4.814,4.814,0,0,0,.988-1.463l2.242.608a6.584,6.584,0,0,1-1.292,2A9.019,9.019,0,0,1-3.4,43.993a9.491,9.491,0,0,1-2.432,1.026,10.544,10.544,0,0,1-2.775.361Zm7.3-11.324a8,8,0,0,0-.741-2.907,7.913,7.913,0,0,0-1.6-2.261A7.059,7.059,0,0,0-5.89,27.406a6.975,6.975,0,0,0-2.717-.532,7.115,7.115,0,0,0-2.736.532A7,7,0,0,0-13.6,28.888a7.283,7.283,0,0,0-1.558,2.28,8.632,8.632,0,0,0-.7,2.888ZM13.281,45.38a8.531,8.531,0,0,1-3.8-.855,9.669,9.669,0,0,1-3-2.261,10.4,10.4,0,0,1-1.957-3.249,10.731,10.731,0,0,1-.7-3.857A11.529,11.529,0,0,1,4.5,31.187,10.609,10.609,0,0,1,6.384,27.9a8.862,8.862,0,0,1,2.85-2.223,8.077,8.077,0,0,1,3.629-.817,7.747,7.747,0,0,1,4.446,1.311,9.922,9.922,0,0,1,3.04,3.173V17.26h2.584v24.4q0,1.064.912,1.064V45a4.9,4.9,0,0,1-.912.114,2.37,2.37,0,0,1-1.6-.589,1.816,1.816,0,0,1-.684-1.425V41.162a8.658,8.658,0,0,1-3.192,3.078,8.375,8.375,0,0,1-4.176,1.14Zm.57-2.28a6.156,6.156,0,0,0,2.033-.38,8.352,8.352,0,0,0,2.033-1.045,7,7,0,0,0,1.615-1.558,4.214,4.214,0,0,0,.817-1.919V32.08a6.793,6.793,0,0,0-1.1-1.919A8.869,8.869,0,0,0,17.6,28.584a7.767,7.767,0,0,0-2-1.064,6.189,6.189,0,0,0-2.09-.38,6.076,6.076,0,0,0-2.888.684,7.3,7.3,0,0,0-2.218,1.8,8.055,8.055,0,0,0-1.425,2.565,9.1,9.1,0,0,0-.494,2.964,8.3,8.3,0,0,0,2.128,5.567,7.536,7.536,0,0,0,2.337,1.729,6.643,6.643,0,0,0,2.9.646ZM28.785,45V25.2h2.584V45Zm0-23.94v-3.8h2.584v3.8ZM42.047,45.38a6.994,6.994,0,0,1-2.6-.475,6.569,6.569,0,0,1-2.09-1.311,5.9,5.9,0,0,1-1.881-4.37,4.875,4.875,0,0,1,.608-2.394,5.8,5.8,0,0,1,1.71-1.9,8.373,8.373,0,0,1,2.622-1.235,12.073,12.073,0,0,1,3.344-.437,18.264,18.264,0,0,1,3.078.266,13.341,13.341,0,0,1,2.774.76V32.5a5.746,5.746,0,0,0-1.482-4.161,5.43,5.43,0,0,0-4.1-1.539,8.721,8.721,0,0,0-3.116.608,15.028,15.028,0,0,0-3.23,1.748l-.912-1.71a13.37,13.37,0,0,1,7.448-2.584,7.991,7.991,0,0,1,5.852,2.09A7.726,7.726,0,0,1,52.2,32.728v8.93q0,1.064.95,1.064V45a6.16,6.16,0,0,1-.988.114,2.225,2.225,0,0,1-1.539-.494,1.859,1.859,0,0,1-.589-1.368l-.076-1.558a8.98,8.98,0,0,1-3.439,2.736A10.58,10.58,0,0,1,42.047,45.38Zm.608-1.976a8.934,8.934,0,0,0,3.7-.76,6.051,6.051,0,0,0,2.565-2.014,2.367,2.367,0,0,0,.513-.741,1.892,1.892,0,0,0,.171-.741v-3.23a15.838,15.838,0,0,0-2.679-.76,15,15,0,0,0-2.831-.266,7.876,7.876,0,0,0-4.446,1.14,3.465,3.465,0,0,0-1.71,3,4.1,4.1,0,0,0,.361,1.71,4.333,4.333,0,0,0,.988,1.387,4.627,4.627,0,0,0,1.5.931,5.064,5.064,0,0,0,1.863.34Z" transform="translate(522 75)" fill="#100330"/>
    <path id="Path_12" data-name="Path 12" d="M-46.81-19.041a7.131,7.131,0,0,0-2.64-1.815,9.639,9.639,0,0,0-3.762-.693,7.067,7.067,0,0,0-4.521,1.172,3.911,3.911,0,0,0-1.419,3.184,3.514,3.514,0,0,0,.38,1.733A3.312,3.312,0,0,0-57.6-14.289a8.21,8.21,0,0,0,2.029.858q1.238.363,2.921.726a31.743,31.743,0,0,1,3.382.891,9.709,9.709,0,0,1,2.558,1.237,5.133,5.133,0,0,1,1.617,1.8,5.584,5.584,0,0,1,.561,2.64,5.929,5.929,0,0,1-.627,2.8,5.591,5.591,0,0,1-1.749,1.98A7.8,7.8,0,0,1-49.582-.182a14.293,14.293,0,0,1-3.4.38,13.97,13.97,0,0,1-9.4-3.4l1.155-1.881a9.155,9.155,0,0,0,1.5,1.254A10.883,10.883,0,0,0-57.78-2.79a12.371,12.371,0,0,0,2.293.693,12.936,12.936,0,0,0,2.574.247A8.064,8.064,0,0,0-48.54-2.857,3.381,3.381,0,0,0-46.972-5.91a3.5,3.5,0,0,0-.446-1.832,3.859,3.859,0,0,0-1.336-1.287,9.469,9.469,0,0,0-2.211-.94q-1.32-.4-3.069-.792-1.848-.429-3.234-.891A8.621,8.621,0,0,1-59.614-12.8a4.5,4.5,0,0,1-1.435-1.667,5.392,5.392,0,0,1-.479-2.392,6.586,6.586,0,0,1,.611-2.887,5.673,5.673,0,0,1,1.732-2.112,8.2,8.2,0,0,1,2.64-1.287,11.929,11.929,0,0,1,3.366-.445,11.493,11.493,0,0,1,4.179.7,11.21,11.21,0,0,1,3.317,2ZM-40.474,0V-23.43h9.7a6.082,6.082,0,0,1,2.789.643,7.348,7.348,0,0,1,2.2,1.687,7.985,7.985,0,0,1,1.452,2.359,7.143,7.143,0,0,1,.528,2.673,7.965,7.965,0,0,1-.5,2.788,7.546,7.546,0,0,1-1.386,2.359,6.97,6.97,0,0,1-2.128,1.65,6.009,6.009,0,0,1-2.755.627h-7.59V0Zm2.31-10.692h7.491a3.922,3.922,0,0,0,1.865-.445,4.539,4.539,0,0,0,1.435-1.188,5.594,5.594,0,0,0,.924-1.716,6.278,6.278,0,0,0,.33-2.03,5.628,5.628,0,0,0-.379-2.062,5.6,5.6,0,0,0-1.023-1.7,4.672,4.672,0,0,0-1.518-1.139,4.243,4.243,0,0,0-1.832-.413h-7.293ZM-14.173-23.43h1.947L-2.491,0H-4.933L-7.969-7.326H-18.5L-21.5,0h-2.475ZM-8.5-9.141l-4.719-11.583L-18-9.141ZM.875,0V-23.43h9.9a6.082,6.082,0,0,1,2.788.643A7.348,7.348,0,0,1,15.758-21.1a7.718,7.718,0,0,1,1.435,2.359,7.344,7.344,0,0,1,.512,2.673,7.928,7.928,0,0,1-.38,2.458,7.6,7.6,0,0,1-1.056,2.11,6.388,6.388,0,0,1-1.633,1.584,5.776,5.776,0,0,1-2.145.874L18.233,0H15.625l-5.51-8.646H3.185V0Zm2.31-10.692h7.656a3.922,3.922,0,0,0,1.865-.445,4.448,4.448,0,0,0,1.436-1.2,5.86,5.86,0,0,0,.924-1.716,6.131,6.131,0,0,0,.33-2.013,5.539,5.539,0,0,0-.379-2.029,5.6,5.6,0,0,0-1.023-1.7,4.882,4.882,0,0,0-1.518-1.155,4.108,4.108,0,0,0-1.832-.429H3.185ZM38.264-2.079A10.986,10.986,0,0,1,35.31-.429a9.833,9.833,0,0,1-3.449.594A9.791,9.791,0,0,1,27.39-.858a11.451,11.451,0,0,1-3.481-2.673,11.953,11.953,0,0,1-2.244-3.8,12.578,12.578,0,0,1-.792-4.389,12.18,12.18,0,0,1,.842-4.488A12.372,12.372,0,0,1,24.041-20a11.249,11.249,0,0,1,3.5-2.623A9.873,9.873,0,0,1,31.9-23.6a9.664,9.664,0,0,1,4.472,1.039,11.23,11.23,0,0,1,3.465,2.723,12.584,12.584,0,0,1,2.227,3.811,12.353,12.353,0,0,1,.792,4.34A12.2,12.2,0,0,1,41.976-7.1a12.129,12.129,0,0,1-2.425,3.828L42.323,0H40.046Zm-6.4.165A7.622,7.622,0,0,0,34.6-2.393a8.864,8.864,0,0,0,2.31-1.3l-2.937-3.5H36.25L38.132-4.95A10.219,10.219,0,0,0,39.914-8.1a10.722,10.722,0,0,0,.627-3.613,10.661,10.661,0,0,0-.644-3.68,10.061,10.061,0,0,0-1.8-3.119,9.086,9.086,0,0,0-2.739-2.178,7.457,7.457,0,0,0-3.5-.825,7.673,7.673,0,0,0-3.6.842,8.573,8.573,0,0,0-2.739,2.227A10.325,10.325,0,0,0,23.793-15.3a10.887,10.887,0,0,0-.611,3.581,10.913,10.913,0,0,0,.627,3.679A10.011,10.011,0,0,0,25.592-4.9a8.76,8.76,0,0,0,2.739,2.178,7.653,7.653,0,0,0,3.531.808ZM47.14,0V-23.43h2.31V-2.046H62.98V0Z" transform="translate(71 82)" fill="#100330"/>
    <path id="Path_13" data-name="Path 13" d="M-48.317-3.382a8.288,8.288,0,0,0,2.147.988,9.672,9.672,0,0,0,2.945.418,6.349,6.349,0,0,0,3.287-.741A4.7,4.7,0,0,0-38.057-4.9a11.187,11.187,0,0,0,.836-3.553q.19-2.109.19-4.807V-26.98h2.66v13.718a50.3,50.3,0,0,1-.285,5.6,12.54,12.54,0,0,1-1.2,4.313A6.535,6.535,0,0,1-38.513-.57a9.582,9.582,0,0,1-4.712.988,10.076,10.076,0,0,1-5.852-1.672Zm36.138-18.544a8.211,8.211,0,0,0-3.04-2.09,11.1,11.1,0,0,0-4.332-.8q-3.572,0-5.206,1.349A4.5,4.5,0,0,0-26.391-19.8a4.047,4.047,0,0,0,.437,2A3.814,3.814,0,0,0-24.6-16.456a9.454,9.454,0,0,0,2.337.988q1.425.418,3.363.836A36.554,36.554,0,0,1-15-13.606a11.181,11.181,0,0,1,2.945,1.425,5.91,5.91,0,0,1,1.86,2.073,6.43,6.43,0,0,1,.646,3.04,6.828,6.828,0,0,1-.722,3.23,6.438,6.438,0,0,1-2.014,2.28A8.982,8.982,0,0,1-15.371-.209a16.459,16.459,0,0,1-3.914.437,16.087,16.087,0,0,1-10.83-3.914l1.33-2.166a10.542,10.542,0,0,0,1.729,1.444,12.532,12.532,0,0,0,2.242,1.2,14.245,14.245,0,0,0,2.641.8,14.9,14.9,0,0,0,2.964.285,9.286,9.286,0,0,0,5.035-1.159,3.893,3.893,0,0,0,1.8-3.515,4.033,4.033,0,0,0-.513-2.109,4.443,4.443,0,0,0-1.539-1.482,10.9,10.9,0,0,0-2.546-1.083q-1.52-.456-3.534-.912-2.128-.494-3.724-1.026a9.928,9.928,0,0,1-2.7-1.33,5.181,5.181,0,0,1-1.653-1.919,6.209,6.209,0,0,1-.551-2.755,7.583,7.583,0,0,1,.7-3.325,6.532,6.532,0,0,1,2-2.432,9.447,9.447,0,0,1,3.04-1.482,13.736,13.736,0,0,1,3.876-.513,13.234,13.234,0,0,1,4.807.817,12.908,12.908,0,0,1,3.819,2.3ZM5.985.19A11.427,11.427,0,0,1,.836-.969,12.8,12.8,0,0,1-3.173-4.047,14,14,0,0,1-5.757-8.436a14.484,14.484,0,0,1-.912-5.054A14.025,14.025,0,0,1-5.7-18.658a14.246,14.246,0,0,1,2.679-4.37,12.953,12.953,0,0,1,4.028-3.021A11.369,11.369,0,0,1,6.023-27.17a11.128,11.128,0,0,1,5.149,1.2,12.932,12.932,0,0,1,3.99,3.135,14.491,14.491,0,0,1,2.565,4.389,14.225,14.225,0,0,1,.912,5,14.025,14.025,0,0,1-.969,5.168,14.2,14.2,0,0,1-2.66,4.351,12.867,12.867,0,0,1-4.01,3A11.369,11.369,0,0,1,5.985.19ZM-4.009-13.49a12.566,12.566,0,0,0,.722,4.237,11.528,11.528,0,0,0,2.052,3.61A10.087,10.087,0,0,0,1.919-3.135,8.813,8.813,0,0,0,5.985-2.2a8.7,8.7,0,0,0,4.142-.988,10.1,10.1,0,0,0,3.154-2.584,11.941,11.941,0,0,0,2-3.61,12.371,12.371,0,0,0,.7-4.1,12.277,12.277,0,0,0-.741-4.237,11.585,11.585,0,0,0-2.071-3.591A10.212,10.212,0,0,0,10.015-23.8a8.73,8.73,0,0,0-4.028-.931,8.836,8.836,0,0,0-4.142.969A9.872,9.872,0,0,0-1.311-21.2a11.94,11.94,0,0,0-2,3.61,12.371,12.371,0,0,0-.7,4.1Zm30.324-8.55V0h-2.66V-26.98h2.052L43.567-4.522v-22.42h2.66V0H43.909ZM-21.28,45V18.02h2.66V42.644H-3.04V45ZM.874,45V18.02h9.158a13.887,13.887,0,0,1,5.643,1.064A11.476,11.476,0,0,1,19.7,21.972a12.174,12.174,0,0,1,2.432,4.275,16.418,16.418,0,0,1,.817,5.225,16.089,16.089,0,0,1-.912,5.567,12.076,12.076,0,0,1-2.6,4.256,11.632,11.632,0,0,1-4.066,2.736A14.02,14.02,0,0,1,10.032,45ZM20.292,31.472a13.929,13.929,0,0,0-.684-4.465,10.092,10.092,0,0,0-2-3.515,8.935,8.935,0,0,0-3.211-2.3,10.976,10.976,0,0,0-4.37-.817h-6.5V42.644h6.5a10.783,10.783,0,0,0,4.427-.855,9,9,0,0,0,3.211-2.356A10.217,10.217,0,0,0,19.627,35.9a14.166,14.166,0,0,0,.665-4.428Z" transform="translate(76 331)" fill="#100330"/>
    <path id="Path_14" data-name="Path 14" d="M-27.217-3.536A10.216,10.216,0,0,1-34.969.17a9.733,9.733,0,0,1-4.5-1.054,11.89,11.89,0,0,1-3.57-2.788A13.151,13.151,0,0,1-45.407-7.6a12.365,12.365,0,0,1-.85-4.5,13,13,0,0,1,.833-4.624,12.36,12.36,0,0,1,2.324-3.9,11.434,11.434,0,0,1,3.536-2.686,9.956,9.956,0,0,1,4.454-1,12.489,12.489,0,0,1,3.23.391,9.808,9.808,0,0,1,2.6,1.088,8.272,8.272,0,0,1,1.98,1.663,10.339,10.339,0,0,1,1.411,2.125l-1.836,1.224a7.814,7.814,0,0,0-3.094-3.3,8.765,8.765,0,0,0-4.318-1.054,7.654,7.654,0,0,0-3.621.85,8.722,8.722,0,0,0-2.754,2.261,10.342,10.342,0,0,0-1.751,3.23,11.7,11.7,0,0,0-.612,3.757,10.828,10.828,0,0,0,.7,3.876,10.27,10.27,0,0,0,1.921,3.213A9.368,9.368,0,0,0-38.381-2.79a7.976,7.976,0,0,0,3.587.816,8.558,8.558,0,0,0,3.961-.969A11.747,11.747,0,0,0-27.212-6.02v-4.01h-5.372v-1.836h7.378V0h-2.006Zm15.266-12.138a7.272,7.272,0,0,0-4.08,1.292,6.515,6.515,0,0,0-2.448,3.366V0h-2.312V-17.714h2.176v4.25a8.057,8.057,0,0,1,2.652-3.2,6.147,6.147,0,0,1,3.57-1.156,2.331,2.331,0,0,1,.442.034ZM-4.641.34A6.258,6.258,0,0,1-6.97-.085,5.878,5.878,0,0,1-8.84-1.258a5.3,5.3,0,0,1-1.241-1.751,5.294,5.294,0,0,1-.442-2.159A4.362,4.362,0,0,1-9.979-7.31a5.185,5.185,0,0,1,1.53-1.7A7.491,7.491,0,0,1-6.1-10.115a10.8,10.8,0,0,1,2.992-.391,16.342,16.342,0,0,1,2.754.238,11.937,11.937,0,0,1,2.482.68v-1.6A5.141,5.141,0,0,0,.8-14.909a4.858,4.858,0,0,0-3.672-1.377,7.8,7.8,0,0,0-2.788.544,13.446,13.446,0,0,0-2.89,1.564l-.816-1.53A11.963,11.963,0,0,1-2.7-18.02a7.15,7.15,0,0,1,5.236,1.87,6.913,6.913,0,0,1,1.9,5.168v7.99q0,.952.85.952V0A5.512,5.512,0,0,1,4.4.1,1.991,1.991,0,0,1,3.026-.34,1.663,1.663,0,0,1,2.5-1.564L2.431-2.958A8.035,8.035,0,0,1-.646-.51,9.466,9.466,0,0,1-4.641.34ZM-4.1-1.428a7.993,7.993,0,0,0,3.315-.68,5.414,5.414,0,0,0,2.3-1.8,2.118,2.118,0,0,0,.459-.663,1.693,1.693,0,0,0,.153-.663v-2.89a14.171,14.171,0,0,0-2.4-.68A13.418,13.418,0,0,0-2.8-9.044a7.047,7.047,0,0,0-3.978,1.02,3.1,3.1,0,0,0-1.53,2.686,3.669,3.669,0,0,0,.323,1.53A3.877,3.877,0,0,0-7.1-2.567a4.14,4.14,0,0,0,1.343.833A4.531,4.531,0,0,0-4.1-1.428ZM18.479.34A7,7,0,0,1,14.518-.8a9.059,9.059,0,0,1-2.771-2.873V7.242H9.435V-17.714h2.074v3.434a8.586,8.586,0,0,1,2.822-2.7A7.22,7.22,0,0,1,18.1-18.02a7.42,7.42,0,0,1,3.366.765,8.653,8.653,0,0,1,2.652,2.04,9.47,9.47,0,0,1,1.751,2.941A9.645,9.645,0,0,1,26.5-8.84a10.712,10.712,0,0,1-.575,3.54,9.022,9.022,0,0,1-1.649,2.92,7.93,7.93,0,0,1-2.55,1.989A7.227,7.227,0,0,1,18.479.34ZM17.833-1.7a5.537,5.537,0,0,0,2.6-.612A6.469,6.469,0,0,0,22.44-3.927,7.247,7.247,0,0,0,23.715-6.2a7.989,7.989,0,0,0,.442-2.635,7.341,7.341,0,0,0-.51-2.72,7.508,7.508,0,0,0-1.394-2.278A6.619,6.619,0,0,0,20.162-15.4a5.944,5.944,0,0,0-2.6-.578,5.357,5.357,0,0,0-1.853.357,7.615,7.615,0,0,0-1.8.952,6.416,6.416,0,0,0-1.428,1.394,3.755,3.755,0,0,0-.731,1.683v5.44a8.129,8.129,0,0,0,1.037,1.768,7.317,7.317,0,0,0,1.428,1.411,6.84,6.84,0,0,0,1.717.935,5.439,5.439,0,0,0,1.9.338ZM45.305,0H42.993V-9.894a7.984,7.984,0,0,0-1.037-4.522,3.466,3.466,0,0,0-3.043-1.5,5.186,5.186,0,0,0-1.955.391,7.238,7.238,0,0,0-1.819,1.071,7.36,7.36,0,0,0-1.479,1.6,6.763,6.763,0,0,0-.935,2.006V0H30.413V-24.82h2.312V-13.7a8.031,8.031,0,0,1,2.924-3.162A7.554,7.554,0,0,1,39.7-18.02a5.444,5.444,0,0,1,2.584.561A4.784,4.784,0,0,1,44.013-15.9,6.842,6.842,0,0,1,45-13.481a14.7,14.7,0,0,1,.306,3.111ZM-28.73,40V15.86h8.194a12.425,12.425,0,0,1,5.049.952,10.268,10.268,0,0,1,3.6,2.584,10.892,10.892,0,0,1,2.176,3.825A14.689,14.689,0,0,1-8.976,27.9a14.4,14.4,0,0,1-.816,4.981,10.8,10.8,0,0,1-2.329,3.808,10.408,10.408,0,0,1-3.638,2.448A12.544,12.544,0,0,1-20.536,40Zm17.374-12.1a12.463,12.463,0,0,0-.612-4,9.029,9.029,0,0,0-1.785-3.145A7.994,7.994,0,0,0-16.626,18.7a9.821,9.821,0,0,0-3.91-.731H-26.35V37.892h5.814a9.648,9.648,0,0,0,3.961-.765A8.055,8.055,0,0,0-13.7,35.019a9.142,9.142,0,0,0,1.751-3.162,12.675,12.675,0,0,0,.593-3.957Zm25.092,5.882a5.723,5.723,0,0,1-.544,2.5,6.3,6.3,0,0,1-1.462,1.972,6.6,6.6,0,0,1-2.142,1.292A7.4,7.4,0,0,1,6.97,40H-4.42V15.86H7.208a4.764,4.764,0,0,1,2.278.544,5.687,5.687,0,0,1,1.734,1.411,6.466,6.466,0,0,1,1.1,1.972,6.635,6.635,0,0,1,.391,2.227,6.332,6.332,0,0,1-.918,3.349,5.682,5.682,0,0,1-2.55,2.261A6.033,6.033,0,0,1,12.529,29.9a6.432,6.432,0,0,1,1.207,3.878Zm-2.38-.408a4.942,4.942,0,0,0-.306-1.717,4.467,4.467,0,0,0-2.193-2.482,3.571,3.571,0,0,0-1.649-.391H-2.04V37.93H6.97a4,4,0,0,0,1.717-.374,4.562,4.562,0,0,0,1.394-1,4.677,4.677,0,0,0,.935-1.462,4.5,4.5,0,0,0,.34-1.724Zm-13.4-15.44v8.908h8.3a3.7,3.7,0,0,0,1.649-.374,4.2,4.2,0,0,0,1.309-.986,4.554,4.554,0,0,0,.85-1.411,4.665,4.665,0,0,0,.306-1.683,5.156,5.156,0,0,0-.289-1.734,4.233,4.233,0,0,0-.816-1.411,4.079,4.079,0,0,0-1.241-.952,3.448,3.448,0,0,0-1.564-.357ZM23.63,40.34a12.328,12.328,0,0,1-4.046-.68,9.724,9.724,0,0,1-3.4-1.972l1.054-1.564a11.527,11.527,0,0,0,3.043,1.836,8.929,8.929,0,0,0,3.315.612,5.985,5.985,0,0,0,3.417-.867,2.806,2.806,0,0,0,1.275-2.465,2.136,2.136,0,0,0-.34-1.24,2.944,2.944,0,0,0-1-.867,7.83,7.83,0,0,0-1.666-.663q-1-.289-2.329-.6-1.53-.374-2.652-.748a8.11,8.11,0,0,1-1.853-.85A3.066,3.066,0,0,1,17.357,29.1,3.822,3.822,0,0,1,17,27.352a5.039,5.039,0,0,1,.527-2.346,4.784,4.784,0,0,1,1.428-1.683,6.487,6.487,0,0,1,2.108-1,9.428,9.428,0,0,1,2.567-.34,9.943,9.943,0,0,1,3.706.663A7.324,7.324,0,0,1,30.022,24.4L28.9,25.754a6.221,6.221,0,0,0-2.4-1.53,8.586,8.586,0,0,0-2.941-.51,7.3,7.3,0,0,0-1.7.187,4.093,4.093,0,0,0-1.377.6,2.932,2.932,0,0,0-.935,1.037,3.065,3.065,0,0,0-.34,1.479,2.435,2.435,0,0,0,.238,1.156,2.031,2.031,0,0,0,.782.765,6.369,6.369,0,0,0,1.377.578q.833.255,2.023.527,1.7.408,2.992.816a9.4,9.4,0,0,1,2.159.952,3.75,3.75,0,0,1,1.309,1.326,3.815,3.815,0,0,1,.442,1.9,4.618,4.618,0,0,1-1.87,3.876A8.09,8.09,0,0,1,23.63,40.34Z" transform="translate(1022 278)" fill="#100330"/>
    <path id="Path_15" data-name="Path 15" d="M-38.656-3.328A9.615,9.615,0,0,1-45.952.16a9.161,9.161,0,0,1-4.24-.992,11.191,11.191,0,0,1-3.36-2.624,12.377,12.377,0,0,1-2.224-3.7,11.637,11.637,0,0,1-.8-4.24,12.237,12.237,0,0,1,.784-4.352,11.633,11.633,0,0,1,2.192-3.66,10.761,10.761,0,0,1,3.328-2.528,9.371,9.371,0,0,1,4.192-.944,11.755,11.755,0,0,1,3.04.368,9.231,9.231,0,0,1,2.448,1.024,7.785,7.785,0,0,1,1.856,1.568,9.731,9.731,0,0,1,1.328,2l-1.728,1.152a7.354,7.354,0,0,0-2.912-3.1,8.249,8.249,0,0,0-4.064-.992,7.2,7.2,0,0,0-3.408.8,8.209,8.209,0,0,0-2.592,2.128A9.733,9.733,0,0,0-53.76-14.9a11.015,11.015,0,0,0-.576,3.536,10.191,10.191,0,0,0,.656,3.648,9.665,9.665,0,0,0,1.808,3.024,8.817,8.817,0,0,0,2.7,2.064A7.507,7.507,0,0,0-45.8-1.86a8.055,8.055,0,0,0,3.728-.912,11.056,11.056,0,0,0,3.408-2.9V-9.44h-5.056v-1.728h6.944V0H-38.66Zm14.368-11.424a6.845,6.845,0,0,0-3.84,1.216,6.132,6.132,0,0,0-2.3,3.168V0H-32.6V-16.672h2.048v4a7.583,7.583,0,0,1,2.5-3.008,5.785,5.785,0,0,1,3.36-1.088,2.194,2.194,0,0,1,.416.032ZM-15.008.32a8.015,8.015,0,0,1-3.344-.688,8.2,8.2,0,0,1-2.64-1.888,8.767,8.767,0,0,1-1.744-2.768,9,9,0,0,1-.624-3.36,8.794,8.794,0,0,1,.624-3.312,8.572,8.572,0,0,1,1.728-2.72,8.2,8.2,0,0,1,2.64-1.856,8.047,8.047,0,0,1,3.328-.688,8.015,8.015,0,0,1,3.344.688A7.95,7.95,0,0,1-9.088-14.4a8.729,8.729,0,0,1,1.7,2.72A8.787,8.787,0,0,1-6.78-8.416V-7.9a1.288,1.288,0,0,1-.032.352H-21.088a7.018,7.018,0,0,0,.624,2.48A6.817,6.817,0,0,0-19.1-3.1a6.093,6.093,0,0,0,1.9,1.3,5.7,5.7,0,0,0,2.288.464,5.91,5.91,0,0,0,1.6-.224,6.468,6.468,0,0,0,1.472-.608,5.475,5.475,0,0,0,1.216-.944,4.054,4.054,0,0,0,.832-1.232l1.892.5A5.544,5.544,0,0,1-8.992-2.16,7.6,7.6,0,0,1-10.624-.848a7.993,7.993,0,0,1-2.048.864,8.879,8.879,0,0,1-2.336.3Zm6.144-9.536a6.733,6.733,0,0,0-.624-2.448,6.664,6.664,0,0,0-1.344-1.9,5.944,5.944,0,0,0-1.888-1.248,5.873,5.873,0,0,0-2.288-.448,5.992,5.992,0,0,0-2.3.448,5.9,5.9,0,0,0-1.9,1.248,6.133,6.133,0,0,0-1.312,1.92,7.269,7.269,0,0,0-.592,2.432ZM21.376,0H19.2V-9.312a7.8,7.8,0,0,0-.928-4.288,3.1,3.1,0,0,0-2.752-1.376,4.669,4.669,0,0,0-1.808.352,5.559,5.559,0,0,0-1.568.992,6.8,6.8,0,0,0-1.264,1.52,7.323,7.323,0,0,0-.832,1.936V0H7.872V-9.312a8,8,0,0,0-.9-4.32A3.078,3.078,0,0,0,4.22-14.976,4.908,4.908,0,0,0,.86-13.664a7.306,7.306,0,0,0-2.112,3.456V0H-3.424V-16.672H-1.44V-12.9a7.882,7.882,0,0,1,2.688-2.992,6.655,6.655,0,0,1,3.68-1.072A4.739,4.739,0,0,1,8.3-15.776a5.155,5.155,0,0,1,1.552,3.1q2.336-4.288,6.432-4.288a5.081,5.081,0,0,1,2.384.512A4.034,4.034,0,0,1,20.236-15,6.82,6.82,0,0,1,21.1-12.72a14.8,14.8,0,0,1,.272,2.96Zm4.7-23.36h2.176V-3.776a2,2,0,0,0,.512,1.456,1.913,1.913,0,0,0,1.44.528,4.327,4.327,0,0,0,.832-.1,5.494,5.494,0,0,0,.9-.256l.384,1.76a7.183,7.183,0,0,1-1.488.416,8.673,8.673,0,0,1-1.52.16A3.235,3.235,0,0,1,26.944-.66a3.189,3.189,0,0,1-.864-2.38ZM34.688,0V-16.672h2.176V0Zm0-20.16v-3.2h2.176v3.2ZM55.68,0H53.5V-9.312a8.123,8.123,0,0,0-.88-4.32,3.007,3.007,0,0,0-2.7-1.344,5.544,5.544,0,0,0-1.92.352,6.473,6.473,0,0,0-1.776.992,7.593,7.593,0,0,0-1.456,1.52,5.958,5.958,0,0,0-.928,1.9V0H41.664V-16.672h1.984V-12.9a7.832,7.832,0,0,1,2.928-2.944,8.028,8.028,0,0,1,4.144-1.12,4.909,4.909,0,0,1,2.336.512,3.986,3.986,0,0,1,1.536,1.44,6.633,6.633,0,0,1,.832,2.272,15.951,15.951,0,0,1,.256,2.98Z" transform="translate(713 279)" fill="#100330"/>
    <path id="Path_16" data-name="Path 16" d="M-31.773,0V-24.14h10.2a6.266,6.266,0,0,1,2.873.663,7.571,7.571,0,0,1,2.261,1.734,7.951,7.951,0,0,1,1.479,2.431,7.567,7.567,0,0,1,.527,2.754,8.168,8.168,0,0,1-.391,2.533,7.831,7.831,0,0,1-1.088,2.176A6.582,6.582,0,0,1-17.6-10.217a5.951,5.951,0,0,1-2.21.9L-13.889,0h-2.686l-5.678-8.908h-7.14V0Zm2.38-11.016H-21.5a4.041,4.041,0,0,0,1.921-.459A4.582,4.582,0,0,0-18.1-12.716a6.038,6.038,0,0,0,.952-1.768,6.317,6.317,0,0,0,.34-2.074,5.707,5.707,0,0,0-.391-2.091A5.772,5.772,0,0,0-18.258-20.4a5.03,5.03,0,0,0-1.564-1.19,4.232,4.232,0,0,0-1.887-.442h-7.684ZM-2.907.34A8.516,8.516,0,0,1-6.46-.391,8.707,8.707,0,0,1-9.265-2.4a9.315,9.315,0,0,1-1.853-2.941,9.566,9.566,0,0,1-.663-3.57,9.344,9.344,0,0,1,.663-3.519,9.108,9.108,0,0,1,1.836-2.89,8.714,8.714,0,0,1,2.8-1.972,8.55,8.55,0,0,1,3.536-.731,8.516,8.516,0,0,1,3.553.731A8.447,8.447,0,0,1,3.383-15.3a9.275,9.275,0,0,1,1.8,2.89,9.336,9.336,0,0,1,.646,3.468V-8.4a1.368,1.368,0,0,1-.034.374H-9.367A7.457,7.457,0,0,0-8.7-5.389,7.243,7.243,0,0,0-7.259-3.3,6.474,6.474,0,0,0-5.236-1.921,6.054,6.054,0,0,0-2.8-1.428a6.28,6.28,0,0,0,1.7-.238A6.873,6.873,0,0,0,.459-2.312a5.817,5.817,0,0,0,1.292-1,4.307,4.307,0,0,0,.884-1.309l2.006.544A5.891,5.891,0,0,1,3.485-2.3,8.07,8.07,0,0,1,1.751-.9,8.492,8.492,0,0,1-.425.017,9.434,9.434,0,0,1-2.907.34ZM3.621-9.792a7.154,7.154,0,0,0-.663-2.6A7.08,7.08,0,0,0,1.53-14.416,6.316,6.316,0,0,0-.476-15.742a6.24,6.24,0,0,0-2.431-.476,6.366,6.366,0,0,0-2.448.476,6.267,6.267,0,0,0-2.023,1.326,6.517,6.517,0,0,0-1.394,2.04A7.723,7.723,0,0,0-9.4-9.792ZM15.283.34a12.328,12.328,0,0,1-4.046-.68,9.724,9.724,0,0,1-3.4-1.972L8.891-3.876A11.527,11.527,0,0,0,11.934-2.04a8.929,8.929,0,0,0,3.315.612A5.985,5.985,0,0,0,18.666-2.3a2.806,2.806,0,0,0,1.275-2.46A2.136,2.136,0,0,0,19.6-6a2.944,2.944,0,0,0-1-.867,7.83,7.83,0,0,0-1.666-.663q-1-.289-2.329-.6-1.53-.374-2.652-.748a8.11,8.11,0,0,1-1.853-.85A3.066,3.066,0,0,1,9.01-10.9a3.822,3.822,0,0,1-.357-1.751A5.039,5.039,0,0,1,9.18-15a4.784,4.784,0,0,1,1.428-1.683,6.487,6.487,0,0,1,2.108-1,9.428,9.428,0,0,1,2.567-.34,9.943,9.943,0,0,1,3.706.663,7.324,7.324,0,0,1,2.686,1.751l-1.122,1.36a6.221,6.221,0,0,0-2.4-1.53,8.586,8.586,0,0,0-2.941-.51,7.3,7.3,0,0,0-1.7.187,4.093,4.093,0,0,0-1.377.6,2.932,2.932,0,0,0-.935,1.037,3.065,3.065,0,0,0-.34,1.479,2.435,2.435,0,0,0,.238,1.156,2.031,2.031,0,0,0,.782.765,6.369,6.369,0,0,0,1.377.578q.833.255,2.023.527,1.7.408,2.992.816a9.4,9.4,0,0,1,2.159.952A3.75,3.75,0,0,1,21.74-6.863a3.815,3.815,0,0,1,.442,1.9,4.618,4.618,0,0,1-1.87,3.876A8.09,8.09,0,0,1,15.283.34ZM34.459-.85q-.2.1-.6.272t-.9.34A10.547,10.547,0,0,1,31.8.068,6.589,6.589,0,0,1,30.447.2,4.943,4.943,0,0,1,29.019,0a3.33,3.33,0,0,1-1.19-.629A3.1,3.1,0,0,1,27.013-1.7a3.458,3.458,0,0,1-.306-1.5V-15.878H24.259v-1.836h2.448V-23.7h2.312v5.984H33.1v1.836H29.02V-3.842a1.836,1.836,0,0,0,.7,1.445,2.388,2.388,0,0,0,1.445.459A4.342,4.342,0,0,0,32.9-2.261a7.644,7.644,0,0,0,.952-.459ZM-15.776,15.86h2.006L-3.74,40H-6.256l-3.128-7.548H-20.23L-23.324,40h-2.55Zm5.848,14.722L-14.79,18.648l-4.93,11.934ZM-.272,40V15.86h10a6.266,6.266,0,0,1,2.873.663,7.571,7.571,0,0,1,2.261,1.734,8.227,8.227,0,0,1,1.5,2.431,7.359,7.359,0,0,1,.544,2.754,8.206,8.206,0,0,1-.51,2.873,7.775,7.775,0,0,1-1.428,2.431,7.181,7.181,0,0,1-2.193,1.7,6.191,6.191,0,0,1-2.839.646H2.108V40Zm2.38-11.016H9.826a4.041,4.041,0,0,0,1.921-.459A4.676,4.676,0,0,0,13.226,27.3a5.764,5.764,0,0,0,.952-1.768,6.469,6.469,0,0,0,.34-2.091,5.873,5.873,0,0,0-1.445-3.876,4.813,4.813,0,0,0-1.564-1.173,4.372,4.372,0,0,0-1.887-.425H2.108ZM20.876,40V15.86h2.38V40Z" transform="translate(596 496)" fill="#100330"/>
    <path id="Path_17" data-name="Path 17" d="M-25.926.145a8.721,8.721,0,0,1-3.93-.885,9.768,9.768,0,0,1-3.059-2.349,10.681,10.681,0,0,1-1.972-3.35,11.053,11.053,0,0,1-.7-3.857,10.7,10.7,0,0,1,.74-3.944A10.872,10.872,0,0,1-32.8-17.574a9.885,9.885,0,0,1,3.074-2.306,8.676,8.676,0,0,1,3.828-.855,8.492,8.492,0,0,1,3.93.913,9.869,9.869,0,0,1,3.045,2.392,11.059,11.059,0,0,1,1.958,3.349,10.856,10.856,0,0,1,.7,3.814A10.7,10.7,0,0,1-17-6.323,10.835,10.835,0,0,1-19.038-3,9.819,9.819,0,0,1-22.1-.711a8.676,8.676,0,0,1-3.826.856ZM-33.553-10.3A9.59,9.59,0,0,0-33-7.062a8.8,8.8,0,0,0,1.566,2.755,7.7,7.7,0,0,0,2.407,1.914,6.726,6.726,0,0,0,3.1.711,6.638,6.638,0,0,0,3.161-.754,7.708,7.708,0,0,0,2.407-1.972,9.113,9.113,0,0,0,1.523-2.755A9.441,9.441,0,0,0-18.3-10.3a9.369,9.369,0,0,0-.565-3.234,8.841,8.841,0,0,0-1.581-2.741,7.793,7.793,0,0,0-2.407-1.9,6.662,6.662,0,0,0-3.074-.711,6.743,6.743,0,0,0-3.161.74,7.534,7.534,0,0,0-2.407,1.958,9.112,9.112,0,0,0-1.522,2.755A9.441,9.441,0,0,0-33.553-10.3ZM-5.133.29A5.97,5.97,0,0,1-8.511-.682a7.727,7.727,0,0,1-2.363-2.45V6.177h-1.972V-15.109h1.769v2.929A7.323,7.323,0,0,1-8.67-14.486a6.159,6.159,0,0,1,3.219-.884,6.329,6.329,0,0,1,2.871.652,7.381,7.381,0,0,1,2.262,1.74,8.077,8.077,0,0,1,1.493,2.509A8.227,8.227,0,0,1,1.711-7.54a9.136,9.136,0,0,1-.493,3.016A7.7,7.7,0,0,1-.188-2.03,6.763,6.763,0,0,1-2.363-.33a6.164,6.164,0,0,1-2.77.62Zm-.551-1.74a4.723,4.723,0,0,0,2.218-.522A5.518,5.518,0,0,0-1.754-3.35,6.181,6.181,0,0,0-.667-5.293,6.814,6.814,0,0,0-.29-7.54,6.261,6.261,0,0,0-.725-9.86,6.4,6.4,0,0,0-1.914-11.8,5.645,5.645,0,0,0-3.7-13.137a5.07,5.07,0,0,0-2.219-.493,4.569,4.569,0,0,0-1.58.3,6.5,6.5,0,0,0-1.537.812,5.473,5.473,0,0,0-1.218,1.189,3.2,3.2,0,0,0-.623,1.435v4.64A6.934,6.934,0,0,0-9.99-3.741a6.241,6.241,0,0,0,1.218,1.2,5.834,5.834,0,0,0,1.464.8,4.639,4.639,0,0,0,1.624.291ZM11.571.29A7.264,7.264,0,0,1,8.54-.334,7.427,7.427,0,0,1,6.148-2.045,7.945,7.945,0,0,1,4.567-4.553,8.159,8.159,0,0,1,4-7.6a7.97,7.97,0,0,1,.565-3,7.769,7.769,0,0,1,1.566-2.465,7.432,7.432,0,0,1,2.393-1.682,7.293,7.293,0,0,1,3.016-.623,7.264,7.264,0,0,1,3.031.623,7.2,7.2,0,0,1,2.363,1.7,7.911,7.911,0,0,1,1.537,2.465,7.963,7.963,0,0,1,.551,2.958v.464A1.167,1.167,0,0,1,19-6.844H6.061A6.36,6.36,0,0,0,6.626-4.6,6.178,6.178,0,0,0,7.859-2.813,5.522,5.522,0,0,0,9.584-1.639a5.163,5.163,0,0,0,2.073.421,5.356,5.356,0,0,0,1.45-.2,5.862,5.862,0,0,0,1.334-.551,4.961,4.961,0,0,0,1.1-.855,3.674,3.674,0,0,0,.759-1.12l1.711.464a5.024,5.024,0,0,1-.986,1.522A6.883,6.883,0,0,1,15.544-.769a7.243,7.243,0,0,1-1.856.783A8.046,8.046,0,0,1,11.571.29Zm5.568-8.642a6.1,6.1,0,0,0-.566-2.219A6.039,6.039,0,0,0,15.355-12.3a5.387,5.387,0,0,0-1.711-1.131,5.323,5.323,0,0,0-2.073-.406,5.43,5.43,0,0,0-2.088.406A5.345,5.345,0,0,0,7.757-12.3a5.558,5.558,0,0,0-1.189,1.74,6.587,6.587,0,0,0-.536,2.2ZM34.771,0H32.8V-8.439a7.362,7.362,0,0,0-.8-3.915,2.725,2.725,0,0,0-2.45-1.218,5.025,5.025,0,0,0-1.74.319,5.866,5.866,0,0,0-1.609.9,6.881,6.881,0,0,0-1.319,1.378,5.4,5.4,0,0,0-.841,1.726V0H22.069V-15.109h1.8v3.422a7.1,7.1,0,0,1,2.653-2.668,7.276,7.276,0,0,1,3.756-1.015,4.449,4.449,0,0,1,2.117.464,3.612,3.612,0,0,1,1.392,1.3,6.011,6.011,0,0,1,.754,2.059,14.455,14.455,0,0,1,.232,2.7ZM-13.456,13.41h1.711L-3.19,34H-5.336L-8,27.562h-9.251L-19.894,34h-2.175Zm4.988,12.557-4.147-10.179-4.2,10.179ZM-.232,34V13.41H8.294a5.345,5.345,0,0,1,2.451.566,6.457,6.457,0,0,1,1.929,1.479,7.017,7.017,0,0,1,1.276,2.073,6.277,6.277,0,0,1,.464,2.349,7,7,0,0,1-.435,2.451A6.631,6.631,0,0,1,12.76,24.4a6.125,6.125,0,0,1-1.87,1.45,5.28,5.28,0,0,1-2.421.551H1.8V34ZM1.8,24.6H8.381a3.447,3.447,0,0,0,1.639-.392,3.989,3.989,0,0,0,1.262-1.044,4.916,4.916,0,0,0,.812-1.508,5.517,5.517,0,0,0,.29-1.784,5.009,5.009,0,0,0-1.233-3.306,4.106,4.106,0,0,0-1.334-1A3.729,3.729,0,0,0,8.208,15.2H1.8ZM17.806,34V13.41h2.03V34Z" transform="translate(217 123)" fill="#100330"/>
    <path id="Path_18" data-name="Path 18" d="M-25.926.145a8.721,8.721,0,0,1-3.93-.885,9.768,9.768,0,0,1-3.059-2.349,10.681,10.681,0,0,1-1.972-3.35,11.053,11.053,0,0,1-.7-3.857,10.7,10.7,0,0,1,.74-3.944A10.872,10.872,0,0,1-32.8-17.574a9.885,9.885,0,0,1,3.074-2.306,8.676,8.676,0,0,1,3.828-.855,8.492,8.492,0,0,1,3.93.913,9.869,9.869,0,0,1,3.045,2.392,11.059,11.059,0,0,1,1.958,3.349,10.856,10.856,0,0,1,.7,3.814A10.7,10.7,0,0,1-17-6.323,10.835,10.835,0,0,1-19.038-3,9.819,9.819,0,0,1-22.1-.711a8.676,8.676,0,0,1-3.826.856ZM-33.553-10.3A9.59,9.59,0,0,0-33-7.062a8.8,8.8,0,0,0,1.566,2.755,7.7,7.7,0,0,0,2.407,1.914,6.726,6.726,0,0,0,3.1.711,6.638,6.638,0,0,0,3.161-.754,7.708,7.708,0,0,0,2.407-1.972,9.113,9.113,0,0,0,1.523-2.755A9.441,9.441,0,0,0-18.3-10.3a9.369,9.369,0,0,0-.565-3.234,8.841,8.841,0,0,0-1.581-2.741,7.793,7.793,0,0,0-2.407-1.9,6.662,6.662,0,0,0-3.074-.711,6.743,6.743,0,0,0-3.161.74,7.534,7.534,0,0,0-2.407,1.958,9.112,9.112,0,0,0-1.522,2.755A9.441,9.441,0,0,0-33.553-10.3ZM-5.133.29A5.97,5.97,0,0,1-8.511-.682a7.727,7.727,0,0,1-2.363-2.45V6.177h-1.972V-15.109h1.769v2.929A7.323,7.323,0,0,1-8.67-14.486a6.159,6.159,0,0,1,3.219-.884,6.329,6.329,0,0,1,2.871.652,7.381,7.381,0,0,1,2.262,1.74,8.077,8.077,0,0,1,1.493,2.509A8.227,8.227,0,0,1,1.711-7.54a9.136,9.136,0,0,1-.493,3.016A7.7,7.7,0,0,1-.188-2.03,6.763,6.763,0,0,1-2.363-.33a6.164,6.164,0,0,1-2.77.62Zm-.551-1.74a4.723,4.723,0,0,0,2.218-.522A5.518,5.518,0,0,0-1.754-3.35,6.181,6.181,0,0,0-.667-5.293,6.814,6.814,0,0,0-.29-7.54,6.261,6.261,0,0,0-.725-9.86,6.4,6.4,0,0,0-1.914-11.8,5.645,5.645,0,0,0-3.7-13.137a5.07,5.07,0,0,0-2.219-.493,4.569,4.569,0,0,0-1.58.3,6.5,6.5,0,0,0-1.537.812,5.473,5.473,0,0,0-1.218,1.189,3.2,3.2,0,0,0-.623,1.435v4.64A6.934,6.934,0,0,0-9.99-3.741a6.241,6.241,0,0,0,1.218,1.2,5.834,5.834,0,0,0,1.464.8,4.639,4.639,0,0,0,1.624.291ZM11.571.29A7.264,7.264,0,0,1,8.54-.334,7.427,7.427,0,0,1,6.148-2.045,7.945,7.945,0,0,1,4.567-4.553,8.159,8.159,0,0,1,4-7.6a7.97,7.97,0,0,1,.565-3,7.769,7.769,0,0,1,1.566-2.465,7.432,7.432,0,0,1,2.393-1.682,7.293,7.293,0,0,1,3.016-.623,7.264,7.264,0,0,1,3.031.623,7.2,7.2,0,0,1,2.363,1.7,7.911,7.911,0,0,1,1.537,2.465,7.963,7.963,0,0,1,.551,2.958v.464A1.167,1.167,0,0,1,19-6.844H6.061A6.36,6.36,0,0,0,6.626-4.6,6.178,6.178,0,0,0,7.859-2.813,5.522,5.522,0,0,0,9.584-1.639a5.163,5.163,0,0,0,2.073.421,5.356,5.356,0,0,0,1.45-.2,5.862,5.862,0,0,0,1.334-.551,4.961,4.961,0,0,0,1.1-.855,3.674,3.674,0,0,0,.759-1.12l1.711.464a5.024,5.024,0,0,1-.986,1.522A6.883,6.883,0,0,1,15.544-.769a7.243,7.243,0,0,1-1.856.783A8.046,8.046,0,0,1,11.571.29Zm5.568-8.642a6.1,6.1,0,0,0-.566-2.219A6.039,6.039,0,0,0,15.355-12.3a5.387,5.387,0,0,0-1.711-1.131,5.323,5.323,0,0,0-2.073-.406,5.43,5.43,0,0,0-2.088.406A5.345,5.345,0,0,0,7.757-12.3a5.558,5.558,0,0,0-1.189,1.74,6.587,6.587,0,0,0-.536,2.2ZM34.771,0H32.8V-8.439a7.362,7.362,0,0,0-.8-3.915,2.725,2.725,0,0,0-2.45-1.218,5.025,5.025,0,0,0-1.74.319,5.866,5.866,0,0,0-1.609.9,6.881,6.881,0,0,0-1.319,1.378,5.4,5.4,0,0,0-.841,1.726V0H22.069V-15.109h1.8v3.422a7.1,7.1,0,0,1,2.653-2.668,7.276,7.276,0,0,1,3.756-1.015,4.449,4.449,0,0,1,2.117.464,3.612,3.612,0,0,1,1.392,1.3,6.011,6.011,0,0,1,.754,2.059,14.455,14.455,0,0,1,.232,2.7ZM-32.538,17.267a6.266,6.266,0,0,0-2.32-1.6,8.471,8.471,0,0,0-3.306-.609,6.211,6.211,0,0,0-3.973,1.03,3.437,3.437,0,0,0-1.247,2.8,3.088,3.088,0,0,0,.333,1.523,2.911,2.911,0,0,0,1.029,1.029,7.215,7.215,0,0,0,1.784.754q1.087.319,2.567.638a27.9,27.9,0,0,1,2.972.783A8.533,8.533,0,0,1-32.451,24.7a4.511,4.511,0,0,1,1.421,1.58,4.907,4.907,0,0,1,.493,2.32,5.211,5.211,0,0,1-.551,2.465,4.913,4.913,0,0,1-1.537,1.74,6.855,6.855,0,0,1-2.349,1.029,12.56,12.56,0,0,1-2.987.333,12.277,12.277,0,0,1-8.265-2.987l1.015-1.653a8.045,8.045,0,0,0,1.319,1.1,9.564,9.564,0,0,0,1.711.913,10.871,10.871,0,0,0,2.015.609,11.368,11.368,0,0,0,2.262.217,7.087,7.087,0,0,0,3.843-.884A2.971,2.971,0,0,0-32.684,28.8a3.078,3.078,0,0,0-.391-1.61A3.391,3.391,0,0,0-34.25,26.06a8.321,8.321,0,0,0-1.943-.826q-1.16-.348-2.7-.7-1.624-.377-2.842-.783a7.577,7.577,0,0,1-2.059-1.015,3.954,3.954,0,0,1-1.261-1.464,4.738,4.738,0,0,1-.421-2.1,5.787,5.787,0,0,1,.536-2.538,4.985,4.985,0,0,1,1.523-1.856,7.21,7.21,0,0,1,2.32-1.131,10.483,10.483,0,0,1,2.958-.391,10.1,10.1,0,0,1,3.668.623,9.851,9.851,0,0,1,2.915,1.755Zm11.6,17.023a7.165,7.165,0,0,1-3.016-.624,7.412,7.412,0,0,1-2.364-1.7,7.7,7.7,0,0,1-1.552-2.494,8.19,8.19,0,0,1-.551-2.987,8.081,8.081,0,0,1,.566-3.016,7.9,7.9,0,0,1,1.566-2.494,7.6,7.6,0,0,1,2.364-1.711,6.958,6.958,0,0,1,2.987-.638,7.054,7.054,0,0,1,3,.638,7.556,7.556,0,0,1,2.378,1.711,7.9,7.9,0,0,1,1.566,2.494,8.081,8.081,0,0,1,.566,3.016,8.19,8.19,0,0,1-.551,2.987,7.7,7.7,0,0,1-1.551,2.5,7.367,7.367,0,0,1-2.378,1.7,7.264,7.264,0,0,1-3.03.62Zm-5.481-7.772a6.306,6.306,0,0,0,.435,2.364A6.415,6.415,0,0,0-24.809,30.8a5.309,5.309,0,0,0,1.74,1.29,5,5,0,0,0,2.132.464,4.878,4.878,0,0,0,2.132-.479,5.661,5.661,0,0,0,1.754-1.3,6.218,6.218,0,0,0,1.189-1.929,6.418,6.418,0,0,0,.435-2.378,6.452,6.452,0,0,0-.435-2.363,6.178,6.178,0,0,0-1.189-1.943,5.661,5.661,0,0,0-1.754-1.305,4.878,4.878,0,0,0-2.132-.479,4.785,4.785,0,0,0-2.117.479,5.611,5.611,0,0,0-1.74,1.319,6.36,6.36,0,0,0-1.189,1.958A6.532,6.532,0,0,0-26.419,26.518ZM-5.394,34.29a4.253,4.253,0,0,1-3.669-1.639,8.221,8.221,0,0,1-1.2-4.887V18.891h1.972v8.526q0,5.133,3.509,5.133a5.215,5.215,0,0,0,1.711-.29,5.376,5.376,0,0,0,1.552-.841,6.812,6.812,0,0,0,1.272-1.3A6.577,6.577,0,0,0,.667,28.4V18.891H2.639V31.448q0,.812.7.812V34a3.594,3.594,0,0,1-.566.058h-.3a1.575,1.575,0,0,1-1.131-.493A1.75,1.75,0,0,1,.9,32.318v-1.74a7.033,7.033,0,0,1-2.682,2.741,7.151,7.151,0,0,1-3.612.971ZM14.645,20.631a6.2,6.2,0,0,0-3.48,1.1A5.557,5.557,0,0,0,9.077,24.6V34H7.105V18.891H8.961v3.625a6.872,6.872,0,0,1,2.262-2.726,5.243,5.243,0,0,1,3.045-.986,1.988,1.988,0,0,1,.377.029Zm.841,5.771a8.269,8.269,0,0,1,.551-3.016,7.531,7.531,0,0,1,1.552-2.48,7.249,7.249,0,0,1,2.392-1.667,7.587,7.587,0,0,1,3.074-.609,7.049,7.049,0,0,1,3.745.97,6.24,6.24,0,0,1,2.4,2.626l-1.914.609A4.594,4.594,0,0,0,25.5,21.023a5.261,5.261,0,0,0-4.7-.188,5.51,5.51,0,0,0-1.74,1.261A5.8,5.8,0,0,0,17.9,24a6.986,6.986,0,0,0,.014,4.814,6.14,6.14,0,0,0,1.189,1.958,5.661,5.661,0,0,0,1.754,1.3A4.878,4.878,0,0,0,23,32.55a5.2,5.2,0,0,0,1.435-.2,5.545,5.545,0,0,0,1.319-.566,4.746,4.746,0,0,0,1.044-.826,2.687,2.687,0,0,0,.609-.986l1.943.58a4.943,4.943,0,0,1-.928,1.493,6.4,6.4,0,0,1-1.435,1.189,7.044,7.044,0,0,1-1.827.783,7.775,7.775,0,0,1-2.074.276,7.338,7.338,0,0,1-5.452-2.335,7.945,7.945,0,0,1-1.58-2.508,8.159,8.159,0,0,1-.568-3.05ZM38.831,34.29a7.264,7.264,0,0,1-3.03-.624,7.427,7.427,0,0,1-2.393-1.711,7.945,7.945,0,0,1-1.58-2.508,8.159,8.159,0,0,1-.566-3.045,7.97,7.97,0,0,1,.566-3,7.769,7.769,0,0,1,1.566-2.465,7.432,7.432,0,0,1,2.392-1.682,7.641,7.641,0,0,1,6.047,0,7.2,7.2,0,0,1,2.364,1.7,7.966,7.966,0,0,1,2.088,5.423v.464a1.167,1.167,0,0,1-.029.319H33.321a6.36,6.36,0,0,0,.566,2.247,6.178,6.178,0,0,0,1.232,1.784,5.522,5.522,0,0,0,1.726,1.174,5.163,5.163,0,0,0,2.073.421,5.356,5.356,0,0,0,1.45-.2,5.862,5.862,0,0,0,1.334-.551,4.961,4.961,0,0,0,1.1-.855,3.674,3.674,0,0,0,.754-1.117l1.711.464a5.024,5.024,0,0,1-.986,1.522A6.883,6.883,0,0,1,42.8,33.231a7.243,7.243,0,0,1-1.856.783A8.046,8.046,0,0,1,38.831,34.29ZM44.4,25.648a6.1,6.1,0,0,0-.566-2.218,6.039,6.039,0,0,0-1.219-1.73A5.387,5.387,0,0,0,40.9,20.573a5.323,5.323,0,0,0-2.073-.406,5.43,5.43,0,0,0-2.088.406A5.345,5.345,0,0,0,35.017,21.7a5.558,5.558,0,0,0-1.189,1.74,6.587,6.587,0,0,0-.537,2.2Z" transform="translate(191 510)" fill="#100330"/>
    <path id="Path_19" data-name="Path 19" d="M-3.712-5.307a4.881,4.881,0,0,1-.464,2.132A5.376,5.376,0,0,1-5.423-1.494,5.629,5.629,0,0,1-7.25-.391,6.307,6.307,0,0,1-9.483,0H-19.2V-20.59h9.92a4.063,4.063,0,0,1,1.943.464,4.851,4.851,0,0,1,1.479,1.2,5.516,5.516,0,0,1,.943,1.682,5.659,5.659,0,0,1,.333,1.9,5.4,5.4,0,0,1-.783,2.857A4.846,4.846,0,0,1-7.54-10.556a5.146,5.146,0,0,1,2.8,1.943A5.486,5.486,0,0,1-3.712-5.307Zm-2.03-.348A4.215,4.215,0,0,0-6-7.12a3.844,3.844,0,0,0-.74-1.247,3.846,3.846,0,0,0-1.131-.87A3.046,3.046,0,0,0-9.28-9.57h-7.888v7.8h7.685a3.411,3.411,0,0,0,1.465-.319,3.891,3.891,0,0,0,1.189-.855,3.989,3.989,0,0,0,.8-1.247A3.841,3.841,0,0,0-5.742-5.655ZM-17.168-18.821v7.6h7.076a3.159,3.159,0,0,0,1.406-.319,3.579,3.579,0,0,0,1.116-.841,3.884,3.884,0,0,0,.725-1.2,3.979,3.979,0,0,0,.261-1.436A4.4,4.4,0,0,0-6.829-16.5a3.61,3.61,0,0,0-.7-1.2,3.479,3.479,0,0,0-1.059-.812,2.941,2.941,0,0,0-1.334-.3ZM-.29,0V-15.109H1.682V0Zm0-18.27v-2.9H1.682v2.9ZM12.093.2A6.239,6.239,0,0,1,9.237-.45,7.367,7.367,0,0,1,7-2.175,7.9,7.9,0,0,1,5.539-4.64a8.112,8.112,0,0,1-.522-2.871,8.938,8.938,0,0,1,.508-3,7.729,7.729,0,0,1,1.435-2.51,7.007,7.007,0,0,1,2.219-1.711,6.356,6.356,0,0,1,2.856-.638,5.814,5.814,0,0,1,3.365.97,9.324,9.324,0,0,1,2.436,2.45v-3.161H19.6V.058a6.175,6.175,0,0,1-.594,2.77,5.954,5.954,0,0,1-1.6,2.016,6.786,6.786,0,0,1-2.349,1.218,9.857,9.857,0,0,1-2.857.406A8.315,8.315,0,0,1,8,5.539,7.413,7.413,0,0,1,5.423,3.045l1.218-.957A5.434,5.434,0,0,0,9.019,4.22a7.53,7.53,0,0,0,3.19.682A7.037,7.037,0,0,0,14.3,4.6a5.145,5.145,0,0,0,1.726-.9A4.241,4.241,0,0,0,17.2,2.19,4.908,4.908,0,0,0,17.632.058V-2.929A6.3,6.3,0,0,1,15.254-.638,6.4,6.4,0,0,1,12.093.2Zm.551-1.653a4.789,4.789,0,0,0,1.711-.319,5.728,5.728,0,0,0,1.523-.855,5.606,5.606,0,0,0,1.145-1.2,3.71,3.71,0,0,0,.609-1.363V-9.86a5.885,5.885,0,0,0-.87-1.508,6.04,6.04,0,0,0-1.247-1.189,6.294,6.294,0,0,0-1.493-.783,4.679,4.679,0,0,0-1.609-.29,4.741,4.741,0,0,0-2.276.536,5.439,5.439,0,0,0-1.7,1.406A6.256,6.256,0,0,0,7.381-9.715a7.1,7.1,0,0,0-.363,2.233,6.261,6.261,0,0,0,.435,2.32,6.078,6.078,0,0,0,1.2,1.929,5.78,5.78,0,0,0,1.783,1.3,5.1,5.1,0,0,0,2.208.483ZM-28.391,34V13.41H-21.4a10.6,10.6,0,0,1,4.306.812,8.758,8.758,0,0,1,3.074,2.2,9.291,9.291,0,0,1,1.856,3.262,12.529,12.529,0,0,1,.623,3.987,12.279,12.279,0,0,1-.7,4.249,9.216,9.216,0,0,1-1.986,3.248,8.877,8.877,0,0,1-3.1,2.088A10.7,10.7,0,0,1-21.4,34Zm14.819-10.324a10.63,10.63,0,0,0-.522-3.407,7.7,7.7,0,0,0-1.523-2.683,6.819,6.819,0,0,0-2.45-1.754,8.377,8.377,0,0,0-3.335-.623h-4.959V32.2H-21.4a8.229,8.229,0,0,0,3.378-.653,6.87,6.87,0,0,0,2.451-1.8,7.8,7.8,0,0,0,1.494-2.7,10.811,10.811,0,0,0,.505-3.371ZM-4.263,34.29a5.338,5.338,0,0,1-1.987-.362,5.013,5.013,0,0,1-1.6-1A4.524,4.524,0,0,1-8.9,31.434a4.515,4.515,0,0,1-.377-1.842,3.72,3.72,0,0,1,.464-1.827,4.423,4.423,0,0,1,1.3-1.45,6.39,6.39,0,0,1,2-.942,9.214,9.214,0,0,1,2.552-.333,13.939,13.939,0,0,1,2.349.2,10.181,10.181,0,0,1,2.117.58V24.459A4.385,4.385,0,0,0,.377,21.284a4.144,4.144,0,0,0-3.132-1.175,6.656,6.656,0,0,0-2.378.464A11.468,11.468,0,0,0-7.6,21.907l-.7-1.3A10.2,10.2,0,0,1-2.61,18.63a6.1,6.1,0,0,1,4.466,1.595A5.9,5.9,0,0,1,3.48,24.633v6.815q0,.812.725.812V34a4.7,4.7,0,0,1-.754.087,1.7,1.7,0,0,1-1.175-.377,1.418,1.418,0,0,1-.45-1.044l-.058-1.189A6.853,6.853,0,0,1-.855,33.565a8.074,8.074,0,0,1-3.408.725Zm.464-1.508A6.818,6.818,0,0,0-.971,32.2,4.618,4.618,0,0,0,.986,30.665a1.806,1.806,0,0,0,.392-.566,1.444,1.444,0,0,0,.13-.565V27.069a12.087,12.087,0,0,0-2.045-.58,11.445,11.445,0,0,0-2.161-.2,6.01,6.01,0,0,0-3.393.87A2.645,2.645,0,0,0-7.4,29.45a3.129,3.129,0,0,0,.276,1.3,3.307,3.307,0,0,0,.754,1.059,3.531,3.531,0,0,0,1.146.711,3.865,3.865,0,0,0,1.42.262Zm18.676.493q-.174.087-.507.232t-.769.29a8.994,8.994,0,0,1-.986.261,5.62,5.62,0,0,1-1.16.116A4.216,4.216,0,0,1,10.237,34a2.84,2.84,0,0,1-1.015-.536,2.641,2.641,0,0,1-.7-.914,2.949,2.949,0,0,1-.261-1.276V20.457H6.177V18.891H8.265v-5.1h1.972v5.1h3.48v1.566h-3.48V30.723a1.566,1.566,0,0,0,.6,1.233,2.037,2.037,0,0,0,1.233.392,3.7,3.7,0,0,0,1.479-.276,6.52,6.52,0,0,0,.812-.391Zm6.264,1.015a5.338,5.338,0,0,1-1.986-.362,5.013,5.013,0,0,1-1.6-1,4.506,4.506,0,0,1-1.435-3.335,3.721,3.721,0,0,1,.464-1.827,4.423,4.423,0,0,1,1.305-1.45,6.39,6.39,0,0,1,2-.942,9.214,9.214,0,0,1,2.552-.333,13.939,13.939,0,0,1,2.349.2,10.181,10.181,0,0,1,2.117.58V24.459a4.385,4.385,0,0,0-1.131-3.175,4.144,4.144,0,0,0-3.132-1.175,6.656,6.656,0,0,0-2.378.464A11.468,11.468,0,0,0,17.8,21.907L17.1,20.6a10.2,10.2,0,0,1,5.684-1.972,6.1,6.1,0,0,1,4.466,1.595,5.9,5.9,0,0,1,1.624,4.408v6.815q0,.812.725.812V34a4.7,4.7,0,0,1-.754.087,1.7,1.7,0,0,1-1.175-.377,1.418,1.418,0,0,1-.449-1.044l-.058-1.189a6.853,6.853,0,0,1-2.625,2.088,8.074,8.074,0,0,1-3.4.725Zm.464-1.508a6.818,6.818,0,0,0,2.827-.58,4.618,4.618,0,0,0,1.958-1.537,1.806,1.806,0,0,0,.391-.566,1.444,1.444,0,0,0,.131-.565V27.069a12.087,12.087,0,0,0-2.045-.58,11.445,11.445,0,0,0-2.16-.2,6.01,6.01,0,0,0-3.393.87,2.645,2.645,0,0,0-1.305,2.291,3.129,3.129,0,0,0,.275,1.3,3.307,3.307,0,0,0,.754,1.059,3.531,3.531,0,0,0,1.146.711,3.865,3.865,0,0,0,1.416.262Z" transform="translate(775 149)" fill="#100330"/>
    <path id="Path_20" data-name="Path 20" d="M16.641-3.781,1.625-10.375v-1.531L16.641-19.39v2.328l-12.219,5.8L16.641-6.141ZM29.719-22.844,21.2,0H18.609l8.516-22.844Zm1.953,16.7,12.234-5.094L31.672-17.062V-19.39l15.016,7.484v1.531L31.672-3.781Z" transform="translate(589 189)" fill="#100330"/>
  </g>
</svg>
