<svg xmlns="http://www.w3.org/2000/svg" xmlns:xlink="http://www.w3.org/1999/xlink" viewBox="7310 0 110 142"><defs><style>.a{clip-path:url(#b);}.b{fill:#efebe0;stroke:#95989a;}.c{fill:#96999b;}.d{fill:#3a3a3a;}.e,.g{fill:#418eeb;}.f{fill:#fff;font-size:27px;font-family:OpenSans-Regular, Open Sans;}.g{font-size:30px;font-family:FontAwesome;}.h{fill:rgba(255,255,255,0);}</style><clipPath id="b"><rect x="7310" width="110" height="142"/></clipPath></defs><g id="a" class="a"><rect class="h" x="7310" width="110" height="142"/><g transform="translate(6795 -2226.273)"><path class="b" d="M12072.022,6428.36v140.871h109V6450.819l-22.516-22.458Z" transform="translate(-11556.455 -4201.587)"/><path class="c" d="M12150.17,6428.361V6450.9h22.457Z" transform="translate(-11548.344 -4201.587)"/><g transform="translate(537.674 2270.62)"><g transform="translate(0)"><path class="d" d="M98.789,2.414,96.443,0,77.895,18.015,96.443,36.032l2.346-2.415-16.06-15.6Z" transform="translate(-77.895)"/></g></g><g transform="translate(602.719 2306.651) rotate(180)"><path class="d" d="M20.894,2.414,18.548,0,0,18.015,18.548,36.032l2.346-2.415-16.06-15.6Z"/></g><rect class="e" width="110" height="31" transform="translate(515 2337.273)"/><text class="f" transform="translate(532.997 2362.773)"><tspan x="0" y="0">HTML</tspan></text><text class="g" transform="translate(520 2257.773)"><tspan x="0" y="0"></tspan></text></g></g></svg>