<svg xmlns="http://www.w3.org/2000/svg" xmlns:xlink="http://www.w3.org/1999/xlink" viewBox="6380 703 340 355.5"><defs><style>.a{clip-path:url(#b);}.b{fill:#f6f6f6;}.c{fill:#eb4141;}.d{fill:#28bd84;}.e,.f,.h,.j,.l,.o{fill:#fff;}.e{font-size:32px;}.e,.f,.h,.j,.o{font-family:OpenSans-Regular, Open Sans;}.f,.k{font-size:16px;}.g{fill:none;stroke:#fff;}.h{font-size:24px;}.i{font-size:15px;}.j,.r{font-size:25px;}.m{fill:#efebe0;stroke:#95989a;}.n{fill:#96999b;}.o{font-size:10px;}.p{fill:#418eeb;}.q,.r{fill:#3a3a3a;}.r{font-family:OpenSans-Light, Open Sans;font-weight:300;}.s{fill:rgba(255,255,255,0);}</style><clipPath id="b"><rect x="6380" y="703" width="340" height="355.5"/></clipPath></defs><g id="a" class="a"><rect class="s" x="6380" y="703" width="340" height="355.5"/><g transform="translate(5590 -1207)"><path class="b" d="M110-33.393V-84.464a1.888,1.888,0,0,0-.583-1.381,1.888,1.888,0,0,0-1.381-.583H9.821a1.888,1.888,0,0,0-1.381.583,1.888,1.888,0,0,0-.583,1.381v51.071a1.888,1.888,0,0,0,.583,1.381,1.888,1.888,0,0,0,1.381.583h98.214a1.888,1.888,0,0,0,1.381-.583A1.888,1.888,0,0,0,110-33.393Zm7.857-51.071v66.786a9.457,9.457,0,0,1-2.885,6.936,9.457,9.457,0,0,1-6.936,2.885H74.643A12.938,12.938,0,0,0,75.625-3.1a45.175,45.175,0,0,0,1.964,4.358,7.011,7.011,0,0,1,.982,2.67,3.775,3.775,0,0,1-1.166,2.762,3.775,3.775,0,0,1-2.762,1.166H43.214a3.775,3.775,0,0,1-2.762-1.166,3.775,3.775,0,0,1-1.166-2.762,6.774,6.774,0,0,1,.982-2.7,43.612,43.612,0,0,0,1.964-4.3,12.846,12.846,0,0,0,.982-4.788H9.821a9.457,9.457,0,0,1-6.936-2.885A9.457,9.457,0,0,1,0-17.679V-84.464A9.457,9.457,0,0,1,2.885-91.4a9.457,9.457,0,0,1,6.936-2.885h98.214a9.457,9.457,0,0,1,6.936,2.885A9.457,9.457,0,0,1,117.857-84.464Z" transform="translate(896.881 2003.624)"/><path class="c" d="M5.429-5.429H48.857v-5.429H5.429Zm0-21.714H48.857v-5.429H5.429ZM70.741-5.259a3.926,3.926,0,0,0,1.188-2.884,3.926,3.926,0,0,0-1.187-2.884,3.926,3.926,0,0,0-2.884-1.187,3.926,3.926,0,0,0-2.884,1.188,3.926,3.926,0,0,0-1.187,2.884,3.926,3.926,0,0,0,1.187,2.884,3.926,3.926,0,0,0,2.884,1.188A3.926,3.926,0,0,0,70.741-5.259ZM5.429-48.857H48.857v-5.429H5.429ZM70.741-26.973a3.926,3.926,0,0,0,1.188-2.884,3.926,3.926,0,0,0-1.187-2.884,3.926,3.926,0,0,0-2.884-1.187,3.926,3.926,0,0,0-2.884,1.188,3.926,3.926,0,0,0-1.187,2.884,3.926,3.926,0,0,0,1.187,2.884,3.926,3.926,0,0,0,2.884,1.188A3.926,3.926,0,0,0,70.741-26.973Zm0-21.714a3.926,3.926,0,0,0,1.188-2.884,3.926,3.926,0,0,0-1.187-2.884,3.926,3.926,0,0,0-2.884-1.187,3.926,3.926,0,0,0-2.884,1.188,3.926,3.926,0,0,0-1.187,2.884,3.926,3.926,0,0,0,1.187,2.884A3.926,3.926,0,0,0,67.857-47.5,3.926,3.926,0,0,0,70.741-48.687ZM76-16.286V0H0V-16.286ZM76-38v16.286H0V-38Zm0-21.714v16.286H0V-59.714Z" transform="translate(819.449 2232.006)"/><path class="d" d="M5.429-5.429H48.857v-5.429H5.429Zm0-21.714H48.857v-5.429H5.429ZM70.741-5.259a3.926,3.926,0,0,0,1.188-2.884,3.926,3.926,0,0,0-1.187-2.884,3.926,3.926,0,0,0-2.884-1.187,3.926,3.926,0,0,0-2.884,1.188,3.926,3.926,0,0,0-1.187,2.884,3.926,3.926,0,0,0,1.187,2.884,3.926,3.926,0,0,0,2.884,1.188A3.926,3.926,0,0,0,70.741-5.259ZM5.429-48.857H48.857v-5.429H5.429ZM70.741-26.973a3.926,3.926,0,0,0,1.188-2.884,3.926,3.926,0,0,0-1.187-2.884,3.926,3.926,0,0,0-2.884-1.187,3.926,3.926,0,0,0-2.884,1.188,3.926,3.926,0,0,0-1.187,2.884,3.926,3.926,0,0,0,1.187,2.884,3.926,3.926,0,0,0,2.884,1.188A3.926,3.926,0,0,0,70.741-26.973Zm0-21.714a3.926,3.926,0,0,0,1.188-2.884,3.926,3.926,0,0,0-1.187-2.884,3.926,3.926,0,0,0-2.884-1.187,3.926,3.926,0,0,0-2.884,1.188,3.926,3.926,0,0,0-1.187,2.884,3.926,3.926,0,0,0,1.187,2.884A3.926,3.926,0,0,0,67.857-47.5,3.926,3.926,0,0,0,70.741-48.687ZM76-16.286V0H0V-16.286ZM76-38v16.286H0V-38Zm0-21.714v16.286H0V-59.714Z" transform="translate(1016.494 2232.006)"/><text class="e" transform="translate(912.951 1957.399)"><tspan x="0" y="0">Client</tspan></text><text class="f" transform="translate(856.62 2258.722)"><tspan x="-30.559" y="0">Server 1</tspan></text><text class="f" transform="translate(1053.665 2258.722)"><tspan x="-30.559" y="0">Server 2</tspan></text><line class="g" x1="25.96" y2="119.814" transform="translate(864.505 2034.983)"/><line class="g" x2="25.96" y2="119.814" transform="translate(1022.846 2034.983)"/><line class="g" y1="119.814" x2="25.96" transform="translate(892.543 2023.289)"/><line class="g" x1="25.96" y1="119.814" transform="translate(994.807 2023.289)"/><text class="h" transform="translate(953.304 2075.198)"><tspan x="-29.355" y="0">HTTP</tspan><tspan class="i"><tspan x="-28.477" y="23">Request</tspan></tspan></text><text class="j" transform="translate(1093.628 2085.021)"><tspan x="-30.579" y="0">HTTP</tspan><tspan class="k"><tspan x="-36.199" y="24">Response</tspan></tspan></text><text class="j" transform="translate(826 2085.021)"><tspan x="-30.579" y="0">HTTP</tspan><tspan class="k"><tspan x="-36.199" y="24">Response</tspan></tspan></text><path class="l" d="M0,0H15.312L7.3,15.677Z" transform="matrix(-0.985, -0.174, 0.174, -0.985, 897.809, 2036.394)"/><path class="l" d="M0,15.677H15.312L7.3,0Z" transform="matrix(0.985, -0.174, 0.174, 0.985, 1012.779, 2020.955)"/><path class="l" d="M0,0H15.312L7.3,15.677Z" transform="matrix(0.985, 0.174, -0.174, 0.985, 885.199, 2141.691)"/><path class="l" d="M0,15.677H15.312L7.3,0Z" transform="matrix(-0.985, 0.174, -0.174, -0.985, 1030.833, 2157.13)"/><g transform="translate(289 -230.273)"><path class="m" d="M12072.021,6428.36v55.861h43.223v-46.956l-8.927-8.906Z" transform="translate(-11557.021 -4201.586)"/><path class="n" d="M12150.169,6428.36v8.936h8.905Z" transform="translate(-11600.739 -4201.587)"/><rect class="c" width="44.22" height="12.5" transform="translate(514.5 2270.591)"/><text class="o" transform="translate(536.136 2280.573)"><tspan x="-9.316" y="0">RDF</tspan></text><path class="p" d="M8.938-1.964a.568.568,0,0,0-.172-.417L7.489-3.658a.568.568,0,0,0-.417-.172.585.585,0,0,0-.442.2l.117.114q.1.1.132.132a1.462,1.462,0,0,1,.092.117.494.494,0,0,1,.08.157.625.625,0,0,1,.021.169.568.568,0,0,1-.172.417.568.568,0,0,1-.417.172.625.625,0,0,1-.169-.021.494.494,0,0,1-.157-.08,1.461,1.461,0,0,1-.117-.092Q6-2.584,5.908-2.682L5.795-2.8a.6.6,0,0,0-.2.448.568.568,0,0,0,.172.417L7.028-.663A.566.566,0,0,0,7.446-.5a.591.591,0,0,0,.417-.16l.9-.9A.561.561,0,0,0,8.938-1.964ZM4.622-6.292a.568.568,0,0,0-.172-.417L3.186-7.98a.568.568,0,0,0-.417-.172.593.593,0,0,0-.417.166l-.9.9a.561.561,0,0,0-.172.411.568.568,0,0,0,.172.417L2.725-4.984a.566.566,0,0,0,.417.166.593.593,0,0,0,.442-.19l-.117-.114q-.1-.1-.132-.132a1.461,1.461,0,0,1-.092-.117.494.494,0,0,1-.08-.157A.625.625,0,0,1,3.143-5.7a.568.568,0,0,1,.172-.417.568.568,0,0,1,.417-.172.625.625,0,0,1,.169.021.494.494,0,0,1,.157.08,1.461,1.461,0,0,1,.117.092q.037.034.132.132l.114.117A.6.6,0,0,0,4.622-6.292ZM9.6-3.217a1.7,1.7,0,0,1,.516,1.252A1.675,1.675,0,0,1,9.594-.718l-.9.9A1.7,1.7,0,0,1,7.446.688,1.682,1.682,0,0,1,6.194.166L4.929-1.1A1.7,1.7,0,0,1,4.42-2.351a1.727,1.727,0,0,1,.54-1.283l-.54-.54a1.72,1.72,0,0,1-1.277.54A1.7,1.7,0,0,1,1.891-4.15L.614-5.426A1.7,1.7,0,0,1,.1-6.679,1.675,1.675,0,0,1,.62-7.925l.9-.9A1.7,1.7,0,0,1,2.768-9.33a1.682,1.682,0,0,1,1.252.522L5.285-7.538a1.7,1.7,0,0,1,.509,1.246,1.727,1.727,0,0,1-.54,1.283l.54.54a1.72,1.72,0,0,1,1.277-.54,1.7,1.7,0,0,1,1.252.516Z" transform="translate(516.983 2237.756)"/><g transform="translate(522.13 2245.893)"><g transform="translate(0)"><path class="q" d="M86.038.941,85.124,0,77.895,7.022l7.229,7.022.914-.941-6.26-6.081Z" transform="translate(-77.895)"/></g></g><g transform="translate(550.784 2259.936) rotate(180)"><path class="q" d="M8.143.941,7.229,0,0,7.022l7.229,7.022.914-.941L1.884,7.022Z"/></g><text class="r" transform="translate(536 2262.273)"><tspan x="-4.26" y="0">/</tspan></text></g><g transform="translate(557 -230.273)"><path class="m" d="M12072.021,6428.36v55.861h43.223v-46.956l-8.927-8.906Z" transform="translate(-11557.021 -4201.586)"/><path class="n" d="M12150.169,6428.36v8.936h8.905Z" transform="translate(-11600.739 -4201.587)"/><rect class="d" width="44.22" height="12.5" transform="translate(514.5 2270.591)"/><text class="o" transform="translate(536.136 2280.573)"><tspan x="-9.316" y="0">RDF</tspan></text><path class="p" d="M8.938-1.964a.568.568,0,0,0-.172-.417L7.489-3.658a.568.568,0,0,0-.417-.172.585.585,0,0,0-.442.2l.117.114q.1.1.132.132a1.462,1.462,0,0,1,.092.117.494.494,0,0,1,.08.157.625.625,0,0,1,.021.169.568.568,0,0,1-.172.417.568.568,0,0,1-.417.172.625.625,0,0,1-.169-.021.494.494,0,0,1-.157-.08,1.461,1.461,0,0,1-.117-.092Q6-2.584,5.908-2.682L5.795-2.8a.6.6,0,0,0-.2.448.568.568,0,0,0,.172.417L7.028-.663A.566.566,0,0,0,7.446-.5a.591.591,0,0,0,.417-.16l.9-.9A.561.561,0,0,0,8.938-1.964ZM4.622-6.292a.568.568,0,0,0-.172-.417L3.186-7.98a.568.568,0,0,0-.417-.172.593.593,0,0,0-.417.166l-.9.9a.561.561,0,0,0-.172.411.568.568,0,0,0,.172.417L2.725-4.984a.566.566,0,0,0,.417.166.593.593,0,0,0,.442-.19l-.117-.114q-.1-.1-.132-.132a1.461,1.461,0,0,1-.092-.117.494.494,0,0,1-.08-.157A.625.625,0,0,1,3.143-5.7a.568.568,0,0,1,.172-.417.568.568,0,0,1,.417-.172.625.625,0,0,1,.169.021.494.494,0,0,1,.157.08,1.461,1.461,0,0,1,.117.092q.037.034.132.132l.114.117A.6.6,0,0,0,4.622-6.292ZM9.6-3.217a1.7,1.7,0,0,1,.516,1.252A1.675,1.675,0,0,1,9.594-.718l-.9.9A1.7,1.7,0,0,1,7.446.688,1.682,1.682,0,0,1,6.194.166L4.929-1.1A1.7,1.7,0,0,1,4.42-2.351a1.727,1.727,0,0,1,.54-1.283l-.54-.54a1.72,1.72,0,0,1-1.277.54A1.7,1.7,0,0,1,1.891-4.15L.614-5.426A1.7,1.7,0,0,1,.1-6.679,1.675,1.675,0,0,1,.62-7.925l.9-.9A1.7,1.7,0,0,1,2.768-9.33a1.682,1.682,0,0,1,1.252.522L5.285-7.538a1.7,1.7,0,0,1,.509,1.246,1.727,1.727,0,0,1-.54,1.283l.54.54a1.72,1.72,0,0,1,1.277-.54,1.7,1.7,0,0,1,1.252.516Z" transform="translate(516.983 2237.756)"/><g transform="translate(522.13 2245.893)"><g transform="translate(0)"><path class="q" d="M86.038.941,85.124,0,77.895,7.022l7.229,7.022.914-.941-6.26-6.081Z" transform="translate(-77.895)"/></g></g><g transform="translate(550.784 2259.936) rotate(180)"><path class="q" d="M8.143.941,7.229,0,0,7.022l7.229,7.022.914-.941L1.884,7.022Z"/></g><text class="r" transform="translate(536 2262.273)"><tspan x="-4.26" y="0">/</tspan></text></g></g></g></svg>