<svg xmlns="http://www.w3.org/2000/svg" xmlns:xlink="http://www.w3.org/1999/xlink" viewBox="5970 1164 600 246"><defs><style>.a{clip-path:url(#b);}.b,.g,.l,.m{fill:#fff;}.b{font-size:22px;}.b,.g,.m{font-family:OpenSans-Regular, Open Sans;}.c{fill:#efebe0;stroke:#95989a;}.d{fill:#96999b;}.e{fill:#3a3a3a;}.f,.n{fill:#eb4141;}.g{font-size:20px;}.h,.i,.o{fill:#418eeb;}.h{font-size:23px;}.h,.n,.o,.p{font-family:FontAwesome;}.j,.p{fill:#28bd84;}.k{fill:none;stroke:#fff;stroke-width:2px;}.m{font-size:16px;}.n,.o,.p{font-size:79px;}.q{fill:rgba(255,255,255,0);}</style><clipPath id="b"><rect x="5970" y="1164" width="600" height="246"/></clipPath></defs><g id="a" class="a"><rect class="q" x="5970" y="1164" width="600" height="246"/><text class="b" transform="translate(6138.704 1264.977)"><tspan x="-21.017" y="0">Link</tspan></text><text class="b" transform="translate(6392.747 1264.977)"><tspan x="-21.017" y="0">Link</tspan></text><g transform="translate(5970 1164.5)"><path class="c" d="M12072.025,6428.36v120.381h93V6447.552l-19.213-19.191Z" transform="translate(-12071.538 -6428.36)"/><path class="d" d="M12150.171,6428.361v19.257h19.189Z" transform="translate(-12075.973 -6428.361)"/><g transform="translate(19.376 37.469)"><g transform="translate(0)"><path class="e" d="M95.75,2.063,93.745,0,77.895,15.395l15.85,15.4,2-2.064L82.025,15.395Z" transform="translate(-77.895)"/></g></g><g transform="translate(74.96 68.259) rotate(180)"><path class="e" d="M17.855,2.063,15.85,0,0,15.395l15.85,15.4,2-2.064L4.13,15.395Z"/></g><rect class="f" width="94" height="26.411" transform="translate(0 94.427)"/><text class="g" transform="translate(47.024 114.613)"><tspan x="-27.129" y="0">HTML</tspan></text><text class="h" transform="translate(4.273 24.273)"><tspan x="0" y="0"></tspan></text></g><g transform="translate(6219 1164.5)"><path class="c" d="M12072.025,6428.36v120.381h93V6447.552l-19.213-19.191Z" transform="translate(-12071.538 -6428.36)"/><path class="d" d="M12150.171,6428.361v19.257h19.189Z" transform="translate(-12075.973 -6428.361)"/><g transform="translate(19.376 37.469)"><g transform="translate(0)"><path class="e" d="M95.75,2.063,93.745,0,77.895,15.395l15.85,15.4,2-2.064L82.025,15.395Z" transform="translate(-77.895)"/></g></g><g transform="translate(74.96 68.259) rotate(180)"><path class="e" d="M17.855,2.063,15.85,0,0,15.395l15.85,15.4,2-2.064L4.13,15.395Z"/></g><rect class="i" width="94" height="26.411" transform="translate(0 94.427)"/><text class="g" transform="translate(47.024 114.613)"><tspan x="-27.129" y="0">HTML</tspan></text><text class="h" transform="translate(4.273 24.273)"><tspan x="0" y="0"></tspan></text></g><g transform="translate(6476 1164.5)"><path class="c" d="M12072.025,6428.36v120.381h93V6447.552l-19.213-19.191Z" transform="translate(-12071.538 -6428.36)"/><path class="d" d="M12150.171,6428.361v19.257h19.189Z" transform="translate(-12075.973 -6428.361)"/><g transform="translate(19.376 37.469)"><g transform="translate(0)"><path class="e" d="M95.75,2.063,93.745,0,77.895,15.395l15.85,15.4,2-2.064L82.025,15.395Z" transform="translate(-77.895)"/></g></g><g transform="translate(74.96 68.259) rotate(180)"><path class="e" d="M17.855,2.063,15.85,0,0,15.395l15.85,15.4,2-2.064L4.13,15.395Z"/></g><rect class="j" width="94" height="26.411" transform="translate(0 94.427)"/><text class="g" transform="translate(47.024 114.613)"><tspan x="-27.129" y="0">HTML</tspan></text><text class="h" transform="translate(4.273 24.273)"><tspan x="0" y="0"></tspan></text></g><line class="k" x2="103.533" transform="translate(6086.679 1224.293)"/><line class="k" x2="103.533" transform="translate(6339.445 1224.293)"/><path class="l" d="M0,0,23.459,8.774,8.975,23.258Z" transform="translate(6200.906 1224.489) rotate(135)"/><path class="l" d="M0,0,23.459,8.774,8.975,23.258Z" transform="translate(6453.673 1224.489) rotate(135)"/><text class="m" transform="translate(6011.66 1405.128)"><tspan x="-30.559" y="0">Server 1</tspan></text><text class="m" transform="translate(6262.703 1405.128)"><tspan x="-30.559" y="0">Server 2</tspan></text><text class="m" transform="translate(6519.745 1405.128)"><tspan x="-30.559" y="0">Server 3</tspan></text><text class="n" transform="translate(5975.106 1383.915)"><tspan x="0" y="0"></tspan></text><text class="o" transform="translate(6226.149 1383.915)"><tspan x="0" y="0"></tspan></text><text class="p" transform="translate(6483.192 1383.915)"><tspan x="0" y="0"></tspan></text></g></svg>