<svg xmlns="http://www.w3.org/2000/svg" xmlns:xlink="http://www.w3.org/1999/xlink" viewBox="6640 1164 600 246"><defs><style>.a{clip-path:url(#b);}.b,.d{fill:#fff;}.b{font-size:22px;font-family:OpenSans-Regular, Open Sans;}.c{fill:none;stroke:#fff;stroke-width:2px;}.e{fill:#eb4141;}.f{fill:#418eeb;}.g{fill:#28bd84;}.h{fill:#efebe0;stroke:#95989a;}.i{fill:#96999b;}.j{fill:#3a3a3a;}.k{fill:rgba(255,255,255,0);}</style><clipPath id="b"><rect x="6640" y="1164" width="600" height="246"/></clipPath></defs><g id="a" class="a"><rect class="k" x="6640" y="1164" width="600" height="246"/><text class="b" transform="translate(6808.704 1264.977)"><tspan x="-21.017" y="0">Link</tspan></text><text class="b" transform="translate(7062.747 1264.977)"><tspan x="-21.017" y="0">Link</tspan></text><line class="c" x2="103.533" transform="translate(6756.679 1224.293)"/><line class="c" x2="103.533" transform="translate(7009.445 1224.293)"/><path class="d" d="M0,0,23.459,8.774,8.975,23.258Z" transform="translate(6870.906 1224.489) rotate(135)"/><path class="d" d="M0,0,23.459,8.774,8.975,23.258Z" transform="translate(7123.673 1224.489) rotate(135)"/><path class="d" d="M-22.543-3.039A2.8,2.8,0,0,1-23.637-.687a4.743,4.743,0,0,1-2.969.844A7.436,7.436,0,0,1-29.73-.367V-1.648A8.227,8.227,0,0,0-28.2-1.18a8.056,8.056,0,0,0,1.641.172,3.31,3.31,0,0,0,2-.5,1.654,1.654,0,0,0,.672-1.4,1.8,1.8,0,0,0-.238-.973,2.214,2.214,0,0,0-.8-.7,11.148,11.148,0,0,0-1.7-.727A5.424,5.424,0,0,1-28.9-6.664,2.984,2.984,0,0,1-29.582-8.7a2.536,2.536,0,0,1,.992-2.1,4.123,4.123,0,0,1,2.625-.781,7.736,7.736,0,0,1,3.133.625L-23.246-9.8A7.08,7.08,0,0,0-26-10.4a2.661,2.661,0,0,0-1.648.453,1.493,1.493,0,0,0-.594,1.258,1.928,1.928,0,0,0,.219.973,2.06,2.06,0,0,0,.738.7,9.173,9.173,0,0,0,1.59.7,6.294,6.294,0,0,1,2.473,1.375A2.7,2.7,0,0,1-22.543-3.039Zm5.758,3.2a3.934,3.934,0,0,1-3-1.156,4.476,4.476,0,0,1-1.1-3.211A4.964,4.964,0,0,1-19.859-7.5a3.387,3.387,0,0,1,2.738-1.219A3.229,3.229,0,0,1-14.574-7.66a4.057,4.057,0,0,1,.938,2.793v.82h-5.9a3.394,3.394,0,0,0,.762,2.289,2.635,2.635,0,0,0,2.035.781A6.9,6.9,0,0,0-14-1.555V-.4a6.863,6.863,0,0,1-1.3.426A7.31,7.31,0,0,1-16.785.156Zm-.352-7.789a2.118,2.118,0,0,0-1.645.672A3.1,3.1,0,0,0-19.5-5.1h4.477a2.851,2.851,0,0,0-.547-1.879A1.925,1.925,0,0,0-17.137-7.633ZM-7.52-8.719A5.075,5.075,0,0,1-6.5-8.625l-.18,1.2a4.418,4.418,0,0,0-.937-.117A2.282,2.282,0,0,0-9.391-6.7a3.077,3.077,0,0,0-.738,2.1V0h-1.3V-8.562h1.07l.148,1.586h.063A3.764,3.764,0,0,1-9-8.266,2.585,2.585,0,0,1-7.52-8.719ZM-3.02,0-6.27-8.562h1.391l1.844,5.078A24.036,24.036,0,0,1-2.3-1.172h.063A17.467,17.467,0,0,1-1.7-2.887q.457-1.3,2.051-5.676H1.746L-1.5,0ZM6.738.156A3.934,3.934,0,0,1,3.742-1a4.476,4.476,0,0,1-1.1-3.211A4.964,4.964,0,0,1,3.664-7.5,3.387,3.387,0,0,1,6.4-8.719,3.229,3.229,0,0,1,8.949-7.66a4.057,4.057,0,0,1,.938,2.793v.82h-5.9A3.394,3.394,0,0,0,4.75-1.758a2.634,2.634,0,0,0,2.035.781A6.9,6.9,0,0,0,9.52-1.555V-.4a6.863,6.863,0,0,1-1.3.426A7.31,7.31,0,0,1,6.738.156ZM6.387-7.633a2.118,2.118,0,0,0-1.645.672A3.1,3.1,0,0,0,4.02-5.1H8.5A2.851,2.851,0,0,0,7.949-6.98,1.925,1.925,0,0,0,6.387-7.633ZM16-8.719a5.075,5.075,0,0,1,1.023.094l-.18,1.2a4.418,4.418,0,0,0-.937-.117,2.282,2.282,0,0,0-1.777.844,3.077,3.077,0,0,0-.738,2.1V0H12.1V-8.562h1.07l.148,1.586h.063a3.764,3.764,0,0,1,1.148-1.289A2.585,2.585,0,0,1,16-8.719ZM27,0H25.73V-8.141q0-1.016.063-1.922-.164.164-.367.344T23.566-8.2l-.687-.891L25.9-11.422H27Z" transform="translate(6686.659 1405.128)"/><path class="d" d="M-22.543-3.039A2.8,2.8,0,0,1-23.637-.687a4.743,4.743,0,0,1-2.969.844A7.436,7.436,0,0,1-29.73-.367V-1.648A8.227,8.227,0,0,0-28.2-1.18a8.056,8.056,0,0,0,1.641.172,3.31,3.31,0,0,0,2-.5,1.654,1.654,0,0,0,.672-1.4,1.8,1.8,0,0,0-.238-.973,2.214,2.214,0,0,0-.8-.7,11.148,11.148,0,0,0-1.7-.727A5.424,5.424,0,0,1-28.9-6.664,2.984,2.984,0,0,1-29.582-8.7a2.536,2.536,0,0,1,.992-2.1,4.123,4.123,0,0,1,2.625-.781,7.736,7.736,0,0,1,3.133.625L-23.246-9.8A7.08,7.08,0,0,0-26-10.4a2.661,2.661,0,0,0-1.648.453,1.493,1.493,0,0,0-.594,1.258,1.928,1.928,0,0,0,.219.973,2.06,2.06,0,0,0,.738.7,9.173,9.173,0,0,0,1.59.7,6.294,6.294,0,0,1,2.473,1.375A2.7,2.7,0,0,1-22.543-3.039Zm5.758,3.2a3.934,3.934,0,0,1-3-1.156,4.476,4.476,0,0,1-1.1-3.211A4.964,4.964,0,0,1-19.859-7.5a3.387,3.387,0,0,1,2.738-1.219A3.229,3.229,0,0,1-14.574-7.66a4.057,4.057,0,0,1,.938,2.793v.82h-5.9a3.394,3.394,0,0,0,.762,2.289,2.635,2.635,0,0,0,2.035.781A6.9,6.9,0,0,0-14-1.555V-.4a6.863,6.863,0,0,1-1.3.426A7.31,7.31,0,0,1-16.785.156Zm-.352-7.789a2.118,2.118,0,0,0-1.645.672A3.1,3.1,0,0,0-19.5-5.1h4.477a2.851,2.851,0,0,0-.547-1.879A1.925,1.925,0,0,0-17.137-7.633ZM-7.52-8.719A5.075,5.075,0,0,1-6.5-8.625l-.18,1.2a4.418,4.418,0,0,0-.937-.117A2.282,2.282,0,0,0-9.391-6.7a3.077,3.077,0,0,0-.738,2.1V0h-1.3V-8.562h1.07l.148,1.586h.063A3.764,3.764,0,0,1-9-8.266,2.585,2.585,0,0,1-7.52-8.719ZM-3.02,0-6.27-8.562h1.391l1.844,5.078A24.036,24.036,0,0,1-2.3-1.172h.063A17.467,17.467,0,0,1-1.7-2.887q.457-1.3,2.051-5.676H1.746L-1.5,0ZM6.738.156A3.934,3.934,0,0,1,3.742-1a4.476,4.476,0,0,1-1.1-3.211A4.964,4.964,0,0,1,3.664-7.5,3.387,3.387,0,0,1,6.4-8.719,3.229,3.229,0,0,1,8.949-7.66a4.057,4.057,0,0,1,.938,2.793v.82h-5.9A3.394,3.394,0,0,0,4.75-1.758a2.634,2.634,0,0,0,2.035.781A6.9,6.9,0,0,0,9.52-1.555V-.4a6.863,6.863,0,0,1-1.3.426A7.31,7.31,0,0,1,6.738.156ZM6.387-7.633a2.118,2.118,0,0,0-1.645.672A3.1,3.1,0,0,0,4.02-5.1H8.5A2.851,2.851,0,0,0,7.949-6.98,1.925,1.925,0,0,0,6.387-7.633ZM16-8.719a5.075,5.075,0,0,1,1.023.094l-.18,1.2a4.418,4.418,0,0,0-.937-.117,2.282,2.282,0,0,0-1.777.844,3.077,3.077,0,0,0-.738,2.1V0H12.1V-8.562h1.07l.148,1.586h.063a3.764,3.764,0,0,1,1.148-1.289A2.585,2.585,0,0,1,16-8.719ZM29.7,0H22.191V-1.117L25.2-4.141a22.149,22.149,0,0,0,1.813-1.984,5.064,5.064,0,0,0,.656-1.156,3.312,3.312,0,0,0,.219-1.211,1.92,1.92,0,0,0-.555-1.449,2.125,2.125,0,0,0-1.539-.535,3.87,3.87,0,0,0-1.348.234,5.372,5.372,0,0,0-1.418.852l-.687-.883a5.265,5.265,0,0,1,3.438-1.312,3.632,3.632,0,0,1,2.523.824,2.835,2.835,0,0,1,.914,2.215A4.277,4.277,0,0,1,28.605-6.4a13.64,13.64,0,0,1-2.281,2.688l-2.5,2.445V-1.2H29.7Z" transform="translate(6935.702 1405.128)"/><path class="d" d="M-22.543-3.039A2.8,2.8,0,0,1-23.637-.687a4.743,4.743,0,0,1-2.969.844A7.436,7.436,0,0,1-29.73-.367V-1.648A8.227,8.227,0,0,0-28.2-1.18a8.056,8.056,0,0,0,1.641.172,3.31,3.31,0,0,0,2-.5,1.654,1.654,0,0,0,.672-1.4,1.8,1.8,0,0,0-.238-.973,2.214,2.214,0,0,0-.8-.7,11.148,11.148,0,0,0-1.7-.727A5.424,5.424,0,0,1-28.9-6.664,2.984,2.984,0,0,1-29.582-8.7a2.536,2.536,0,0,1,.992-2.1,4.123,4.123,0,0,1,2.625-.781,7.736,7.736,0,0,1,3.133.625L-23.246-9.8A7.08,7.08,0,0,0-26-10.4a2.661,2.661,0,0,0-1.648.453,1.493,1.493,0,0,0-.594,1.258,1.928,1.928,0,0,0,.219.973,2.06,2.06,0,0,0,.738.7,9.173,9.173,0,0,0,1.59.7,6.294,6.294,0,0,1,2.473,1.375A2.7,2.7,0,0,1-22.543-3.039Zm5.758,3.2a3.934,3.934,0,0,1-3-1.156,4.476,4.476,0,0,1-1.1-3.211A4.964,4.964,0,0,1-19.859-7.5a3.387,3.387,0,0,1,2.738-1.219A3.229,3.229,0,0,1-14.574-7.66a4.057,4.057,0,0,1,.938,2.793v.82h-5.9a3.394,3.394,0,0,0,.762,2.289,2.635,2.635,0,0,0,2.035.781A6.9,6.9,0,0,0-14-1.555V-.4a6.863,6.863,0,0,1-1.3.426A7.31,7.31,0,0,1-16.785.156Zm-.352-7.789a2.118,2.118,0,0,0-1.645.672A3.1,3.1,0,0,0-19.5-5.1h4.477a2.851,2.851,0,0,0-.547-1.879A1.925,1.925,0,0,0-17.137-7.633ZM-7.52-8.719A5.075,5.075,0,0,1-6.5-8.625l-.18,1.2a4.418,4.418,0,0,0-.937-.117A2.282,2.282,0,0,0-9.391-6.7a3.077,3.077,0,0,0-.738,2.1V0h-1.3V-8.562h1.07l.148,1.586h.063A3.764,3.764,0,0,1-9-8.266,2.585,2.585,0,0,1-7.52-8.719ZM-3.02,0-6.27-8.562h1.391l1.844,5.078A24.036,24.036,0,0,1-2.3-1.172h.063A17.467,17.467,0,0,1-1.7-2.887q.457-1.3,2.051-5.676H1.746L-1.5,0ZM6.738.156A3.934,3.934,0,0,1,3.742-1a4.476,4.476,0,0,1-1.1-3.211A4.964,4.964,0,0,1,3.664-7.5,3.387,3.387,0,0,1,6.4-8.719,3.229,3.229,0,0,1,8.949-7.66a4.057,4.057,0,0,1,.938,2.793v.82h-5.9A3.394,3.394,0,0,0,4.75-1.758a2.634,2.634,0,0,0,2.035.781A6.9,6.9,0,0,0,9.52-1.555V-.4a6.863,6.863,0,0,1-1.3.426A7.31,7.31,0,0,1,6.738.156ZM6.387-7.633a2.118,2.118,0,0,0-1.645.672A3.1,3.1,0,0,0,4.02-5.1H8.5A2.851,2.851,0,0,0,7.949-6.98,1.925,1.925,0,0,0,6.387-7.633ZM16-8.719a5.075,5.075,0,0,1,1.023.094l-.18,1.2a4.418,4.418,0,0,0-.937-.117,2.282,2.282,0,0,0-1.777.844,3.077,3.077,0,0,0-.738,2.1V0H12.1V-8.562h1.07l.148,1.586h.063a3.764,3.764,0,0,1,1.148-1.289A2.585,2.585,0,0,1,16-8.719ZM29.27-8.734a2.6,2.6,0,0,1-.613,1.789,3.07,3.07,0,0,1-1.738.93v.063a3.269,3.269,0,0,1,2.039.875,2.575,2.575,0,0,1,.664,1.844A2.991,2.991,0,0,1,28.488-.723,5.152,5.152,0,0,1,25.27.156,9.328,9.328,0,0,1,23.609.02a5.682,5.682,0,0,1-1.465-.48V-1.7a7.123,7.123,0,0,0,1.582.559,7.165,7.165,0,0,0,1.59.191q2.961,0,2.961-2.32,0-2.078-3.266-2.078H23.887V-6.461h1.141a3.434,3.434,0,0,0,2.117-.59,1.935,1.935,0,0,0,.781-1.637A1.613,1.613,0,0,0,27.352-10a2.366,2.366,0,0,0-1.559-.477,4.809,4.809,0,0,0-1.414.2,6.328,6.328,0,0,0-1.516.75l-.656-.875a5.471,5.471,0,0,1,1.621-.871,5.892,5.892,0,0,1,1.934-.316,3.951,3.951,0,0,1,2.586.762A2.565,2.565,0,0,1,29.27-8.734Z" transform="translate(7192.745 1405.128)"/><path class="e" d="M5.643-5.643H50.786v-5.643H5.643Zm0-22.571H50.786v-5.643H5.643ZM73.533-5.467a4.081,4.081,0,0,0,1.234-3,4.081,4.081,0,0,0-1.234-3,4.081,4.081,0,0,0-3-1.234,4.081,4.081,0,0,0-3,1.234,4.081,4.081,0,0,0-1.234,3,4.081,4.081,0,0,0,1.234,3,4.081,4.081,0,0,0,3,1.234A4.081,4.081,0,0,0,73.533-5.467ZM5.643-50.786H50.786v-5.643H5.643ZM73.533-28.038a4.081,4.081,0,0,0,1.234-3,4.081,4.081,0,0,0-1.234-3,4.081,4.081,0,0,0-3-1.234,4.081,4.081,0,0,0-3,1.234,4.081,4.081,0,0,0-1.234,3,4.081,4.081,0,0,0,1.234,3,4.081,4.081,0,0,0,3,1.234A4.081,4.081,0,0,0,73.533-28.038Zm0-22.571a4.081,4.081,0,0,0,1.234-3,4.081,4.081,0,0,0-1.234-3,4.081,4.081,0,0,0-3-1.234,4.081,4.081,0,0,0-3,1.234,4.081,4.081,0,0,0-1.234,3,4.081,4.081,0,0,0,1.234,3,4.081,4.081,0,0,0,3,1.234A4.081,4.081,0,0,0,73.533-50.609ZM79-16.929V0H0V-16.929ZM79-39.5v16.929H0V-39.5Zm0-22.571v16.929H0V-62.071Z" transform="translate(6645.106 1383.915)"/><path class="f" d="M5.643-5.643H50.786v-5.643H5.643Zm0-22.571H50.786v-5.643H5.643ZM73.533-5.467a4.081,4.081,0,0,0,1.234-3,4.081,4.081,0,0,0-1.234-3,4.081,4.081,0,0,0-3-1.234,4.081,4.081,0,0,0-3,1.234,4.081,4.081,0,0,0-1.234,3,4.081,4.081,0,0,0,1.234,3,4.081,4.081,0,0,0,3,1.234A4.081,4.081,0,0,0,73.533-5.467ZM5.643-50.786H50.786v-5.643H5.643ZM73.533-28.038a4.081,4.081,0,0,0,1.234-3,4.081,4.081,0,0,0-1.234-3,4.081,4.081,0,0,0-3-1.234,4.081,4.081,0,0,0-3,1.234,4.081,4.081,0,0,0-1.234,3,4.081,4.081,0,0,0,1.234,3,4.081,4.081,0,0,0,3,1.234A4.081,4.081,0,0,0,73.533-28.038Zm0-22.571a4.081,4.081,0,0,0,1.234-3,4.081,4.081,0,0,0-1.234-3,4.081,4.081,0,0,0-3-1.234,4.081,4.081,0,0,0-3,1.234,4.081,4.081,0,0,0-1.234,3,4.081,4.081,0,0,0,1.234,3,4.081,4.081,0,0,0,3,1.234A4.081,4.081,0,0,0,73.533-50.609ZM79-16.929V0H0V-16.929ZM79-39.5v16.929H0V-39.5Zm0-22.571v16.929H0V-62.071Z" transform="translate(6896.149 1383.915)"/><path class="g" d="M5.643-5.643H50.786v-5.643H5.643Zm0-22.571H50.786v-5.643H5.643ZM73.533-5.467a4.081,4.081,0,0,0,1.234-3,4.081,4.081,0,0,0-1.234-3,4.081,4.081,0,0,0-3-1.234,4.081,4.081,0,0,0-3,1.234,4.081,4.081,0,0,0-1.234,3,4.081,4.081,0,0,0,1.234,3,4.081,4.081,0,0,0,3,1.234A4.081,4.081,0,0,0,73.533-5.467ZM5.643-50.786H50.786v-5.643H5.643ZM73.533-28.038a4.081,4.081,0,0,0,1.234-3,4.081,4.081,0,0,0-1.234-3,4.081,4.081,0,0,0-3-1.234,4.081,4.081,0,0,0-3,1.234,4.081,4.081,0,0,0-1.234,3,4.081,4.081,0,0,0,1.234,3,4.081,4.081,0,0,0,3,1.234A4.081,4.081,0,0,0,73.533-28.038Zm0-22.571a4.081,4.081,0,0,0,1.234-3,4.081,4.081,0,0,0-1.234-3,4.081,4.081,0,0,0-3-1.234,4.081,4.081,0,0,0-3,1.234,4.081,4.081,0,0,0-1.234,3,4.081,4.081,0,0,0,1.234,3,4.081,4.081,0,0,0,3,1.234A4.081,4.081,0,0,0,73.533-50.609ZM79-16.929V0H0V-16.929ZM79-39.5v16.929H0V-39.5Zm0-22.571v16.929H0V-62.071Z" transform="translate(7153.192 1383.915)"/><g transform="translate(6213.5 -1099.5)"><path class="h" d="M12072.023,6428.364v119.4h92.136V6447.4l-19.034-19.034Z" transform="translate(-11138.101 -4164.364)"/><path class="i" d="M12150.169,6428.364v19.467h19.469Z" transform="translate(-11143.138 -4164.364)"/><rect class="g" width="92.981" height="26.204" transform="translate(933.5 2357.826)"/><path class="d" d="M-16.511-6.531V0h-1.826V-15.705h4.308A6.778,6.778,0,0,1-9.759-14.6a4.012,4.012,0,0,1,1.38,3.33,4.171,4.171,0,0,1-3.158,4.211L-7.272,0H-9.432l-3.8-6.531Zm0-1.568h2.5a4.322,4.322,0,0,0,2.836-.768,2.858,2.858,0,0,0,.9-2.3,2.622,2.622,0,0,0-.918-2.245,4.976,4.976,0,0,0-2.949-.687h-2.374ZM7.8-8A7.929,7.929,0,0,1,5.688-2.057,8.352,8.352,0,0,1-.387,0H-4.737V-15.705H.075a7.7,7.7,0,0,1,5.693,2.03A7.667,7.667,0,0,1,7.8-8Zm-1.934.064a6.323,6.323,0,0,0-1.542-4.63A6.178,6.178,0,0,0-.258-14.126H-2.911V-1.579H-.687A6.761,6.761,0,0,0,4.222-3.185,6.359,6.359,0,0,0,5.865-7.938ZM13.127,0H11.3V-15.705h8.755v1.622H13.127v5.747h6.51v1.622h-6.51Z" transform="translate(979.981 2379.29)"/><g transform="translate(947.98 2301.163)"><g transform="translate(0)"><path class="j" d="M95.6,2.046,93.616,0,77.9,15.269,93.616,30.54,95.6,28.493,81.992,15.269Z" transform="translate(-77.895)"/></g></g><g transform="translate(1012.466 2331.703) rotate(180)"><path class="j" d="M17.709,2.046,15.721,0,0,15.269,15.721,30.54l1.988-2.047L4.1,15.269Z"/></g><path class="j" d="M7.617-34.266-5.156,0H-7.594L5.156-34.266Z" transform="translate(979.5 2333.5)"/><path class="f" d="M20.313-4.464a1.292,1.292,0,0,0-.391-.949l-2.9-2.9a1.292,1.292,0,0,0-.949-.391,1.329,1.329,0,0,0-1,.446L15.332-8q.223.216.3.3a3.322,3.322,0,0,1,.209.265,1.122,1.122,0,0,1,.181.356,1.42,1.42,0,0,1,.049.384,1.292,1.292,0,0,1-.391.949,1.292,1.292,0,0,1-.949.391,1.42,1.42,0,0,1-.384-.049,1.122,1.122,0,0,1-.356-.181,3.321,3.321,0,0,1-.265-.209q-.084-.077-.3-.3l-.258-.265a1.354,1.354,0,0,0-.46,1.018,1.292,1.292,0,0,0,.391.949l2.874,2.888a1.286,1.286,0,0,0,.949.377,1.344,1.344,0,0,0,.949-.363L19.922-3.53A1.275,1.275,0,0,0,20.313-4.464ZM10.505-14.3a1.292,1.292,0,0,0-.391-.949L7.241-18.136a1.292,1.292,0,0,0-.949-.391,1.347,1.347,0,0,0-.949.377L3.292-16.113a1.275,1.275,0,0,0-.391.935,1.292,1.292,0,0,0,.391.949l2.9,2.9a1.286,1.286,0,0,0,.949.377,1.348,1.348,0,0,0,1-.432l-.265-.258q-.223-.216-.3-.3a3.322,3.322,0,0,1-.209-.265,1.122,1.122,0,0,1-.181-.356,1.42,1.42,0,0,1-.049-.384,1.292,1.292,0,0,1,.391-.949,1.292,1.292,0,0,1,.949-.391,1.42,1.42,0,0,1,.384.049,1.122,1.122,0,0,1,.356.181,3.321,3.321,0,0,1,.265.209q.084.077.3.3l.258.265A1.354,1.354,0,0,0,10.505-14.3ZM21.819-7.31a3.875,3.875,0,0,1,1.172,2.846,3.806,3.806,0,0,1-1.186,2.832L19.754.4a3.852,3.852,0,0,1-2.832,1.158A3.822,3.822,0,0,1,14.076.377L11.2-2.511a3.852,3.852,0,0,1-1.158-2.832,3.924,3.924,0,0,1,1.228-2.916L10.045-9.487a3.908,3.908,0,0,1-2.9,1.228A3.875,3.875,0,0,1,4.3-9.431l-2.9-2.9A3.875,3.875,0,0,1,.223-15.179a3.806,3.806,0,0,1,1.186-2.832L3.46-20.047a3.852,3.852,0,0,1,2.832-1.158A3.823,3.823,0,0,1,9.138-20.02l2.874,2.888A3.852,3.852,0,0,1,13.17-14.3a3.924,3.924,0,0,1-1.228,2.916l1.228,1.228a3.908,3.908,0,0,1,2.9-1.228,3.875,3.875,0,0,1,2.846,1.172Z" transform="translate(937.282 2288.92)"/></g><g transform="translate(5955.5 -1099.5)"><path class="h" d="M12072.023,6428.364v119.4h92.136V6447.4l-19.034-19.034Z" transform="translate(-11138.101 -4164.364)"/><path class="i" d="M12150.169,6428.364v19.467h19.469Z" transform="translate(-11143.138 -4164.364)"/><rect class="f" width="92.981" height="26.204" transform="translate(933.5 2357.826)"/><path class="d" d="M-16.511-6.531V0h-1.826V-15.705h4.308A6.778,6.778,0,0,1-9.759-14.6a4.012,4.012,0,0,1,1.38,3.33,4.171,4.171,0,0,1-3.158,4.211L-7.272,0H-9.432l-3.8-6.531Zm0-1.568h2.5a4.322,4.322,0,0,0,2.836-.768,2.858,2.858,0,0,0,.9-2.3,2.622,2.622,0,0,0-.918-2.245,4.976,4.976,0,0,0-2.949-.687h-2.374ZM7.8-8A7.929,7.929,0,0,1,5.688-2.057,8.352,8.352,0,0,1-.387,0H-4.737V-15.705H.075a7.7,7.7,0,0,1,5.693,2.03A7.667,7.667,0,0,1,7.8-8Zm-1.934.064a6.323,6.323,0,0,0-1.542-4.63A6.178,6.178,0,0,0-.258-14.126H-2.911V-1.579H-.687A6.761,6.761,0,0,0,4.222-3.185,6.359,6.359,0,0,0,5.865-7.938ZM13.127,0H11.3V-15.705h8.755v1.622H13.127v5.747h6.51v1.622h-6.51Z" transform="translate(979.981 2379.29)"/><g transform="translate(947.98 2301.163)"><g transform="translate(0)"><path class="j" d="M95.6,2.046,93.616,0,77.9,15.269,93.616,30.54,95.6,28.493,81.992,15.269Z" transform="translate(-77.895)"/></g></g><g transform="translate(1012.466 2331.703) rotate(180)"><path class="j" d="M17.709,2.046,15.721,0,0,15.269,15.721,30.54l1.988-2.047L4.1,15.269Z"/></g><path class="j" d="M7.617-34.266-5.156,0H-7.594L5.156-34.266Z" transform="translate(979.5 2333.5)"/><path class="f" d="M20.313-4.464a1.292,1.292,0,0,0-.391-.949l-2.9-2.9a1.292,1.292,0,0,0-.949-.391,1.329,1.329,0,0,0-1,.446L15.332-8q.223.216.3.3a3.322,3.322,0,0,1,.209.265,1.122,1.122,0,0,1,.181.356,1.42,1.42,0,0,1,.049.384,1.292,1.292,0,0,1-.391.949,1.292,1.292,0,0,1-.949.391,1.42,1.42,0,0,1-.384-.049,1.122,1.122,0,0,1-.356-.181,3.321,3.321,0,0,1-.265-.209q-.084-.077-.3-.3l-.258-.265a1.354,1.354,0,0,0-.46,1.018,1.292,1.292,0,0,0,.391.949l2.874,2.888a1.286,1.286,0,0,0,.949.377,1.344,1.344,0,0,0,.949-.363L19.922-3.53A1.275,1.275,0,0,0,20.313-4.464ZM10.505-14.3a1.292,1.292,0,0,0-.391-.949L7.241-18.136a1.292,1.292,0,0,0-.949-.391,1.347,1.347,0,0,0-.949.377L3.292-16.113a1.275,1.275,0,0,0-.391.935,1.292,1.292,0,0,0,.391.949l2.9,2.9a1.286,1.286,0,0,0,.949.377,1.348,1.348,0,0,0,1-.432l-.265-.258q-.223-.216-.3-.3a3.322,3.322,0,0,1-.209-.265,1.122,1.122,0,0,1-.181-.356,1.42,1.42,0,0,1-.049-.384,1.292,1.292,0,0,1,.391-.949,1.292,1.292,0,0,1,.949-.391,1.42,1.42,0,0,1,.384.049,1.122,1.122,0,0,1,.356.181,3.321,3.321,0,0,1,.265.209q.084.077.3.3l.258.265A1.354,1.354,0,0,0,10.505-14.3ZM21.819-7.31a3.875,3.875,0,0,1,1.172,2.846,3.806,3.806,0,0,1-1.186,2.832L19.754.4a3.852,3.852,0,0,1-2.832,1.158A3.822,3.822,0,0,1,14.076.377L11.2-2.511a3.852,3.852,0,0,1-1.158-2.832,3.924,3.924,0,0,1,1.228-2.916L10.045-9.487a3.908,3.908,0,0,1-2.9,1.228A3.875,3.875,0,0,1,4.3-9.431l-2.9-2.9A3.875,3.875,0,0,1,.223-15.179a3.806,3.806,0,0,1,1.186-2.832L3.46-20.047a3.852,3.852,0,0,1,2.832-1.158A3.823,3.823,0,0,1,9.138-20.02l2.874,2.888A3.852,3.852,0,0,1,13.17-14.3a3.924,3.924,0,0,1-1.228,2.916l1.228,1.228a3.908,3.908,0,0,1,2.9-1.228,3.875,3.875,0,0,1,2.846,1.172Z" transform="translate(937.282 2288.92)"/></g><g transform="translate(5706.5 -1099.5)"><path class="h" d="M12072.023,6428.364v119.4h92.136V6447.4l-19.034-19.034Z" transform="translate(-11138.101 -4164.364)"/><path class="i" d="M12150.169,6428.364v19.467h19.469Z" transform="translate(-11143.138 -4164.364)"/><rect class="e" width="92.981" height="26.204" transform="translate(933.5 2357.826)"/><path class="d" d="M-16.511-6.531V0h-1.826V-15.705h4.308A6.778,6.778,0,0,1-9.759-14.6a4.012,4.012,0,0,1,1.38,3.33,4.171,4.171,0,0,1-3.158,4.211L-7.272,0H-9.432l-3.8-6.531Zm0-1.568h2.5a4.322,4.322,0,0,0,2.836-.768,2.858,2.858,0,0,0,.9-2.3,2.622,2.622,0,0,0-.918-2.245,4.976,4.976,0,0,0-2.949-.687h-2.374ZM7.8-8A7.929,7.929,0,0,1,5.688-2.057,8.352,8.352,0,0,1-.387,0H-4.737V-15.705H.075a7.7,7.7,0,0,1,5.693,2.03A7.667,7.667,0,0,1,7.8-8Zm-1.934.064a6.323,6.323,0,0,0-1.542-4.63A6.178,6.178,0,0,0-.258-14.126H-2.911V-1.579H-.687A6.761,6.761,0,0,0,4.222-3.185,6.359,6.359,0,0,0,5.865-7.938ZM13.127,0H11.3V-15.705h8.755v1.622H13.127v5.747h6.51v1.622h-6.51Z" transform="translate(979.981 2379.29)"/><g transform="translate(947.98 2301.163)"><g transform="translate(0)"><path class="j" d="M95.6,2.046,93.616,0,77.9,15.269,93.616,30.54,95.6,28.493,81.992,15.269Z" transform="translate(-77.895)"/></g></g><g transform="translate(1012.466 2331.703) rotate(180)"><path class="j" d="M17.709,2.046,15.721,0,0,15.269,15.721,30.54l1.988-2.047L4.1,15.269Z"/></g><path class="j" d="M7.617-34.266-5.156,0H-7.594L5.156-34.266Z" transform="translate(979.5 2333.5)"/><path class="f" d="M20.313-4.464a1.292,1.292,0,0,0-.391-.949l-2.9-2.9a1.292,1.292,0,0,0-.949-.391,1.329,1.329,0,0,0-1,.446L15.332-8q.223.216.3.3a3.322,3.322,0,0,1,.209.265,1.122,1.122,0,0,1,.181.356,1.42,1.42,0,0,1,.049.384,1.292,1.292,0,0,1-.391.949,1.292,1.292,0,0,1-.949.391,1.42,1.42,0,0,1-.384-.049,1.122,1.122,0,0,1-.356-.181,3.321,3.321,0,0,1-.265-.209q-.084-.077-.3-.3l-.258-.265a1.354,1.354,0,0,0-.46,1.018,1.292,1.292,0,0,0,.391.949l2.874,2.888a1.286,1.286,0,0,0,.949.377,1.344,1.344,0,0,0,.949-.363L19.922-3.53A1.275,1.275,0,0,0,20.313-4.464ZM10.505-14.3a1.292,1.292,0,0,0-.391-.949L7.241-18.136a1.292,1.292,0,0,0-.949-.391,1.347,1.347,0,0,0-.949.377L3.292-16.113a1.275,1.275,0,0,0-.391.935,1.292,1.292,0,0,0,.391.949l2.9,2.9a1.286,1.286,0,0,0,.949.377,1.348,1.348,0,0,0,1-.432l-.265-.258q-.223-.216-.3-.3a3.322,3.322,0,0,1-.209-.265,1.122,1.122,0,0,1-.181-.356,1.42,1.42,0,0,1-.049-.384,1.292,1.292,0,0,1,.391-.949,1.292,1.292,0,0,1,.949-.391,1.42,1.42,0,0,1,.384.049,1.122,1.122,0,0,1,.356.181,3.321,3.321,0,0,1,.265.209q.084.077.3.3l.258.265A1.354,1.354,0,0,0,10.505-14.3ZM21.819-7.31a3.875,3.875,0,0,1,1.172,2.846,3.806,3.806,0,0,1-1.186,2.832L19.754.4a3.852,3.852,0,0,1-2.832,1.158A3.822,3.822,0,0,1,14.076.377L11.2-2.511a3.852,3.852,0,0,1-1.158-2.832,3.924,3.924,0,0,1,1.228-2.916L10.045-9.487a3.908,3.908,0,0,1-2.9,1.228A3.875,3.875,0,0,1,4.3-9.431l-2.9-2.9A3.875,3.875,0,0,1,.223-15.179a3.806,3.806,0,0,1,1.186-2.832L3.46-20.047a3.852,3.852,0,0,1,2.832-1.158A3.823,3.823,0,0,1,9.138-20.02l2.874,2.888A3.852,3.852,0,0,1,13.17-14.3a3.924,3.924,0,0,1-1.228,2.916l1.228,1.228a3.908,3.908,0,0,1,2.9-1.228,3.875,3.875,0,0,1,2.846,1.172Z" transform="translate(937.282 2288.92)"/></g></g></svg>