<svg xmlns="http://www.w3.org/2000/svg" xmlns:xlink="http://www.w3.org/1999/xlink" viewBox="6640 1164 600 246"><defs><style>.a{clip-path:url(#b);}.b,.d,.e{fill:#fff;}.b{font-size:22px;}.b,.e{font-family:OpenSans-Regular, Open Sans;}.c{fill:none;stroke:#fff;stroke-width:2px;}.e{font-size:16px;}.f,.p{fill:#eb4141;}.f,.g,.h{font-size:79px;}.f,.g,.h,.n{font-family:FontAwesome;}.g,.n,.o{fill:#418eeb;}.h,.k{fill:#28bd84;}.i{fill:#efebe0;stroke:#95989a;}.j{fill:#96999b;}.l,.m{fill:#3a3a3a;}.m{font-size:48px;font-family:OpenSans-Light, Open Sans;font-weight:300;}.n{font-size:25px;}.q{fill:rgba(255,255,255,0);}</style><clipPath id="b"><rect x="6640" y="1164" width="600" height="246"/></clipPath></defs><g id="a" class="a"><rect class="q" x="6640" y="1164" width="600" height="246"/><text class="b" transform="translate(6808.704 1264.977)"><tspan x="-21.017" y="0">Link</tspan></text><text class="b" transform="translate(7062.747 1264.977)"><tspan x="-21.017" y="0">Link</tspan></text><line class="c" x2="103.533" transform="translate(6756.679 1224.293)"/><line class="c" x2="103.533" transform="translate(7009.445 1224.293)"/><path class="d" d="M0,0,23.459,8.774,8.975,23.258Z" transform="translate(6870.906 1224.489) rotate(135)"/><path class="d" d="M0,0,23.459,8.774,8.975,23.258Z" transform="translate(7123.673 1224.489) rotate(135)"/><text class="e" transform="translate(6681.659 1405.128)"><tspan x="-30.559" y="0">Server 1</tspan></text><text class="e" transform="translate(6932.702 1405.128)"><tspan x="-30.559" y="0">Server 2</tspan></text><text class="e" transform="translate(7189.745 1405.128)"><tspan x="-30.559" y="0">Server 3</tspan></text><text class="f" transform="translate(6645.106 1383.915)"><tspan x="0" y="0"></tspan></text><text class="g" transform="translate(6896.149 1383.915)"><tspan x="0" y="0"></tspan></text><text class="h" transform="translate(7153.192 1383.915)"><tspan x="0" y="0"></tspan></text><g transform="translate(6213.5 -1099.5)"><path class="i" d="M12072.023,6428.364v119.4h92.136V6447.4l-19.034-19.034Z" transform="translate(-11138.101 -4164.364)"/><path class="j" d="M12150.169,6428.364v19.467h19.469Z" transform="translate(-11143.138 -4164.364)"/><rect class="k" width="92.981" height="26.204" transform="translate(933.5 2357.826)"/><text class="b" transform="translate(979.981 2379.29)"><tspan x="-20.496" y="0">RDF</tspan></text><g transform="translate(947.98 2301.163)"><g transform="translate(0)"><path class="l" d="M95.6,2.046,93.616,0,77.9,15.269,93.616,30.54,95.6,28.493,81.992,15.269Z" transform="translate(-77.895)"/></g></g><g transform="translate(1012.466 2331.703) rotate(180)"><path class="l" d="M17.709,2.046,15.721,0,0,15.269,15.721,30.54l1.988-2.047L4.1,15.269Z"/></g><text class="m" transform="translate(979.5 2333.5)"><tspan x="-8.18" y="0">/</tspan></text><text class="n" transform="translate(937.282 2288.92)"><tspan x="0" y="0"></tspan></text></g><g transform="translate(5955.5 -1099.5)"><path class="i" d="M12072.023,6428.364v119.4h92.136V6447.4l-19.034-19.034Z" transform="translate(-11138.101 -4164.364)"/><path class="j" d="M12150.169,6428.364v19.467h19.469Z" transform="translate(-11143.138 -4164.364)"/><rect class="o" width="92.981" height="26.204" transform="translate(933.5 2357.826)"/><text class="b" transform="translate(979.981 2379.29)"><tspan x="-20.496" y="0">RDF</tspan></text><g transform="translate(947.98 2301.163)"><g transform="translate(0)"><path class="l" d="M95.6,2.046,93.616,0,77.9,15.269,93.616,30.54,95.6,28.493,81.992,15.269Z" transform="translate(-77.895)"/></g></g><g transform="translate(1012.466 2331.703) rotate(180)"><path class="l" d="M17.709,2.046,15.721,0,0,15.269,15.721,30.54l1.988-2.047L4.1,15.269Z"/></g><text class="m" transform="translate(979.5 2333.5)"><tspan x="-8.18" y="0">/</tspan></text><text class="n" transform="translate(937.282 2288.92)"><tspan x="0" y="0"></tspan></text></g><g transform="translate(5706.5 -1099.5)"><path class="i" d="M12072.023,6428.364v119.4h92.136V6447.4l-19.034-19.034Z" transform="translate(-11138.101 -4164.364)"/><path class="j" d="M12150.169,6428.364v19.467h19.469Z" transform="translate(-11143.138 -4164.364)"/><rect class="p" width="92.981" height="26.204" transform="translate(933.5 2357.826)"/><text class="b" transform="translate(979.981 2379.29)"><tspan x="-20.496" y="0">RDF</tspan></text><g transform="translate(947.98 2301.163)"><g transform="translate(0)"><path class="l" d="M95.6,2.046,93.616,0,77.9,15.269,93.616,30.54,95.6,28.493,81.992,15.269Z" transform="translate(-77.895)"/></g></g><g transform="translate(1012.466 2331.703) rotate(180)"><path class="l" d="M17.709,2.046,15.721,0,0,15.269,15.721,30.54l1.988-2.047L4.1,15.269Z"/></g><text class="m" transform="translate(979.5 2333.5)"><tspan x="-8.18" y="0">/</tspan></text><text class="n" transform="translate(937.282 2288.92)"><tspan x="0" y="0"></tspan></text></g></g></svg>