<svg xmlns="http://www.w3.org/2000/svg" xmlns:xlink="http://www.w3.org/1999/xlink" viewBox="6640 1704 580 377.516"><defs><style>.a{clip-path:url(#z);}.b{fill:#76c6fb;opacity:0.4;}.c,.n,.q{fill:#fff;}.d,.l,.m,.p{fill:none;}.d,.l,.n{stroke:#fff;}.d,.n{stroke-width:2px;}.e{fill:#eb4141;}.f{fill:#418eeb;}.g{fill:#28bd84;}.h{fill:#efebe0;stroke:#95989a;}.i{fill:#96999b;}.j,.k{fill:#3a3a3a;}.k{font-size:38px;font-family:OpenSans-Light, Open Sans;font-weight:300;}.l{stroke-width:4px;}.o,.q{stroke:none;}.r{fill:rgba(255,255,255,0);}.s{filter:url(#w);}.t{filter:url(#u);}.u{filter:url(#s);}.v{filter:url(#q);}.w{filter:url(#o);}.x{filter:url(#m);}.y{filter:url(#k);}.z{filter:url(#i);}.aa{filter:url(#g);}.ab{filter:url(#e);}.ac{filter:url(#c);}.ad{filter:url(#a);}</style><filter id="a" x="6815.218" y="1954.162" width="34.828" height="18.156" filterUnits="userSpaceOnUse"><feOffset dx="1" dy="1" input="SourceAlpha"/><feGaussianBlur stdDeviation="1" result="b"/><feFlood flood-opacity="0.302"/><feComposite operator="in" in2="b"/><feComposite in="SourceGraphic"/></filter><filter id="c" x="7005.492" y="1954.162" width="34.828" height="18.156" filterUnits="userSpaceOnUse"><feOffset dx="1" dy="1" input="SourceAlpha"/><feGaussianBlur stdDeviation="1" result="d"/><feFlood flood-opacity="0.302"/><feComposite operator="in" in2="d"/><feComposite in="SourceGraphic"/></filter><filter id="e" x="6790.695" y="1935.823" width="83.545" height="8" filterUnits="userSpaceOnUse"><feOffset dx="1" dy="1" input="SourceAlpha"/><feGaussianBlur stdDeviation="1" result="f"/><feFlood flood-opacity="0.302"/><feComposite operator="in" in2="f"/><feComposite in="SourceGraphic"/></filter><filter id="g" x="6980.013" y="1935.823" width="83.545" height="8" filterUnits="userSpaceOnUse"><feOffset dx="1" dy="1" input="SourceAlpha"/><feGaussianBlur stdDeviation="1" result="h"/><feFlood flood-opacity="0.302"/><feComposite operator="in" in2="h"/><feComposite in="SourceGraphic"/></filter><filter id="i" x="6851.508" y="1924.651" width="30.742" height="30.742" filterUnits="userSpaceOnUse"><feOffset dx="1" dy="1" input="SourceAlpha"/><feGaussianBlur stdDeviation="1" result="j"/><feFlood flood-opacity="0.302"/><feComposite operator="in" in2="j"/><feComposite in="SourceGraphic"/></filter><filter id="k" x="7040.826" y="1924.651" width="30.742" height="30.742" filterUnits="userSpaceOnUse"><feOffset dx="1" dy="1" input="SourceAlpha"/><feGaussianBlur stdDeviation="1" result="l"/><feFlood flood-opacity="0.302"/><feComposite operator="in" in2="l"/><feComposite in="SourceGraphic"/></filter><filter id="m" x="6707.13" y="2009.886" width="65.169" height="52.49" filterUnits="userSpaceOnUse"><feOffset dx="1" dy="1" input="SourceAlpha"/><feGaussianBlur stdDeviation="1" result="n"/><feFlood flood-opacity="0.4"/><feComposite operator="in" in2="n"/><feComposite in="SourceGraphic"/></filter><filter id="o" x="6895.157" y="2009.886" width="65.169" height="52.49" filterUnits="userSpaceOnUse"><feOffset dx="1" dy="1" input="SourceAlpha"/><feGaussianBlur stdDeviation="1" result="p"/><feFlood flood-opacity="0.4"/><feComposite operator="in" in2="p"/><feComposite in="SourceGraphic"/></filter><filter id="q" x="7087.677" y="2009.886" width="65.169" height="52.49" filterUnits="userSpaceOnUse"><feOffset dx="1" dy="1" input="SourceAlpha"/><feGaussianBlur stdDeviation="1" result="r"/><feFlood flood-opacity="0.4"/><feComposite operator="in" in2="r"/><feComposite in="SourceGraphic"/></filter><filter id="s" x="7081.356" y="1891.039" width="78.999" height="99.427" filterUnits="userSpaceOnUse"><feOffset dx="1" dy="2" input="SourceAlpha"/><feGaussianBlur stdDeviation="1.5" result="t"/><feFlood flood-opacity="0.302"/><feComposite operator="in" in2="t"/><feComposite in="SourceGraphic"/></filter><filter id="u" x="6888.118" y="1891.039" width="78.999" height="99.427" filterUnits="userSpaceOnUse"><feOffset dx="1" dy="2" input="SourceAlpha"/><feGaussianBlur stdDeviation="1.5" result="v"/><feFlood flood-opacity="0.302"/><feComposite operator="in" in2="v"/><feComposite in="SourceGraphic"/></filter><filter id="w" x="6701.622" y="1891.039" width="78.999" height="99.427" filterUnits="userSpaceOnUse"><feOffset dx="1" dy="2" input="SourceAlpha"/><feGaussianBlur stdDeviation="1.5" result="x"/><feFlood flood-opacity="0.302"/><feComposite operator="in" in2="x"/><feComposite in="SourceGraphic"/></filter><clipPath id="z"><rect x="6640" y="1704" width="580" height="377.516"/></clipPath></defs><g id="y" class="a"><rect class="r" x="6640" y="1704" width="580" height="377.516"/><g transform="translate(6630 1565)"><path class="b" d="M510.554,428.491c95.842-17.023,106.67-156.513,21.32-190.907-28.66-63.693-123.563-73.247-159.232-52.228-48.407-45.86-144.617-18.334-166.878,18.471C180.923,187.9,61.816,185.355,50.988,266.246c-60.509,25.478-64.333,152.865,59.495,162.244Z" transform="translate(-0.001 86.533)"/><g class="ad" transform="matrix(1, 0, 0, 1, -6630, -1565)"><path class="c" d="M-13.715,0V-11.422h1.328V-1.2h5.039V0Zm9.406,0h-1.3V-8.562h1.3ZM-5.715-10.883a.861.861,0,0,1,.219-.652.764.764,0,0,1,.547-.207.764.764,0,0,1,.539.211.846.846,0,0,1,.227.648.859.859,0,0,1-.227.652.757.757,0,0,1-.539.215A.749.749,0,0,1-5.5-10.23.877.877,0,0,1-5.715-10.883ZM4.3,0V-5.539A2.235,2.235,0,0,0,3.824-7.1a1.941,1.941,0,0,0-1.492-.516,2.461,2.461,0,0,0-1.969.727,3.668,3.668,0,0,0-.625,2.4V0h-1.3V-8.562H-.5l.211,1.172H-.23a2.648,2.648,0,0,1,1.117-.98,3.63,3.63,0,0,1,1.6-.348,3.252,3.252,0,0,1,2.328.746A3.175,3.175,0,0,1,5.6-5.586V0ZM9.543-4.383a15.251,15.251,0,0,1,1.023-1.25l2.766-2.93h1.539L11.4-4.914,15.113,0h-1.57L10.52-4.047,9.543-3.2V0H8.262V-12.156H9.543v6.445q0,.43-.062,1.328Z" transform="translate(6830.93 1968.32)"/></g><g class="ac" transform="matrix(1, 0, 0, 1, -6630, -1565)"><path class="c" d="M-13.715,0V-11.422h1.328V-1.2h5.039V0Zm9.406,0h-1.3V-8.562h1.3ZM-5.715-10.883a.861.861,0,0,1,.219-.652.764.764,0,0,1,.547-.207.764.764,0,0,1,.539.211.846.846,0,0,1,.227.648.859.859,0,0,1-.227.652.757.757,0,0,1-.539.215A.749.749,0,0,1-5.5-10.23.877.877,0,0,1-5.715-10.883ZM4.3,0V-5.539A2.235,2.235,0,0,0,3.824-7.1a1.941,1.941,0,0,0-1.492-.516,2.461,2.461,0,0,0-1.969.727,3.668,3.668,0,0,0-.625,2.4V0h-1.3V-8.562H-.5l.211,1.172H-.23a2.648,2.648,0,0,1,1.117-.98,3.63,3.63,0,0,1,1.6-.348,3.252,3.252,0,0,1,2.328.746A3.175,3.175,0,0,1,5.6-5.586V0ZM9.543-4.383a15.251,15.251,0,0,1,1.023-1.25l2.766-2.93h1.539L11.4-4.914,15.113,0h-1.57L10.52-4.047,9.543-3.2V0H8.262V-12.156H9.543v6.445q0,.43-.062,1.328Z" transform="translate(7021.21 1968.32)"/></g><g class="ab" transform="matrix(1, 0, 0, 1, -6630, -1565)"><line class="d" x2="77.545" transform="translate(6792.7 1938.82)"/></g><g class="aa" transform="matrix(1, 0, 0, 1, -6630, -1565)"><line class="d" x2="77.545" transform="translate(6982.01 1938.82)"/></g><g class="z" transform="matrix(1, 0, 0, 1, -6630, -1565)"><path class="c" d="M0,0,17.57,6.572,6.722,17.42Z" transform="translate(6878.25 1938.97) rotate(135)"/></g><g class="y" transform="matrix(1, 0, 0, 1, -6630, -1565)"><path class="c" d="M0,0,17.57,6.572,6.722,17.42Z" transform="translate(7067.57 1938.97) rotate(135)"/></g><g class="x" transform="matrix(1, 0, 0, 1, -6630, -1565)"><path class="e" d="M4.226-19.807H38.038v-4.226H4.226Zm0-16.906H38.038v-4.226H4.226ZM55.075-19.675A3.057,3.057,0,0,0,56-21.921a3.057,3.057,0,0,0-.925-2.245,3.057,3.057,0,0,0-2.245-.925,3.057,3.057,0,0,0-2.245.925,3.057,3.057,0,0,0-.925,2.245,3.057,3.057,0,0,0,.925,2.245,3.057,3.057,0,0,0,2.245.925A3.057,3.057,0,0,0,55.075-19.675ZM4.226-53.619H38.038v-4.226H4.226ZM55.075-36.581A3.057,3.057,0,0,0,56-38.826a3.057,3.057,0,0,0-.925-2.245A3.057,3.057,0,0,0,52.83-42a3.057,3.057,0,0,0-2.245.925,3.057,3.057,0,0,0-.925,2.245,3.057,3.057,0,0,0,.925,2.245,3.057,3.057,0,0,0,2.245.925A3.057,3.057,0,0,0,55.075-36.581Zm0-16.906A3.057,3.057,0,0,0,56-55.732a3.057,3.057,0,0,0-.925-2.245A3.057,3.057,0,0,0,52.83-58.9a3.057,3.057,0,0,0-2.245.925,3.057,3.057,0,0,0-.925,2.245,3.057,3.057,0,0,0,.925,2.245,3.057,3.057,0,0,0,2.245.925A3.057,3.057,0,0,0,55.075-53.487ZM59.17-28.26v12.679H0V-28.26Zm0-16.906v12.679H0V-45.166Zm0-16.906v12.679H0V-62.071Z" transform="translate(6709.13 2073.96)"/></g><g class="w" transform="matrix(1, 0, 0, 1, -6630, -1565)"><path class="f" d="M4.226-19.807H38.038v-4.226H4.226Zm0-16.906H38.038v-4.226H4.226ZM55.075-19.675A3.057,3.057,0,0,0,56-21.921a3.057,3.057,0,0,0-.925-2.245,3.057,3.057,0,0,0-2.245-.925,3.057,3.057,0,0,0-2.245.925,3.057,3.057,0,0,0-.925,2.245,3.057,3.057,0,0,0,.925,2.245,3.057,3.057,0,0,0,2.245.925A3.057,3.057,0,0,0,55.075-19.675ZM4.226-53.619H38.038v-4.226H4.226ZM55.075-36.581A3.057,3.057,0,0,0,56-38.826a3.057,3.057,0,0,0-.925-2.245A3.057,3.057,0,0,0,52.83-42a3.057,3.057,0,0,0-2.245.925,3.057,3.057,0,0,0-.925,2.245,3.057,3.057,0,0,0,.925,2.245,3.057,3.057,0,0,0,2.245.925A3.057,3.057,0,0,0,55.075-36.581Zm0-16.906A3.057,3.057,0,0,0,56-55.732a3.057,3.057,0,0,0-.925-2.245A3.057,3.057,0,0,0,52.83-58.9a3.057,3.057,0,0,0-2.245.925,3.057,3.057,0,0,0-.925,2.245,3.057,3.057,0,0,0,.925,2.245,3.057,3.057,0,0,0,2.245.925A3.057,3.057,0,0,0,55.075-53.487ZM59.17-28.26v12.679H0V-28.26Zm0-16.906v12.679H0V-45.166Zm0-16.906v12.679H0V-62.071Z" transform="translate(6897.16 2073.96)"/></g><g class="v" transform="matrix(1, 0, 0, 1, -6630, -1565)"><path class="g" d="M4.226-19.807H38.038v-4.226H4.226Zm0-16.906H38.038v-4.226H4.226ZM55.075-19.675A3.057,3.057,0,0,0,56-21.921a3.057,3.057,0,0,0-.925-2.245,3.057,3.057,0,0,0-2.245-.925,3.057,3.057,0,0,0-2.245.925,3.057,3.057,0,0,0-.925,2.245,3.057,3.057,0,0,0,.925,2.245,3.057,3.057,0,0,0,2.245.925A3.057,3.057,0,0,0,55.075-19.675ZM4.226-53.619H38.038v-4.226H4.226ZM55.075-36.581A3.057,3.057,0,0,0,56-38.826a3.057,3.057,0,0,0-.925-2.245A3.057,3.057,0,0,0,52.83-42a3.057,3.057,0,0,0-2.245.925,3.057,3.057,0,0,0-.925,2.245,3.057,3.057,0,0,0,.925,2.245,3.057,3.057,0,0,0,2.245.925A3.057,3.057,0,0,0,55.075-36.581Zm0-16.906A3.057,3.057,0,0,0,56-55.732a3.057,3.057,0,0,0-.925-2.245A3.057,3.057,0,0,0,52.83-58.9a3.057,3.057,0,0,0-2.245.925,3.057,3.057,0,0,0-.925,2.245,3.057,3.057,0,0,0,.925,2.245,3.057,3.057,0,0,0,2.245.925A3.057,3.057,0,0,0,55.075-53.487ZM59.17-28.26v12.679H0V-28.26Zm0-16.906v12.679H0V-45.166Zm0-16.906v12.679H0V-62.071Z" transform="translate(7089.68 2073.96)"/></g><g transform="translate(455.039 329.038)"><g class="u" transform="matrix(1, 0, 0, 1, -7085.04, -1894.04)"><path class="h" d="M12072.023,6428.364v89.427h69V6442.62l-14.254-14.256Z" transform="translate(-4986.67 -4534.33)"/></g><path class="i" d="M12150.17,6428.364v14.581h14.578Z" transform="translate(-12095.104 -6428.364)"/><rect class="g" width="69.632" height="19.626" transform="translate(0 70.274)"/><path class="c" d="M-11.257-4.453V0H-12.5V-10.708h2.937a4.621,4.621,0,0,1,2.911.754,2.735,2.735,0,0,1,.941,2.271A2.844,2.844,0,0,1-7.866-4.812L-4.958,0H-6.431L-9.023-4.453Zm0-1.069h1.707a2.947,2.947,0,0,0,1.934-.524A1.949,1.949,0,0,0-7-7.617a1.788,1.788,0,0,0-.626-1.531,3.393,3.393,0,0,0-2.01-.469h-1.619Zm16.575.066A5.406,5.406,0,0,1,3.878-1.4,5.694,5.694,0,0,1-.264,0H-3.23V-10.708H.051A5.248,5.248,0,0,1,3.933-9.324,5.228,5.228,0,0,1,5.317-5.457ZM4-5.413A4.311,4.311,0,0,0,2.948-8.569,4.212,4.212,0,0,0-.176-9.631H-1.985v8.555H-.469A4.61,4.61,0,0,0,2.878-2.172,4.335,4.335,0,0,0,4-5.413ZM8.95,0H7.705V-10.708h5.969V-9.6H8.95v3.918h4.438v1.106H8.95Z" transform="translate(34.831 85.375)"/><g transform="translate(10.844 27.834)"><g transform="translate(0)"><path class="j" d="M91.157,1.533,89.668,0,77.9,11.436,89.668,22.874l1.489-1.533-10.194-9.9Z" transform="translate(-77.895)"/></g></g><g transform="translate(59.136 50.708) rotate(180)"><path class="j" d="M13.262,1.533,11.773,0,0,11.436,11.773,22.874l1.489-1.533-10.194-9.9Z"/></g><text class="k" transform="translate(33.961 52.962)"><tspan x="-6.476" y="0">/</tspan></text><path class="f" d="M15.268-8.667a.967.967,0,0,0-.293-.711L12.8-11.551a.967.967,0,0,0-.71-.293,1,1,0,0,0-.752.334l.2.193q.167.162.225.225a2.488,2.488,0,0,1,.157.2.84.84,0,0,1,.136.266,1.064,1.064,0,0,1,.037.287.967.967,0,0,1-.293.711.967.967,0,0,1-.71.293,1.063,1.063,0,0,1-.287-.037.84.84,0,0,1-.266-.136,2.487,2.487,0,0,1-.2-.157q-.063-.057-.225-.225l-.193-.2a1.014,1.014,0,0,0-.345.763.967.967,0,0,0,.293.711l2.152,2.163a.963.963,0,0,0,.71.282,1.006,1.006,0,0,0,.71-.272l1.536-1.526A.955.955,0,0,0,15.268-8.667ZM7.923-16.033a.967.967,0,0,0-.293-.711L5.478-18.907a.967.967,0,0,0-.71-.293,1.009,1.009,0,0,0-.71.282L2.522-17.391a.955.955,0,0,0-.293.7.967.967,0,0,0,.293.711l2.173,2.173a.963.963,0,0,0,.71.282,1.01,1.01,0,0,0,.752-.324l-.2-.193q-.167-.162-.225-.225a2.488,2.488,0,0,1-.157-.2.84.84,0,0,1-.136-.266,1.064,1.064,0,0,1-.037-.287A.967.967,0,0,1,5.7-15.73a.967.967,0,0,1,.71-.293,1.063,1.063,0,0,1,.287.037.84.84,0,0,1,.266.136,2.487,2.487,0,0,1,.2.157q.063.057.225.225l.193.2A1.014,1.014,0,0,0,7.923-16.033ZM16.4-10.8a2.9,2.9,0,0,1,.878,2.132,2.851,2.851,0,0,1-.888,2.121L14.85-5.02a2.885,2.885,0,0,1-2.121.867A2.862,2.862,0,0,1,10.6-5.041L8.445-7.2a2.885,2.885,0,0,1-.867-2.121A2.939,2.939,0,0,1,8.5-11.509l-.919-.92a2.927,2.927,0,0,1-2.173.92,2.9,2.9,0,0,1-2.131-.878L1.1-14.56a2.9,2.9,0,0,1-.878-2.132,2.851,2.851,0,0,1,.888-2.121l1.536-1.526a2.885,2.885,0,0,1,2.121-.867,2.862,2.862,0,0,1,2.131.888l2.152,2.163a2.885,2.885,0,0,1,.867,2.121A2.939,2.939,0,0,1,9-13.849l.919.92a2.927,2.927,0,0,1,2.173-.92,2.9,2.9,0,0,1,2.131.878Z" transform="translate(2.776 23.988)"/></g><g transform="translate(261.802 329.038)"><g class="t" transform="matrix(1, 0, 0, 1, -6891.8, -1894.04)"><path class="h" d="M12072.023,6428.364v89.427h69V6442.62l-14.254-14.256Z" transform="translate(-5179.91 -4534.33)"/></g><path class="i" d="M12150.17,6428.364v14.581h14.578Z" transform="translate(-12095.104 -6428.364)"/><rect class="f" width="69.632" height="19.626" transform="translate(0 70.274)"/><path class="c" d="M-11.257-4.453V0H-12.5V-10.708h2.937a4.621,4.621,0,0,1,2.911.754,2.735,2.735,0,0,1,.941,2.271A2.844,2.844,0,0,1-7.866-4.812L-4.958,0H-6.431L-9.023-4.453Zm0-1.069h1.707a2.947,2.947,0,0,0,1.934-.524A1.949,1.949,0,0,0-7-7.617a1.788,1.788,0,0,0-.626-1.531,3.393,3.393,0,0,0-2.01-.469h-1.619Zm16.575.066A5.406,5.406,0,0,1,3.878-1.4,5.694,5.694,0,0,1-.264,0H-3.23V-10.708H.051A5.248,5.248,0,0,1,3.933-9.324,5.228,5.228,0,0,1,5.317-5.457ZM4-5.413A4.311,4.311,0,0,0,2.948-8.569,4.212,4.212,0,0,0-.176-9.631H-1.985v8.555H-.469A4.61,4.61,0,0,0,2.878-2.172,4.335,4.335,0,0,0,4-5.413ZM8.95,0H7.705V-10.708h5.969V-9.6H8.95v3.918h4.438v1.106H8.95Z" transform="translate(34.831 85.375)"/><g transform="translate(10.844 27.834)"><g transform="translate(0)"><path class="j" d="M91.157,1.533,89.668,0,77.9,11.436,89.668,22.874l1.489-1.533-10.194-9.9Z" transform="translate(-77.895)"/></g></g><g transform="translate(59.136 50.708) rotate(180)"><path class="j" d="M13.262,1.533,11.773,0,0,11.436,11.773,22.874l1.489-1.533-10.194-9.9Z"/></g><text class="k" transform="translate(33.198 52.962)"><tspan x="-6.476" y="0">/</tspan></text><path class="f" d="M15.268-8.667a.967.967,0,0,0-.293-.711L12.8-11.551a.967.967,0,0,0-.71-.293,1,1,0,0,0-.752.334l.2.193q.167.162.225.225a2.488,2.488,0,0,1,.157.2.84.84,0,0,1,.136.266,1.064,1.064,0,0,1,.037.287.967.967,0,0,1-.293.711.967.967,0,0,1-.71.293,1.063,1.063,0,0,1-.287-.037.84.84,0,0,1-.266-.136,2.487,2.487,0,0,1-.2-.157q-.063-.057-.225-.225l-.193-.2a1.014,1.014,0,0,0-.345.763.967.967,0,0,0,.293.711l2.152,2.163a.963.963,0,0,0,.71.282,1.006,1.006,0,0,0,.71-.272l1.536-1.526A.955.955,0,0,0,15.268-8.667ZM7.923-16.033a.967.967,0,0,0-.293-.711L5.478-18.907a.967.967,0,0,0-.71-.293,1.009,1.009,0,0,0-.71.282L2.522-17.391a.955.955,0,0,0-.293.7.967.967,0,0,0,.293.711l2.173,2.173a.963.963,0,0,0,.71.282,1.01,1.01,0,0,0,.752-.324l-.2-.193q-.167-.162-.225-.225a2.488,2.488,0,0,1-.157-.2.84.84,0,0,1-.136-.266,1.064,1.064,0,0,1-.037-.287A.967.967,0,0,1,5.7-15.73a.967.967,0,0,1,.71-.293,1.063,1.063,0,0,1,.287.037.84.84,0,0,1,.266.136,2.487,2.487,0,0,1,.2.157q.063.057.225.225l.193.2A1.014,1.014,0,0,0,7.923-16.033ZM16.4-10.8a2.9,2.9,0,0,1,.878,2.132,2.851,2.851,0,0,1-.888,2.121L14.85-5.02a2.885,2.885,0,0,1-2.121.867A2.862,2.862,0,0,1,10.6-5.041L8.445-7.2a2.885,2.885,0,0,1-.867-2.121A2.939,2.939,0,0,1,8.5-11.509l-.919-.92a2.927,2.927,0,0,1-2.173.92,2.9,2.9,0,0,1-2.131-.878L1.1-14.56a2.9,2.9,0,0,1-.878-2.132,2.851,2.851,0,0,1,.888-2.121l1.536-1.526a2.885,2.885,0,0,1,2.121-.867,2.862,2.862,0,0,1,2.131.888l2.152,2.163a2.885,2.885,0,0,1,.867,2.121A2.939,2.939,0,0,1,9-13.849l.919.92a2.927,2.927,0,0,1,2.173-.92,2.9,2.9,0,0,1,2.131.878Z" transform="translate(2.776 23.988)"/></g><g transform="translate(75.305 329.038)"><g class="s" transform="matrix(1, 0, 0, 1, -6705.31, -1894.04)"><path class="h" d="M12072.023,6428.364v89.427h69V6442.62l-14.254-14.256Z" transform="translate(-5366.4 -4534.33)"/></g><path class="i" d="M12150.17,6428.364v14.581h14.578Z" transform="translate(-12095.104 -6428.364)"/><rect class="e" width="69.632" height="19.626" transform="translate(0 70.274)"/><path class="c" d="M-11.257-4.453V0H-12.5V-10.708h2.937a4.621,4.621,0,0,1,2.911.754,2.735,2.735,0,0,1,.941,2.271A2.844,2.844,0,0,1-7.866-4.812L-4.958,0H-6.431L-9.023-4.453Zm0-1.069h1.707a2.947,2.947,0,0,0,1.934-.524A1.949,1.949,0,0,0-7-7.617a1.788,1.788,0,0,0-.626-1.531,3.393,3.393,0,0,0-2.01-.469h-1.619Zm16.575.066A5.406,5.406,0,0,1,3.878-1.4,5.694,5.694,0,0,1-.264,0H-3.23V-10.708H.051A5.248,5.248,0,0,1,3.933-9.324,5.228,5.228,0,0,1,5.317-5.457ZM4-5.413A4.311,4.311,0,0,0,2.948-8.569,4.212,4.212,0,0,0-.176-9.631H-1.985v8.555H-.469A4.61,4.61,0,0,0,2.878-2.172,4.335,4.335,0,0,0,4-5.413ZM8.95,0H7.705V-10.708h5.969V-9.6H8.95v3.918h4.438v1.106H8.95Z" transform="translate(34.831 85.375)"/><g transform="translate(10.844 27.834)"><g transform="translate(0)"><path class="j" d="M91.157,1.533,89.668,0,77.9,11.436,89.668,22.874l1.489-1.533-10.194-9.9Z" transform="translate(-77.895)"/></g></g><g transform="translate(59.136 50.708) rotate(180)"><path class="j" d="M13.262,1.533,11.773,0,0,11.436,11.773,22.874l1.489-1.533-10.194-9.9Z"/></g><text class="k" transform="translate(33.695 52.962)"><tspan x="-6.476" y="0">/</tspan></text><path class="f" d="M15.268-8.667a.967.967,0,0,0-.293-.711L12.8-11.551a.967.967,0,0,0-.71-.293,1,1,0,0,0-.752.334l.2.193q.167.162.225.225a2.488,2.488,0,0,1,.157.2.84.84,0,0,1,.136.266,1.064,1.064,0,0,1,.037.287.967.967,0,0,1-.293.711.967.967,0,0,1-.71.293,1.063,1.063,0,0,1-.287-.037.84.84,0,0,1-.266-.136,2.487,2.487,0,0,1-.2-.157q-.063-.057-.225-.225l-.193-.2a1.014,1.014,0,0,0-.345.763.967.967,0,0,0,.293.711l2.152,2.163a.963.963,0,0,0,.71.282,1.006,1.006,0,0,0,.71-.272l1.536-1.526A.955.955,0,0,0,15.268-8.667ZM7.923-16.033a.967.967,0,0,0-.293-.711L5.478-18.907a.967.967,0,0,0-.71-.293,1.009,1.009,0,0,0-.71.282L2.522-17.391a.955.955,0,0,0-.293.7.967.967,0,0,0,.293.711l2.173,2.173a.963.963,0,0,0,.71.282,1.01,1.01,0,0,0,.752-.324l-.2-.193q-.167-.162-.225-.225a2.488,2.488,0,0,1-.157-.2.84.84,0,0,1-.136-.266,1.064,1.064,0,0,1-.037-.287A.967.967,0,0,1,5.7-15.73a.967.967,0,0,1,.71-.293,1.063,1.063,0,0,1,.287.037.84.84,0,0,1,.266.136,2.487,2.487,0,0,1,.2.157q.063.057.225.225l.193.2A1.014,1.014,0,0,0,7.923-16.033ZM16.4-10.8a2.9,2.9,0,0,1,.878,2.132,2.851,2.851,0,0,1-.888,2.121L14.85-5.02a2.885,2.885,0,0,1-2.121.867A2.862,2.862,0,0,1,10.6-5.041L8.445-7.2a2.885,2.885,0,0,1-.867-2.121A2.939,2.939,0,0,1,8.5-11.509l-.919-.92a2.927,2.927,0,0,1-2.173.92,2.9,2.9,0,0,1-2.131-.878L1.1-14.56a2.9,2.9,0,0,1-.878-2.132,2.851,2.851,0,0,1,.888-2.121l1.536-1.526a2.885,2.885,0,0,1,2.121-.867,2.862,2.862,0,0,1,2.131.888l2.152,2.163a2.885,2.885,0,0,1,.867,2.121A2.939,2.939,0,0,1,9-13.849l.919.92a2.927,2.927,0,0,1,2.173-.92,2.9,2.9,0,0,1,2.131.878Z" transform="translate(2.776 23.988)"/></g><g class="l" transform="translate(76.458 178.458)"><ellipse class="o" cx="24.015" cy="24.015" rx="24.015" ry="24.015"/><ellipse class="p" cx="24.015" cy="24.015" rx="22.015" ry="22.015"/></g><g class="m" transform="translate(124.361 214.717) rotate(45)"><path class="o" d="M0,0H21.957a8.234,8.234,0,0,1,0,16.468H0C3.583,8.376,0,0,0,0Z"/><path class="q" d="M 21.95669746398926 12.46752166748047 C 24.29119873046875 12.46752166748047 26.19045829772949 10.56826210021973 26.19045829772949 8.233761787414551 C 26.19045829772949 5.899261951446533 24.29119873046875 4.000001907348633 21.95669746398926 4.000001907348633 L 5.205051898956299 4.000001907348633 C 5.239182949066162 4.205161094665527 5.271821975708008 4.414754867553711 5.302618026733398 4.628291606903076 C 5.690672397613525 7.318982601165771 5.683385848999023 9.961498260498047 5.291558742523193 12.46752166748047 L 21.95669746398926 12.46752166748047 M 21.95669746398926 16.46752166748047 C 21.95669746398926 16.46752166748047 6.401408195495605 16.46752166748047 -1.804809585337352e-06 16.46752166748047 C 3.582888126373291 8.375541687011719 -1.804809585337352e-06 1.787414589671243e-06 -1.804809585337352e-06 1.787414589671243e-06 L 21.95669746398926 1.787414589671243e-06 C 26.50407791137695 1.787414589671243e-06 30.19045829772949 3.686381816864014 30.19045829772949 8.233761787414551 C 30.19045829772949 12.78114223480225 26.50407791137695 16.46752166748047 21.95669746398926 16.46752166748047 Z"/></g><path class="l" d="M0,14.723S.108,8.488,4.346,4.25,14.723,0,14.723,0" transform="translate(85.751 187.751)"/><path class="l" d="M0,4.877A10.094,10.094,0,0,1,.557,2.166,7.776,7.776,0,0,1,1.913,0" transform="matrix(-0.07, 0.998, -0.998, -0.07, 108.031, 188.287)"/><g class="n" transform="translate(262.794 175.466)"><rect class="o" width="70.412" height="4" rx="2"/><rect class="p" x="1" y="1" width="68.412" height="2" rx="1"/></g><g class="n" transform="translate(461.327 175.5) rotate(90)"><rect class="o" width="56.123" height="4" rx="2"/><rect class="p" x="1" y="1" width="54.123" height="2" rx="1"/></g><g class="n" transform="translate(457.5 227.796)"><rect class="o" width="66.327" height="4" rx="2"/><rect class="p" x="1" y="1" width="64.327" height="2" rx="1"/></g><g class="n" transform="translate(262.794 188.505)"><rect class="o" width="40.422" height="4" rx="2"/><rect class="p" x="1" y="1" width="38.422" height="2" rx="1"/></g><g class="n" transform="translate(262.794 201.544)"><rect class="o" width="52.157" height="4" rx="2"/><rect class="p" x="1" y="1" width="50.157" height="2" rx="1"/></g><g class="n" transform="translate(262.794 214.583)"><rect class="o" width="70.412" height="4" rx="2"/><rect class="p" x="1" y="1" width="68.412" height="2" rx="1"/></g><g class="n" transform="translate(262.794 227.623)"><rect class="o" width="61.285" height="4" rx="2"/><rect class="p" x="1" y="1" width="59.285" height="2" rx="1"/></g><path class="c" d="M4,0h.929a4,4,0,0,1,4,4V38.265a0,0,0,0,1,0,0H0a0,0,0,0,1,0,0V4A4,4,0,0,1,4,0Z" transform="translate(469.617 190.168)"/><path class="c" d="M4,0h.929a4,4,0,0,1,4,4V43.368a0,0,0,0,1,0,0H0a0,0,0,0,1,0,0V4A4,4,0,0,1,4,0Z" transform="translate(487.475 185.066)"/><path class="c" d="M4,0h.929a4,4,0,0,1,4,4V25.51a0,0,0,0,1,0,0H0a0,0,0,0,1,0,0V4A4,4,0,0,1,4,0Z" transform="translate(505.332 202.924)"/><path class="c" d="M-27.026-4.749a4.378,4.378,0,0,1-1.709,3.674A7.41,7.41,0,0,1-33.374.244a11.618,11.618,0,0,1-4.883-.818v-2a12.855,12.855,0,0,0,2.393.732,12.588,12.588,0,0,0,2.563.269,5.172,5.172,0,0,0,3.125-.787,2.584,2.584,0,0,0,1.05-2.191,2.813,2.813,0,0,0-.372-1.52,3.459,3.459,0,0,0-1.245-1.093A17.419,17.419,0,0,0-33.4-8.3a8.475,8.475,0,0,1-3.558-2.112A4.662,4.662,0,0,1-38.025-13.6a3.962,3.962,0,0,1,1.55-3.284,6.443,6.443,0,0,1,4.1-1.221,12.088,12.088,0,0,1,4.9.977l-.647,1.807a11.062,11.062,0,0,0-4.3-.928A4.158,4.158,0,0,0-35-15.54a2.333,2.333,0,0,0-.928,1.965,3.012,3.012,0,0,0,.342,1.52,3.218,3.218,0,0,0,1.154,1.086,14.333,14.333,0,0,0,2.484,1.093,9.835,9.835,0,0,1,3.864,2.148A4.226,4.226,0,0,1-27.026-4.749Zm9,4.993a6.147,6.147,0,0,1-4.681-1.807A6.994,6.994,0,0,1-24.426-6.58a7.757,7.757,0,0,1,1.593-5.139,5.292,5.292,0,0,1,4.279-1.9,5.045,5.045,0,0,1,3.979,1.654A6.339,6.339,0,0,1-13.11-7.6v1.282h-9.216a5.3,5.3,0,0,0,1.19,3.577,4.116,4.116,0,0,0,3.18,1.221,10.776,10.776,0,0,0,4.272-.9V-.623a10.723,10.723,0,0,1-2.032.665A11.422,11.422,0,0,1-18.03.244Zm-.549-12.17a3.309,3.309,0,0,0-2.57,1.05,4.839,4.839,0,0,0-1.129,2.905h6.995a4.455,4.455,0,0,0-.854-2.936A3.008,3.008,0,0,0-18.579-11.926ZM-1.428,0l-.4-1.9h-.1a5.63,5.63,0,0,1-2,1.7A6.083,6.083,0,0,1-6.409.244,4.468,4.468,0,0,1-9.528-.781,3.74,3.74,0,0,1-10.657-3.7q0-4.053,6.482-4.248L-1.9-8.02v-.83a3.392,3.392,0,0,0-.677-2.325,2.786,2.786,0,0,0-2.167-.751A8.829,8.829,0,0,0-8.533-10.9l-.623-1.55a9.522,9.522,0,0,1,2.167-.842A9.384,9.384,0,0,1-4.626-13.6,5.1,5.1,0,0,1-1.08-12.537,4.433,4.433,0,0,1,.073-9.131V0ZM-6.006-1.428A4.113,4.113,0,0,0-3.033-2.466a3.838,3.838,0,0,0,1.08-2.905V-6.58l-2.026.085a7.371,7.371,0,0,0-3.485.751A2.264,2.264,0,0,0-8.533-3.674,2.088,2.088,0,0,0-7.867-2,2.762,2.762,0,0,0-6.006-1.428ZM10.352-13.623a7.929,7.929,0,0,1,1.6.146L11.67-11.6a6.9,6.9,0,0,0-1.465-.183,3.566,3.566,0,0,0-2.777,1.318A4.807,4.807,0,0,0,6.274-7.178V0H4.248V-13.379H5.92L6.152-10.9h.1a5.881,5.881,0,0,1,1.794-2.014A4.04,4.04,0,0,1,10.352-13.623ZM19.8.244a5.71,5.71,0,0,1-4.5-1.788A7.354,7.354,0,0,1,13.708-6.6a7.583,7.583,0,0,1,1.617-5.188,5.824,5.824,0,0,1,4.608-1.831,9.144,9.144,0,0,1,1.929.208,6.354,6.354,0,0,1,1.514.488l-.623,1.721a9.528,9.528,0,0,0-1.465-.446,6.54,6.54,0,0,0-1.4-.177q-4.077,0-4.077,5.2A6.192,6.192,0,0,0,16.8-2.844a3.461,3.461,0,0,0,2.948,1.318,9.014,9.014,0,0,0,3.43-.72V-.452A7.311,7.311,0,0,1,19.8.244ZM35.51,0V-8.655a3.492,3.492,0,0,0-.745-2.441,3.033,3.033,0,0,0-2.332-.806,3.82,3.82,0,0,0-3.082,1.147,5.812,5.812,0,0,0-.97,3.76V0H26.355V-18.994h2.026v5.75a12.528,12.528,0,0,1-.1,1.721h.122a4.133,4.133,0,0,1,1.7-1.52,5.536,5.536,0,0,1,2.521-.555,5.162,5.162,0,0,1,3.68,1.166,4.91,4.91,0,0,1,1.227,3.7V0Z" transform="translate(110 158)"/><path class="c" d="M-37.726-17.847h2.234L-41.925,0h-2.051l-6.4-17.847h2.2l4.1,11.548a32.389,32.389,0,0,1,1.123,3.87A32.3,32.3,0,0,1-41.8-6.372ZM-31.317,0h-2.026V-13.379h2.026Zm-2.2-17a1.346,1.346,0,0,1,.342-1.019,1.194,1.194,0,0,1,.854-.323,1.194,1.194,0,0,1,.842.33A1.322,1.322,0,0,1-31.122-17a1.342,1.342,0,0,1-.354,1.019,1.182,1.182,0,0,1-.842.336,1.17,1.17,0,0,1-.854-.336A1.371,1.371,0,0,1-33.514-17ZM-18.39-3.65A3.351,3.351,0,0,1-19.781-.769,6.541,6.541,0,0,1-23.688.244,8.494,8.494,0,0,1-27.838-.6v-1.88a10.037,10.037,0,0,0,2.069.769,8.64,8.64,0,0,0,2.13.281A4.831,4.831,0,0,0-21.2-1.935a1.675,1.675,0,0,0,.854-1.544,1.676,1.676,0,0,0-.677-1.337,10.657,10.657,0,0,0-2.643-1.312,14.331,14.331,0,0,1-2.655-1.215A3.627,3.627,0,0,1-27.49-8.521a3.072,3.072,0,0,1-.385-1.575,3,3,0,0,1,1.331-2.582,6.2,6.2,0,0,1,3.65-.946,10.679,10.679,0,0,1,4.224.879l-.72,1.648a9.7,9.7,0,0,0-3.65-.83,4.2,4.2,0,0,0-2.173.452,1.4,1.4,0,0,0-.732,1.245,1.516,1.516,0,0,0,.275.916,2.711,2.711,0,0,0,.885.72,19.778,19.778,0,0,0,2.344.989,8.756,8.756,0,0,1,3.217,1.746A3.078,3.078,0,0,1-18.39-3.65Zm5.2-9.729V-4.7a3.492,3.492,0,0,0,.745,2.441,3.033,3.033,0,0,0,2.332.806A3.8,3.8,0,0,0-7.043-2.6a5.788,5.788,0,0,0,.97-3.748v-7.031h2.026V0H-5.719l-.293-1.794h-.11A4.039,4.039,0,0,1-7.849-.281,5.806,5.806,0,0,1-10.37.244a5.114,5.114,0,0,1-3.656-1.16A4.937,4.937,0,0,1-15.24-4.626v-8.752ZM8.478,0l-.4-1.9h-.1a5.63,5.63,0,0,1-2,1.7A6.083,6.083,0,0,1,3.5.244,4.468,4.468,0,0,1,.378-.781,3.74,3.74,0,0,1-.751-3.7q0-4.053,6.482-4.248L8-8.02v-.83a3.392,3.392,0,0,0-.677-2.325,2.786,2.786,0,0,0-2.167-.751A8.829,8.829,0,0,0,1.373-10.9l-.623-1.55a9.522,9.522,0,0,1,2.167-.842A9.384,9.384,0,0,1,5.28-13.6a5.1,5.1,0,0,1,3.546,1.062A4.433,4.433,0,0,1,9.979-9.131V0ZM3.9-1.428A4.113,4.113,0,0,0,6.873-2.466a3.838,3.838,0,0,0,1.08-2.905V-6.58l-2.026.085a7.371,7.371,0,0,0-3.485.751A2.264,2.264,0,0,0,1.373-3.674,2.088,2.088,0,0,0,2.039-2,2.762,2.762,0,0,0,3.9-1.428ZM16.18,0H14.154V-18.994H16.18ZM22.5,0H20.477V-13.379H22.5Zm-2.2-17a1.346,1.346,0,0,1,.342-1.019,1.194,1.194,0,0,1,.854-.323,1.194,1.194,0,0,1,.842.33A1.322,1.322,0,0,1,22.7-17a1.342,1.342,0,0,1-.354,1.019,1.182,1.182,0,0,1-.842.336,1.17,1.17,0,0,1-.854-.336A1.371,1.371,0,0,1,20.306-17ZM35.358,0h-9.7V-1.379l7.3-10.425H26.1v-1.575h9.07V-11.8l-7.2,10.229h7.385Zm8.789.244a6.147,6.147,0,0,1-4.681-1.807A6.994,6.994,0,0,1,37.75-6.58a7.757,7.757,0,0,1,1.593-5.139,5.292,5.292,0,0,1,4.279-1.9A5.045,5.045,0,0,1,47.6-11.969,6.339,6.339,0,0,1,49.066-7.6v1.282H39.85a5.3,5.3,0,0,0,1.19,3.577,4.116,4.116,0,0,0,3.18,1.221,10.776,10.776,0,0,0,4.272-.9V-.623A10.723,10.723,0,0,1,46.46.043,11.422,11.422,0,0,1,44.147.244ZM43.6-11.926a3.309,3.309,0,0,0-2.57,1.05A4.839,4.839,0,0,0,39.9-7.971h6.995a4.455,4.455,0,0,0-.854-2.936A3.008,3.008,0,0,0,43.6-11.926Z" transform="translate(301 158)"/><path class="c" d="M-31.183,0-33.4-5.676h-7.153L-42.755,0h-2.1L-37.8-17.92h1.746L-29.034,0Zm-2.869-7.544-2.075-5.53q-.4-1.05-.83-2.576a23.128,23.128,0,0,1-.769,2.576l-2.1,5.53ZM-17.731,0V-8.655a3.492,3.492,0,0,0-.745-2.441,3.033,3.033,0,0,0-2.332-.806,3.845,3.845,0,0,0-3.076,1.135,5.731,5.731,0,0,0-.977,3.748V0h-2.026V-13.379h1.648l.33,1.831h.1a4.138,4.138,0,0,1,1.746-1.532,5.672,5.672,0,0,1,2.5-.543,5.082,5.082,0,0,1,3.638,1.166A4.961,4.961,0,0,1-15.7-8.728V0ZM-3.314,0l-.4-1.9h-.1a5.63,5.63,0,0,1-2,1.7A6.083,6.083,0,0,1-8.295.244,4.468,4.468,0,0,1-11.414-.781,3.74,3.74,0,0,1-12.543-3.7q0-4.053,6.482-4.248L-3.79-8.02v-.83a3.392,3.392,0,0,0-.677-2.325,2.786,2.786,0,0,0-2.167-.751A8.829,8.829,0,0,0-10.419-10.9l-.623-1.55a9.522,9.522,0,0,1,2.167-.842A9.384,9.384,0,0,1-6.512-13.6a5.1,5.1,0,0,1,3.546,1.062A4.433,4.433,0,0,1-1.813-9.131V0ZM-7.892-1.428A4.113,4.113,0,0,0-4.919-2.466a3.838,3.838,0,0,0,1.08-2.905V-6.58l-2.026.085a7.371,7.371,0,0,0-3.485.751,2.264,2.264,0,0,0-1.068,2.069A2.088,2.088,0,0,0-9.753-2,2.762,2.762,0,0,0-7.892-1.428ZM4.388,0H2.362V-18.994H4.388ZM6.561-13.379H8.734l2.93,7.629a29.02,29.02,0,0,1,1.2,3.772h.1q.159-.623.665-2.13t3.314-9.271H19.11L13.361,1.855a7.6,7.6,0,0,1-2,3.2,4.244,4.244,0,0,1-2.8.946A8.152,8.152,0,0,1,6.732,5.8V4.175a7.063,7.063,0,0,0,1.5.146,3.1,3.1,0,0,0,2.979-2.344l.745-1.9ZM29.84,0h-9.7V-1.379l7.3-10.425H20.587v-1.575h9.07V-11.8l-7.2,10.229H29.84Zm8.789.244a6.147,6.147,0,0,1-4.681-1.807A6.994,6.994,0,0,1,32.233-6.58a7.757,7.757,0,0,1,1.593-5.139,5.292,5.292,0,0,1,4.279-1.9,5.045,5.045,0,0,1,3.979,1.654A6.339,6.339,0,0,1,43.549-7.6v1.282H34.332a5.3,5.3,0,0,0,1.19,3.577A4.116,4.116,0,0,0,38.7-1.526a10.776,10.776,0,0,0,4.272-.9V-.623a10.723,10.723,0,0,1-2.032.665A11.422,11.422,0,0,1,38.629.244Zm-.549-12.17a3.309,3.309,0,0,0-2.57,1.05,4.839,4.839,0,0,0-1.129,2.905h6.995a4.455,4.455,0,0,0-.854-2.936A3.008,3.008,0,0,0,38.08-11.926Z" transform="translate(490 158)"/></g></g></svg>