<svg xmlns="http://www.w3.org/2000/svg" xmlns:xlink="http://www.w3.org/1999/xlink" viewBox="6150 456 110 142"><defs><style>.a{clip-path:url(#b);}.b{fill:#efebe0;stroke:#95989a;}.c{fill:#96999b;}.d{fill:#28bd84;}.e{fill:#fff;font-size:27px;font-family:OpenSans-Regular, Open Sans;}.f,.g{fill:#3a3a3a;}.g{font-size:55px;font-family:OpenSans-Light, Open Sans;font-weight:300;}.h{fill:#418eeb;}.i{fill:rgba(255,255,255,0);}</style><clipPath id="b"><rect x="6150" y="456" width="110" height="142"/></clipPath></defs><g id="a" class="a"><rect class="i" x="6150" y="456" width="110" height="142"/><g transform="translate(5216.5 -1807.5)"><path class="b" d="M12072.023,6428.363v141.253h109V6450.882l-22.519-22.519Z" transform="translate(-11138.023 -4164.363)"/><path class="c" d="M12150.169,6428.363v23.03h23.031Z" transform="translate(-11129.678 -4164.363)"/><rect class="d" width="110" height="31" transform="translate(933.5 2375)"/><text class="e" transform="translate(988.644 2401)"><tspan x="-25.154" y="0">RDF</tspan></text><g transform="translate(950.63 2307.965)"><g transform="translate(0)"><path class="f" d="M98.846,2.421,96.494,0l-18.6,18.064,18.6,18.065,2.352-2.422-16.1-15.644Z" transform="translate(-77.895)"/></g></g><g transform="translate(1026.92 2344.095) rotate(180)"><path class="f" d="M20.951,2.421,18.6,0,0,18.064,18.6,36.13l2.352-2.422L4.847,18.064Z"/></g><text class="g" transform="translate(986.14 2346.201)"><tspan x="-9.373" y="0">/</tspan></text><path class="h" d="M24.375-5.357A1.55,1.55,0,0,0,23.906-6.5L20.424-9.978a1.55,1.55,0,0,0-1.138-.469,1.594,1.594,0,0,0-1.205.536l.318.31q.268.259.36.36a3.986,3.986,0,0,1,.251.318,1.347,1.347,0,0,1,.218.427,1.7,1.7,0,0,1,.059.46A1.55,1.55,0,0,1,18.817-6.9a1.55,1.55,0,0,1-1.138.469,1.7,1.7,0,0,1-.46-.059,1.346,1.346,0,0,1-.427-.218,3.986,3.986,0,0,1-.318-.251q-.1-.092-.36-.36l-.31-.318a1.624,1.624,0,0,0-.552,1.222,1.55,1.55,0,0,0,.469,1.138l3.449,3.465a1.543,1.543,0,0,0,1.138.452,1.612,1.612,0,0,0,1.138-.435l2.461-2.444A1.53,1.53,0,0,0,24.375-5.357ZM12.606-17.16a1.55,1.55,0,0,0-.469-1.138L8.689-21.763a1.55,1.55,0,0,0-1.138-.469,1.617,1.617,0,0,0-1.138.452L3.951-19.336a1.53,1.53,0,0,0-.469,1.122,1.55,1.55,0,0,0,.469,1.138l3.482,3.482a1.543,1.543,0,0,0,1.138.452,1.618,1.618,0,0,0,1.205-.519l-.318-.31q-.268-.259-.36-.36a3.986,3.986,0,0,1-.251-.318,1.346,1.346,0,0,1-.218-.427,1.7,1.7,0,0,1-.059-.46,1.55,1.55,0,0,1,.469-1.138,1.55,1.55,0,0,1,1.138-.469,1.7,1.7,0,0,1,.46.059,1.347,1.347,0,0,1,.427.218,3.986,3.986,0,0,1,.318.251q.1.092.36.36l.31.318A1.624,1.624,0,0,0,12.606-17.16ZM26.183-8.772a4.65,4.65,0,0,1,1.406,3.415,4.568,4.568,0,0,1-1.423,3.4L23.705.485a4.622,4.622,0,0,1-3.4,1.39A4.587,4.587,0,0,1,16.892.452L13.443-3.013a4.622,4.622,0,0,1-1.39-3.4,4.709,4.709,0,0,1,1.473-3.5l-1.473-1.473A4.69,4.69,0,0,1,8.571-9.911a4.65,4.65,0,0,1-3.415-1.406L1.674-14.8A4.65,4.65,0,0,1,.268-18.214a4.568,4.568,0,0,1,1.423-3.4l2.461-2.444a4.622,4.622,0,0,1,3.4-1.39,4.587,4.587,0,0,1,3.415,1.423l3.449,3.465a4.622,4.622,0,0,1,1.39,3.4,4.709,4.709,0,0,1-1.473,3.5L15.8-12.188a4.69,4.69,0,0,1,3.482-1.473A4.65,4.65,0,0,1,22.7-12.254Z" transform="translate(937.975 2294.638)"/></g></g></svg>