<svg xmlns="http://www.w3.org/2000/svg" xmlns:xlink="http://www.w3.org/1999/xlink" viewBox="5970 0 600 355.5"><defs><style>.a{clip-path:url(#b);}.b{fill:none;stroke:#484848;stroke-width:2px;}.c{fill:#efebe0;stroke:#95989a;}.d{fill:#96999b;}.e{fill:#b9b9b6;}.f,.j{fill:#375178;}.g{fill:#fff;font-family:OpenSans-Regular, Open Sans;}.g,.i{font-size:15px;}.h,.k{fill:#d96b50;}.i{fill:#1d1d1d;font-family:OpenSans-SemiBold, Open Sans;font-weight:600;}.j,.k{font-size:67px;font-family:FontAwesome;}.l{fill:rgba(255,255,255,0);}</style><clipPath id="b"><rect x="5970" width="600" height="355.5"/></clipPath></defs><g id="a" class="a"><rect class="l" x="5970" width="600" height="355.5"/><g transform="translate(5970)"><line class="b" y1="152.351" x2="85.773" transform="translate(70.477 45.211)"/><line class="b" y1="152.351" x2="85.773" transform="translate(444.158 45.211)"/><line class="b" x1="85.173" y1="152.351" transform="translate(70.477 45.211)"/><line class="b" x1="85.173" y1="152.351" transform="translate(444.158 45.211)"/><line class="b" x1="85.773" transform="translate(70.477 45.211)"/><line class="b" x1="85.773" transform="translate(444.158 45.211)"/><line class="b" x1="85.173" transform="translate(70.477 197.562)"/><line class="b" x1="85.173" transform="translate(444.158 197.562)"/><line class="b" y1="60.904" transform="translate(190.906 91.017)"/><line class="b" y1="60.904" transform="translate(564.587 91.017)"/><line class="b" y1="60.904" transform="translate(35.263 91.017)"/><line class="b" y1="60.904" transform="translate(408.944 91.017)"/><g transform="translate(0 -0.187)"><path class="c" d="M12072.021,6428.36v90.412h69.771v-76l-14.413-14.414Z" transform="translate(-12071.722 -6427.948)"/><path class="d" d="M12150.172,6428.36v15.092h14.858Z" transform="translate(-12094.963 -6428.36)"/><rect class="e" width="47.778" height="2.108" transform="translate(12.027 19.76)"/><rect class="e" width="47.778" height="2.108" transform="translate(12.027 32.407)"/><rect class="e" width="47.778" height="2.108" transform="translate(12.027 45.054)"/><rect class="e" width="47.778" height="2.108" transform="translate(12.027 57.701)"/><rect class="f" width="70.369" height="19.713" transform="translate(0 71.596)"/><text class="g" transform="translate(34.759 87.412)"><tspan x="-23.273" y="0">TYPE 1</tspan></text></g><g transform="translate(373.68 -0.187)"><path class="c" d="M12072.021,6428.36v90.412h69.771v-76l-14.413-14.414Z" transform="translate(-12071.722 -6427.948)"/><path class="d" d="M12150.172,6428.36v15.092h14.858Z" transform="translate(-12094.963 -6428.36)"/><rect class="e" width="47.778" height="2.108" transform="translate(12.027 19.76)"/><rect class="e" width="47.778" height="2.108" transform="translate(12.027 32.407)"/><rect class="e" width="47.778" height="2.108" transform="translate(12.027 45.054)"/><rect class="e" width="47.778" height="2.108" transform="translate(12.027 57.701)"/><rect class="h" width="70.369" height="19.713" transform="translate(0 71.596)"/><text class="g" transform="translate(35.759 87.412)"><tspan x="-23.273" y="0">TYPE 2</tspan></text></g><g transform="translate(0 152.165)"><path class="c" d="M12072.021,6428.36v90.412h69.771v-76l-14.413-14.414Z" transform="translate(-12071.722 -6427.948)"/><path class="d" d="M12150.172,6428.36v15.092h14.858Z" transform="translate(-12094.963 -6428.36)"/><rect class="e" width="47.778" height="2.108" transform="translate(12.027 19.76)"/><rect class="e" width="47.778" height="2.108" transform="translate(12.027 32.407)"/><rect class="e" width="47.778" height="2.108" transform="translate(12.027 45.054)"/><rect class="e" width="47.778" height="2.108" transform="translate(12.027 57.701)"/><rect class="f" width="70.369" height="19.713" transform="translate(0 71.596)"/><text class="g" transform="translate(35.759 87.412)"><tspan x="-23.273" y="0">TYPE 1</tspan></text></g><g transform="translate(373.68 152.165)"><path class="c" d="M12072.021,6428.36v90.412h69.771v-76l-14.413-14.414Z" transform="translate(-12071.722 -6427.948)"/><path class="d" d="M12150.172,6428.36v15.092h14.858Z" transform="translate(-12094.963 -6428.36)"/><rect class="e" width="47.778" height="2.108" transform="translate(12.027 19.76)"/><rect class="e" width="47.778" height="2.108" transform="translate(12.027 32.407)"/><rect class="e" width="47.778" height="2.108" transform="translate(12.027 45.054)"/><rect class="e" width="47.778" height="2.108" transform="translate(12.027 57.701)"/><rect class="h" width="70.369" height="19.713" transform="translate(0 71.596)"/><text class="g" transform="translate(35.759 87.412)"><tspan x="-23.273" y="0">TYPE 2</tspan></text></g><g transform="translate(155.95 152.165)"><path class="c" d="M12072.021,6428.36v90.412h69.771v-76l-14.413-14.414Z" transform="translate(-12071.722 -6427.948)"/><path class="d" d="M12150.172,6428.36v15.092h14.858Z" transform="translate(-12094.963 -6428.36)"/><rect class="e" width="47.778" height="2.108" transform="translate(12.027 19.76)"/><rect class="e" width="47.778" height="2.108" transform="translate(12.027 32.407)"/><rect class="e" width="47.778" height="2.108" transform="translate(12.027 45.054)"/><rect class="e" width="47.778" height="2.108" transform="translate(12.027 57.701)"/><rect class="f" width="70.369" height="19.713" transform="translate(0 71.596)"/><text class="g" transform="translate(35.759 87.412)"><tspan x="-23.273" y="0">TYPE 1</tspan></text></g><g transform="translate(529.63 152.165)"><path class="c" d="M12072.021,6428.36v90.412h69.771v-76l-14.413-14.414Z" transform="translate(-12071.722 -6427.948)"/><path class="d" d="M12150.172,6428.36v15.092h14.858Z" transform="translate(-12094.963 -6428.36)"/><rect class="e" width="47.778" height="2.108" transform="translate(12.027 19.76)"/><rect class="e" width="47.778" height="2.108" transform="translate(12.027 32.407)"/><rect class="e" width="47.778" height="2.108" transform="translate(12.027 45.054)"/><rect class="e" width="47.778" height="2.108" transform="translate(12.027 57.701)"/><rect class="h" width="70.369" height="19.713" transform="translate(0 71.596)"/><text class="g" transform="translate(35.759 87.412)"><tspan x="-23.273" y="0">TYPE 2</tspan></text></g><g transform="translate(155.95 -0.187)"><path class="c" d="M12072.021,6428.36v90.412h69.771v-76l-14.413-14.414Z" transform="translate(-12071.722 -6427.948)"/><path class="d" d="M12150.172,6428.36v15.092h14.858Z" transform="translate(-12094.963 -6428.36)"/><rect class="e" width="47.778" height="2.108" transform="translate(12.027 19.76)"/><rect class="e" width="47.778" height="2.108" transform="translate(12.027 32.407)"/><rect class="e" width="47.778" height="2.108" transform="translate(12.027 45.054)"/><rect class="e" width="47.778" height="2.108" transform="translate(12.027 57.701)"/><rect class="f" width="70.369" height="19.713" transform="translate(0 71.596)"/><text class="g" transform="translate(35.759 87.412)"><tspan x="-23.273" y="0">TYPE 1</tspan></text></g><g transform="translate(529.63 -0.187)"><path class="c" d="M12072.021,6428.36v90.412h69.771v-76l-14.413-14.414Z" transform="translate(-12071.722 -6427.948)"/><path class="d" d="M12150.172,6428.36v15.092h14.858Z" transform="translate(-12094.963 -6428.36)"/><rect class="e" width="47.778" height="2.108" transform="translate(12.027 19.76)"/><rect class="e" width="47.778" height="2.108" transform="translate(12.027 32.407)"/><rect class="e" width="47.778" height="2.108" transform="translate(12.027 45.054)"/><rect class="e" width="47.778" height="2.108" transform="translate(12.027 57.701)"/><rect class="h" width="70.369" height="19.713" transform="translate(0 71.596)"/><text class="g" transform="translate(35.759 87.412)"><tspan x="-23.273" y="0">TYPE 2</tspan></text></g><text class="i" transform="translate(113.14 351.452)"><tspan x="-29.476" y="0">Server 1</tspan></text><text class="i" transform="translate(487.458 351.452)"><tspan x="-29.476" y="0">Server 2</tspan></text><text class="j" transform="translate(78.685 332.421)"><tspan x="0" y="0"></tspan></text><text class="k" transform="translate(452.004 332.421)"><tspan x="0" y="0"></tspan></text></g></g></svg>