<?xml version="1.0" encoding="iso-8859-1"?>
<!-- Generator: Adobe Illustrator 19.0.0, SVG Export Plug-In . SVG Version: 6.00 Build 0)  -->
<svg version="1.1" id="Layer_1" xmlns="http://www.w3.org/2000/svg" xmlns:xlink="http://www.w3.org/1999/xlink" x="0px" y="0px"
	 viewBox="0 0 512 512" style="enable-background:new 0 0 512 512;" xml:space="preserve">
<circle style="fill:#FFD15D;" cx="256" cy="256" r="256"/>
<path style="fill:#F9B54C;" d="M290.966,509.612c114.555-15.648,204.981-107.067,219.103-222.101L349.743,127.185L206.008,228.554
	l-82.625,32.787l58.968,58.968l-32.018,16.667l69.753,69.753l-18.101,13.905L290.966,509.612z"/>
<path style="fill:#324A5E;" d="M201.987,420.633c0,0,5.172-17.527,5.746-30.742c0.9-20.704-11.95-44.247-37.638-44.247
	s-24.69-24.69-24.69-24.69v-50.071c0,0-31.899-5.056-24.442-22.64c5.036-11.869,22.369-14.534,37.352-65.221
	c14.964-50.628,43.079-72.273,67.806-80.893c46.99-16.382,153.428-9.876,149.98,109.647c-1.934,67.067-38.221,65.781-56.954,120.011
	c-8.063,23.335,22.475,88.845,22.475,88.845H201.987z"/>
<path style="fill:#2B3B4E;" d="M376.099,211.775c2.843-98.557-69.025-120.265-120.673-115.664v324.522h86.195
	c0,0-30.537-65.508-22.476-88.847C337.88,277.556,374.165,278.842,376.099,211.775z"/>
<path style="fill:#E6F3FF;" d="M214.216,145.949c0,0,27.501-34.225,81.896-20.78s50.726,51.948,50.726,51.948
	s17.723,9.778,3.056,35.447c-14.667,25.669-40.881,21.132-43.325,19.299c-2.444-1.833-2.817,31.542-22.985,22.985
	c-20.168-8.556-18.963-22.985-42.524-44.247c-19.344-17.456-58.625-5.982-55.568-31.041
	C188.547,154.507,214.216,145.949,214.216,145.949z"/>
<path style="fill:#90DFAA;" d="M255.879,138.099c-0.562-0.64-1.336-0.962-2.327-0.962c-1.421,0-2.408,0.717-2.962,2.148
	c-0.555,1.433-0.833,3.639-0.833,6.622c0,2.024,0.119,3.682,0.355,4.973c0.238,1.293,0.636,2.27,1.195,2.932
	c0.56,0.662,1.319,0.993,2.277,0.993c0.99,0,1.765-0.345,2.326-1.034c0.56-0.69,0.953-1.674,1.179-2.956
	c0.226-1.281,0.338-2.96,0.338-5.037c0-1.97-0.119-3.584-0.353-4.837C256.838,139.686,256.44,138.738,255.879,138.099z"/>
<path style="fill:#67C682;" d="M275.534,217.478c-0.562-0.64-1.336-0.96-2.327-0.96c-1.421,0-2.408,0.715-2.962,2.148
	c-0.555,1.433-0.833,3.639-0.833,6.622c0,2.024,0.119,3.681,0.355,4.973c0.238,1.293,0.636,2.27,1.195,2.932
	c0.56,0.662,1.319,0.993,2.277,0.993c0.99,0,1.765-0.345,2.326-1.034c0.56-0.69,0.953-1.674,1.179-2.956
	c0.226-1.281,0.338-2.962,0.338-5.037c0-1.97-0.119-3.584-0.353-4.837C276.49,219.067,276.092,218.119,275.534,217.478z"/>
<path style="fill:#90DFAA;" d="M216.571,177.788c-0.562-0.64-1.336-0.96-2.327-0.96c-1.42,0-2.408,0.715-2.962,2.148
	c-0.555,1.433-0.833,3.639-0.833,6.622c0,2.024,0.119,3.682,0.355,4.973c0.238,1.293,0.636,2.27,1.195,2.932
	c0.559,0.662,1.319,0.993,2.277,0.993c0.99,0,1.765-0.345,2.326-1.034c0.56-0.69,0.953-1.674,1.179-2.956
	c0.226-1.281,0.338-2.962,0.338-5.037c0-1.97-0.119-3.584-0.353-4.837C217.528,179.378,217.129,178.429,216.571,177.788z"/>
<g>
	<path style="fill:#67C682;" d="M275.534,177.788c-0.562-0.64-1.336-0.96-2.327-0.96c-1.421,0-2.408,0.715-2.962,2.148
		c-0.555,1.433-0.833,3.639-0.833,6.622c0,2.024,0.119,3.682,0.355,4.973c0.238,1.293,0.636,2.27,1.195,2.932
		c0.559,0.662,1.319,0.993,2.277,0.993c0.99,0,1.765-0.345,2.326-1.034s0.953-1.674,1.179-2.956
		c0.226-1.281,0.338-2.962,0.338-5.037c0-1.97-0.119-3.584-0.353-4.837C276.49,179.378,276.092,178.429,275.534,177.788z"/>
	<path style="fill:#67C682;" d="M275.534,138.099c-0.562-0.64-1.336-0.962-2.327-0.962c-1.421,0-2.408,0.717-2.962,2.148
		c-0.555,1.433-0.833,3.639-0.833,6.622c0,2.024,0.119,3.682,0.355,4.973c0.238,1.293,0.636,2.27,1.195,2.932
		c0.56,0.662,1.319,0.993,2.277,0.993c0.99,0,1.765-0.345,2.326-1.034c0.56-0.69,0.953-1.674,1.179-2.956
		c0.226-1.281,0.338-2.96,0.338-5.037c0-1.97-0.119-3.584-0.353-4.837C276.49,139.686,276.092,138.738,275.534,138.099z"/>
</g>
<path style="fill:#90DFAA;" d="M214.216,145.949c0,0-1.47,0.495-3.737,1.576c0.048,1.303,0.155,2.427,0.324,3.355
	c0.238,1.293,0.636,2.27,1.195,2.932c0.56,0.662,1.319,0.993,2.277,0.993c0.99,0,1.765-0.345,2.326-1.034
	c0.56-0.69,0.953-1.674,1.179-2.956c0.226-1.281,0.338-2.96,0.338-5.037c0-1.41-0.064-2.631-0.184-3.674
	C215.468,144.401,214.216,145.949,214.216,145.949z"/>
<g>
	<path style="fill:#67C682;" d="M314.875,233.151c0.56-0.69,0.953-1.674,1.179-2.956c0.226-1.281,0.338-2.962,0.338-5.037
		c0-1.97-0.119-3.584-0.353-4.837c-0.238-1.253-0.636-2.201-1.195-2.843c-0.562-0.64-1.336-0.96-2.327-0.96
		c-1.421,0-2.408,0.715-2.962,2.148c-0.555,1.433-0.833,3.639-0.833,6.622c0,2.024,0.119,3.681,0.355,4.973
		c0.21,1.148,0.555,2.031,1.021,2.682c1.265,0.217,2.807,0.383,4.558,0.426C314.727,233.294,314.808,233.234,314.875,233.151z"/>
	<path style="fill:#67C682;" d="M336.046,225.158c0-1.97-0.119-3.584-0.353-4.837c-0.238-1.253-0.636-2.201-1.195-2.843
		c-0.562-0.64-1.336-0.96-2.327-0.96c-1.421,0-2.408,0.715-2.962,2.148c-0.555,1.433-0.833,3.639-0.833,6.622
		c0,2.024,0.119,3.681,0.355,4.973c0.048,0.267,0.109,0.512,0.172,0.752c2.343-0.86,4.727-2.007,7.082-3.496
		C336.022,226.792,336.046,226.016,336.046,225.158z"/>
</g>
<path style="fill:#90DFAA;" d="M255.879,217.478c-0.562-0.64-1.336-0.96-2.327-0.96c-1.421,0-2.408,0.715-2.962,2.148
	c-0.133,0.341-0.247,0.733-0.347,1.162c2.741,3.079,5.03,5.987,7.049,8.726c0.088-0.984,0.136-2.103,0.136-3.396
	c0-1.97-0.119-3.584-0.353-4.837C256.838,219.067,256.44,218.119,255.879,217.478z"/>
<path style="fill:#67C682;" d="M346.838,177.119c0,0,1.426-15.001-10.728-29.546v7.297c0,2.163-0.736,3.244-2.212,3.244
	c-0.657,0-1.186-0.219-1.584-0.66c-0.398-0.443-0.598-1.095-0.598-1.955v-12.557c-0.419-0.393-0.865-0.783-1.308-1.172
	c-2.017,1.446-3.429,2.181-4.215,2.181c-0.452,0-0.853-0.179-1.203-0.541c-0.35-0.36-0.524-0.777-0.524-1.252
	c0-0.548,0.172-0.953,0.517-1.21c0.345-0.259,0.953-0.591,1.824-1.002c0.314-0.148,0.562-0.303,0.846-0.455
	c-7.365-5.713-17.51-10.854-31.542-14.324c-15.856-3.918-29.418-3.782-40.686-1.629v10.554c0.371,0.084,0.741,0.171,1.083,0.305
	c0.903,0.36,1.698,0.89,2.382,1.583c0.683,0.695,1.262,1.553,1.736,2.577c0.819,1.776,1.227,4.289,1.227,7.542
	c0,1.765-0.107,3.284-0.324,4.555c-0.215,1.271-0.614,2.424-1.195,3.456c-0.733,1.269-1.679,2.25-2.843,2.939
	c-0.646,0.384-1.339,0.65-2.067,0.821v15.731c0.064-0.003,0.107-0.021,0.178-0.021c0.571,0,1.027,0.221,1.372,0.662
	c0.345,0.443,0.517,1.05,0.517,1.826v18.492c0,2.088-0.693,3.158-2.067,3.231v15.682c0.371,0.084,0.741,0.171,1.083,0.307
	c0.903,0.36,1.698,0.888,2.382,1.581c0.683,0.696,1.262,1.553,1.736,2.577c0.819,1.777,1.227,4.291,1.227,7.542
	c0,1.765-0.107,3.284-0.324,4.555c-0.188,1.11-0.541,2.114-1.009,3.043c6.609,9.481,11.036,16.674,23.062,21.775
	c17.342,7.358,20.047-16.27,22.019-21.875c-0.121-0.245-0.248-0.481-0.353-0.745c-0.333-0.895-0.579-1.881-0.734-2.963
	c-0.157-1.083-0.234-2.253-0.234-3.513c0-1.626,0.084-3.089,0.257-4.393s0.441-2.424,0.809-3.36c0.636-1.55,1.558-2.731,2.769-3.546
	c1.212-0.812,2.657-1.219,4.336-1.219c1.11,0,2.117,0.179,3.02,0.541c0.905,0.36,1.698,0.888,2.382,1.581
	c0.683,0.696,1.262,1.553,1.736,2.577c0.819,1.777,1.227,4.291,1.227,7.542c0,1.765-0.107,3.284-0.324,4.555
	c-0.195,1.15-0.56,2.189-1.055,3.144c1.733-0.174,3.569-0.476,5.467-0.945c0-0.002-0.002-0.002-0.002-0.002
	c-0.334-0.896-0.579-1.881-0.736-2.965c-0.157-1.083-0.234-2.253-0.234-3.513c0-1.626,0.084-3.089,0.257-4.393
	c0.172-1.303,0.441-2.424,0.809-3.36c0.636-1.55,1.558-2.731,2.769-3.546c1.212-0.812,2.657-1.219,4.336-1.219
	c1.11,0,2.117,0.179,3.02,0.541c0.905,0.36,1.698,0.888,2.382,1.581c0.683,0.696,1.262,1.553,1.736,2.577
	c0.707,1.534,1.09,3.653,1.186,6.287c3.413-2.934,6.651-6.737,9.464-11.659C364.563,186.897,346.838,177.119,346.838,177.119z
	 M281.185,230.035c-0.215,1.271-0.614,2.424-1.195,3.456c-0.733,1.269-1.679,2.25-2.843,2.939c-1.162,0.688-2.455,1.034-3.875,1.034
	c-1.636,0-3.103-0.464-4.401-1.389c-1.298-0.926-2.274-2.207-2.931-3.843c-0.333-0.895-0.579-1.881-0.734-2.963
	c-0.157-1.083-0.234-2.253-0.234-3.513c0-1.626,0.084-3.089,0.257-4.393s0.441-2.424,0.809-3.36c0.636-1.55,1.558-2.731,2.769-3.546
	c1.212-0.812,2.657-1.219,4.336-1.219c1.11,0,2.117,0.179,3.02,0.541c0.905,0.36,1.698,0.888,2.382,1.581
	c0.683,0.696,1.262,1.553,1.736,2.577c0.819,1.777,1.227,4.291,1.227,7.542C281.509,227.245,281.4,228.764,281.185,230.035z
	 M281.185,190.345c-0.215,1.271-0.614,2.422-1.195,3.456c-0.733,1.269-1.679,2.25-2.843,2.939c-1.162,0.688-2.455,1.034-3.875,1.034
	c-1.636,0-3.103-0.464-4.401-1.389c-1.298-0.926-2.274-2.207-2.931-3.843c-0.333-0.895-0.579-1.881-0.734-2.965
	c-0.157-1.083-0.234-2.253-0.234-3.512c0-1.626,0.084-3.091,0.257-4.393s0.441-2.424,0.809-3.36c0.636-1.55,1.558-2.731,2.769-3.546
	c1.212-0.812,2.657-1.219,4.336-1.219c1.11,0,2.117,0.181,3.02,0.541c0.905,0.36,1.698,0.888,2.382,1.583
	c0.683,0.695,1.262,1.553,1.736,2.577c0.819,1.776,1.227,4.289,1.227,7.542C281.509,187.556,281.4,189.076,281.185,190.345z
	 M281.185,150.654c-0.215,1.271-0.614,2.424-1.195,3.456c-0.733,1.269-1.679,2.25-2.843,2.939c-1.162,0.69-2.455,1.034-3.875,1.034
	c-1.636,0-3.103-0.464-4.401-1.389c-1.298-0.924-2.274-2.207-2.931-3.843c-0.333-0.896-0.579-1.883-0.734-2.965
	c-0.157-1.083-0.234-2.253-0.234-3.512c0-1.627,0.084-3.091,0.257-4.393s0.441-2.424,0.809-3.36c0.636-1.55,1.558-2.731,2.769-3.546
	c1.212-0.812,2.657-1.219,4.336-1.219c1.11,0,2.117,0.179,3.02,0.54c0.905,0.36,1.698,0.89,2.382,1.583
	c0.683,0.695,1.262,1.553,1.736,2.577c0.819,1.776,1.227,4.289,1.227,7.542C281.509,147.865,281.4,149.385,281.185,150.654z
	 M296.801,234.249c0,2.164-0.736,3.246-2.212,3.246c-0.657,0-1.186-0.221-1.584-0.662s-0.598-1.093-0.598-1.955v-14.696
	c-2.734,2.098-4.577,3.15-5.523,3.15c-0.452,0-0.853-0.179-1.203-0.541c-0.35-0.36-0.524-0.777-0.524-1.252
	c0-0.548,0.172-0.953,0.517-1.21c0.345-0.257,0.953-0.591,1.824-1.002c1.303-0.615,2.345-1.26,3.125-1.939
	c0.781-0.679,1.474-1.438,2.076-2.277c0.603-0.84,0.996-1.357,1.179-1.55c0.183-0.193,0.527-0.291,1.034-0.291
	c0.571,0,1.027,0.222,1.372,0.664c0.345,0.443,0.517,1.048,0.517,1.826L296.801,234.249L296.801,234.249z M296.801,194.56
	c0,2.163-0.736,3.244-2.212,3.244c-0.657,0-1.186-0.219-1.584-0.66c-0.398-0.443-0.598-1.095-0.598-1.955v-14.696
	c-2.734,2.1-4.577,3.15-5.523,3.15c-0.452,0-0.853-0.179-1.203-0.54c-0.35-0.36-0.524-0.777-0.524-1.252
	c0-0.548,0.172-0.953,0.517-1.212c0.345-0.259,0.953-0.591,1.824-1.002c1.303-0.614,2.345-1.258,3.125-1.938
	c0.781-0.681,1.474-1.438,2.076-2.277c0.603-0.84,0.996-1.357,1.179-1.55c0.183-0.193,0.527-0.291,1.034-0.291
	c0.571,0,1.027,0.221,1.372,0.662c0.345,0.443,0.517,1.05,0.517,1.826L296.801,194.56L296.801,194.56z M296.801,154.871
	c0,2.163-0.736,3.244-2.212,3.244c-0.657,0-1.186-0.219-1.584-0.66c-0.398-0.443-0.598-1.095-0.598-1.955v-14.696
	c-2.734,2.1-4.577,3.15-5.523,3.15c-0.452,0-0.853-0.179-1.203-0.541c-0.35-0.36-0.524-0.777-0.524-1.252
	c0-0.548,0.172-0.953,0.517-1.21c0.345-0.259,0.953-0.591,1.824-1.002c1.303-0.614,2.345-1.258,3.125-1.938
	c0.781-0.681,1.474-1.438,2.076-2.277c0.603-0.84,0.996-1.357,1.179-1.55c0.183-0.193,0.527-0.291,1.034-0.291
	c0.571,0,1.027,0.221,1.372,0.662c0.345,0.441,0.517,1.05,0.517,1.826L296.801,154.871L296.801,154.871z M316.456,194.56
	c0,2.163-0.736,3.244-2.212,3.244c-0.657,0-1.186-0.219-1.584-0.66c-0.398-0.443-0.598-1.095-0.598-1.955v-14.696
	c-2.734,2.1-4.577,3.15-5.523,3.15c-0.452,0-0.853-0.179-1.203-0.54c-0.35-0.36-0.524-0.777-0.524-1.252
	c0-0.548,0.172-0.953,0.517-1.212c0.345-0.259,0.953-0.591,1.824-1.002c1.303-0.614,2.344-1.258,3.125-1.938
	c0.781-0.681,1.474-1.438,2.076-2.277c0.603-0.84,0.996-1.357,1.179-1.55c0.183-0.193,0.528-0.291,1.034-0.291
	c0.571,0,1.027,0.221,1.372,0.662c0.345,0.443,0.517,1.05,0.517,1.826L316.456,194.56L316.456,194.56z M320.493,150.654
	c-0.215,1.271-0.614,2.424-1.195,3.456c-0.733,1.269-1.679,2.25-2.843,2.939c-1.162,0.69-2.455,1.034-3.875,1.034
	c-1.636,0-3.103-0.464-4.401-1.389c-1.298-0.924-2.274-2.207-2.931-3.843c-0.333-0.896-0.579-1.883-0.734-2.965
	c-0.157-1.083-0.234-2.253-0.234-3.512c0-1.627,0.084-3.091,0.257-4.393c0.172-1.302,0.441-2.424,0.809-3.36
	c0.636-1.55,1.558-2.731,2.769-3.546c1.212-0.812,2.657-1.219,4.336-1.219c1.11,0,2.117,0.179,3.02,0.54
	c0.905,0.36,1.698,0.89,2.382,1.583c0.683,0.695,1.262,1.553,1.736,2.577c0.819,1.776,1.227,4.289,1.227,7.542
	C320.817,147.865,320.71,149.385,320.493,150.654z M340.149,190.345c-0.215,1.271-0.614,2.422-1.195,3.456
	c-0.733,1.269-1.679,2.25-2.843,2.939c-1.162,0.688-2.455,1.034-3.875,1.034c-1.636,0-3.103-0.464-4.401-1.389
	c-1.298-0.926-2.274-2.207-2.931-3.843c-0.333-0.895-0.579-1.881-0.734-2.965c-0.157-1.083-0.234-2.253-0.234-3.512
	c0-1.626,0.084-3.091,0.257-4.393s0.441-2.424,0.809-3.36c0.636-1.55,1.558-2.731,2.769-3.546c1.212-0.812,2.657-1.219,4.336-1.219
	c1.11,0,2.117,0.181,3.02,0.541c0.905,0.36,1.698,0.888,2.382,1.583c0.683,0.695,1.262,1.553,1.736,2.577
	c0.819,1.776,1.227,4.289,1.227,7.542C340.473,187.556,340.365,189.076,340.149,190.345z"/>
<path style="fill:#90DFAA;" d="M255.283,197.806c-0.657,0-1.186-0.219-1.584-0.66c-0.398-0.443-0.598-1.095-0.598-1.955v-14.698
	c-2.734,2.1-4.577,3.15-5.523,3.15c-0.452,0-0.853-0.179-1.203-0.54c-0.35-0.36-0.524-0.777-0.524-1.252
	c0-0.548,0.172-0.953,0.517-1.212c0.345-0.259,0.953-0.591,1.824-1.002c1.303-0.614,2.345-1.258,3.125-1.938
	c0.781-0.681,1.474-1.438,2.076-2.277c0.603-0.84,0.996-1.357,1.179-1.55c0.159-0.167,0.459-0.248,0.857-0.271v-15.731
	c-0.579,0.134-1.179,0.214-1.808,0.214c-1.636,0-3.103-0.464-4.401-1.389c-1.298-0.924-2.274-2.207-2.931-3.843
	c-0.333-0.896-0.579-1.883-0.734-2.965c-0.157-1.083-0.234-2.253-0.234-3.512c0-1.627,0.084-3.091,0.257-4.393
	c0.172-1.302,0.441-2.424,0.809-3.36c0.636-1.55,1.558-2.731,2.769-3.546c1.212-0.812,2.657-1.219,4.336-1.219
	c0.691,0,1.327,0.095,1.939,0.234V123.54c-15.908,3.039-27.236,10.102-33.935,15.496c0.691,1.741,1.053,4.075,1.053,7.063
	c0,1.765-0.107,3.284-0.324,4.555c-0.215,1.271-0.614,2.424-1.195,3.456c-0.733,1.269-1.679,2.25-2.843,2.939
	c-1.162,0.69-2.455,1.034-3.875,1.034c-1.636,0-3.103-0.464-4.401-1.389c-1.298-0.924-2.274-2.207-2.931-3.843
	c-0.333-0.896-0.579-1.883-0.734-2.965c-0.003-0.028-0.005-0.057-0.009-0.084c-7.811,4.651-18.806,13.895-20.74,29.762
	c-3.056,25.057,36.226,13.583,55.568,31.039c2.253,2.033,4.275,4.003,6.116,5.911c0.543-0.834,1.193-1.533,1.976-2.058
	c1.212-0.812,2.657-1.219,4.336-1.219c0.691,0,1.327,0.095,1.939,0.234v-15.682C255.378,197.794,255.333,197.806,255.283,197.806z
	 M222.222,190.345c-0.215,1.271-0.614,2.422-1.195,3.456c-0.733,1.269-1.679,2.25-2.843,2.939c-1.162,0.688-2.455,1.034-3.875,1.034
	c-1.636,0-3.103-0.464-4.401-1.389c-1.298-0.926-2.274-2.207-2.931-3.843c-0.333-0.895-0.579-1.881-0.734-2.965
	c-0.157-1.083-0.234-2.253-0.234-3.512c0-1.626,0.084-3.091,0.257-4.393c0.172-1.302,0.441-2.424,0.809-3.36
	c0.636-1.55,1.558-2.731,2.769-3.546c1.212-0.812,2.657-1.219,4.336-1.219c1.11,0,2.117,0.181,3.02,0.541
	c0.903,0.36,1.698,0.888,2.382,1.583c0.683,0.695,1.262,1.553,1.736,2.577c0.819,1.776,1.227,4.289,1.227,7.542
	C222.546,187.556,222.437,189.076,222.222,190.345z M237.839,194.56c0,2.163-0.736,3.244-2.212,3.244
	c-0.657,0-1.186-0.219-1.584-0.66c-0.398-0.443-0.598-1.095-0.598-1.955v-14.696c-2.734,2.1-4.577,3.15-5.523,3.15
	c-0.452,0-0.853-0.179-1.203-0.54c-0.35-0.36-0.524-0.777-0.524-1.252c0-0.548,0.172-0.953,0.517-1.212s0.953-0.591,1.824-1.002
	c1.303-0.614,2.345-1.258,3.125-1.938c0.781-0.681,1.474-1.438,2.076-2.277c0.603-0.84,0.996-1.357,1.179-1.55
	c0.183-0.193,0.528-0.291,1.034-0.291c0.571,0,1.027,0.221,1.372,0.662c0.345,0.443,0.517,1.05,0.517,1.826L237.839,194.56
	L237.839,194.56z M237.839,154.871c0,2.163-0.736,3.244-2.212,3.244c-0.657,0-1.186-0.219-1.584-0.66
	c-0.398-0.443-0.598-1.095-0.598-1.955v-14.696c-2.734,2.1-4.577,3.15-5.523,3.15c-0.452,0-0.853-0.179-1.203-0.541
	c-0.35-0.36-0.524-0.777-0.524-1.252c0-0.548,0.172-0.953,0.517-1.21c0.345-0.259,0.953-0.591,1.824-1.002
	c1.303-0.614,2.345-1.258,3.125-1.938c0.781-0.681,1.474-1.438,2.076-2.277c0.603-0.84,0.996-1.357,1.179-1.55
	c0.183-0.193,0.528-0.291,1.034-0.291c0.571,0,1.027,0.221,1.372,0.662c0.345,0.441,0.517,1.05,0.517,1.826L237.839,154.871
	L237.839,154.871z"/>
<g>
	<path style="fill:#67C682;" d="M334.496,177.788c-0.562-0.64-1.336-0.96-2.327-0.96c-1.421,0-2.408,0.715-2.962,2.148
		c-0.555,1.433-0.833,3.639-0.833,6.622c0,2.024,0.119,3.682,0.355,4.973c0.238,1.293,0.636,2.27,1.195,2.932
		s1.319,0.993,2.277,0.993c0.99,0,1.765-0.345,2.326-1.034c0.56-0.69,0.953-1.674,1.179-2.956c0.226-1.281,0.338-2.962,0.338-5.037
		c0-1.97-0.119-3.584-0.353-4.837C335.455,179.378,335.057,178.429,334.496,177.788z"/>
	<path style="fill:#67C682;" d="M314.842,138.099c-0.562-0.64-1.336-0.962-2.327-0.962c-1.421,0-2.408,0.717-2.962,2.148
		c-0.555,1.433-0.833,3.639-0.833,6.622c0,2.024,0.119,3.682,0.355,4.973c0.238,1.293,0.636,2.27,1.195,2.932
		c0.56,0.662,1.319,0.993,2.277,0.993c0.99,0,1.765-0.345,2.326-1.034c0.56-0.69,0.953-1.674,1.179-2.956
		c0.226-1.281,0.338-2.96,0.338-5.037c0-1.97-0.119-3.584-0.353-4.837C315.801,139.686,315.402,138.738,314.842,138.099z"/>
</g>
<g>
</g>
<g>
</g>
<g>
</g>
<g>
</g>
<g>
</g>
<g>
</g>
<g>
</g>
<g>
</g>
<g>
</g>
<g>
</g>
<g>
</g>
<g>
</g>
<g>
</g>
<g>
</g>
<g>
</g>
</svg>
