<svg xmlns="http://www.w3.org/2000/svg" xmlns:xlink="http://www.w3.org/1999/xlink" viewBox="5970 456 110 142"><defs><style>.a{clip-path:url(#b);}.b{fill:#efebe0;stroke:#95989a;}.c{fill:#96999b;}.d{fill:#3a3a3a;}.e{fill:#418eeb;}.f{fill:#fff;font-size:27px;font-family:OpenSans-Regular, Open Sans;}.g{fill:rgba(255,255,255,0);}</style><clipPath id="b"><rect x="5970" y="456" width="110" height="142"/></clipPath></defs><g id="a" class="a"><rect class="g" x="5970" y="456" width="110" height="142"/><g transform="translate(5455 -1770.273)"><path class="b" d="M12072.022,6428.36v140.871h109V6450.819l-22.516-22.458Z" transform="translate(-11556.455 -4201.587)"/><path class="c" d="M12150.17,6428.361V6450.9h22.457Z" transform="translate(-11548.344 -4201.587)"/><g transform="translate(537.674 2270.62)"><g transform="translate(0)"><path class="d" d="M98.789,2.414,96.443,0,77.895,18.015,96.443,36.032l2.346-2.415-16.06-15.6Z" transform="translate(-77.895)"/></g></g><g transform="translate(602.719 2306.651) rotate(180)"><path class="d" d="M20.894,2.414,18.548,0,0,18.015,18.548,36.032l2.346-2.415-16.06-15.6Z"/></g><rect class="e" width="110" height="31" transform="translate(515 2337.273)"/><text class="f" transform="translate(532.997 2362.773)"><tspan x="0" y="0">HTML</tspan></text><path class="e" d="M24.375-5.357A1.55,1.55,0,0,0,23.906-6.5L20.424-9.978a1.55,1.55,0,0,0-1.138-.469,1.594,1.594,0,0,0-1.205.536l.318.31q.268.259.36.36a3.986,3.986,0,0,1,.251.318,1.347,1.347,0,0,1,.218.427,1.7,1.7,0,0,1,.059.46A1.55,1.55,0,0,1,18.817-6.9a1.55,1.55,0,0,1-1.138.469,1.7,1.7,0,0,1-.46-.059,1.346,1.346,0,0,1-.427-.218,3.986,3.986,0,0,1-.318-.251q-.1-.092-.36-.36l-.31-.318a1.624,1.624,0,0,0-.552,1.222,1.55,1.55,0,0,0,.469,1.138l3.449,3.465a1.543,1.543,0,0,0,1.138.452,1.612,1.612,0,0,0,1.138-.435l2.461-2.444A1.53,1.53,0,0,0,24.375-5.357ZM12.606-17.16a1.55,1.55,0,0,0-.469-1.138L8.689-21.763a1.55,1.55,0,0,0-1.138-.469,1.617,1.617,0,0,0-1.138.452L3.951-19.336a1.53,1.53,0,0,0-.469,1.122,1.55,1.55,0,0,0,.469,1.138l3.482,3.482a1.543,1.543,0,0,0,1.138.452,1.618,1.618,0,0,0,1.205-.519l-.318-.31q-.268-.259-.36-.36a3.986,3.986,0,0,1-.251-.318,1.346,1.346,0,0,1-.218-.427,1.7,1.7,0,0,1-.059-.46,1.55,1.55,0,0,1,.469-1.138,1.55,1.55,0,0,1,1.138-.469,1.7,1.7,0,0,1,.46.059,1.347,1.347,0,0,1,.427.218,3.986,3.986,0,0,1,.318.251q.1.092.36.36l.31.318A1.624,1.624,0,0,0,12.606-17.16ZM26.183-8.772a4.65,4.65,0,0,1,1.406,3.415,4.568,4.568,0,0,1-1.423,3.4L23.705.485a4.622,4.622,0,0,1-3.4,1.39A4.587,4.587,0,0,1,16.892.452L13.443-3.013a4.622,4.622,0,0,1-1.39-3.4,4.709,4.709,0,0,1,1.473-3.5l-1.473-1.473A4.69,4.69,0,0,1,8.571-9.911a4.65,4.65,0,0,1-3.415-1.406L1.674-14.8A4.65,4.65,0,0,1,.268-18.214a4.568,4.568,0,0,1,1.423-3.4l2.461-2.444a4.622,4.622,0,0,1,3.4-1.39,4.587,4.587,0,0,1,3.415,1.423l3.449,3.465a4.622,4.622,0,0,1,1.39,3.4,4.709,4.709,0,0,1-1.473,3.5L15.8-12.188a4.69,4.69,0,0,1,3.482-1.473A4.65,4.65,0,0,1,22.7-12.254Z" transform="translate(520 2257.773)"/></g></g></svg>