<svg xmlns="http://www.w3.org/2000/svg" xmlns:xlink="http://www.w3.org/1999/xlink" viewBox="7670 0 340 355.5"><defs><style>.a{clip-path:url(#b);}.b{fill:#f6f6f6;font-size:110px;}.b,.c,.d,.r{font-family:FontAwesome;}.c,.p,.r{fill:#418eeb;}.c,.d{font-size:76px;}.d,.s{fill:#ffb73b;}.e,.f,.h,.j,.l,.q{fill:#fff;}.e{font-size:32px;}.e,.f,.h,.j,.q{font-family:OpenSans-Regular, Open Sans;}.f,.k{font-size:16px;}.g{fill:none;stroke:#fff;}.h{font-size:24px;}.i{font-size:15px;}.j{font-size:25px;}.m{fill:#efebe0;stroke:#95989a;}.n{fill:#96999b;}.o{fill:#3a3a3a;}.q{font-size:10px;}.r{font-size:11px;}.t{fill:rgba(255,255,255,0);}</style><clipPath id="b"><rect x="7670" width="340" height="355.5"/></clipPath></defs><g id="a" class="a"><rect class="t" x="7670" width="340" height="355.5"/><g transform="translate(6880 -1910)"><text class="b" transform="translate(896.881 2003.624)"><tspan x="0" y="0"></tspan></text><text class="c" transform="translate(819.449 2232.006)"><tspan x="0" y="0"></tspan></text><text class="d" transform="translate(1016.494 2232.006)"><tspan x="0" y="0"></tspan></text><text class="e" transform="translate(912.951 1957.399)"><tspan x="0" y="0">Client</tspan></text><text class="f" transform="translate(856.62 2258.722)"><tspan x="-30.559" y="0">Server 1</tspan></text><text class="f" transform="translate(1053.665 2258.722)"><tspan x="-30.559" y="0">Server 2</tspan></text><line class="g" x1="25.96" y2="119.814" transform="translate(864.505 2034.983)"/><line class="g" x2="25.96" y2="119.814" transform="translate(1022.846 2034.983)"/><line class="g" y1="119.814" x2="25.96" transform="translate(892.543 2023.289)"/><line class="g" x1="25.96" y1="119.814" transform="translate(994.807 2023.289)"/><text class="h" transform="translate(953.304 2075.198)"><tspan x="-29.355" y="0">HTTP</tspan><tspan class="i"><tspan x="-28.477" y="23">Request</tspan></tspan></text><text class="j" transform="translate(1093.628 2085.021)"><tspan x="-30.579" y="0">HTTP</tspan><tspan class="k"><tspan x="-36.199" y="24">Response</tspan></tspan></text><text class="j" transform="translate(826 2085.021)"><tspan x="-30.579" y="0">HTTP</tspan><tspan class="k"><tspan x="-36.199" y="24">Response</tspan></tspan></text><path class="l" d="M0,0H15.312L7.3,15.677Z" transform="matrix(-0.985, -0.174, 0.174, -0.985, 897.809, 2036.394)"/><path class="l" d="M0,15.677H15.312L7.3,0Z" transform="matrix(0.985, -0.174, 0.174, 0.985, 1012.779, 2020.955)"/><path class="l" d="M0,0H15.312L7.3,15.677Z" transform="matrix(0.985, 0.174, -0.174, 0.985, 885.199, 2141.691)"/><path class="l" d="M0,15.677H15.312L7.3,0Z" transform="matrix(-0.985, 0.174, -0.174, -0.985, 1030.833, 2157.13)"/><g transform="translate(289 -230.273)"><path class="m" d="M12072.021,6428.36v55.861h43.223v-46.956l-8.927-8.906Z" transform="translate(-11557.021 -4201.586)"/><path class="n" d="M12150.169,6428.36v8.936h8.905Z" transform="translate(-11600.739 -4201.587)"/><g transform="translate(523.991 2244.16)"><g transform="translate(0)"><path class="o" d="M86.18.957,85.25,0,77.895,7.144l7.355,7.144.93-.958L79.812,7.144Z" transform="translate(-77.895)"/></g></g><g transform="translate(549.784 2258.448) rotate(180)"><path class="o" d="M8.285.957,7.355,0,0,7.144l7.355,7.144.93-.958L1.917,7.144Z"/></g><rect class="p" width="44.22" height="12.5" transform="translate(514.5 2270.591)"/><text class="q" transform="translate(523.136 2280.573)"><tspan x="0" y="0">HTML</tspan></text><text class="r" transform="translate(516.983 2237.756)"><tspan x="0" y="0"></tspan></text></g><g transform="translate(556 -230.273)"><path class="m" d="M12072.021,6428.36v55.861h43.223v-46.956l-8.927-8.906Z" transform="translate(-11557.021 -4201.586)"/><path class="n" d="M12150.169,6428.36v8.936h8.905Z" transform="translate(-11600.739 -4201.587)"/><g transform="translate(523.991 2244.16)"><g transform="translate(0)"><path class="o" d="M86.18.957,85.25,0,77.895,7.144l7.355,7.144.93-.958L79.812,7.144Z" transform="translate(-77.895)"/></g></g><g transform="translate(549.784 2258.448) rotate(180)"><path class="o" d="M8.285.957,7.355,0,0,7.144l7.355,7.144.93-.958L1.917,7.144Z"/></g><rect class="s" width="44.22" height="12.5" transform="translate(514.5 2270.591)"/><text class="q" transform="translate(523.136 2280.573)"><tspan x="0" y="0">HTML</tspan></text><text class="r" transform="translate(516.983 2237.756)"><tspan x="0" y="0"></tspan></text></g></g></g></svg>