<svg xmlns="http://www.w3.org/2000/svg" xmlns:xlink="http://www.w3.org/1999/xlink" viewBox="5970 703 340 355.5"><defs><style>.a{clip-path:url(#b);}.b{fill:#f6f6f6;}.c{fill:#418eeb;}.d{fill:#ffb73b;}.e{fill:#fff;}.f{fill:none;stroke:#fff;}.g{fill:#efebe0;stroke:#95989a;}.h{fill:#96999b;}.i{fill:#3a3a3a;}.j{fill:rgba(255,255,255,0);}</style><clipPath id="b"><rect x="5970" y="703" width="340" height="355.5"/></clipPath></defs><g id="a" class="a"><rect class="j" x="5970" y="703" width="340" height="355.5"/><g transform="translate(5180 -1207)"><path class="b" d="M110-33.393V-84.464a1.888,1.888,0,0,0-.583-1.381,1.888,1.888,0,0,0-1.381-.583H9.821a1.888,1.888,0,0,0-1.381.583,1.888,1.888,0,0,0-.583,1.381v51.071a1.888,1.888,0,0,0,.583,1.381,1.888,1.888,0,0,0,1.381.583h98.214a1.888,1.888,0,0,0,1.381-.583A1.888,1.888,0,0,0,110-33.393Zm7.857-51.071v66.786a9.457,9.457,0,0,1-2.885,6.936,9.457,9.457,0,0,1-6.936,2.885H74.643A12.938,12.938,0,0,0,75.625-3.1a45.175,45.175,0,0,0,1.964,4.358,7.011,7.011,0,0,1,.982,2.67,3.775,3.775,0,0,1-1.166,2.762,3.775,3.775,0,0,1-2.762,1.166H43.214a3.775,3.775,0,0,1-2.762-1.166,3.775,3.775,0,0,1-1.166-2.762,6.774,6.774,0,0,1,.982-2.7,43.612,43.612,0,0,0,1.964-4.3,12.846,12.846,0,0,0,.982-4.788H9.821a9.457,9.457,0,0,1-6.936-2.885A9.457,9.457,0,0,1,0-17.679V-84.464A9.457,9.457,0,0,1,2.885-91.4a9.457,9.457,0,0,1,6.936-2.885h98.214a9.457,9.457,0,0,1,6.936,2.885A9.457,9.457,0,0,1,117.857-84.464Z" transform="translate(896.881 2003.624)"/><path class="c" d="M5.429-5.429H48.857v-5.429H5.429Zm0-21.714H48.857v-5.429H5.429ZM70.741-5.259a3.926,3.926,0,0,0,1.188-2.884,3.926,3.926,0,0,0-1.187-2.884,3.926,3.926,0,0,0-2.884-1.187,3.926,3.926,0,0,0-2.884,1.188,3.926,3.926,0,0,0-1.187,2.884,3.926,3.926,0,0,0,1.187,2.884,3.926,3.926,0,0,0,2.884,1.188A3.926,3.926,0,0,0,70.741-5.259ZM5.429-48.857H48.857v-5.429H5.429ZM70.741-26.973a3.926,3.926,0,0,0,1.188-2.884,3.926,3.926,0,0,0-1.187-2.884,3.926,3.926,0,0,0-2.884-1.187,3.926,3.926,0,0,0-2.884,1.188,3.926,3.926,0,0,0-1.187,2.884,3.926,3.926,0,0,0,1.187,2.884,3.926,3.926,0,0,0,2.884,1.188A3.926,3.926,0,0,0,70.741-26.973Zm0-21.714a3.926,3.926,0,0,0,1.188-2.884,3.926,3.926,0,0,0-1.187-2.884,3.926,3.926,0,0,0-2.884-1.187,3.926,3.926,0,0,0-2.884,1.188,3.926,3.926,0,0,0-1.187,2.884,3.926,3.926,0,0,0,1.187,2.884A3.926,3.926,0,0,0,67.857-47.5,3.926,3.926,0,0,0,70.741-48.687ZM76-16.286V0H0V-16.286ZM76-38v16.286H0V-38Zm0-21.714v16.286H0V-59.714Z" transform="translate(819.449 2232.006)"/><path class="d" d="M5.429-5.429H48.857v-5.429H5.429Zm0-21.714H48.857v-5.429H5.429ZM70.741-5.259a3.926,3.926,0,0,0,1.188-2.884,3.926,3.926,0,0,0-1.187-2.884,3.926,3.926,0,0,0-2.884-1.187,3.926,3.926,0,0,0-2.884,1.188,3.926,3.926,0,0,0-1.187,2.884,3.926,3.926,0,0,0,1.187,2.884,3.926,3.926,0,0,0,2.884,1.188A3.926,3.926,0,0,0,70.741-5.259ZM5.429-48.857H48.857v-5.429H5.429ZM70.741-26.973a3.926,3.926,0,0,0,1.188-2.884,3.926,3.926,0,0,0-1.187-2.884,3.926,3.926,0,0,0-2.884-1.187,3.926,3.926,0,0,0-2.884,1.188,3.926,3.926,0,0,0-1.187,2.884,3.926,3.926,0,0,0,1.187,2.884,3.926,3.926,0,0,0,2.884,1.188A3.926,3.926,0,0,0,70.741-26.973Zm0-21.714a3.926,3.926,0,0,0,1.188-2.884,3.926,3.926,0,0,0-1.187-2.884,3.926,3.926,0,0,0-2.884-1.187,3.926,3.926,0,0,0-2.884,1.188,3.926,3.926,0,0,0-1.187,2.884,3.926,3.926,0,0,0,1.187,2.884A3.926,3.926,0,0,0,67.857-47.5,3.926,3.926,0,0,0,70.741-48.687ZM76-16.286V0H0V-16.286ZM76-38v16.286H0V-38Zm0-21.714v16.286H0V-59.714Z" transform="translate(1016.494 2232.006)"/><path class="e" d="M12.922-20.8a7.469,7.469,0,0,0-5.945,2.508A10.115,10.115,0,0,0,4.8-11.422q0,4.484,2.1,6.93a7.47,7.47,0,0,0,5.992,2.445,20.459,20.459,0,0,0,5.453-.859V-.578a16.793,16.793,0,0,1-5.859.891Q7.437.313,4.7-2.75t-2.742-8.7a13.736,13.736,0,0,1,1.32-6.187,9.479,9.479,0,0,1,3.813-4.094,11.539,11.539,0,0,1,5.867-1.437,14.157,14.157,0,0,1,6.281,1.313l-1.125,2.281A12.107,12.107,0,0,0,12.922-20.8ZM25.531,0H22.938V-24.312h2.594Zm8.094,0H31.031V-17.125h2.594ZM30.813-21.766a1.723,1.723,0,0,1,.438-1.3,1.529,1.529,0,0,1,1.094-.414,1.528,1.528,0,0,1,1.078.422,1.692,1.692,0,0,1,.453,1.3,1.718,1.718,0,0,1-.453,1.3,1.513,1.513,0,0,1-1.078.43,1.5,1.5,0,0,1-1.094-.43A1.755,1.755,0,0,1,30.813-21.766ZM46.359.313A7.868,7.868,0,0,1,40.367-2a8.952,8.952,0,0,1-2.2-6.422A9.928,9.928,0,0,1,40.211-15a6.773,6.773,0,0,1,5.477-2.437,6.458,6.458,0,0,1,5.094,2.117,8.114,8.114,0,0,1,1.875,5.586v1.641h-11.8a6.788,6.788,0,0,0,1.523,4.578,5.269,5.269,0,0,0,4.07,1.563,13.793,13.793,0,0,0,5.469-1.156V-.8a13.726,13.726,0,0,1-2.6.852A14.62,14.62,0,0,1,46.359.313Zm-.7-15.578a4.236,4.236,0,0,0-3.289,1.344A6.194,6.194,0,0,0,40.922-10.2h8.953a5.7,5.7,0,0,0-1.094-3.758A3.85,3.85,0,0,0,45.656-15.266ZM68.8,0V-11.078a4.47,4.47,0,0,0-.953-3.125,3.883,3.883,0,0,0-2.984-1.031,4.922,4.922,0,0,0-3.937,1.453q-1.25,1.453-1.25,4.8V0H57.078V-17.125h2.109l.422,2.344h.125a5.3,5.3,0,0,1,2.234-1.961,7.26,7.26,0,0,1,3.2-.7,6.5,6.5,0,0,1,4.656,1.492q1.562,1.492,1.563,4.773V0ZM82.25-1.828a8.473,8.473,0,0,0,1.328-.1,8.6,8.6,0,0,0,1.016-.211V-.156A4.741,4.741,0,0,1,83.352.18a9.328,9.328,0,0,1-1.477.133q-4.969,0-4.969-5.234V-15.109H74.453v-1.25l2.453-1.078L78-21.094h1.5v3.969h4.969v2.016H79.5V-5.031a3.467,3.467,0,0,0,.734,2.375A2.556,2.556,0,0,0,82.25-1.828Z" transform="translate(912.951 1957.399)"/><path class="e" d="M-22.543-3.039A2.8,2.8,0,0,1-23.637-.687a4.743,4.743,0,0,1-2.969.844A7.436,7.436,0,0,1-29.73-.367V-1.648A8.227,8.227,0,0,0-28.2-1.18a8.056,8.056,0,0,0,1.641.172,3.31,3.31,0,0,0,2-.5,1.654,1.654,0,0,0,.672-1.4,1.8,1.8,0,0,0-.238-.973,2.214,2.214,0,0,0-.8-.7,11.148,11.148,0,0,0-1.7-.727A5.424,5.424,0,0,1-28.9-6.664,2.984,2.984,0,0,1-29.582-8.7a2.536,2.536,0,0,1,.992-2.1,4.123,4.123,0,0,1,2.625-.781,7.736,7.736,0,0,1,3.133.625L-23.246-9.8A7.08,7.08,0,0,0-26-10.4a2.661,2.661,0,0,0-1.648.453,1.493,1.493,0,0,0-.594,1.258,1.928,1.928,0,0,0,.219.973,2.06,2.06,0,0,0,.738.7,9.173,9.173,0,0,0,1.59.7,6.294,6.294,0,0,1,2.473,1.375A2.7,2.7,0,0,1-22.543-3.039Zm5.758,3.2a3.934,3.934,0,0,1-3-1.156,4.476,4.476,0,0,1-1.1-3.211A4.964,4.964,0,0,1-19.859-7.5a3.387,3.387,0,0,1,2.738-1.219A3.229,3.229,0,0,1-14.574-7.66a4.057,4.057,0,0,1,.938,2.793v.82h-5.9a3.394,3.394,0,0,0,.762,2.289,2.635,2.635,0,0,0,2.035.781A6.9,6.9,0,0,0-14-1.555V-.4a6.863,6.863,0,0,1-1.3.426A7.31,7.31,0,0,1-16.785.156Zm-.352-7.789a2.118,2.118,0,0,0-1.645.672A3.1,3.1,0,0,0-19.5-5.1h4.477a2.851,2.851,0,0,0-.547-1.879A1.925,1.925,0,0,0-17.137-7.633ZM-7.52-8.719A5.075,5.075,0,0,1-6.5-8.625l-.18,1.2a4.418,4.418,0,0,0-.937-.117A2.282,2.282,0,0,0-9.391-6.7a3.077,3.077,0,0,0-.738,2.1V0h-1.3V-8.562h1.07l.148,1.586h.063A3.764,3.764,0,0,1-9-8.266,2.585,2.585,0,0,1-7.52-8.719ZM-3.02,0-6.27-8.562h1.391l1.844,5.078A24.036,24.036,0,0,1-2.3-1.172h.063A17.467,17.467,0,0,1-1.7-2.887q.457-1.3,2.051-5.676H1.746L-1.5,0ZM6.738.156A3.934,3.934,0,0,1,3.742-1a4.476,4.476,0,0,1-1.1-3.211A4.964,4.964,0,0,1,3.664-7.5,3.387,3.387,0,0,1,6.4-8.719,3.229,3.229,0,0,1,8.949-7.66a4.057,4.057,0,0,1,.938,2.793v.82h-5.9A3.394,3.394,0,0,0,4.75-1.758a2.634,2.634,0,0,0,2.035.781A6.9,6.9,0,0,0,9.52-1.555V-.4a6.863,6.863,0,0,1-1.3.426A7.31,7.31,0,0,1,6.738.156ZM6.387-7.633a2.118,2.118,0,0,0-1.645.672A3.1,3.1,0,0,0,4.02-5.1H8.5A2.851,2.851,0,0,0,7.949-6.98,1.925,1.925,0,0,0,6.387-7.633ZM16-8.719a5.075,5.075,0,0,1,1.023.094l-.18,1.2a4.418,4.418,0,0,0-.937-.117,2.282,2.282,0,0,0-1.777.844,3.077,3.077,0,0,0-.738,2.1V0H12.1V-8.562h1.07l.148,1.586h.063a3.764,3.764,0,0,1,1.148-1.289A2.585,2.585,0,0,1,16-8.719ZM27,0H25.73V-8.141q0-1.016.063-1.922-.164.164-.367.344T23.566-8.2l-.687-.891L25.9-11.422H27Z" transform="translate(856.62 2258.722)"/><path class="e" d="M-22.543-3.039A2.8,2.8,0,0,1-23.637-.687a4.743,4.743,0,0,1-2.969.844A7.436,7.436,0,0,1-29.73-.367V-1.648A8.227,8.227,0,0,0-28.2-1.18a8.056,8.056,0,0,0,1.641.172,3.31,3.31,0,0,0,2-.5,1.654,1.654,0,0,0,.672-1.4,1.8,1.8,0,0,0-.238-.973,2.214,2.214,0,0,0-.8-.7,11.148,11.148,0,0,0-1.7-.727A5.424,5.424,0,0,1-28.9-6.664,2.984,2.984,0,0,1-29.582-8.7a2.536,2.536,0,0,1,.992-2.1,4.123,4.123,0,0,1,2.625-.781,7.736,7.736,0,0,1,3.133.625L-23.246-9.8A7.08,7.08,0,0,0-26-10.4a2.661,2.661,0,0,0-1.648.453,1.493,1.493,0,0,0-.594,1.258,1.928,1.928,0,0,0,.219.973,2.06,2.06,0,0,0,.738.7,9.173,9.173,0,0,0,1.59.7,6.294,6.294,0,0,1,2.473,1.375A2.7,2.7,0,0,1-22.543-3.039Zm5.758,3.2a3.934,3.934,0,0,1-3-1.156,4.476,4.476,0,0,1-1.1-3.211A4.964,4.964,0,0,1-19.859-7.5a3.387,3.387,0,0,1,2.738-1.219A3.229,3.229,0,0,1-14.574-7.66a4.057,4.057,0,0,1,.938,2.793v.82h-5.9a3.394,3.394,0,0,0,.762,2.289,2.635,2.635,0,0,0,2.035.781A6.9,6.9,0,0,0-14-1.555V-.4a6.863,6.863,0,0,1-1.3.426A7.31,7.31,0,0,1-16.785.156Zm-.352-7.789a2.118,2.118,0,0,0-1.645.672A3.1,3.1,0,0,0-19.5-5.1h4.477a2.851,2.851,0,0,0-.547-1.879A1.925,1.925,0,0,0-17.137-7.633ZM-7.52-8.719A5.075,5.075,0,0,1-6.5-8.625l-.18,1.2a4.418,4.418,0,0,0-.937-.117A2.282,2.282,0,0,0-9.391-6.7a3.077,3.077,0,0,0-.738,2.1V0h-1.3V-8.562h1.07l.148,1.586h.063A3.764,3.764,0,0,1-9-8.266,2.585,2.585,0,0,1-7.52-8.719ZM-3.02,0-6.27-8.562h1.391l1.844,5.078A24.036,24.036,0,0,1-2.3-1.172h.063A17.467,17.467,0,0,1-1.7-2.887q.457-1.3,2.051-5.676H1.746L-1.5,0ZM6.738.156A3.934,3.934,0,0,1,3.742-1a4.476,4.476,0,0,1-1.1-3.211A4.964,4.964,0,0,1,3.664-7.5,3.387,3.387,0,0,1,6.4-8.719,3.229,3.229,0,0,1,8.949-7.66a4.057,4.057,0,0,1,.938,2.793v.82h-5.9A3.394,3.394,0,0,0,4.75-1.758a2.634,2.634,0,0,0,2.035.781A6.9,6.9,0,0,0,9.52-1.555V-.4a6.863,6.863,0,0,1-1.3.426A7.31,7.31,0,0,1,6.738.156ZM6.387-7.633a2.118,2.118,0,0,0-1.645.672A3.1,3.1,0,0,0,4.02-5.1H8.5A2.851,2.851,0,0,0,7.949-6.98,1.925,1.925,0,0,0,6.387-7.633ZM16-8.719a5.075,5.075,0,0,1,1.023.094l-.18,1.2a4.418,4.418,0,0,0-.937-.117,2.282,2.282,0,0,0-1.777.844,3.077,3.077,0,0,0-.738,2.1V0H12.1V-8.562h1.07l.148,1.586h.063a3.764,3.764,0,0,1,1.148-1.289A2.585,2.585,0,0,1,16-8.719ZM29.7,0H22.191V-1.117L25.2-4.141a22.149,22.149,0,0,0,1.813-1.984,5.064,5.064,0,0,0,.656-1.156,3.312,3.312,0,0,0,.219-1.211,1.92,1.92,0,0,0-.555-1.449,2.125,2.125,0,0,0-1.539-.535,3.87,3.87,0,0,0-1.348.234,5.372,5.372,0,0,0-1.418.852l-.687-.883a5.265,5.265,0,0,1,3.438-1.312,3.632,3.632,0,0,1,2.523.824,2.835,2.835,0,0,1,.914,2.215A4.277,4.277,0,0,1,28.605-6.4a13.64,13.64,0,0,1-2.281,2.688l-2.5,2.445V-1.2H29.7Z" transform="translate(1053.665 2258.722)"/><line class="f" x1="25.96" y2="119.814" transform="translate(864.505 2034.983)"/><line class="f" x2="25.96" y2="119.814" transform="translate(1022.846 2034.983)"/><line class="f" y1="119.814" x2="25.96" transform="translate(892.543 2023.289)"/><line class="f" x1="25.96" y1="119.814" transform="translate(994.807 2023.289)"/><path class="e" d="M-13.992,0h-1.992V-8.062h-9.023V0H-27V-17.133h1.992v7.289h9.023v-7.289h1.992ZM-4.02,0H-6.012V-15.363h-5.426v-1.77H1.406v1.77H-4.02ZM9.258,0H7.266V-15.363H1.84v-1.77H14.684v1.77H9.258ZM28.125-12.141a4.8,4.8,0,0,1-1.775,4,8.043,8.043,0,0,1-5.08,1.4H19.254V0H17.262V-17.133H21.7Q28.125-17.133,28.125-12.141ZM19.254-8.449h1.793A6.663,6.663,0,0,0,24.879-9.3a3.153,3.153,0,0,0,1.184-2.742,2.956,2.956,0,0,0-1.113-2.531,5.816,5.816,0,0,0-3.469-.832H19.254Zm-45.013,27V23H-27V12.292h2.937a4.621,4.621,0,0,1,2.911.754,2.735,2.735,0,0,1,.941,2.271,2.844,2.844,0,0,1-2.153,2.871L-19.46,23h-1.472l-2.593-4.453Zm0-1.069h1.707a2.947,2.947,0,0,0,1.934-.524,1.949,1.949,0,0,0,.615-1.571,1.788,1.788,0,0,0-.626-1.531,3.393,3.393,0,0,0-2.01-.469h-1.619Zm11.235,5.669a3.688,3.688,0,0,1-2.809-1.084,4.2,4.2,0,0,1-1.029-3.01,4.654,4.654,0,0,1,.956-3.083,3.175,3.175,0,0,1,2.567-1.143,3.027,3.027,0,0,1,2.388.992,3.8,3.8,0,0,1,.879,2.618v.769H-17.1a3.182,3.182,0,0,0,.714,2.146,2.47,2.47,0,0,0,1.908.732,6.466,6.466,0,0,0,2.563-.542v1.084a6.434,6.434,0,0,1-1.219.4A6.853,6.853,0,0,1-14.524,23.146Zm-.33-7.3a1.985,1.985,0,0,0-1.542.63,2.9,2.9,0,0,0-.677,1.743h4.2a2.673,2.673,0,0,0-.513-1.761A1.8,1.8,0,0,0-14.854,15.844Zm8.386,6.284a2.209,2.209,0,0,0,1.772-.652,3.531,3.531,0,0,0,.593-2.2v-.271a4.015,4.015,0,0,0-.571-2.424,2.142,2.142,0,0,0-1.809-.74,1.861,1.861,0,0,0-1.637.831,4.134,4.134,0,0,0-.568,2.347,3.991,3.991,0,0,0,.56,2.311A1.9,1.9,0,0,0-6.467,22.128Zm-.183,1.018a2.929,2.929,0,0,1-2.424-1.091,4.764,4.764,0,0,1-.872-3.047,4.825,4.825,0,0,1,.879-3.076,2.95,2.95,0,0,1,2.446-1.106,2.923,2.923,0,0,1,2.534,1.245h.066l.176-1.1h.959V26.6H-4.1V23.168a8.181,8.181,0,0,1,.081-1.245h-.1A2.872,2.872,0,0,1-6.65,23.146ZM.835,14.973V20.18a2.1,2.1,0,0,0,.447,1.465,1.82,1.82,0,0,0,1.4.483,2.282,2.282,0,0,0,1.842-.688A3.473,3.473,0,0,0,5.1,19.191V14.973H6.321V23h-1l-.176-1.077H5.076a2.423,2.423,0,0,1-1.036.908,3.483,3.483,0,0,1-1.512.315,3.069,3.069,0,0,1-2.194-.7A2.962,2.962,0,0,1-.4,20.224V14.973ZM12.29,23.146a3.688,3.688,0,0,1-2.809-1.084,4.2,4.2,0,0,1-1.029-3.01,4.654,4.654,0,0,1,.956-3.083,3.175,3.175,0,0,1,2.567-1.143,3.027,3.027,0,0,1,2.388.992,3.8,3.8,0,0,1,.879,2.618v.769H9.712a3.182,3.182,0,0,0,.714,2.146,2.47,2.47,0,0,0,1.908.732,6.466,6.466,0,0,0,2.563-.542v1.084a6.434,6.434,0,0,1-1.219.4A6.853,6.853,0,0,1,12.29,23.146Zm-.33-7.3a1.985,1.985,0,0,0-1.542.63,2.9,2.9,0,0,0-.677,1.743h4.2a2.673,2.673,0,0,0-.513-1.761A1.8,1.8,0,0,0,11.96,15.844ZM22.493,20.81a2.011,2.011,0,0,1-.835,1.729,3.925,3.925,0,0,1-2.344.608,5.1,5.1,0,0,1-2.49-.505V21.513a6.022,6.022,0,0,0,1.241.461,5.184,5.184,0,0,0,1.278.168,2.9,2.9,0,0,0,1.465-.3,1.046,1.046,0,0,0,.106-1.729,6.394,6.394,0,0,0-1.586-.787,8.6,8.6,0,0,1-1.593-.729,2.176,2.176,0,0,1-.7-.707,1.843,1.843,0,0,1-.231-.945,1.8,1.8,0,0,1,.8-1.549,3.72,3.72,0,0,1,2.19-.568,6.408,6.408,0,0,1,2.534.527l-.432.989a5.817,5.817,0,0,0-2.19-.5,2.52,2.52,0,0,0-1.3.271.838.838,0,0,0-.439.747.91.91,0,0,0,.165.549,1.626,1.626,0,0,0,.531.432,11.867,11.867,0,0,0,1.406.593,5.254,5.254,0,0,1,1.93,1.047A1.847,1.847,0,0,1,22.493,20.81Zm4.57,1.333a3.972,3.972,0,0,0,.623-.048,4.03,4.03,0,0,0,.476-.1v.93a2.223,2.223,0,0,1-.582.157,4.373,4.373,0,0,1-.692.062q-2.329,0-2.329-2.454V15.917h-1.15v-.586l1.15-.505.513-1.714h.7v1.86H28.1v.945H25.774v4.724a1.625,1.625,0,0,0,.344,1.113A1.2,1.2,0,0,0,27.063,22.143Z" transform="translate(953.304 2075.198)"/><path class="e" d="M-14.575,0H-16.65V-8.4h-9.4V0h-2.075V-17.847h2.075v7.593h9.4v-7.593h2.075ZM-4.187,0H-6.262V-16h-5.652v-1.843H1.465V-16H-4.187ZM9.644,0H7.568V-16H1.917v-1.843H15.3V-16H9.644ZM29.3-12.646a5,5,0,0,1-1.849,4.169,8.378,8.378,0,0,1-5.292,1.459h-2.1V0H17.981V-17.847h4.626Q29.3-17.847,29.3-12.646ZM20.056-8.8h1.868a6.941,6.941,0,0,0,3.992-.891,3.284,3.284,0,0,0,1.233-2.856,3.079,3.079,0,0,0-1.16-2.637,6.058,6.058,0,0,0-3.613-.867H20.056ZM-33.3,19.25V24h-1.328V12.578H-31.5a4.929,4.929,0,0,1,3.105.8,2.918,2.918,0,0,1,1,2.422,3.033,3.033,0,0,1-2.3,3.063l3.1,5.133h-1.57l-2.766-4.75Zm0-1.141h1.82a3.144,3.144,0,0,0,2.063-.559,2.079,2.079,0,0,0,.656-1.676,1.907,1.907,0,0,0-.668-1.633,3.619,3.619,0,0,0-2.145-.5H-33.3Zm11.984,6.047a3.934,3.934,0,0,1-3-1.156,4.476,4.476,0,0,1-1.1-3.211,4.964,4.964,0,0,1,1.02-3.289,3.387,3.387,0,0,1,2.738-1.219,3.229,3.229,0,0,1,2.547,1.059,4.057,4.057,0,0,1,.938,2.793v.82h-5.9a3.394,3.394,0,0,0,.762,2.289,2.634,2.634,0,0,0,2.035.781,6.9,6.9,0,0,0,2.734-.578V23.6a6.863,6.863,0,0,1-1.3.426A7.31,7.31,0,0,1-21.316,24.156Zm-.352-7.789a2.118,2.118,0,0,0-1.645.672,3.1,3.1,0,0,0-.723,1.859h4.477a2.851,2.851,0,0,0-.547-1.879A1.925,1.925,0,0,0-21.668,16.367Zm11.234,5.3a2.145,2.145,0,0,1-.891,1.844,4.186,4.186,0,0,1-2.5.648,5.436,5.436,0,0,1-2.656-.539v-1.2a6.424,6.424,0,0,0,1.324.492,5.53,5.53,0,0,0,1.363.18,3.092,3.092,0,0,0,1.563-.324,1.072,1.072,0,0,0,.547-.988,1.073,1.073,0,0,0-.434-.855,6.82,6.82,0,0,0-1.691-.84,9.172,9.172,0,0,1-1.7-.777,2.321,2.321,0,0,1-.75-.754,1.966,1.966,0,0,1-.246-1.008,1.921,1.921,0,0,1,.852-1.652,3.968,3.968,0,0,1,2.336-.605,6.835,6.835,0,0,1,2.7.563l-.461,1.055a6.2,6.2,0,0,0-2.336-.531,2.687,2.687,0,0,0-1.391.289.894.894,0,0,0-.469.8.971.971,0,0,0,.176.586,1.735,1.735,0,0,0,.566.461,12.658,12.658,0,0,0,1.5.633,5.6,5.6,0,0,1,2.059,1.117A1.97,1.97,0,0,1-10.434,21.664Zm6.094,2.492a3.706,3.706,0,0,1-1.527-.309,2.872,2.872,0,0,1-1.16-.949h-.094a11.485,11.485,0,0,1,.094,1.422v3.523h-1.3V15.438H-7.27l.18,1.172h.063a3.012,3.012,0,0,1,1.164-1.016,3.539,3.539,0,0,1,1.523-.312,3.165,3.165,0,0,1,2.629,1.164,5.125,5.125,0,0,1,.926,3.266,5.1,5.1,0,0,1-.941,3.277A3.17,3.17,0,0,1-4.34,24.156Zm-.187-7.773a2.3,2.3,0,0,0-1.9.727,3.739,3.739,0,0,0-.6,2.313v.289a4.285,4.285,0,0,0,.6,2.582,2.288,2.288,0,0,0,1.93.777,2.007,2.007,0,0,0,1.738-.9A4.26,4.26,0,0,0-2.129,19.7a4.1,4.1,0,0,0-.629-2.457A2.069,2.069,0,0,0-4.527,16.383Zm13.4,3.328a4.724,4.724,0,0,1-1.055,3.27A3.714,3.714,0,0,1,4.9,24.156a3.86,3.86,0,0,1-2.039-.539A3.558,3.558,0,0,1,1.488,22.07,5.391,5.391,0,0,1,1,19.711a4.716,4.716,0,0,1,1.047-3.262,3.7,3.7,0,0,1,2.906-1.168,3.622,3.622,0,0,1,2.855,1.2A4.7,4.7,0,0,1,8.871,19.711Zm-6.523,0A4.064,4.064,0,0,0,3,22.211a2.278,2.278,0,0,0,1.93.859,2.293,2.293,0,0,0,1.934-.855,4.043,4.043,0,0,0,.66-2.5,3.978,3.978,0,0,0-.66-2.48,2.32,2.32,0,0,0-1.949-.848A2.283,2.283,0,0,0,3,17.219,4.023,4.023,0,0,0,2.348,19.711ZM17,24V18.461a2.235,2.235,0,0,0-.477-1.562,1.941,1.941,0,0,0-1.492-.516,2.461,2.461,0,0,0-1.969.727,3.668,3.668,0,0,0-.625,2.4V24h-1.3V15.438H12.2l.211,1.172h.063a2.648,2.648,0,0,1,1.117-.98,3.63,3.63,0,0,1,1.6-.348,3.252,3.252,0,0,1,2.328.746,3.175,3.175,0,0,1,.781,2.387V24Zm9.484-2.336a2.145,2.145,0,0,1-.891,1.844,4.186,4.186,0,0,1-2.5.648,5.436,5.436,0,0,1-2.656-.539v-1.2a6.424,6.424,0,0,0,1.324.492,5.53,5.53,0,0,0,1.363.18,3.092,3.092,0,0,0,1.563-.324,1.116,1.116,0,0,0,.113-1.844,6.82,6.82,0,0,0-1.691-.84,9.172,9.172,0,0,1-1.7-.777,2.321,2.321,0,0,1-.75-.754,1.966,1.966,0,0,1-.246-1.008,1.921,1.921,0,0,1,.852-1.652,3.968,3.968,0,0,1,2.336-.605,6.835,6.835,0,0,1,2.7.563L25.848,16.9a6.2,6.2,0,0,0-2.336-.531,2.687,2.687,0,0,0-1.391.289.894.894,0,0,0-.469.8.971.971,0,0,0,.176.586,1.735,1.735,0,0,0,.566.461,12.657,12.657,0,0,0,1.5.633,5.6,5.6,0,0,1,2.059,1.117A1.97,1.97,0,0,1,26.488,21.664Zm5.727,2.492a3.934,3.934,0,0,1-3-1.156,4.476,4.476,0,0,1-1.1-3.211,4.964,4.964,0,0,1,1.02-3.289,3.387,3.387,0,0,1,2.738-1.219,3.229,3.229,0,0,1,2.547,1.059,4.057,4.057,0,0,1,.938,2.793v.82h-5.9a3.394,3.394,0,0,0,.762,2.289,2.634,2.634,0,0,0,2.035.781A6.9,6.9,0,0,0,35,22.445V23.6a6.863,6.863,0,0,1-1.3.426A7.31,7.31,0,0,1,32.215,24.156Zm-.352-7.789a2.118,2.118,0,0,0-1.645.672A3.1,3.1,0,0,0,29.5,18.9h4.477a2.851,2.851,0,0,0-.547-1.879A1.925,1.925,0,0,0,31.863,16.367Z" transform="translate(1093.628 2085.021)"/><path class="e" d="M-14.575,0H-16.65V-8.4h-9.4V0h-2.075V-17.847h2.075v7.593h9.4v-7.593h2.075ZM-4.187,0H-6.262V-16h-5.652v-1.843H1.465V-16H-4.187ZM9.644,0H7.568V-16H1.917v-1.843H15.3V-16H9.644ZM29.3-12.646a5,5,0,0,1-1.849,4.169,8.378,8.378,0,0,1-5.292,1.459h-2.1V0H17.981V-17.847h4.626Q29.3-17.847,29.3-12.646ZM20.056-8.8h1.868a6.941,6.941,0,0,0,3.992-.891,3.284,3.284,0,0,0,1.233-2.856,3.079,3.079,0,0,0-1.16-2.637,6.058,6.058,0,0,0-3.613-.867H20.056ZM-33.3,19.25V24h-1.328V12.578H-31.5a4.929,4.929,0,0,1,3.105.8,2.918,2.918,0,0,1,1,2.422,3.033,3.033,0,0,1-2.3,3.063l3.1,5.133h-1.57l-2.766-4.75Zm0-1.141h1.82a3.144,3.144,0,0,0,2.063-.559,2.079,2.079,0,0,0,.656-1.676,1.907,1.907,0,0,0-.668-1.633,3.619,3.619,0,0,0-2.145-.5H-33.3Zm11.984,6.047a3.934,3.934,0,0,1-3-1.156,4.476,4.476,0,0,1-1.1-3.211,4.964,4.964,0,0,1,1.02-3.289,3.387,3.387,0,0,1,2.738-1.219,3.229,3.229,0,0,1,2.547,1.059,4.057,4.057,0,0,1,.938,2.793v.82h-5.9a3.394,3.394,0,0,0,.762,2.289,2.634,2.634,0,0,0,2.035.781,6.9,6.9,0,0,0,2.734-.578V23.6a6.863,6.863,0,0,1-1.3.426A7.31,7.31,0,0,1-21.316,24.156Zm-.352-7.789a2.118,2.118,0,0,0-1.645.672,3.1,3.1,0,0,0-.723,1.859h4.477a2.851,2.851,0,0,0-.547-1.879A1.925,1.925,0,0,0-21.668,16.367Zm11.234,5.3a2.145,2.145,0,0,1-.891,1.844,4.186,4.186,0,0,1-2.5.648,5.436,5.436,0,0,1-2.656-.539v-1.2a6.424,6.424,0,0,0,1.324.492,5.53,5.53,0,0,0,1.363.18,3.092,3.092,0,0,0,1.563-.324,1.072,1.072,0,0,0,.547-.988,1.073,1.073,0,0,0-.434-.855,6.82,6.82,0,0,0-1.691-.84,9.172,9.172,0,0,1-1.7-.777,2.321,2.321,0,0,1-.75-.754,1.966,1.966,0,0,1-.246-1.008,1.921,1.921,0,0,1,.852-1.652,3.968,3.968,0,0,1,2.336-.605,6.835,6.835,0,0,1,2.7.563l-.461,1.055a6.2,6.2,0,0,0-2.336-.531,2.687,2.687,0,0,0-1.391.289.894.894,0,0,0-.469.8.971.971,0,0,0,.176.586,1.735,1.735,0,0,0,.566.461,12.658,12.658,0,0,0,1.5.633,5.6,5.6,0,0,1,2.059,1.117A1.97,1.97,0,0,1-10.434,21.664Zm6.094,2.492a3.706,3.706,0,0,1-1.527-.309,2.872,2.872,0,0,1-1.16-.949h-.094a11.485,11.485,0,0,1,.094,1.422v3.523h-1.3V15.438H-7.27l.18,1.172h.063a3.012,3.012,0,0,1,1.164-1.016,3.539,3.539,0,0,1,1.523-.312,3.165,3.165,0,0,1,2.629,1.164,5.125,5.125,0,0,1,.926,3.266,5.1,5.1,0,0,1-.941,3.277A3.17,3.17,0,0,1-4.34,24.156Zm-.187-7.773a2.3,2.3,0,0,0-1.9.727,3.739,3.739,0,0,0-.6,2.313v.289a4.285,4.285,0,0,0,.6,2.582,2.288,2.288,0,0,0,1.93.777,2.007,2.007,0,0,0,1.738-.9A4.26,4.26,0,0,0-2.129,19.7a4.1,4.1,0,0,0-.629-2.457A2.069,2.069,0,0,0-4.527,16.383Zm13.4,3.328a4.724,4.724,0,0,1-1.055,3.27A3.714,3.714,0,0,1,4.9,24.156a3.86,3.86,0,0,1-2.039-.539A3.558,3.558,0,0,1,1.488,22.07,5.391,5.391,0,0,1,1,19.711a4.716,4.716,0,0,1,1.047-3.262,3.7,3.7,0,0,1,2.906-1.168,3.622,3.622,0,0,1,2.855,1.2A4.7,4.7,0,0,1,8.871,19.711Zm-6.523,0A4.064,4.064,0,0,0,3,22.211a2.278,2.278,0,0,0,1.93.859,2.293,2.293,0,0,0,1.934-.855,4.043,4.043,0,0,0,.66-2.5,3.978,3.978,0,0,0-.66-2.48,2.32,2.32,0,0,0-1.949-.848A2.283,2.283,0,0,0,3,17.219,4.023,4.023,0,0,0,2.348,19.711ZM17,24V18.461a2.235,2.235,0,0,0-.477-1.562,1.941,1.941,0,0,0-1.492-.516,2.461,2.461,0,0,0-1.969.727,3.668,3.668,0,0,0-.625,2.4V24h-1.3V15.438H12.2l.211,1.172h.063a2.648,2.648,0,0,1,1.117-.98,3.63,3.63,0,0,1,1.6-.348,3.252,3.252,0,0,1,2.328.746,3.175,3.175,0,0,1,.781,2.387V24Zm9.484-2.336a2.145,2.145,0,0,1-.891,1.844,4.186,4.186,0,0,1-2.5.648,5.436,5.436,0,0,1-2.656-.539v-1.2a6.424,6.424,0,0,0,1.324.492,5.53,5.53,0,0,0,1.363.18,3.092,3.092,0,0,0,1.563-.324,1.116,1.116,0,0,0,.113-1.844,6.82,6.82,0,0,0-1.691-.84,9.172,9.172,0,0,1-1.7-.777,2.321,2.321,0,0,1-.75-.754,1.966,1.966,0,0,1-.246-1.008,1.921,1.921,0,0,1,.852-1.652,3.968,3.968,0,0,1,2.336-.605,6.835,6.835,0,0,1,2.7.563L25.848,16.9a6.2,6.2,0,0,0-2.336-.531,2.687,2.687,0,0,0-1.391.289.894.894,0,0,0-.469.8.971.971,0,0,0,.176.586,1.735,1.735,0,0,0,.566.461,12.657,12.657,0,0,0,1.5.633,5.6,5.6,0,0,1,2.059,1.117A1.97,1.97,0,0,1,26.488,21.664Zm5.727,2.492a3.934,3.934,0,0,1-3-1.156,4.476,4.476,0,0,1-1.1-3.211,4.964,4.964,0,0,1,1.02-3.289,3.387,3.387,0,0,1,2.738-1.219,3.229,3.229,0,0,1,2.547,1.059,4.057,4.057,0,0,1,.938,2.793v.82h-5.9a3.394,3.394,0,0,0,.762,2.289,2.634,2.634,0,0,0,2.035.781A6.9,6.9,0,0,0,35,22.445V23.6a6.863,6.863,0,0,1-1.3.426A7.31,7.31,0,0,1,32.215,24.156Zm-.352-7.789a2.118,2.118,0,0,0-1.645.672A3.1,3.1,0,0,0,29.5,18.9h4.477a2.851,2.851,0,0,0-.547-1.879A1.925,1.925,0,0,0,31.863,16.367Z" transform="translate(826 2085.021)"/><path class="e" d="M0,0H15.312L7.3,15.677Z" transform="matrix(-0.985, -0.174, 0.174, -0.985, 897.809, 2036.394)"/><path class="e" d="M0,15.677H15.312L7.3,0Z" transform="matrix(0.985, -0.174, 0.174, 0.985, 1012.779, 2020.955)"/><path class="e" d="M0,0H15.312L7.3,15.677Z" transform="matrix(0.985, 0.174, -0.174, 0.985, 885.199, 2141.691)"/><path class="e" d="M0,15.677H15.312L7.3,0Z" transform="matrix(-0.985, 0.174, -0.174, -0.985, 1030.833, 2157.13)"/><g transform="translate(289 -230.273)"><path class="g" d="M12072.021,6428.36v55.861h43.223v-46.956l-8.927-8.906Z" transform="translate(-11557.021 -4201.586)"/><path class="h" d="M12150.169,6428.36v8.936h8.905Z" transform="translate(-11600.739 -4201.587)"/><g transform="translate(523.991 2244.16)"><g transform="translate(0)"><path class="i" d="M86.18.957,85.25,0,77.895,7.144l7.355,7.144.93-.958L79.812,7.144Z" transform="translate(-77.895)"/></g></g><g transform="translate(549.784 2258.448) rotate(180)"><path class="i" d="M8.285.957,7.355,0,0,7.144l7.355,7.144.93-.958L1.917,7.144Z"/></g><rect class="c" width="44.22" height="12.5" transform="translate(514.5 2270.591)"/><path class="e" d="M6.4,0h-.83V-3.359H1.812V0H.981V-7.139h.83V-4.1h3.76V-7.139H6.4Zm4.155,0h-.83V-6.4H7.466v-.737h5.352V-6.4H10.557Zm6.494,0L14.629-6.328H14.59q.068.752.068,1.787V0h-.767V-7.139h1.25L17.4-1.25h.039l2.28-5.889h1.24V0h-.83V-4.6q0-.791.068-1.719h-.039L17.72,0ZM22.92,0V-7.139h.83V-.752H26.9V0Z" transform="translate(523.136 2280.573)"/><path class="c" d="M8.938-1.964a.568.568,0,0,0-.172-.417L7.489-3.658a.568.568,0,0,0-.417-.172.585.585,0,0,0-.442.2l.117.114q.1.1.132.132a1.462,1.462,0,0,1,.092.117.494.494,0,0,1,.08.157.625.625,0,0,1,.021.169.568.568,0,0,1-.172.417.568.568,0,0,1-.417.172.625.625,0,0,1-.169-.021.494.494,0,0,1-.157-.08,1.461,1.461,0,0,1-.117-.092Q6-2.584,5.908-2.682L5.795-2.8a.6.6,0,0,0-.2.448.568.568,0,0,0,.172.417L7.028-.663A.566.566,0,0,0,7.446-.5a.591.591,0,0,0,.417-.16l.9-.9A.561.561,0,0,0,8.938-1.964ZM4.622-6.292a.568.568,0,0,0-.172-.417L3.186-7.98a.568.568,0,0,0-.417-.172.593.593,0,0,0-.417.166l-.9.9a.561.561,0,0,0-.172.411.568.568,0,0,0,.172.417L2.725-4.984a.566.566,0,0,0,.417.166.593.593,0,0,0,.442-.19l-.117-.114q-.1-.1-.132-.132a1.461,1.461,0,0,1-.092-.117.494.494,0,0,1-.08-.157A.625.625,0,0,1,3.143-5.7a.568.568,0,0,1,.172-.417.568.568,0,0,1,.417-.172.625.625,0,0,1,.169.021.494.494,0,0,1,.157.08,1.461,1.461,0,0,1,.117.092q.037.034.132.132l.114.117A.6.6,0,0,0,4.622-6.292ZM9.6-3.217a1.7,1.7,0,0,1,.516,1.252A1.675,1.675,0,0,1,9.594-.718l-.9.9A1.7,1.7,0,0,1,7.446.688,1.682,1.682,0,0,1,6.194.166L4.929-1.1A1.7,1.7,0,0,1,4.42-2.351a1.727,1.727,0,0,1,.54-1.283l-.54-.54a1.72,1.72,0,0,1-1.277.54A1.7,1.7,0,0,1,1.891-4.15L.614-5.426A1.7,1.7,0,0,1,.1-6.679,1.675,1.675,0,0,1,.62-7.925l.9-.9A1.7,1.7,0,0,1,2.768-9.33a1.682,1.682,0,0,1,1.252.522L5.285-7.538a1.7,1.7,0,0,1,.509,1.246,1.727,1.727,0,0,1-.54,1.283l.54.54a1.72,1.72,0,0,1,1.277-.54,1.7,1.7,0,0,1,1.252.516Z" transform="translate(516.983 2237.756)"/></g><g transform="translate(556 -230.273)"><path class="g" d="M12072.021,6428.36v55.861h43.223v-46.956l-8.927-8.906Z" transform="translate(-11557.021 -4201.586)"/><path class="h" d="M12150.169,6428.36v8.936h8.905Z" transform="translate(-11600.739 -4201.587)"/><g transform="translate(523.991 2244.16)"><g transform="translate(0)"><path class="i" d="M86.18.957,85.25,0,77.895,7.144l7.355,7.144.93-.958L79.812,7.144Z" transform="translate(-77.895)"/></g></g><g transform="translate(549.784 2258.448) rotate(180)"><path class="i" d="M8.285.957,7.355,0,0,7.144l7.355,7.144.93-.958L1.917,7.144Z"/></g><rect class="d" width="44.22" height="12.5" transform="translate(514.5 2270.591)"/><path class="e" d="M6.4,0h-.83V-3.359H1.812V0H.981V-7.139h.83V-4.1h3.76V-7.139H6.4Zm4.155,0h-.83V-6.4H7.466v-.737h5.352V-6.4H10.557Zm6.494,0L14.629-6.328H14.59q.068.752.068,1.787V0h-.767V-7.139h1.25L17.4-1.25h.039l2.28-5.889h1.24V0h-.83V-4.6q0-.791.068-1.719h-.039L17.72,0ZM22.92,0V-7.139h.83V-.752H26.9V0Z" transform="translate(523.136 2280.573)"/><path class="c" d="M8.938-1.964a.568.568,0,0,0-.172-.417L7.489-3.658a.568.568,0,0,0-.417-.172.585.585,0,0,0-.442.2l.117.114q.1.1.132.132a1.462,1.462,0,0,1,.092.117.494.494,0,0,1,.08.157.625.625,0,0,1,.021.169.568.568,0,0,1-.172.417.568.568,0,0,1-.417.172.625.625,0,0,1-.169-.021.494.494,0,0,1-.157-.08,1.461,1.461,0,0,1-.117-.092Q6-2.584,5.908-2.682L5.795-2.8a.6.6,0,0,0-.2.448.568.568,0,0,0,.172.417L7.028-.663A.566.566,0,0,0,7.446-.5a.591.591,0,0,0,.417-.16l.9-.9A.561.561,0,0,0,8.938-1.964ZM4.622-6.292a.568.568,0,0,0-.172-.417L3.186-7.98a.568.568,0,0,0-.417-.172.593.593,0,0,0-.417.166l-.9.9a.561.561,0,0,0-.172.411.568.568,0,0,0,.172.417L2.725-4.984a.566.566,0,0,0,.417.166.593.593,0,0,0,.442-.19l-.117-.114q-.1-.1-.132-.132a1.461,1.461,0,0,1-.092-.117.494.494,0,0,1-.08-.157A.625.625,0,0,1,3.143-5.7a.568.568,0,0,1,.172-.417.568.568,0,0,1,.417-.172.625.625,0,0,1,.169.021.494.494,0,0,1,.157.08,1.461,1.461,0,0,1,.117.092q.037.034.132.132l.114.117A.6.6,0,0,0,4.622-6.292ZM9.6-3.217a1.7,1.7,0,0,1,.516,1.252A1.675,1.675,0,0,1,9.594-.718l-.9.9A1.7,1.7,0,0,1,7.446.688,1.682,1.682,0,0,1,6.194.166L4.929-1.1A1.7,1.7,0,0,1,4.42-2.351a1.727,1.727,0,0,1,.54-1.283l-.54-.54a1.72,1.72,0,0,1-1.277.54A1.7,1.7,0,0,1,1.891-4.15L.614-5.426A1.7,1.7,0,0,1,.1-6.679,1.675,1.675,0,0,1,.62-7.925l.9-.9A1.7,1.7,0,0,1,2.768-9.33a1.682,1.682,0,0,1,1.252.522L5.285-7.538a1.7,1.7,0,0,1,.509,1.246,1.727,1.727,0,0,1-.54,1.283l.54.54a1.72,1.72,0,0,1,1.277-.54,1.7,1.7,0,0,1,1.252.516Z" transform="translate(516.983 2237.756)"/></g></g></g></svg>