<svg xmlns="http://www.w3.org/2000/svg" xmlns:xlink="http://www.w3.org/1999/xlink" viewBox="5970 1164 600 246"><defs><style>.a{clip-path:url(#b);}.b,.g{fill:#fff;}.b{font-size:22px;font-family:OpenSans-Regular, Open Sans;}.c{fill:#efebe0;stroke:#95989a;}.d{fill:#96999b;}.e{fill:#3a3a3a;}.f{fill:#eb4141;}.h{fill:#418eeb;}.i{fill:#28bd84;}.j{fill:none;stroke:#fff;stroke-width:2px;}.k{fill:rgba(255,255,255,0);}</style><clipPath id="b"><rect x="5970" y="1164" width="600" height="246"/></clipPath></defs><g id="a" class="a"><rect class="k" x="5970" y="1164" width="600" height="246"/><text class="b" transform="translate(6138.704 1264.977)"><tspan x="-21.017" y="0">Link</tspan></text><text class="b" transform="translate(6392.747 1264.977)"><tspan x="-21.017" y="0">Link</tspan></text><g transform="translate(5970 1164.5)"><path class="c" d="M12072.025,6428.36v120.381h93V6447.552l-19.213-19.191Z" transform="translate(-12071.538 -6428.36)"/><path class="d" d="M12150.171,6428.361v19.257h19.189Z" transform="translate(-12075.973 -6428.361)"/><g transform="translate(19.376 37.469)"><g transform="translate(0)"><path class="e" d="M95.75,2.063,93.745,0,77.895,15.395l15.85,15.4,2-2.064L82.025,15.395Z" transform="translate(-77.895)"/></g></g><g transform="translate(74.96 68.259) rotate(180)"><path class="e" d="M17.855,2.063,15.85,0,0,15.395l15.85,15.4,2-2.064L4.13,15.395Z"/></g><rect class="f" width="94" height="26.411" transform="translate(0 94.427)"/><path class="g" d="M-14.326,0h-1.66V-6.719h-7.52V0h-1.66V-14.277h1.66V-8.2h7.52v-6.074h1.66Zm8.311,0h-1.66V-12.8H-12.2v-1.475h10.7V-12.8H-6.016ZM6.973,0,2.129-12.656H2.051q.137,1.5.137,3.574V0H.654V-14.277h2.5L7.676-2.5h.078l4.561-11.777h2.48V0h-1.66V-9.2q0-1.582.137-3.437h-.078L8.311,0ZM18.711,0V-14.277h1.66V-1.5h6.3V0Z" transform="translate(47.024 114.613)"/><path class="h" d="M18.688-4.107a1.188,1.188,0,0,0-.359-.873l-2.67-2.67a1.188,1.188,0,0,0-.873-.359,1.222,1.222,0,0,0-.924.411l.244.237q.205.2.276.276a3.056,3.056,0,0,1,.193.244,1.032,1.032,0,0,1,.167.327,1.306,1.306,0,0,1,.045.353,1.188,1.188,0,0,1-.359.873,1.188,1.188,0,0,1-.873.359,1.306,1.306,0,0,1-.353-.045,1.032,1.032,0,0,1-.327-.167,3.056,3.056,0,0,1-.244-.193q-.077-.071-.276-.276l-.237-.244a1.245,1.245,0,0,0-.424.937,1.188,1.188,0,0,0,.359.873L14.7-1.386a1.183,1.183,0,0,0,.873.347,1.236,1.236,0,0,0,.873-.334l1.887-1.874A1.173,1.173,0,0,0,18.688-4.107ZM9.665-13.156a1.188,1.188,0,0,0-.359-.873L6.661-16.685a1.188,1.188,0,0,0-.873-.359,1.24,1.24,0,0,0-.873.347L3.029-14.824a1.173,1.173,0,0,0-.359.86,1.188,1.188,0,0,0,.359.873l2.67,2.67a1.183,1.183,0,0,0,.873.347,1.24,1.24,0,0,0,.924-.4l-.244-.237q-.205-.2-.276-.276a3.056,3.056,0,0,1-.193-.244,1.032,1.032,0,0,1-.167-.327,1.306,1.306,0,0,1-.045-.353,1.188,1.188,0,0,1,.359-.873,1.188,1.188,0,0,1,.873-.359,1.306,1.306,0,0,1,.353.045,1.032,1.032,0,0,1,.327.167,3.056,3.056,0,0,1,.244.193q.077.071.276.276l.237.244A1.245,1.245,0,0,0,9.665-13.156Zm10.409,6.43a3.565,3.565,0,0,1,1.078,2.618A3.5,3.5,0,0,1,20.061-1.5L18.174.372a3.544,3.544,0,0,1-2.605,1.065A3.517,3.517,0,0,1,12.95.347L10.306-2.31A3.544,3.544,0,0,1,9.241-4.916,3.61,3.61,0,0,1,10.371-7.6L9.241-8.728A3.6,3.6,0,0,1,6.571-7.6,3.565,3.565,0,0,1,3.953-8.676l-2.67-2.67A3.565,3.565,0,0,1,.205-13.964,3.5,3.5,0,0,1,1.3-16.57l1.887-1.874a3.544,3.544,0,0,1,2.605-1.065,3.517,3.517,0,0,1,2.618,1.091l2.644,2.657a3.544,3.544,0,0,1,1.065,2.605,3.61,3.61,0,0,1-1.129,2.682l1.129,1.129a3.6,3.6,0,0,1,2.67-1.129A3.565,3.565,0,0,1,17.4-9.4Z" transform="translate(4.273 24.273)"/></g><g transform="translate(6219 1164.5)"><path class="c" d="M12072.025,6428.36v120.381h93V6447.552l-19.213-19.191Z" transform="translate(-12071.538 -6428.36)"/><path class="d" d="M12150.171,6428.361v19.257h19.189Z" transform="translate(-12075.973 -6428.361)"/><g transform="translate(19.376 37.469)"><g transform="translate(0)"><path class="e" d="M95.75,2.063,93.745,0,77.895,15.395l15.85,15.4,2-2.064L82.025,15.395Z" transform="translate(-77.895)"/></g></g><g transform="translate(74.96 68.259) rotate(180)"><path class="e" d="M17.855,2.063,15.85,0,0,15.395l15.85,15.4,2-2.064L4.13,15.395Z"/></g><rect class="h" width="94" height="26.411" transform="translate(0 94.427)"/><path class="g" d="M-14.326,0h-1.66V-6.719h-7.52V0h-1.66V-14.277h1.66V-8.2h7.52v-6.074h1.66Zm8.311,0h-1.66V-12.8H-12.2v-1.475h10.7V-12.8H-6.016ZM6.973,0,2.129-12.656H2.051q.137,1.5.137,3.574V0H.654V-14.277h2.5L7.676-2.5h.078l4.561-11.777h2.48V0h-1.66V-9.2q0-1.582.137-3.437h-.078L8.311,0ZM18.711,0V-14.277h1.66V-1.5h6.3V0Z" transform="translate(47.024 114.613)"/><path class="h" d="M18.688-4.107a1.188,1.188,0,0,0-.359-.873l-2.67-2.67a1.188,1.188,0,0,0-.873-.359,1.222,1.222,0,0,0-.924.411l.244.237q.205.2.276.276a3.056,3.056,0,0,1,.193.244,1.032,1.032,0,0,1,.167.327,1.306,1.306,0,0,1,.045.353,1.188,1.188,0,0,1-.359.873,1.188,1.188,0,0,1-.873.359,1.306,1.306,0,0,1-.353-.045,1.032,1.032,0,0,1-.327-.167,3.056,3.056,0,0,1-.244-.193q-.077-.071-.276-.276l-.237-.244a1.245,1.245,0,0,0-.424.937,1.188,1.188,0,0,0,.359.873L14.7-1.386a1.183,1.183,0,0,0,.873.347,1.236,1.236,0,0,0,.873-.334l1.887-1.874A1.173,1.173,0,0,0,18.688-4.107ZM9.665-13.156a1.188,1.188,0,0,0-.359-.873L6.661-16.685a1.188,1.188,0,0,0-.873-.359,1.24,1.24,0,0,0-.873.347L3.029-14.824a1.173,1.173,0,0,0-.359.86,1.188,1.188,0,0,0,.359.873l2.67,2.67a1.183,1.183,0,0,0,.873.347,1.24,1.24,0,0,0,.924-.4l-.244-.237q-.205-.2-.276-.276a3.056,3.056,0,0,1-.193-.244,1.032,1.032,0,0,1-.167-.327,1.306,1.306,0,0,1-.045-.353,1.188,1.188,0,0,1,.359-.873,1.188,1.188,0,0,1,.873-.359,1.306,1.306,0,0,1,.353.045,1.032,1.032,0,0,1,.327.167,3.056,3.056,0,0,1,.244.193q.077.071.276.276l.237.244A1.245,1.245,0,0,0,9.665-13.156Zm10.409,6.43a3.565,3.565,0,0,1,1.078,2.618A3.5,3.5,0,0,1,20.061-1.5L18.174.372a3.544,3.544,0,0,1-2.605,1.065A3.517,3.517,0,0,1,12.95.347L10.306-2.31A3.544,3.544,0,0,1,9.241-4.916,3.61,3.61,0,0,1,10.371-7.6L9.241-8.728A3.6,3.6,0,0,1,6.571-7.6,3.565,3.565,0,0,1,3.953-8.676l-2.67-2.67A3.565,3.565,0,0,1,.205-13.964,3.5,3.5,0,0,1,1.3-16.57l1.887-1.874a3.544,3.544,0,0,1,2.605-1.065,3.517,3.517,0,0,1,2.618,1.091l2.644,2.657a3.544,3.544,0,0,1,1.065,2.605,3.61,3.61,0,0,1-1.129,2.682l1.129,1.129a3.6,3.6,0,0,1,2.67-1.129A3.565,3.565,0,0,1,17.4-9.4Z" transform="translate(4.273 24.273)"/></g><g transform="translate(6476 1164.5)"><path class="c" d="M12072.025,6428.36v120.381h93V6447.552l-19.213-19.191Z" transform="translate(-12071.538 -6428.36)"/><path class="d" d="M12150.171,6428.361v19.257h19.189Z" transform="translate(-12075.973 -6428.361)"/><g transform="translate(19.376 37.469)"><g transform="translate(0)"><path class="e" d="M95.75,2.063,93.745,0,77.895,15.395l15.85,15.4,2-2.064L82.025,15.395Z" transform="translate(-77.895)"/></g></g><g transform="translate(74.96 68.259) rotate(180)"><path class="e" d="M17.855,2.063,15.85,0,0,15.395l15.85,15.4,2-2.064L4.13,15.395Z"/></g><rect class="i" width="94" height="26.411" transform="translate(0 94.427)"/><path class="g" d="M-14.326,0h-1.66V-6.719h-7.52V0h-1.66V-14.277h1.66V-8.2h7.52v-6.074h1.66Zm8.311,0h-1.66V-12.8H-12.2v-1.475h10.7V-12.8H-6.016ZM6.973,0,2.129-12.656H2.051q.137,1.5.137,3.574V0H.654V-14.277h2.5L7.676-2.5h.078l4.561-11.777h2.48V0h-1.66V-9.2q0-1.582.137-3.437h-.078L8.311,0ZM18.711,0V-14.277h1.66V-1.5h6.3V0Z" transform="translate(47.024 114.613)"/><path class="h" d="M18.688-4.107a1.188,1.188,0,0,0-.359-.873l-2.67-2.67a1.188,1.188,0,0,0-.873-.359,1.222,1.222,0,0,0-.924.411l.244.237q.205.2.276.276a3.056,3.056,0,0,1,.193.244,1.032,1.032,0,0,1,.167.327,1.306,1.306,0,0,1,.045.353,1.188,1.188,0,0,1-.359.873,1.188,1.188,0,0,1-.873.359,1.306,1.306,0,0,1-.353-.045,1.032,1.032,0,0,1-.327-.167,3.056,3.056,0,0,1-.244-.193q-.077-.071-.276-.276l-.237-.244a1.245,1.245,0,0,0-.424.937,1.188,1.188,0,0,0,.359.873L14.7-1.386a1.183,1.183,0,0,0,.873.347,1.236,1.236,0,0,0,.873-.334l1.887-1.874A1.173,1.173,0,0,0,18.688-4.107ZM9.665-13.156a1.188,1.188,0,0,0-.359-.873L6.661-16.685a1.188,1.188,0,0,0-.873-.359,1.24,1.24,0,0,0-.873.347L3.029-14.824a1.173,1.173,0,0,0-.359.86,1.188,1.188,0,0,0,.359.873l2.67,2.67a1.183,1.183,0,0,0,.873.347,1.24,1.24,0,0,0,.924-.4l-.244-.237q-.205-.2-.276-.276a3.056,3.056,0,0,1-.193-.244,1.032,1.032,0,0,1-.167-.327,1.306,1.306,0,0,1-.045-.353,1.188,1.188,0,0,1,.359-.873,1.188,1.188,0,0,1,.873-.359,1.306,1.306,0,0,1,.353.045,1.032,1.032,0,0,1,.327.167,3.056,3.056,0,0,1,.244.193q.077.071.276.276l.237.244A1.245,1.245,0,0,0,9.665-13.156Zm10.409,6.43a3.565,3.565,0,0,1,1.078,2.618A3.5,3.5,0,0,1,20.061-1.5L18.174.372a3.544,3.544,0,0,1-2.605,1.065A3.517,3.517,0,0,1,12.95.347L10.306-2.31A3.544,3.544,0,0,1,9.241-4.916,3.61,3.61,0,0,1,10.371-7.6L9.241-8.728A3.6,3.6,0,0,1,6.571-7.6,3.565,3.565,0,0,1,3.953-8.676l-2.67-2.67A3.565,3.565,0,0,1,.205-13.964,3.5,3.5,0,0,1,1.3-16.57l1.887-1.874a3.544,3.544,0,0,1,2.605-1.065,3.517,3.517,0,0,1,2.618,1.091l2.644,2.657a3.544,3.544,0,0,1,1.065,2.605,3.61,3.61,0,0,1-1.129,2.682l1.129,1.129a3.6,3.6,0,0,1,2.67-1.129A3.565,3.565,0,0,1,17.4-9.4Z" transform="translate(4.273 24.273)"/></g><line class="j" x2="103.533" transform="translate(6086.679 1224.293)"/><line class="j" x2="103.533" transform="translate(6339.445 1224.293)"/><path class="g" d="M0,0,23.459,8.774,8.975,23.258Z" transform="translate(6200.906 1224.489) rotate(135)"/><path class="g" d="M0,0,23.459,8.774,8.975,23.258Z" transform="translate(6453.673 1224.489) rotate(135)"/><path class="g" d="M-22.543-3.039A2.8,2.8,0,0,1-23.637-.687a4.743,4.743,0,0,1-2.969.844A7.436,7.436,0,0,1-29.73-.367V-1.648A8.227,8.227,0,0,0-28.2-1.18a8.056,8.056,0,0,0,1.641.172,3.31,3.31,0,0,0,2-.5,1.654,1.654,0,0,0,.672-1.4,1.8,1.8,0,0,0-.238-.973,2.214,2.214,0,0,0-.8-.7,11.148,11.148,0,0,0-1.7-.727A5.424,5.424,0,0,1-28.9-6.664,2.984,2.984,0,0,1-29.582-8.7a2.536,2.536,0,0,1,.992-2.1,4.123,4.123,0,0,1,2.625-.781,7.736,7.736,0,0,1,3.133.625L-23.246-9.8A7.08,7.08,0,0,0-26-10.4a2.661,2.661,0,0,0-1.648.453,1.493,1.493,0,0,0-.594,1.258,1.928,1.928,0,0,0,.219.973,2.06,2.06,0,0,0,.738.7,9.173,9.173,0,0,0,1.59.7,6.294,6.294,0,0,1,2.473,1.375A2.7,2.7,0,0,1-22.543-3.039Zm5.758,3.2a3.934,3.934,0,0,1-3-1.156,4.476,4.476,0,0,1-1.1-3.211A4.964,4.964,0,0,1-19.859-7.5a3.387,3.387,0,0,1,2.738-1.219A3.229,3.229,0,0,1-14.574-7.66a4.057,4.057,0,0,1,.938,2.793v.82h-5.9a3.394,3.394,0,0,0,.762,2.289,2.635,2.635,0,0,0,2.035.781A6.9,6.9,0,0,0-14-1.555V-.4a6.863,6.863,0,0,1-1.3.426A7.31,7.31,0,0,1-16.785.156Zm-.352-7.789a2.118,2.118,0,0,0-1.645.672A3.1,3.1,0,0,0-19.5-5.1h4.477a2.851,2.851,0,0,0-.547-1.879A1.925,1.925,0,0,0-17.137-7.633ZM-7.52-8.719A5.075,5.075,0,0,1-6.5-8.625l-.18,1.2a4.418,4.418,0,0,0-.937-.117A2.282,2.282,0,0,0-9.391-6.7a3.077,3.077,0,0,0-.738,2.1V0h-1.3V-8.562h1.07l.148,1.586h.063A3.764,3.764,0,0,1-9-8.266,2.585,2.585,0,0,1-7.52-8.719ZM-3.02,0-6.27-8.562h1.391l1.844,5.078A24.036,24.036,0,0,1-2.3-1.172h.063A17.467,17.467,0,0,1-1.7-2.887q.457-1.3,2.051-5.676H1.746L-1.5,0ZM6.738.156A3.934,3.934,0,0,1,3.742-1a4.476,4.476,0,0,1-1.1-3.211A4.964,4.964,0,0,1,3.664-7.5,3.387,3.387,0,0,1,6.4-8.719,3.229,3.229,0,0,1,8.949-7.66a4.057,4.057,0,0,1,.938,2.793v.82h-5.9A3.394,3.394,0,0,0,4.75-1.758a2.634,2.634,0,0,0,2.035.781A6.9,6.9,0,0,0,9.52-1.555V-.4a6.863,6.863,0,0,1-1.3.426A7.31,7.31,0,0,1,6.738.156ZM6.387-7.633a2.118,2.118,0,0,0-1.645.672A3.1,3.1,0,0,0,4.02-5.1H8.5A2.851,2.851,0,0,0,7.949-6.98,1.925,1.925,0,0,0,6.387-7.633ZM16-8.719a5.075,5.075,0,0,1,1.023.094l-.18,1.2a4.418,4.418,0,0,0-.937-.117,2.282,2.282,0,0,0-1.777.844,3.077,3.077,0,0,0-.738,2.1V0H12.1V-8.562h1.07l.148,1.586h.063a3.764,3.764,0,0,1,1.148-1.289A2.585,2.585,0,0,1,16-8.719ZM27,0H25.73V-8.141q0-1.016.063-1.922-.164.164-.367.344T23.566-8.2l-.687-.891L25.9-11.422H27Z" transform="translate(6015.66 1405.128)"/><path class="g" d="M-22.543-3.039A2.8,2.8,0,0,1-23.637-.687a4.743,4.743,0,0,1-2.969.844A7.436,7.436,0,0,1-29.73-.367V-1.648A8.227,8.227,0,0,0-28.2-1.18a8.056,8.056,0,0,0,1.641.172,3.31,3.31,0,0,0,2-.5,1.654,1.654,0,0,0,.672-1.4,1.8,1.8,0,0,0-.238-.973,2.214,2.214,0,0,0-.8-.7,11.148,11.148,0,0,0-1.7-.727A5.424,5.424,0,0,1-28.9-6.664,2.984,2.984,0,0,1-29.582-8.7a2.536,2.536,0,0,1,.992-2.1,4.123,4.123,0,0,1,2.625-.781,7.736,7.736,0,0,1,3.133.625L-23.246-9.8A7.08,7.08,0,0,0-26-10.4a2.661,2.661,0,0,0-1.648.453,1.493,1.493,0,0,0-.594,1.258,1.928,1.928,0,0,0,.219.973,2.06,2.06,0,0,0,.738.7,9.173,9.173,0,0,0,1.59.7,6.294,6.294,0,0,1,2.473,1.375A2.7,2.7,0,0,1-22.543-3.039Zm5.758,3.2a3.934,3.934,0,0,1-3-1.156,4.476,4.476,0,0,1-1.1-3.211A4.964,4.964,0,0,1-19.859-7.5a3.387,3.387,0,0,1,2.738-1.219A3.229,3.229,0,0,1-14.574-7.66a4.057,4.057,0,0,1,.938,2.793v.82h-5.9a3.394,3.394,0,0,0,.762,2.289,2.635,2.635,0,0,0,2.035.781A6.9,6.9,0,0,0-14-1.555V-.4a6.863,6.863,0,0,1-1.3.426A7.31,7.31,0,0,1-16.785.156Zm-.352-7.789a2.118,2.118,0,0,0-1.645.672A3.1,3.1,0,0,0-19.5-5.1h4.477a2.851,2.851,0,0,0-.547-1.879A1.925,1.925,0,0,0-17.137-7.633ZM-7.52-8.719A5.075,5.075,0,0,1-6.5-8.625l-.18,1.2a4.418,4.418,0,0,0-.937-.117A2.282,2.282,0,0,0-9.391-6.7a3.077,3.077,0,0,0-.738,2.1V0h-1.3V-8.562h1.07l.148,1.586h.063A3.764,3.764,0,0,1-9-8.266,2.585,2.585,0,0,1-7.52-8.719ZM-3.02,0-6.27-8.562h1.391l1.844,5.078A24.036,24.036,0,0,1-2.3-1.172h.063A17.467,17.467,0,0,1-1.7-2.887q.457-1.3,2.051-5.676H1.746L-1.5,0ZM6.738.156A3.934,3.934,0,0,1,3.742-1a4.476,4.476,0,0,1-1.1-3.211A4.964,4.964,0,0,1,3.664-7.5,3.387,3.387,0,0,1,6.4-8.719,3.229,3.229,0,0,1,8.949-7.66a4.057,4.057,0,0,1,.938,2.793v.82h-5.9A3.394,3.394,0,0,0,4.75-1.758a2.634,2.634,0,0,0,2.035.781A6.9,6.9,0,0,0,9.52-1.555V-.4a6.863,6.863,0,0,1-1.3.426A7.31,7.31,0,0,1,6.738.156ZM6.387-7.633a2.118,2.118,0,0,0-1.645.672A3.1,3.1,0,0,0,4.02-5.1H8.5A2.851,2.851,0,0,0,7.949-6.98,1.925,1.925,0,0,0,6.387-7.633ZM16-8.719a5.075,5.075,0,0,1,1.023.094l-.18,1.2a4.418,4.418,0,0,0-.937-.117,2.282,2.282,0,0,0-1.777.844,3.077,3.077,0,0,0-.738,2.1V0H12.1V-8.562h1.07l.148,1.586h.063a3.764,3.764,0,0,1,1.148-1.289A2.585,2.585,0,0,1,16-8.719ZM29.7,0H22.191V-1.117L25.2-4.141a22.149,22.149,0,0,0,1.813-1.984,5.064,5.064,0,0,0,.656-1.156,3.312,3.312,0,0,0,.219-1.211,1.92,1.92,0,0,0-.555-1.449,2.125,2.125,0,0,0-1.539-.535,3.87,3.87,0,0,0-1.348.234,5.372,5.372,0,0,0-1.418.852l-.687-.883a5.265,5.265,0,0,1,3.438-1.312,3.632,3.632,0,0,1,2.523.824,2.835,2.835,0,0,1,.914,2.215A4.277,4.277,0,0,1,28.605-6.4a13.64,13.64,0,0,1-2.281,2.688l-2.5,2.445V-1.2H29.7Z" transform="translate(6265.703 1405.128)"/><path class="g" d="M-22.543-3.039A2.8,2.8,0,0,1-23.637-.687a4.743,4.743,0,0,1-2.969.844A7.436,7.436,0,0,1-29.73-.367V-1.648A8.227,8.227,0,0,0-28.2-1.18a8.056,8.056,0,0,0,1.641.172,3.31,3.31,0,0,0,2-.5,1.654,1.654,0,0,0,.672-1.4,1.8,1.8,0,0,0-.238-.973,2.214,2.214,0,0,0-.8-.7,11.148,11.148,0,0,0-1.7-.727A5.424,5.424,0,0,1-28.9-6.664,2.984,2.984,0,0,1-29.582-8.7a2.536,2.536,0,0,1,.992-2.1,4.123,4.123,0,0,1,2.625-.781,7.736,7.736,0,0,1,3.133.625L-23.246-9.8A7.08,7.08,0,0,0-26-10.4a2.661,2.661,0,0,0-1.648.453,1.493,1.493,0,0,0-.594,1.258,1.928,1.928,0,0,0,.219.973,2.06,2.06,0,0,0,.738.7,9.173,9.173,0,0,0,1.59.7,6.294,6.294,0,0,1,2.473,1.375A2.7,2.7,0,0,1-22.543-3.039Zm5.758,3.2a3.934,3.934,0,0,1-3-1.156,4.476,4.476,0,0,1-1.1-3.211A4.964,4.964,0,0,1-19.859-7.5a3.387,3.387,0,0,1,2.738-1.219A3.229,3.229,0,0,1-14.574-7.66a4.057,4.057,0,0,1,.938,2.793v.82h-5.9a3.394,3.394,0,0,0,.762,2.289,2.635,2.635,0,0,0,2.035.781A6.9,6.9,0,0,0-14-1.555V-.4a6.863,6.863,0,0,1-1.3.426A7.31,7.31,0,0,1-16.785.156Zm-.352-7.789a2.118,2.118,0,0,0-1.645.672A3.1,3.1,0,0,0-19.5-5.1h4.477a2.851,2.851,0,0,0-.547-1.879A1.925,1.925,0,0,0-17.137-7.633ZM-7.52-8.719A5.075,5.075,0,0,1-6.5-8.625l-.18,1.2a4.418,4.418,0,0,0-.937-.117A2.282,2.282,0,0,0-9.391-6.7a3.077,3.077,0,0,0-.738,2.1V0h-1.3V-8.562h1.07l.148,1.586h.063A3.764,3.764,0,0,1-9-8.266,2.585,2.585,0,0,1-7.52-8.719ZM-3.02,0-6.27-8.562h1.391l1.844,5.078A24.036,24.036,0,0,1-2.3-1.172h.063A17.467,17.467,0,0,1-1.7-2.887q.457-1.3,2.051-5.676H1.746L-1.5,0ZM6.738.156A3.934,3.934,0,0,1,3.742-1a4.476,4.476,0,0,1-1.1-3.211A4.964,4.964,0,0,1,3.664-7.5,3.387,3.387,0,0,1,6.4-8.719,3.229,3.229,0,0,1,8.949-7.66a4.057,4.057,0,0,1,.938,2.793v.82h-5.9A3.394,3.394,0,0,0,4.75-1.758a2.634,2.634,0,0,0,2.035.781A6.9,6.9,0,0,0,9.52-1.555V-.4a6.863,6.863,0,0,1-1.3.426A7.31,7.31,0,0,1,6.738.156ZM6.387-7.633a2.118,2.118,0,0,0-1.645.672A3.1,3.1,0,0,0,4.02-5.1H8.5A2.851,2.851,0,0,0,7.949-6.98,1.925,1.925,0,0,0,6.387-7.633ZM16-8.719a5.075,5.075,0,0,1,1.023.094l-.18,1.2a4.418,4.418,0,0,0-.937-.117,2.282,2.282,0,0,0-1.777.844,3.077,3.077,0,0,0-.738,2.1V0H12.1V-8.562h1.07l.148,1.586h.063a3.764,3.764,0,0,1,1.148-1.289A2.585,2.585,0,0,1,16-8.719ZM29.27-8.734a2.6,2.6,0,0,1-.613,1.789,3.07,3.07,0,0,1-1.738.93v.063a3.269,3.269,0,0,1,2.039.875,2.575,2.575,0,0,1,.664,1.844A2.991,2.991,0,0,1,28.488-.723,5.152,5.152,0,0,1,25.27.156,9.328,9.328,0,0,1,23.609.02a5.682,5.682,0,0,1-1.465-.48V-1.7a7.123,7.123,0,0,0,1.582.559,7.165,7.165,0,0,0,1.59.191q2.961,0,2.961-2.32,0-2.078-3.266-2.078H23.887V-6.461h1.141a3.434,3.434,0,0,0,2.117-.59,1.935,1.935,0,0,0,.781-1.637A1.613,1.613,0,0,0,27.352-10a2.366,2.366,0,0,0-1.559-.477,4.809,4.809,0,0,0-1.414.2,6.328,6.328,0,0,0-1.516.75l-.656-.875a5.471,5.471,0,0,1,1.621-.871,5.892,5.892,0,0,1,1.934-.316,3.951,3.951,0,0,1,2.586.762A2.565,2.565,0,0,1,29.27-8.734Z" transform="translate(6522.746 1405.128)"/><path class="f" d="M5.643-5.643H50.786v-5.643H5.643Zm0-22.571H50.786v-5.643H5.643ZM73.533-5.467a4.081,4.081,0,0,0,1.234-3,4.081,4.081,0,0,0-1.234-3,4.081,4.081,0,0,0-3-1.234,4.081,4.081,0,0,0-3,1.234,4.081,4.081,0,0,0-1.234,3,4.081,4.081,0,0,0,1.234,3,4.081,4.081,0,0,0,3,1.234A4.081,4.081,0,0,0,73.533-5.467ZM5.643-50.786H50.786v-5.643H5.643ZM73.533-28.038a4.081,4.081,0,0,0,1.234-3,4.081,4.081,0,0,0-1.234-3,4.081,4.081,0,0,0-3-1.234,4.081,4.081,0,0,0-3,1.234,4.081,4.081,0,0,0-1.234,3,4.081,4.081,0,0,0,1.234,3,4.081,4.081,0,0,0,3,1.234A4.081,4.081,0,0,0,73.533-28.038Zm0-22.571a4.081,4.081,0,0,0,1.234-3,4.081,4.081,0,0,0-1.234-3,4.081,4.081,0,0,0-3-1.234,4.081,4.081,0,0,0-3,1.234,4.081,4.081,0,0,0-1.234,3,4.081,4.081,0,0,0,1.234,3,4.081,4.081,0,0,0,3,1.234A4.081,4.081,0,0,0,73.533-50.609ZM79-16.929V0H0V-16.929ZM79-39.5v16.929H0V-39.5Zm0-22.571v16.929H0V-62.071Z" transform="translate(5975.106 1383.915)"/><path class="h" d="M5.643-5.643H50.786v-5.643H5.643Zm0-22.571H50.786v-5.643H5.643ZM73.533-5.467a4.081,4.081,0,0,0,1.234-3,4.081,4.081,0,0,0-1.234-3,4.081,4.081,0,0,0-3-1.234,4.081,4.081,0,0,0-3,1.234,4.081,4.081,0,0,0-1.234,3,4.081,4.081,0,0,0,1.234,3,4.081,4.081,0,0,0,3,1.234A4.081,4.081,0,0,0,73.533-5.467ZM5.643-50.786H50.786v-5.643H5.643ZM73.533-28.038a4.081,4.081,0,0,0,1.234-3,4.081,4.081,0,0,0-1.234-3,4.081,4.081,0,0,0-3-1.234,4.081,4.081,0,0,0-3,1.234,4.081,4.081,0,0,0-1.234,3,4.081,4.081,0,0,0,1.234,3,4.081,4.081,0,0,0,3,1.234A4.081,4.081,0,0,0,73.533-28.038Zm0-22.571a4.081,4.081,0,0,0,1.234-3,4.081,4.081,0,0,0-1.234-3,4.081,4.081,0,0,0-3-1.234,4.081,4.081,0,0,0-3,1.234,4.081,4.081,0,0,0-1.234,3,4.081,4.081,0,0,0,1.234,3,4.081,4.081,0,0,0,3,1.234A4.081,4.081,0,0,0,73.533-50.609ZM79-16.929V0H0V-16.929ZM79-39.5v16.929H0V-39.5Zm0-22.571v16.929H0V-62.071Z" transform="translate(6226.149 1383.915)"/><path class="i" d="M5.643-5.643H50.786v-5.643H5.643Zm0-22.571H50.786v-5.643H5.643ZM73.533-5.467a4.081,4.081,0,0,0,1.234-3,4.081,4.081,0,0,0-1.234-3,4.081,4.081,0,0,0-3-1.234,4.081,4.081,0,0,0-3,1.234,4.081,4.081,0,0,0-1.234,3,4.081,4.081,0,0,0,1.234,3,4.081,4.081,0,0,0,3,1.234A4.081,4.081,0,0,0,73.533-5.467ZM5.643-50.786H50.786v-5.643H5.643ZM73.533-28.038a4.081,4.081,0,0,0,1.234-3,4.081,4.081,0,0,0-1.234-3,4.081,4.081,0,0,0-3-1.234,4.081,4.081,0,0,0-3,1.234,4.081,4.081,0,0,0-1.234,3,4.081,4.081,0,0,0,1.234,3,4.081,4.081,0,0,0,3,1.234A4.081,4.081,0,0,0,73.533-28.038Zm0-22.571a4.081,4.081,0,0,0,1.234-3,4.081,4.081,0,0,0-1.234-3,4.081,4.081,0,0,0-3-1.234,4.081,4.081,0,0,0-3,1.234,4.081,4.081,0,0,0-1.234,3,4.081,4.081,0,0,0,1.234,3,4.081,4.081,0,0,0,3,1.234A4.081,4.081,0,0,0,73.533-50.609ZM79-16.929V0H0V-16.929ZM79-39.5v16.929H0V-39.5Zm0-22.571v16.929H0V-62.071Z" transform="translate(6483.192 1383.915)"/></g></svg>