<svg xmlns="http://www.w3.org/2000/svg" xmlns:xlink="http://www.w3.org/1999/xlink" viewBox="6640 1164 600 246"><defs><style>.a{clip-path:url(#b);}.b,.d,.e{fill:#fff;}.b{font-size:22px;}.b,.e{font-family:OpenSans-Regular, Open Sans;}.c{fill:none;stroke:#fff;stroke-width:2px;}.e{font-size:16px;}.f{fill:#eb4141;}.g{fill:#418eeb;}.h{fill:#28bd84;}.i{fill:#efebe0;stroke:#95989a;}.j{fill:#96999b;}.k,.l{fill:#3a3a3a;}.l{font-size:48px;font-family:OpenSans-Light, Open Sans;font-weight:300;}.m{fill:rgba(255,255,255,0);}</style><clipPath id="b"><rect x="6640" y="1164" width="600" height="246"/></clipPath></defs><g id="a" class="a"><rect class="m" x="6640" y="1164" width="600" height="246"/><text class="b" transform="translate(6808.704 1264.977)"><tspan x="-21.017" y="0">Link</tspan></text><text class="b" transform="translate(7062.747 1264.977)"><tspan x="-21.017" y="0">Link</tspan></text><line class="c" x2="103.533" transform="translate(6756.679 1224.293)"/><line class="c" x2="103.533" transform="translate(7009.445 1224.293)"/><path class="d" d="M0,0,23.459,8.774,8.975,23.258Z" transform="translate(6870.906 1224.489) rotate(135)"/><path class="d" d="M0,0,23.459,8.774,8.975,23.258Z" transform="translate(7123.673 1224.489) rotate(135)"/><text class="e" transform="translate(6681.659 1405.128)"><tspan x="-30.559" y="0">Server 1</tspan></text><text class="e" transform="translate(6932.702 1405.128)"><tspan x="-30.559" y="0">Server 2</tspan></text><text class="e" transform="translate(7189.745 1405.128)"><tspan x="-30.559" y="0">Server 3</tspan></text><path class="f" d="M5.643-5.643H50.786v-5.643H5.643Zm0-22.571H50.786v-5.643H5.643ZM73.533-5.467a4.081,4.081,0,0,0,1.234-3,4.081,4.081,0,0,0-1.234-3,4.081,4.081,0,0,0-3-1.234,4.081,4.081,0,0,0-3,1.234,4.081,4.081,0,0,0-1.234,3,4.081,4.081,0,0,0,1.234,3,4.081,4.081,0,0,0,3,1.234A4.081,4.081,0,0,0,73.533-5.467ZM5.643-50.786H50.786v-5.643H5.643ZM73.533-28.038a4.081,4.081,0,0,0,1.234-3,4.081,4.081,0,0,0-1.234-3,4.081,4.081,0,0,0-3-1.234,4.081,4.081,0,0,0-3,1.234,4.081,4.081,0,0,0-1.234,3,4.081,4.081,0,0,0,1.234,3,4.081,4.081,0,0,0,3,1.234A4.081,4.081,0,0,0,73.533-28.038Zm0-22.571a4.081,4.081,0,0,0,1.234-3,4.081,4.081,0,0,0-1.234-3,4.081,4.081,0,0,0-3-1.234,4.081,4.081,0,0,0-3,1.234,4.081,4.081,0,0,0-1.234,3,4.081,4.081,0,0,0,1.234,3,4.081,4.081,0,0,0,3,1.234A4.081,4.081,0,0,0,73.533-50.609ZM79-16.929V0H0V-16.929ZM79-39.5v16.929H0V-39.5Zm0-22.571v16.929H0V-62.071Z" transform="translate(6645.106 1383.915)"/><path class="g" d="M5.643-5.643H50.786v-5.643H5.643Zm0-22.571H50.786v-5.643H5.643ZM73.533-5.467a4.081,4.081,0,0,0,1.234-3,4.081,4.081,0,0,0-1.234-3,4.081,4.081,0,0,0-3-1.234,4.081,4.081,0,0,0-3,1.234,4.081,4.081,0,0,0-1.234,3,4.081,4.081,0,0,0,1.234,3,4.081,4.081,0,0,0,3,1.234A4.081,4.081,0,0,0,73.533-5.467ZM5.643-50.786H50.786v-5.643H5.643ZM73.533-28.038a4.081,4.081,0,0,0,1.234-3,4.081,4.081,0,0,0-1.234-3,4.081,4.081,0,0,0-3-1.234,4.081,4.081,0,0,0-3,1.234,4.081,4.081,0,0,0-1.234,3,4.081,4.081,0,0,0,1.234,3,4.081,4.081,0,0,0,3,1.234A4.081,4.081,0,0,0,73.533-28.038Zm0-22.571a4.081,4.081,0,0,0,1.234-3,4.081,4.081,0,0,0-1.234-3,4.081,4.081,0,0,0-3-1.234,4.081,4.081,0,0,0-3,1.234,4.081,4.081,0,0,0-1.234,3,4.081,4.081,0,0,0,1.234,3,4.081,4.081,0,0,0,3,1.234A4.081,4.081,0,0,0,73.533-50.609ZM79-16.929V0H0V-16.929ZM79-39.5v16.929H0V-39.5Zm0-22.571v16.929H0V-62.071Z" transform="translate(6896.149 1383.915)"/><path class="h" d="M5.643-5.643H50.786v-5.643H5.643Zm0-22.571H50.786v-5.643H5.643ZM73.533-5.467a4.081,4.081,0,0,0,1.234-3,4.081,4.081,0,0,0-1.234-3,4.081,4.081,0,0,0-3-1.234,4.081,4.081,0,0,0-3,1.234,4.081,4.081,0,0,0-1.234,3,4.081,4.081,0,0,0,1.234,3,4.081,4.081,0,0,0,3,1.234A4.081,4.081,0,0,0,73.533-5.467ZM5.643-50.786H50.786v-5.643H5.643ZM73.533-28.038a4.081,4.081,0,0,0,1.234-3,4.081,4.081,0,0,0-1.234-3,4.081,4.081,0,0,0-3-1.234,4.081,4.081,0,0,0-3,1.234,4.081,4.081,0,0,0-1.234,3,4.081,4.081,0,0,0,1.234,3,4.081,4.081,0,0,0,3,1.234A4.081,4.081,0,0,0,73.533-28.038Zm0-22.571a4.081,4.081,0,0,0,1.234-3,4.081,4.081,0,0,0-1.234-3,4.081,4.081,0,0,0-3-1.234,4.081,4.081,0,0,0-3,1.234,4.081,4.081,0,0,0-1.234,3,4.081,4.081,0,0,0,1.234,3,4.081,4.081,0,0,0,3,1.234A4.081,4.081,0,0,0,73.533-50.609ZM79-16.929V0H0V-16.929ZM79-39.5v16.929H0V-39.5Zm0-22.571v16.929H0V-62.071Z" transform="translate(7153.192 1383.915)"/><g transform="translate(6213.5 -1099.5)"><path class="i" d="M12072.023,6428.364v119.4h92.136V6447.4l-19.034-19.034Z" transform="translate(-11138.101 -4164.364)"/><path class="j" d="M12150.169,6428.364v19.467h19.469Z" transform="translate(-11143.138 -4164.364)"/><rect class="h" width="92.981" height="26.204" transform="translate(933.5 2357.826)"/><text class="b" transform="translate(979.981 2379.29)"><tspan x="-20.496" y="0">RDF</tspan></text><g transform="translate(947.98 2301.163)"><g transform="translate(0)"><path class="k" d="M95.6,2.046,93.616,0,77.9,15.269,93.616,30.54,95.6,28.493,81.992,15.269Z" transform="translate(-77.895)"/></g></g><g transform="translate(1012.466 2331.703) rotate(180)"><path class="k" d="M17.709,2.046,15.721,0,0,15.269,15.721,30.54l1.988-2.047L4.1,15.269Z"/></g><text class="l" transform="translate(979.5 2333.5)"><tspan x="-8.18" y="0">/</tspan></text><path class="g" d="M20.313-4.464a1.292,1.292,0,0,0-.391-.949l-2.9-2.9a1.292,1.292,0,0,0-.949-.391,1.329,1.329,0,0,0-1,.446L15.332-8q.223.216.3.3a3.322,3.322,0,0,1,.209.265,1.122,1.122,0,0,1,.181.356,1.42,1.42,0,0,1,.049.384,1.292,1.292,0,0,1-.391.949,1.292,1.292,0,0,1-.949.391,1.42,1.42,0,0,1-.384-.049,1.122,1.122,0,0,1-.356-.181,3.321,3.321,0,0,1-.265-.209q-.084-.077-.3-.3l-.258-.265a1.354,1.354,0,0,0-.46,1.018,1.292,1.292,0,0,0,.391.949l2.874,2.888a1.286,1.286,0,0,0,.949.377,1.344,1.344,0,0,0,.949-.363L19.922-3.53A1.275,1.275,0,0,0,20.313-4.464ZM10.505-14.3a1.292,1.292,0,0,0-.391-.949L7.241-18.136a1.292,1.292,0,0,0-.949-.391,1.347,1.347,0,0,0-.949.377L3.292-16.113a1.275,1.275,0,0,0-.391.935,1.292,1.292,0,0,0,.391.949l2.9,2.9a1.286,1.286,0,0,0,.949.377,1.348,1.348,0,0,0,1-.432l-.265-.258q-.223-.216-.3-.3a3.322,3.322,0,0,1-.209-.265,1.122,1.122,0,0,1-.181-.356,1.42,1.42,0,0,1-.049-.384,1.292,1.292,0,0,1,.391-.949,1.292,1.292,0,0,1,.949-.391,1.42,1.42,0,0,1,.384.049,1.122,1.122,0,0,1,.356.181,3.321,3.321,0,0,1,.265.209q.084.077.3.3l.258.265A1.354,1.354,0,0,0,10.505-14.3ZM21.819-7.31a3.875,3.875,0,0,1,1.172,2.846,3.806,3.806,0,0,1-1.186,2.832L19.754.4a3.852,3.852,0,0,1-2.832,1.158A3.822,3.822,0,0,1,14.076.377L11.2-2.511a3.852,3.852,0,0,1-1.158-2.832,3.924,3.924,0,0,1,1.228-2.916L10.045-9.487a3.908,3.908,0,0,1-2.9,1.228A3.875,3.875,0,0,1,4.3-9.431l-2.9-2.9A3.875,3.875,0,0,1,.223-15.179a3.806,3.806,0,0,1,1.186-2.832L3.46-20.047a3.852,3.852,0,0,1,2.832-1.158A3.823,3.823,0,0,1,9.138-20.02l2.874,2.888A3.852,3.852,0,0,1,13.17-14.3a3.924,3.924,0,0,1-1.228,2.916l1.228,1.228a3.908,3.908,0,0,1,2.9-1.228,3.875,3.875,0,0,1,2.846,1.172Z" transform="translate(937.282 2288.92)"/></g><g transform="translate(5955.5 -1099.5)"><path class="i" d="M12072.023,6428.364v119.4h92.136V6447.4l-19.034-19.034Z" transform="translate(-11138.101 -4164.364)"/><path class="j" d="M12150.169,6428.364v19.467h19.469Z" transform="translate(-11143.138 -4164.364)"/><rect class="g" width="92.981" height="26.204" transform="translate(933.5 2357.826)"/><text class="b" transform="translate(979.981 2379.29)"><tspan x="-20.496" y="0">RDF</tspan></text><g transform="translate(947.98 2301.163)"><g transform="translate(0)"><path class="k" d="M95.6,2.046,93.616,0,77.9,15.269,93.616,30.54,95.6,28.493,81.992,15.269Z" transform="translate(-77.895)"/></g></g><g transform="translate(1012.466 2331.703) rotate(180)"><path class="k" d="M17.709,2.046,15.721,0,0,15.269,15.721,30.54l1.988-2.047L4.1,15.269Z"/></g><text class="l" transform="translate(979.5 2333.5)"><tspan x="-8.18" y="0">/</tspan></text><path class="g" d="M20.313-4.464a1.292,1.292,0,0,0-.391-.949l-2.9-2.9a1.292,1.292,0,0,0-.949-.391,1.329,1.329,0,0,0-1,.446L15.332-8q.223.216.3.3a3.322,3.322,0,0,1,.209.265,1.122,1.122,0,0,1,.181.356,1.42,1.42,0,0,1,.049.384,1.292,1.292,0,0,1-.391.949,1.292,1.292,0,0,1-.949.391,1.42,1.42,0,0,1-.384-.049,1.122,1.122,0,0,1-.356-.181,3.321,3.321,0,0,1-.265-.209q-.084-.077-.3-.3l-.258-.265a1.354,1.354,0,0,0-.46,1.018,1.292,1.292,0,0,0,.391.949l2.874,2.888a1.286,1.286,0,0,0,.949.377,1.344,1.344,0,0,0,.949-.363L19.922-3.53A1.275,1.275,0,0,0,20.313-4.464ZM10.505-14.3a1.292,1.292,0,0,0-.391-.949L7.241-18.136a1.292,1.292,0,0,0-.949-.391,1.347,1.347,0,0,0-.949.377L3.292-16.113a1.275,1.275,0,0,0-.391.935,1.292,1.292,0,0,0,.391.949l2.9,2.9a1.286,1.286,0,0,0,.949.377,1.348,1.348,0,0,0,1-.432l-.265-.258q-.223-.216-.3-.3a3.322,3.322,0,0,1-.209-.265,1.122,1.122,0,0,1-.181-.356,1.42,1.42,0,0,1-.049-.384,1.292,1.292,0,0,1,.391-.949,1.292,1.292,0,0,1,.949-.391,1.42,1.42,0,0,1,.384.049,1.122,1.122,0,0,1,.356.181,3.321,3.321,0,0,1,.265.209q.084.077.3.3l.258.265A1.354,1.354,0,0,0,10.505-14.3ZM21.819-7.31a3.875,3.875,0,0,1,1.172,2.846,3.806,3.806,0,0,1-1.186,2.832L19.754.4a3.852,3.852,0,0,1-2.832,1.158A3.822,3.822,0,0,1,14.076.377L11.2-2.511a3.852,3.852,0,0,1-1.158-2.832,3.924,3.924,0,0,1,1.228-2.916L10.045-9.487a3.908,3.908,0,0,1-2.9,1.228A3.875,3.875,0,0,1,4.3-9.431l-2.9-2.9A3.875,3.875,0,0,1,.223-15.179a3.806,3.806,0,0,1,1.186-2.832L3.46-20.047a3.852,3.852,0,0,1,2.832-1.158A3.823,3.823,0,0,1,9.138-20.02l2.874,2.888A3.852,3.852,0,0,1,13.17-14.3a3.924,3.924,0,0,1-1.228,2.916l1.228,1.228a3.908,3.908,0,0,1,2.9-1.228,3.875,3.875,0,0,1,2.846,1.172Z" transform="translate(937.282 2288.92)"/></g><g transform="translate(5706.5 -1099.5)"><path class="i" d="M12072.023,6428.364v119.4h92.136V6447.4l-19.034-19.034Z" transform="translate(-11138.101 -4164.364)"/><path class="j" d="M12150.169,6428.364v19.467h19.469Z" transform="translate(-11143.138 -4164.364)"/><rect class="f" width="92.981" height="26.204" transform="translate(933.5 2357.826)"/><text class="b" transform="translate(979.981 2379.29)"><tspan x="-20.496" y="0">RDF</tspan></text><g transform="translate(947.98 2301.163)"><g transform="translate(0)"><path class="k" d="M95.6,2.046,93.616,0,77.9,15.269,93.616,30.54,95.6,28.493,81.992,15.269Z" transform="translate(-77.895)"/></g></g><g transform="translate(1012.466 2331.703) rotate(180)"><path class="k" d="M17.709,2.046,15.721,0,0,15.269,15.721,30.54l1.988-2.047L4.1,15.269Z"/></g><text class="l" transform="translate(979.5 2333.5)"><tspan x="-8.18" y="0">/</tspan></text><path class="g" d="M20.313-4.464a1.292,1.292,0,0,0-.391-.949l-2.9-2.9a1.292,1.292,0,0,0-.949-.391,1.329,1.329,0,0,0-1,.446L15.332-8q.223.216.3.3a3.322,3.322,0,0,1,.209.265,1.122,1.122,0,0,1,.181.356,1.42,1.42,0,0,1,.049.384,1.292,1.292,0,0,1-.391.949,1.292,1.292,0,0,1-.949.391,1.42,1.42,0,0,1-.384-.049,1.122,1.122,0,0,1-.356-.181,3.321,3.321,0,0,1-.265-.209q-.084-.077-.3-.3l-.258-.265a1.354,1.354,0,0,0-.46,1.018,1.292,1.292,0,0,0,.391.949l2.874,2.888a1.286,1.286,0,0,0,.949.377,1.344,1.344,0,0,0,.949-.363L19.922-3.53A1.275,1.275,0,0,0,20.313-4.464ZM10.505-14.3a1.292,1.292,0,0,0-.391-.949L7.241-18.136a1.292,1.292,0,0,0-.949-.391,1.347,1.347,0,0,0-.949.377L3.292-16.113a1.275,1.275,0,0,0-.391.935,1.292,1.292,0,0,0,.391.949l2.9,2.9a1.286,1.286,0,0,0,.949.377,1.348,1.348,0,0,0,1-.432l-.265-.258q-.223-.216-.3-.3a3.322,3.322,0,0,1-.209-.265,1.122,1.122,0,0,1-.181-.356,1.42,1.42,0,0,1-.049-.384,1.292,1.292,0,0,1,.391-.949,1.292,1.292,0,0,1,.949-.391,1.42,1.42,0,0,1,.384.049,1.122,1.122,0,0,1,.356.181,3.321,3.321,0,0,1,.265.209q.084.077.3.3l.258.265A1.354,1.354,0,0,0,10.505-14.3ZM21.819-7.31a3.875,3.875,0,0,1,1.172,2.846,3.806,3.806,0,0,1-1.186,2.832L19.754.4a3.852,3.852,0,0,1-2.832,1.158A3.822,3.822,0,0,1,14.076.377L11.2-2.511a3.852,3.852,0,0,1-1.158-2.832,3.924,3.924,0,0,1,1.228-2.916L10.045-9.487a3.908,3.908,0,0,1-2.9,1.228A3.875,3.875,0,0,1,4.3-9.431l-2.9-2.9A3.875,3.875,0,0,1,.223-15.179a3.806,3.806,0,0,1,1.186-2.832L3.46-20.047a3.852,3.852,0,0,1,2.832-1.158A3.823,3.823,0,0,1,9.138-20.02l2.874,2.888A3.852,3.852,0,0,1,13.17-14.3a3.924,3.924,0,0,1-1.228,2.916l1.228,1.228a3.908,3.908,0,0,1,2.9-1.228,3.875,3.875,0,0,1,2.846,1.172Z" transform="translate(937.282 2288.92)"/></g></g></svg>