<svg xmlns="http://www.w3.org/2000/svg" xmlns:xlink="http://www.w3.org/1999/xlink" viewBox="5970 1164 600 246"><defs><style>.a{clip-path:url(#b);}.b,.g,.k,.l{fill:#fff;}.b{font-size:22px;}.b,.g,.l{font-family:OpenSans-Regular, Open Sans;}.c{fill:#efebe0;stroke:#95989a;}.d{fill:#96999b;}.e{fill:#3a3a3a;}.f{fill:#eb4141;}.g{font-size:20px;}.h{fill:#418eeb;}.i{fill:#28bd84;}.j{fill:none;stroke:#fff;stroke-width:2px;}.l{font-size:16px;}.m{fill:rgba(255,255,255,0);}</style><clipPath id="b"><rect x="5970" y="1164" width="600" height="246"/></clipPath></defs><g id="a" class="a"><rect class="m" x="5970" y="1164" width="600" height="246"/><text class="b" transform="translate(6138.704 1264.977)"><tspan x="-21.017" y="0">Link</tspan></text><text class="b" transform="translate(6392.747 1264.977)"><tspan x="-21.017" y="0">Link</tspan></text><g transform="translate(5970 1164.5)"><path class="c" d="M12072.025,6428.36v120.381h93V6447.552l-19.213-19.191Z" transform="translate(-12071.538 -6428.36)"/><path class="d" d="M12150.171,6428.361v19.257h19.189Z" transform="translate(-12075.973 -6428.361)"/><g transform="translate(19.376 37.469)"><g transform="translate(0)"><path class="e" d="M95.75,2.063,93.745,0,77.895,15.395l15.85,15.4,2-2.064L82.025,15.395Z" transform="translate(-77.895)"/></g></g><g transform="translate(74.96 68.259) rotate(180)"><path class="e" d="M17.855,2.063,15.85,0,0,15.395l15.85,15.4,2-2.064L4.13,15.395Z"/></g><rect class="f" width="94" height="26.411" transform="translate(0 94.427)"/><text class="g" transform="translate(47.024 114.613)"><tspan x="-27.129" y="0">HTML</tspan></text><path class="h" d="M18.688-4.107a1.188,1.188,0,0,0-.359-.873l-2.67-2.67a1.188,1.188,0,0,0-.873-.359,1.222,1.222,0,0,0-.924.411l.244.237q.205.2.276.276a3.056,3.056,0,0,1,.193.244,1.032,1.032,0,0,1,.167.327,1.306,1.306,0,0,1,.045.353,1.188,1.188,0,0,1-.359.873,1.188,1.188,0,0,1-.873.359,1.306,1.306,0,0,1-.353-.045,1.032,1.032,0,0,1-.327-.167,3.056,3.056,0,0,1-.244-.193q-.077-.071-.276-.276l-.237-.244a1.245,1.245,0,0,0-.424.937,1.188,1.188,0,0,0,.359.873L14.7-1.386a1.183,1.183,0,0,0,.873.347,1.236,1.236,0,0,0,.873-.334l1.887-1.874A1.173,1.173,0,0,0,18.688-4.107ZM9.665-13.156a1.188,1.188,0,0,0-.359-.873L6.661-16.685a1.188,1.188,0,0,0-.873-.359,1.24,1.24,0,0,0-.873.347L3.029-14.824a1.173,1.173,0,0,0-.359.86,1.188,1.188,0,0,0,.359.873l2.67,2.67a1.183,1.183,0,0,0,.873.347,1.24,1.24,0,0,0,.924-.4l-.244-.237q-.205-.2-.276-.276a3.056,3.056,0,0,1-.193-.244,1.032,1.032,0,0,1-.167-.327,1.306,1.306,0,0,1-.045-.353,1.188,1.188,0,0,1,.359-.873,1.188,1.188,0,0,1,.873-.359,1.306,1.306,0,0,1,.353.045,1.032,1.032,0,0,1,.327.167,3.056,3.056,0,0,1,.244.193q.077.071.276.276l.237.244A1.245,1.245,0,0,0,9.665-13.156Zm10.409,6.43a3.565,3.565,0,0,1,1.078,2.618A3.5,3.5,0,0,1,20.061-1.5L18.174.372a3.544,3.544,0,0,1-2.605,1.065A3.517,3.517,0,0,1,12.95.347L10.306-2.31A3.544,3.544,0,0,1,9.241-4.916,3.61,3.61,0,0,1,10.371-7.6L9.241-8.728A3.6,3.6,0,0,1,6.571-7.6,3.565,3.565,0,0,1,3.953-8.676l-2.67-2.67A3.565,3.565,0,0,1,.205-13.964,3.5,3.5,0,0,1,1.3-16.57l1.887-1.874a3.544,3.544,0,0,1,2.605-1.065,3.517,3.517,0,0,1,2.618,1.091l2.644,2.657a3.544,3.544,0,0,1,1.065,2.605,3.61,3.61,0,0,1-1.129,2.682l1.129,1.129a3.6,3.6,0,0,1,2.67-1.129A3.565,3.565,0,0,1,17.4-9.4Z" transform="translate(4.273 24.273)"/></g><g transform="translate(6219 1164.5)"><path class="c" d="M12072.025,6428.36v120.381h93V6447.552l-19.213-19.191Z" transform="translate(-12071.538 -6428.36)"/><path class="d" d="M12150.171,6428.361v19.257h19.189Z" transform="translate(-12075.973 -6428.361)"/><g transform="translate(19.376 37.469)"><g transform="translate(0)"><path class="e" d="M95.75,2.063,93.745,0,77.895,15.395l15.85,15.4,2-2.064L82.025,15.395Z" transform="translate(-77.895)"/></g></g><g transform="translate(74.96 68.259) rotate(180)"><path class="e" d="M17.855,2.063,15.85,0,0,15.395l15.85,15.4,2-2.064L4.13,15.395Z"/></g><rect class="h" width="94" height="26.411" transform="translate(0 94.427)"/><text class="g" transform="translate(47.024 114.613)"><tspan x="-27.129" y="0">HTML</tspan></text><path class="h" d="M18.688-4.107a1.188,1.188,0,0,0-.359-.873l-2.67-2.67a1.188,1.188,0,0,0-.873-.359,1.222,1.222,0,0,0-.924.411l.244.237q.205.2.276.276a3.056,3.056,0,0,1,.193.244,1.032,1.032,0,0,1,.167.327,1.306,1.306,0,0,1,.045.353,1.188,1.188,0,0,1-.359.873,1.188,1.188,0,0,1-.873.359,1.306,1.306,0,0,1-.353-.045,1.032,1.032,0,0,1-.327-.167,3.056,3.056,0,0,1-.244-.193q-.077-.071-.276-.276l-.237-.244a1.245,1.245,0,0,0-.424.937,1.188,1.188,0,0,0,.359.873L14.7-1.386a1.183,1.183,0,0,0,.873.347,1.236,1.236,0,0,0,.873-.334l1.887-1.874A1.173,1.173,0,0,0,18.688-4.107ZM9.665-13.156a1.188,1.188,0,0,0-.359-.873L6.661-16.685a1.188,1.188,0,0,0-.873-.359,1.24,1.24,0,0,0-.873.347L3.029-14.824a1.173,1.173,0,0,0-.359.86,1.188,1.188,0,0,0,.359.873l2.67,2.67a1.183,1.183,0,0,0,.873.347,1.24,1.24,0,0,0,.924-.4l-.244-.237q-.205-.2-.276-.276a3.056,3.056,0,0,1-.193-.244,1.032,1.032,0,0,1-.167-.327,1.306,1.306,0,0,1-.045-.353,1.188,1.188,0,0,1,.359-.873,1.188,1.188,0,0,1,.873-.359,1.306,1.306,0,0,1,.353.045,1.032,1.032,0,0,1,.327.167,3.056,3.056,0,0,1,.244.193q.077.071.276.276l.237.244A1.245,1.245,0,0,0,9.665-13.156Zm10.409,6.43a3.565,3.565,0,0,1,1.078,2.618A3.5,3.5,0,0,1,20.061-1.5L18.174.372a3.544,3.544,0,0,1-2.605,1.065A3.517,3.517,0,0,1,12.95.347L10.306-2.31A3.544,3.544,0,0,1,9.241-4.916,3.61,3.61,0,0,1,10.371-7.6L9.241-8.728A3.6,3.6,0,0,1,6.571-7.6,3.565,3.565,0,0,1,3.953-8.676l-2.67-2.67A3.565,3.565,0,0,1,.205-13.964,3.5,3.5,0,0,1,1.3-16.57l1.887-1.874a3.544,3.544,0,0,1,2.605-1.065,3.517,3.517,0,0,1,2.618,1.091l2.644,2.657a3.544,3.544,0,0,1,1.065,2.605,3.61,3.61,0,0,1-1.129,2.682l1.129,1.129a3.6,3.6,0,0,1,2.67-1.129A3.565,3.565,0,0,1,17.4-9.4Z" transform="translate(4.273 24.273)"/></g><g transform="translate(6476 1164.5)"><path class="c" d="M12072.025,6428.36v120.381h93V6447.552l-19.213-19.191Z" transform="translate(-12071.538 -6428.36)"/><path class="d" d="M12150.171,6428.361v19.257h19.189Z" transform="translate(-12075.973 -6428.361)"/><g transform="translate(19.376 37.469)"><g transform="translate(0)"><path class="e" d="M95.75,2.063,93.745,0,77.895,15.395l15.85,15.4,2-2.064L82.025,15.395Z" transform="translate(-77.895)"/></g></g><g transform="translate(74.96 68.259) rotate(180)"><path class="e" d="M17.855,2.063,15.85,0,0,15.395l15.85,15.4,2-2.064L4.13,15.395Z"/></g><rect class="i" width="94" height="26.411" transform="translate(0 94.427)"/><text class="g" transform="translate(47.024 114.613)"><tspan x="-27.129" y="0">HTML</tspan></text><path class="h" d="M18.688-4.107a1.188,1.188,0,0,0-.359-.873l-2.67-2.67a1.188,1.188,0,0,0-.873-.359,1.222,1.222,0,0,0-.924.411l.244.237q.205.2.276.276a3.056,3.056,0,0,1,.193.244,1.032,1.032,0,0,1,.167.327,1.306,1.306,0,0,1,.045.353,1.188,1.188,0,0,1-.359.873,1.188,1.188,0,0,1-.873.359,1.306,1.306,0,0,1-.353-.045,1.032,1.032,0,0,1-.327-.167,3.056,3.056,0,0,1-.244-.193q-.077-.071-.276-.276l-.237-.244a1.245,1.245,0,0,0-.424.937,1.188,1.188,0,0,0,.359.873L14.7-1.386a1.183,1.183,0,0,0,.873.347,1.236,1.236,0,0,0,.873-.334l1.887-1.874A1.173,1.173,0,0,0,18.688-4.107ZM9.665-13.156a1.188,1.188,0,0,0-.359-.873L6.661-16.685a1.188,1.188,0,0,0-.873-.359,1.24,1.24,0,0,0-.873.347L3.029-14.824a1.173,1.173,0,0,0-.359.86,1.188,1.188,0,0,0,.359.873l2.67,2.67a1.183,1.183,0,0,0,.873.347,1.24,1.24,0,0,0,.924-.4l-.244-.237q-.205-.2-.276-.276a3.056,3.056,0,0,1-.193-.244,1.032,1.032,0,0,1-.167-.327,1.306,1.306,0,0,1-.045-.353,1.188,1.188,0,0,1,.359-.873,1.188,1.188,0,0,1,.873-.359,1.306,1.306,0,0,1,.353.045,1.032,1.032,0,0,1,.327.167,3.056,3.056,0,0,1,.244.193q.077.071.276.276l.237.244A1.245,1.245,0,0,0,9.665-13.156Zm10.409,6.43a3.565,3.565,0,0,1,1.078,2.618A3.5,3.5,0,0,1,20.061-1.5L18.174.372a3.544,3.544,0,0,1-2.605,1.065A3.517,3.517,0,0,1,12.95.347L10.306-2.31A3.544,3.544,0,0,1,9.241-4.916,3.61,3.61,0,0,1,10.371-7.6L9.241-8.728A3.6,3.6,0,0,1,6.571-7.6,3.565,3.565,0,0,1,3.953-8.676l-2.67-2.67A3.565,3.565,0,0,1,.205-13.964,3.5,3.5,0,0,1,1.3-16.57l1.887-1.874a3.544,3.544,0,0,1,2.605-1.065,3.517,3.517,0,0,1,2.618,1.091l2.644,2.657a3.544,3.544,0,0,1,1.065,2.605,3.61,3.61,0,0,1-1.129,2.682l1.129,1.129a3.6,3.6,0,0,1,2.67-1.129A3.565,3.565,0,0,1,17.4-9.4Z" transform="translate(4.273 24.273)"/></g><line class="j" x2="103.533" transform="translate(6086.679 1224.293)"/><line class="j" x2="103.533" transform="translate(6339.445 1224.293)"/><path class="k" d="M0,0,23.459,8.774,8.975,23.258Z" transform="translate(6200.906 1224.489) rotate(135)"/><path class="k" d="M0,0,23.459,8.774,8.975,23.258Z" transform="translate(6453.673 1224.489) rotate(135)"/><text class="l" transform="translate(6011.66 1405.128)"><tspan x="-30.559" y="0">Server 1</tspan></text><text class="l" transform="translate(6262.703 1405.128)"><tspan x="-30.559" y="0">Server 2</tspan></text><text class="l" transform="translate(6519.746 1405.128)"><tspan x="-30.559" y="0">Server 3</tspan></text><path class="f" d="M5.643-5.643H50.786v-5.643H5.643Zm0-22.571H50.786v-5.643H5.643ZM73.533-5.467a4.081,4.081,0,0,0,1.234-3,4.081,4.081,0,0,0-1.234-3,4.081,4.081,0,0,0-3-1.234,4.081,4.081,0,0,0-3,1.234,4.081,4.081,0,0,0-1.234,3,4.081,4.081,0,0,0,1.234,3,4.081,4.081,0,0,0,3,1.234A4.081,4.081,0,0,0,73.533-5.467ZM5.643-50.786H50.786v-5.643H5.643ZM73.533-28.038a4.081,4.081,0,0,0,1.234-3,4.081,4.081,0,0,0-1.234-3,4.081,4.081,0,0,0-3-1.234,4.081,4.081,0,0,0-3,1.234,4.081,4.081,0,0,0-1.234,3,4.081,4.081,0,0,0,1.234,3,4.081,4.081,0,0,0,3,1.234A4.081,4.081,0,0,0,73.533-28.038Zm0-22.571a4.081,4.081,0,0,0,1.234-3,4.081,4.081,0,0,0-1.234-3,4.081,4.081,0,0,0-3-1.234,4.081,4.081,0,0,0-3,1.234,4.081,4.081,0,0,0-1.234,3,4.081,4.081,0,0,0,1.234,3,4.081,4.081,0,0,0,3,1.234A4.081,4.081,0,0,0,73.533-50.609ZM79-16.929V0H0V-16.929ZM79-39.5v16.929H0V-39.5Zm0-22.571v16.929H0V-62.071Z" transform="translate(5975.106 1383.915)"/><path class="h" d="M5.643-5.643H50.786v-5.643H5.643Zm0-22.571H50.786v-5.643H5.643ZM73.533-5.467a4.081,4.081,0,0,0,1.234-3,4.081,4.081,0,0,0-1.234-3,4.081,4.081,0,0,0-3-1.234,4.081,4.081,0,0,0-3,1.234,4.081,4.081,0,0,0-1.234,3,4.081,4.081,0,0,0,1.234,3,4.081,4.081,0,0,0,3,1.234A4.081,4.081,0,0,0,73.533-5.467ZM5.643-50.786H50.786v-5.643H5.643ZM73.533-28.038a4.081,4.081,0,0,0,1.234-3,4.081,4.081,0,0,0-1.234-3,4.081,4.081,0,0,0-3-1.234,4.081,4.081,0,0,0-3,1.234,4.081,4.081,0,0,0-1.234,3,4.081,4.081,0,0,0,1.234,3,4.081,4.081,0,0,0,3,1.234A4.081,4.081,0,0,0,73.533-28.038Zm0-22.571a4.081,4.081,0,0,0,1.234-3,4.081,4.081,0,0,0-1.234-3,4.081,4.081,0,0,0-3-1.234,4.081,4.081,0,0,0-3,1.234,4.081,4.081,0,0,0-1.234,3,4.081,4.081,0,0,0,1.234,3,4.081,4.081,0,0,0,3,1.234A4.081,4.081,0,0,0,73.533-50.609ZM79-16.929V0H0V-16.929ZM79-39.5v16.929H0V-39.5Zm0-22.571v16.929H0V-62.071Z" transform="translate(6226.149 1383.915)"/><path class="i" d="M5.643-5.643H50.786v-5.643H5.643Zm0-22.571H50.786v-5.643H5.643ZM73.533-5.467a4.081,4.081,0,0,0,1.234-3,4.081,4.081,0,0,0-1.234-3,4.081,4.081,0,0,0-3-1.234,4.081,4.081,0,0,0-3,1.234,4.081,4.081,0,0,0-1.234,3,4.081,4.081,0,0,0,1.234,3,4.081,4.081,0,0,0,3,1.234A4.081,4.081,0,0,0,73.533-5.467ZM5.643-50.786H50.786v-5.643H5.643ZM73.533-28.038a4.081,4.081,0,0,0,1.234-3,4.081,4.081,0,0,0-1.234-3,4.081,4.081,0,0,0-3-1.234,4.081,4.081,0,0,0-3,1.234,4.081,4.081,0,0,0-1.234,3,4.081,4.081,0,0,0,1.234,3,4.081,4.081,0,0,0,3,1.234A4.081,4.081,0,0,0,73.533-28.038Zm0-22.571a4.081,4.081,0,0,0,1.234-3,4.081,4.081,0,0,0-1.234-3,4.081,4.081,0,0,0-3-1.234,4.081,4.081,0,0,0-3,1.234,4.081,4.081,0,0,0-1.234,3,4.081,4.081,0,0,0,1.234,3,4.081,4.081,0,0,0,3,1.234A4.081,4.081,0,0,0,73.533-50.609ZM79-16.929V0H0V-16.929ZM79-39.5v16.929H0V-39.5Zm0-22.571v16.929H0V-62.071Z" transform="translate(6483.192 1383.915)"/></g></svg>