<svg xmlns="http://www.w3.org/2000/svg" xmlns:xlink="http://www.w3.org/1999/xlink" viewBox="7490 0 110 142"><defs><style>.a{clip-path:url(#b);}.b{fill:#efebe0;stroke:#95989a;}.c{fill:#96999b;}.d{fill:#28bd84;}.e{fill:#fff;font-size:27px;font-family:OpenSans-Regular, Open Sans;}.f,.g{fill:#3a3a3a;}.g{font-size:55px;font-family:OpenSans-Light, Open Sans;font-weight:300;}.h{fill:#418eeb;font-size:30px;font-family:FontAwesome;}.i{fill:rgba(255,255,255,0);}</style><clipPath id="b"><rect x="7490" width="110" height="142"/></clipPath></defs><g id="a" class="a"><rect class="i" x="7490" width="110" height="142"/><g transform="translate(6556.5 -2263.5)"><path class="b" d="M12072.023,6428.363v141.253h109V6450.882l-22.519-22.519Z" transform="translate(-11138.023 -4164.363)"/><path class="c" d="M12150.169,6428.363v23.03h23.031Z" transform="translate(-11129.678 -4164.363)"/><rect class="d" width="110" height="31" transform="translate(933.5 2375)"/><text class="e" transform="translate(988.644 2401)"><tspan x="-25.154" y="0">RDF</tspan></text><g transform="translate(950.63 2307.965)"><g transform="translate(0)"><path class="f" d="M98.846,2.421,96.494,0l-18.6,18.064,18.6,18.065,2.352-2.422-16.1-15.644Z" transform="translate(-77.895)"/></g></g><g transform="translate(1026.92 2344.095) rotate(180)"><path class="f" d="M20.951,2.421,18.6,0,0,18.064,18.6,36.13l2.352-2.422L4.847,18.064Z"/></g><text class="g" transform="translate(986.14 2346.201)"><tspan x="-9.373" y="0">/</tspan></text><text class="h" transform="translate(937.975 2294.638)"><tspan x="0" y="0"></tspan></text></g></g></svg>