<svg xmlns="http://www.w3.org/2000/svg" xmlns:xlink="http://www.w3.org/1999/xlink" viewBox="6640 0 600 351"><defs><style>.a{clip-path:url(#b);}.b{fill:none;stroke:#484848;stroke-width:2px;}.c{fill:#1d1d1d;}.d{fill:#418eeb;}.e{fill:#d96b50;}.f{fill:#375178;}.g{fill:#28bd84;}.h{fill:#efebe0;stroke:#95989a;}.i{fill:#96999b;}.j{fill:#3a3a3a;}.k{fill:#fff;}.l{fill:rgba(255,255,255,0);}</style><clipPath id="b"><rect x="6640" width="600" height="351"/></clipPath></defs><g id="a" class="a"><rect class="l" x="6640" width="600" height="351"/><g transform="translate(6640)"><line class="b" x2="285.527" y2="149.403" transform="translate(69.168 44.821)"/><line class="b" x2="462.597" y2="149.403" transform="translate(69.168 44.821)"/><line class="b" x2="108.456" transform="translate(423.31 194.224)"/><line class="b" x2="108.456" transform="translate(246.239 194.224)"/><line class="b" x2="110.438" transform="translate(68.062 194.224)"/><line class="b" y1="149.403" x2="108.456" transform="translate(423.31 44.821)"/><line class="b" y1="149.403" x2="108.456" transform="translate(246.239 44.821)"/><line class="b" y1="149.403" x2="108.456" transform="translate(68.062 44.821)"/><line class="b" x2="108.456" transform="translate(423.31 44.821)"/><line class="b" x2="108.456" transform="translate(246.239 44.821)"/><line class="b" x2="110.438" transform="translate(68.062 44.821)"/><line class="b" x2="108.456" y2="149.403" transform="translate(423.31 44.821)"/><line class="b" x2="108.456" y2="149.403" transform="translate(246.239 44.821)"/><line class="b" x2="108.456" y2="149.403" transform="translate(68.062 44.821)"/><line class="b" y1="149.403" x2="285.527" transform="translate(246.239 44.821)"/><line class="b" y1="149.403" x2="462.597" transform="translate(69.168 44.821)"/><line class="b" y1="149.403" x2="285.527" transform="translate(69.168 44.821)"/><line class="b" y2="59.761" transform="translate(34.861 89.089)"/><line class="b" y2="59.761" transform="translate(389.216 89.089)"/><line class="b" y2="59.761" transform="translate(211.718 89.089)"/><line class="b" y2="59.761" transform="translate(565.073 89.089)"/><line class="b" x2="285.527" y2="149.403" transform="translate(246.239 44.821)"/><path class="c" d="M-21.888-2.908A2.7,2.7,0,0,1-22.921-.667,4.494,4.494,0,0,1-25.77.146a6.8,6.8,0,0,1-2.974-.564V-2.073a8.082,8.082,0,0,0,1.556.542,6.6,6.6,0,0,0,1.534.2,2.441,2.441,0,0,0,1.534-.4,1.29,1.29,0,0,0,.494-1.062,1.331,1.331,0,0,0-.454-1.018A6.836,6.836,0,0,0-25.953-4.8a4.96,4.96,0,0,1-2.065-1.355,2.867,2.867,0,0,1-.6-1.831,2.564,2.564,0,0,1,.952-2.109,3.95,3.95,0,0,1,2.556-.769,7.51,7.51,0,0,1,3.062.674l-.557,1.428a6.689,6.689,0,0,0-2.549-.6,1.956,1.956,0,0,0-1.289.37,1.215,1.215,0,0,0-.439.978,1.377,1.377,0,0,0,.176.714,1.8,1.8,0,0,0,.579.56,9.787,9.787,0,0,0,1.45.7,7.935,7.935,0,0,1,1.729.916,2.693,2.693,0,0,1,.806.959A2.886,2.886,0,0,1-21.888-2.908ZM-16.461.146a3.919,3.919,0,0,1-2.955-1.1,4.184,4.184,0,0,1-1.066-3.036,4.591,4.591,0,0,1,.989-3.12,3.415,3.415,0,0,1,2.717-1.135,3.338,3.338,0,0,1,2.534.974,3.722,3.722,0,0,1,.93,2.681v.93h-5.4a2.661,2.661,0,0,0,.637,1.813,2.219,2.219,0,0,0,1.692.634,6.246,6.246,0,0,0,1.337-.135,7.006,7.006,0,0,0,1.329-.45V-.4a5.285,5.285,0,0,1-1.274.425A7.815,7.815,0,0,1-16.461.146Zm-.315-7.09a1.729,1.729,0,0,0-1.315.52,2.478,2.478,0,0,0-.59,1.516H-15a2.242,2.242,0,0,0-.483-1.52A1.653,1.653,0,0,0-16.776-6.943Zm9.529-1.3a4.143,4.143,0,0,1,.857.073l-.168,1.6a3.253,3.253,0,0,0-.762-.088,2.2,2.2,0,0,0-1.674.674,2.436,2.436,0,0,0-.641,1.75V0h-1.721V-8.1h1.348l.227,1.428h.088a3.209,3.209,0,0,1,1.051-1.15A2.5,2.5,0,0,1-7.247-8.247ZM-3.043,0-6.119-8.1H-4.3l1.648,4.709a9.332,9.332,0,0,1,.513,1.919h.059a12.885,12.885,0,0,1,.513-1.919L.077-8.1H1.908L-1.183,0ZM6.676.146a3.919,3.919,0,0,1-2.955-1.1A4.184,4.184,0,0,1,2.655-3.992a4.591,4.591,0,0,1,.989-3.12A3.415,3.415,0,0,1,6.361-8.247,3.338,3.338,0,0,1,8.9-7.273a3.722,3.722,0,0,1,.93,2.681v.93h-5.4a2.661,2.661,0,0,0,.637,1.813,2.219,2.219,0,0,0,1.692.634,6.246,6.246,0,0,0,1.337-.135A7.006,7.006,0,0,0,9.423-1.8V-.4A5.285,5.285,0,0,1,8.148.022,7.815,7.815,0,0,1,6.676.146Zm-.315-7.09a1.729,1.729,0,0,0-1.315.52,2.478,2.478,0,0,0-.59,1.516H8.134a2.242,2.242,0,0,0-.483-1.52A1.653,1.653,0,0,0,6.361-6.943Zm9.529-1.3a4.143,4.143,0,0,1,.857.073l-.168,1.6a3.253,3.253,0,0,0-.762-.088,2.2,2.2,0,0,0-1.674.674,2.436,2.436,0,0,0-.641,1.75V0H11.781V-8.1h1.348l.227,1.428h.088a3.209,3.209,0,0,1,1.051-1.15A2.5,2.5,0,0,1,15.89-8.247ZM26.627,0H24.906V-6.914q0-1.238.059-1.963-.168.176-.414.388T22.906-7.141l-.864-1.091,3.149-2.476h1.436Z" transform="translate(35.213 346.901)"/><path class="c" d="M-21.888-2.908A2.7,2.7,0,0,1-22.921-.667,4.494,4.494,0,0,1-25.77.146a6.8,6.8,0,0,1-2.974-.564V-2.073a8.082,8.082,0,0,0,1.556.542,6.6,6.6,0,0,0,1.534.2,2.441,2.441,0,0,0,1.534-.4,1.29,1.29,0,0,0,.494-1.062,1.331,1.331,0,0,0-.454-1.018A6.836,6.836,0,0,0-25.953-4.8a4.96,4.96,0,0,1-2.065-1.355,2.867,2.867,0,0,1-.6-1.831,2.564,2.564,0,0,1,.952-2.109,3.95,3.95,0,0,1,2.556-.769,7.51,7.51,0,0,1,3.062.674l-.557,1.428a6.689,6.689,0,0,0-2.549-.6,1.956,1.956,0,0,0-1.289.37,1.215,1.215,0,0,0-.439.978,1.377,1.377,0,0,0,.176.714,1.8,1.8,0,0,0,.579.56,9.787,9.787,0,0,0,1.45.7,7.935,7.935,0,0,1,1.729.916,2.693,2.693,0,0,1,.806.959A2.886,2.886,0,0,1-21.888-2.908ZM-16.461.146a3.919,3.919,0,0,1-2.955-1.1,4.184,4.184,0,0,1-1.066-3.036,4.591,4.591,0,0,1,.989-3.12,3.415,3.415,0,0,1,2.717-1.135,3.338,3.338,0,0,1,2.534.974,3.722,3.722,0,0,1,.93,2.681v.93h-5.4a2.661,2.661,0,0,0,.637,1.813,2.219,2.219,0,0,0,1.692.634,6.246,6.246,0,0,0,1.337-.135,7.006,7.006,0,0,0,1.329-.45V-.4a5.285,5.285,0,0,1-1.274.425A7.815,7.815,0,0,1-16.461.146Zm-.315-7.09a1.729,1.729,0,0,0-1.315.52,2.478,2.478,0,0,0-.59,1.516H-15a2.242,2.242,0,0,0-.483-1.52A1.653,1.653,0,0,0-16.776-6.943Zm9.529-1.3a4.143,4.143,0,0,1,.857.073l-.168,1.6a3.253,3.253,0,0,0-.762-.088,2.2,2.2,0,0,0-1.674.674,2.436,2.436,0,0,0-.641,1.75V0h-1.721V-8.1h1.348l.227,1.428h.088a3.209,3.209,0,0,1,1.051-1.15A2.5,2.5,0,0,1-7.247-8.247ZM-3.043,0-6.119-8.1H-4.3l1.648,4.709a9.332,9.332,0,0,1,.513,1.919h.059a12.885,12.885,0,0,1,.513-1.919L.077-8.1H1.908L-1.183,0ZM6.676.146a3.919,3.919,0,0,1-2.955-1.1A4.184,4.184,0,0,1,2.655-3.992a4.591,4.591,0,0,1,.989-3.12A3.415,3.415,0,0,1,6.361-8.247,3.338,3.338,0,0,1,8.9-7.273a3.722,3.722,0,0,1,.93,2.681v.93h-5.4a2.661,2.661,0,0,0,.637,1.813,2.219,2.219,0,0,0,1.692.634,6.246,6.246,0,0,0,1.337-.135A7.006,7.006,0,0,0,9.423-1.8V-.4A5.285,5.285,0,0,1,8.148.022,7.815,7.815,0,0,1,6.676.146Zm-.315-7.09a1.729,1.729,0,0,0-1.315.52,2.478,2.478,0,0,0-.59,1.516H8.134a2.242,2.242,0,0,0-.483-1.52A1.653,1.653,0,0,0,6.361-6.943Zm9.529-1.3a4.143,4.143,0,0,1,.857.073l-.168,1.6a3.253,3.253,0,0,0-.762-.088,2.2,2.2,0,0,0-1.674.674,2.436,2.436,0,0,0-.641,1.75V0H11.781V-8.1h1.348l.227,1.428h.088a3.209,3.209,0,0,1,1.051-1.15A2.5,2.5,0,0,1,15.89-8.247Zm12.539,0a2.481,2.481,0,0,1-.593,1.7,2.986,2.986,0,0,1-1.67.912v.059a3.232,3.232,0,0,1,1.934.8,2.294,2.294,0,0,1,.645,1.7A2.83,2.83,0,0,1,27.653-.692a5.007,5.007,0,0,1-3.105.839,6.993,6.993,0,0,1-3-.579V-1.963a6.859,6.859,0,0,0,1.443.52,6.264,6.264,0,0,0,1.465.183,3.089,3.089,0,0,0,1.86-.461,1.669,1.669,0,0,0,.615-1.428,1.359,1.359,0,0,0-.681-1.26,4.35,4.35,0,0,0-2.139-.4h-.93v-1.4h.945q2.563,0,2.563-1.772a1.307,1.307,0,0,0-.447-1.062,2.012,2.012,0,0,0-1.318-.374,3.992,3.992,0,0,0-1.172.172,5.548,5.548,0,0,0-1.333.67l-.842-1.2a5.614,5.614,0,0,1,3.42-1.084,4.069,4.069,0,0,1,2.527.7A2.283,2.283,0,0,1,28.429-8.247Z" transform="translate(388.355 346.901)"/><path class="c" d="M-21.888-2.908A2.7,2.7,0,0,1-22.921-.667,4.494,4.494,0,0,1-25.77.146a6.8,6.8,0,0,1-2.974-.564V-2.073a8.082,8.082,0,0,0,1.556.542,6.6,6.6,0,0,0,1.534.2,2.441,2.441,0,0,0,1.534-.4,1.29,1.29,0,0,0,.494-1.062,1.331,1.331,0,0,0-.454-1.018A6.836,6.836,0,0,0-25.953-4.8a4.96,4.96,0,0,1-2.065-1.355,2.867,2.867,0,0,1-.6-1.831,2.564,2.564,0,0,1,.952-2.109,3.95,3.95,0,0,1,2.556-.769,7.51,7.51,0,0,1,3.062.674l-.557,1.428a6.689,6.689,0,0,0-2.549-.6,1.956,1.956,0,0,0-1.289.37,1.215,1.215,0,0,0-.439.978,1.377,1.377,0,0,0,.176.714,1.8,1.8,0,0,0,.579.56,9.787,9.787,0,0,0,1.45.7,7.935,7.935,0,0,1,1.729.916,2.693,2.693,0,0,1,.806.959A2.886,2.886,0,0,1-21.888-2.908ZM-16.461.146a3.919,3.919,0,0,1-2.955-1.1,4.184,4.184,0,0,1-1.066-3.036,4.591,4.591,0,0,1,.989-3.12,3.415,3.415,0,0,1,2.717-1.135,3.338,3.338,0,0,1,2.534.974,3.722,3.722,0,0,1,.93,2.681v.93h-5.4a2.661,2.661,0,0,0,.637,1.813,2.219,2.219,0,0,0,1.692.634,6.246,6.246,0,0,0,1.337-.135,7.006,7.006,0,0,0,1.329-.45V-.4a5.285,5.285,0,0,1-1.274.425A7.815,7.815,0,0,1-16.461.146Zm-.315-7.09a1.729,1.729,0,0,0-1.315.52,2.478,2.478,0,0,0-.59,1.516H-15a2.242,2.242,0,0,0-.483-1.52A1.653,1.653,0,0,0-16.776-6.943Zm9.529-1.3a4.143,4.143,0,0,1,.857.073l-.168,1.6a3.253,3.253,0,0,0-.762-.088,2.2,2.2,0,0,0-1.674.674,2.436,2.436,0,0,0-.641,1.75V0h-1.721V-8.1h1.348l.227,1.428h.088a3.209,3.209,0,0,1,1.051-1.15A2.5,2.5,0,0,1-7.247-8.247ZM-3.043,0-6.119-8.1H-4.3l1.648,4.709a9.332,9.332,0,0,1,.513,1.919h.059a12.885,12.885,0,0,1,.513-1.919L.077-8.1H1.908L-1.183,0ZM6.676.146a3.919,3.919,0,0,1-2.955-1.1A4.184,4.184,0,0,1,2.655-3.992a4.591,4.591,0,0,1,.989-3.12A3.415,3.415,0,0,1,6.361-8.247,3.338,3.338,0,0,1,8.9-7.273a3.722,3.722,0,0,1,.93,2.681v.93h-5.4a2.661,2.661,0,0,0,.637,1.813,2.219,2.219,0,0,0,1.692.634,6.246,6.246,0,0,0,1.337-.135A7.006,7.006,0,0,0,9.423-1.8V-.4A5.285,5.285,0,0,1,8.148.022,7.815,7.815,0,0,1,6.676.146Zm-.315-7.09a1.729,1.729,0,0,0-1.315.52,2.478,2.478,0,0,0-.59,1.516H8.134a2.242,2.242,0,0,0-.483-1.52A1.653,1.653,0,0,0,6.361-6.943Zm9.529-1.3a4.143,4.143,0,0,1,.857.073l-.168,1.6a3.253,3.253,0,0,0-.762-.088,2.2,2.2,0,0,0-1.674.674,2.436,2.436,0,0,0-.641,1.75V0H11.781V-8.1h1.348l.227,1.428h.088a3.209,3.209,0,0,1,1.051-1.15A2.5,2.5,0,0,1,15.89-8.247ZM28.832,0H21.573V-1.3L24.335-4.08a23.487,23.487,0,0,0,1.622-1.776,4.24,4.24,0,0,0,.582-.985,2.656,2.656,0,0,0,.183-.989,1.508,1.508,0,0,0-.436-1.143,1.67,1.67,0,0,0-1.2-.417,3.212,3.212,0,0,0-1.19.227,5.571,5.571,0,0,0-1.329.82l-.93-1.135a6,6,0,0,1,1.736-1.069,5.081,5.081,0,0,1,1.794-.315,3.531,3.531,0,0,1,2.4.78,2.635,2.635,0,0,1,.9,2.1,3.682,3.682,0,0,1-.26,1.377,5.6,5.6,0,0,1-.8,1.344,18.244,18.244,0,0,1-1.791,1.871l-1.86,1.8v.073h5.083Z" transform="translate(211.284 346.901)"/><path class="c" d="M-21.888-2.908A2.7,2.7,0,0,1-22.921-.667,4.494,4.494,0,0,1-25.77.146a6.8,6.8,0,0,1-2.974-.564V-2.073a8.082,8.082,0,0,0,1.556.542,6.6,6.6,0,0,0,1.534.2,2.441,2.441,0,0,0,1.534-.4,1.29,1.29,0,0,0,.494-1.062,1.331,1.331,0,0,0-.454-1.018A6.836,6.836,0,0,0-25.953-4.8a4.96,4.96,0,0,1-2.065-1.355,2.867,2.867,0,0,1-.6-1.831,2.564,2.564,0,0,1,.952-2.109,3.95,3.95,0,0,1,2.556-.769,7.51,7.51,0,0,1,3.062.674l-.557,1.428a6.689,6.689,0,0,0-2.549-.6,1.956,1.956,0,0,0-1.289.37,1.215,1.215,0,0,0-.439.978,1.377,1.377,0,0,0,.176.714,1.8,1.8,0,0,0,.579.56,9.787,9.787,0,0,0,1.45.7,7.935,7.935,0,0,1,1.729.916,2.693,2.693,0,0,1,.806.959A2.886,2.886,0,0,1-21.888-2.908ZM-16.461.146a3.919,3.919,0,0,1-2.955-1.1,4.184,4.184,0,0,1-1.066-3.036,4.591,4.591,0,0,1,.989-3.12,3.415,3.415,0,0,1,2.717-1.135,3.338,3.338,0,0,1,2.534.974,3.722,3.722,0,0,1,.93,2.681v.93h-5.4a2.661,2.661,0,0,0,.637,1.813,2.219,2.219,0,0,0,1.692.634,6.246,6.246,0,0,0,1.337-.135,7.006,7.006,0,0,0,1.329-.45V-.4a5.285,5.285,0,0,1-1.274.425A7.815,7.815,0,0,1-16.461.146Zm-.315-7.09a1.729,1.729,0,0,0-1.315.52,2.478,2.478,0,0,0-.59,1.516H-15a2.242,2.242,0,0,0-.483-1.52A1.653,1.653,0,0,0-16.776-6.943Zm9.529-1.3a4.143,4.143,0,0,1,.857.073l-.168,1.6a3.253,3.253,0,0,0-.762-.088,2.2,2.2,0,0,0-1.674.674,2.436,2.436,0,0,0-.641,1.75V0h-1.721V-8.1h1.348l.227,1.428h.088a3.209,3.209,0,0,1,1.051-1.15A2.5,2.5,0,0,1-7.247-8.247ZM-3.043,0-6.119-8.1H-4.3l1.648,4.709a9.332,9.332,0,0,1,.513,1.919h.059a12.885,12.885,0,0,1,.513-1.919L.077-8.1H1.908L-1.183,0ZM6.676.146a3.919,3.919,0,0,1-2.955-1.1A4.184,4.184,0,0,1,2.655-3.992a4.591,4.591,0,0,1,.989-3.12A3.415,3.415,0,0,1,6.361-8.247,3.338,3.338,0,0,1,8.9-7.273a3.722,3.722,0,0,1,.93,2.681v.93h-5.4a2.661,2.661,0,0,0,.637,1.813,2.219,2.219,0,0,0,1.692.634,6.246,6.246,0,0,0,1.337-.135A7.006,7.006,0,0,0,9.423-1.8V-.4A5.285,5.285,0,0,1,8.148.022,7.815,7.815,0,0,1,6.676.146Zm-.315-7.09a1.729,1.729,0,0,0-1.315.52,2.478,2.478,0,0,0-.59,1.516H8.134a2.242,2.242,0,0,0-.483-1.52A1.653,1.653,0,0,0,6.361-6.943Zm9.529-1.3a4.143,4.143,0,0,1,.857.073l-.168,1.6a3.253,3.253,0,0,0-.762-.088,2.2,2.2,0,0,0-1.674.674,2.436,2.436,0,0,0-.641,1.75V0H11.781V-8.1h1.348l.227,1.428h.088a3.209,3.209,0,0,1,1.051-1.15A2.5,2.5,0,0,1,15.89-8.247ZM29.213-2.336H27.77V0H26.093V-2.336H21.2V-3.662l4.893-7.075H27.77v6.973h1.443Zm-3.12-1.428V-6.453q0-1.436.073-2.351h-.059a8.308,8.308,0,0,1-.645,1.172L22.8-3.765Z" transform="translate(566.426 346.901)"/><path class="d" d="M4.857-4.857H43.714V-9.714H4.857Zm0-19.429H43.714v-4.857H4.857ZM63.295-4.705a3.513,3.513,0,0,0,1.063-2.58,3.513,3.513,0,0,0-1.063-2.58,3.513,3.513,0,0,0-2.58-1.062,3.513,3.513,0,0,0-2.58,1.062,3.513,3.513,0,0,0-1.062,2.58,3.513,3.513,0,0,0,1.063,2.58,3.513,3.513,0,0,0,2.58,1.063A3.513,3.513,0,0,0,63.295-4.705ZM4.857-43.714H43.714v-4.857H4.857Zm58.438,19.58a3.513,3.513,0,0,0,1.063-2.58,3.513,3.513,0,0,0-1.063-2.58,3.513,3.513,0,0,0-2.58-1.062,3.513,3.513,0,0,0-2.58,1.063,3.513,3.513,0,0,0-1.062,2.58,3.513,3.513,0,0,0,1.063,2.58,3.513,3.513,0,0,0,2.58,1.063A3.513,3.513,0,0,0,63.295-24.134Zm0-19.429a3.513,3.513,0,0,0,1.063-2.58,3.513,3.513,0,0,0-1.063-2.58,3.513,3.513,0,0,0-2.58-1.062,3.513,3.513,0,0,0-2.58,1.063,3.513,3.513,0,0,0-1.062,2.58,3.513,3.513,0,0,0,1.063,2.58,3.513,3.513,0,0,0,2.58,1.063A3.513,3.513,0,0,0,63.295-43.562ZM68-14.571V0H0V-14.571ZM68-34v14.571H0V-34Zm0-19.429v14.571H0V-53.429Z" transform="translate(0 328.033)"/><path class="e" d="M4.857-4.857H43.714V-9.714H4.857Zm0-19.429H43.714v-4.857H4.857ZM63.295-4.705a3.513,3.513,0,0,0,1.063-2.58,3.513,3.513,0,0,0-1.063-2.58,3.513,3.513,0,0,0-2.58-1.062,3.513,3.513,0,0,0-2.58,1.062,3.513,3.513,0,0,0-1.062,2.58,3.513,3.513,0,0,0,1.063,2.58,3.513,3.513,0,0,0,2.58,1.063A3.513,3.513,0,0,0,63.295-4.705ZM4.857-43.714H43.714v-4.857H4.857Zm58.438,19.58a3.513,3.513,0,0,0,1.063-2.58,3.513,3.513,0,0,0-1.063-2.58,3.513,3.513,0,0,0-2.58-1.062,3.513,3.513,0,0,0-2.58,1.063,3.513,3.513,0,0,0-1.062,2.58,3.513,3.513,0,0,0,1.063,2.58,3.513,3.513,0,0,0,2.58,1.063A3.513,3.513,0,0,0,63.295-24.134Zm0-19.429a3.513,3.513,0,0,0,1.063-2.58,3.513,3.513,0,0,0-1.063-2.58,3.513,3.513,0,0,0-2.58-1.062,3.513,3.513,0,0,0-2.58,1.063,3.513,3.513,0,0,0-1.062,2.58,3.513,3.513,0,0,0,1.063,2.58,3.513,3.513,0,0,0,2.58,1.063A3.513,3.513,0,0,0,63.295-43.562ZM68-14.571V0H0V-14.571ZM68-34v14.571H0V-34Zm0-19.429v14.571H0V-53.429Z" transform="translate(354.141 328.033)"/><path class="f" d="M4.857-4.857H43.714V-9.714H4.857Zm0-19.429H43.714v-4.857H4.857ZM63.295-4.705a3.513,3.513,0,0,0,1.063-2.58,3.513,3.513,0,0,0-1.063-2.58,3.513,3.513,0,0,0-2.58-1.062,3.513,3.513,0,0,0-2.58,1.062,3.513,3.513,0,0,0-1.062,2.58,3.513,3.513,0,0,0,1.063,2.58,3.513,3.513,0,0,0,2.58,1.063A3.513,3.513,0,0,0,63.295-4.705ZM4.857-43.714H43.714v-4.857H4.857Zm58.438,19.58a3.513,3.513,0,0,0,1.063-2.58,3.513,3.513,0,0,0-1.063-2.58,3.513,3.513,0,0,0-2.58-1.062,3.513,3.513,0,0,0-2.58,1.063,3.513,3.513,0,0,0-1.062,2.58,3.513,3.513,0,0,0,1.063,2.58,3.513,3.513,0,0,0,2.58,1.063A3.513,3.513,0,0,0,63.295-24.134Zm0-19.429a3.513,3.513,0,0,0,1.063-2.58,3.513,3.513,0,0,0-1.063-2.58,3.513,3.513,0,0,0-2.58-1.062,3.513,3.513,0,0,0-2.58,1.063,3.513,3.513,0,0,0-1.062,2.58,3.513,3.513,0,0,0,1.063,2.58,3.513,3.513,0,0,0,2.58,1.063A3.513,3.513,0,0,0,63.295-43.562ZM68-14.571V0H0V-14.571ZM68-34v14.571H0V-34Zm0-19.429v14.571H0V-53.429Z" transform="translate(177.071 328.033)"/><path class="g" d="M4.857-4.857H43.714V-9.714H4.857Zm0-19.429H43.714v-4.857H4.857ZM63.295-4.705a3.513,3.513,0,0,0,1.063-2.58,3.513,3.513,0,0,0-1.063-2.58,3.513,3.513,0,0,0-2.58-1.062,3.513,3.513,0,0,0-2.58,1.062,3.513,3.513,0,0,0-1.062,2.58,3.513,3.513,0,0,0,1.063,2.58,3.513,3.513,0,0,0,2.58,1.063A3.513,3.513,0,0,0,63.295-4.705ZM4.857-43.714H43.714v-4.857H4.857Zm58.438,19.58a3.513,3.513,0,0,0,1.063-2.58,3.513,3.513,0,0,0-1.063-2.58,3.513,3.513,0,0,0-2.58-1.062,3.513,3.513,0,0,0-2.58,1.063,3.513,3.513,0,0,0-1.062,2.58,3.513,3.513,0,0,0,1.063,2.58,3.513,3.513,0,0,0,2.58,1.063A3.513,3.513,0,0,0,63.295-24.134Zm0-19.429a3.513,3.513,0,0,0,1.063-2.58,3.513,3.513,0,0,0-1.063-2.58,3.513,3.513,0,0,0-2.58-1.062,3.513,3.513,0,0,0-2.58,1.063,3.513,3.513,0,0,0-1.062,2.58,3.513,3.513,0,0,0,1.063,2.58,3.513,3.513,0,0,0,2.58,1.063A3.513,3.513,0,0,0,63.295-43.562ZM68-14.571V0H0V-14.571ZM68-34v14.571H0V-34Zm0-19.429v14.571H0V-53.429Z" transform="translate(531.212 328.033)"/><g transform="translate(0)"><path class="h" d="M12072.021,6428.36v89.047h68.664v-74.852l-14.182-14.2Z" transform="translate(-12071.521 -6427.86)"/><path class="i" d="M12150.17,6428.361v15.079h15.013Z" transform="translate(-12095.676 -6428.36)"/><g transform="translate(13.977 27.716)"><g transform="translate(0)"><path class="j" d="M91.091,1.526,89.61,0,77.895,11.388,89.61,22.776l1.481-1.527L80.948,11.388Z" transform="translate(-77.895)"/></g></g><g transform="translate(55.059 50.493) rotate(180)"><path class="j" d="M13.2,1.526,11.715,0,0,11.388,11.715,22.776,13.2,21.25,3.053,11.388Z"/></g><rect class="d" width="69.66" height="20.537" transform="translate(0 69.521)"/><path class="k" d="M-10.745,0H-11.99V-5.039h-5.64V0h-1.245V-10.708h1.245v4.556h5.64v-4.556h1.245Zm6.233,0H-5.757V-9.6H-9.148v-1.106h8.027V-9.6H-4.512ZM5.229,0,1.6-9.492H1.538q.1,1.128.1,2.681V0H.491V-10.708H2.366L5.757-1.875h.059l3.42-8.833H11.1V0H9.851V-6.9q0-1.187.1-2.578H9.9L6.233,0Zm8.8,0V-10.708h1.245v9.58H20V0Z" transform="translate(34.459 85.404)"/></g><g transform="translate(0 149)"><path class="h" d="M12072.021,6428.36v89.047h68.664v-74.852l-14.182-14.2Z" transform="translate(-12071.521 -6427.86)"/><path class="i" d="M12150.17,6428.361v15.079h15.013Z" transform="translate(-12095.676 -6428.36)"/><g transform="translate(13.977 27.716)"><g transform="translate(0)"><path class="j" d="M91.091,1.526,89.61,0,77.895,11.388,89.61,22.776l1.481-1.527L80.948,11.388Z" transform="translate(-77.895)"/></g></g><g transform="translate(55.059 50.493) rotate(180)"><path class="j" d="M13.2,1.526,11.715,0,0,11.388,11.715,22.776,13.2,21.25,3.053,11.388Z"/></g><rect class="d" width="69.66" height="20.537" transform="translate(0 69.521)"/><path class="k" d="M-10.745,0H-11.99V-5.039h-5.64V0h-1.245V-10.708h1.245v4.556h5.64v-4.556h1.245Zm6.233,0H-5.757V-9.6H-9.148v-1.106h8.027V-9.6H-4.512ZM5.229,0,1.6-9.492H1.538q.1,1.128.1,2.681V0H.491V-10.708H2.366L5.757-1.875h.059l3.42-8.833H11.1V0H9.851V-6.9q0-1.187.1-2.578H9.9L6.233,0Zm8.8,0V-10.708h1.245v9.58H20V0Z" transform="translate(34.459 85.404)"/></g><g transform="translate(177 149)"><path class="h" d="M12072.021,6428.36v89.047h68.664v-74.852l-14.182-14.2Z" transform="translate(-12071.521 -6427.86)"/><path class="i" d="M12150.17,6428.361v15.079h15.013Z" transform="translate(-12095.676 -6428.36)"/><g transform="translate(13.977 27.716)"><g transform="translate(0)"><path class="j" d="M91.091,1.526,89.61,0,77.895,11.388,89.61,22.776l1.481-1.527L80.948,11.388Z" transform="translate(-77.895)"/></g></g><g transform="translate(55.059 50.493) rotate(180)"><path class="j" d="M13.2,1.526,11.715,0,0,11.388,11.715,22.776,13.2,21.25,3.053,11.388Z"/></g><rect class="f" width="69.66" height="20.537" transform="translate(0 69.521)"/><path class="k" d="M-10.745,0H-11.99V-5.039h-5.64V0h-1.245V-10.708h1.245v4.556h5.64v-4.556h1.245Zm6.233,0H-5.757V-9.6H-9.148v-1.106h8.027V-9.6H-4.512ZM5.229,0,1.6-9.492H1.538q.1,1.128.1,2.681V0H.491V-10.708H2.366L5.757-1.875h.059l3.42-8.833H11.1V0H9.851V-6.9q0-1.187.1-2.578H9.9L6.233,0Zm8.8,0V-10.708h1.245v9.58H20V0Z" transform="translate(34.459 85.404)"/></g><g transform="translate(354 149)"><path class="h" d="M12072.021,6428.36v89.047h68.664v-74.852l-14.182-14.2Z" transform="translate(-12071.521 -6427.86)"/><path class="i" d="M12150.17,6428.361v15.079h15.013Z" transform="translate(-12095.676 -6428.36)"/><g transform="translate(13.977 27.716)"><g transform="translate(0)"><path class="j" d="M91.091,1.526,89.61,0,77.895,11.388,89.61,22.776l1.481-1.527L80.948,11.388Z" transform="translate(-77.895)"/></g></g><g transform="translate(55.059 50.493) rotate(180)"><path class="j" d="M13.2,1.526,11.715,0,0,11.388,11.715,22.776,13.2,21.25,3.053,11.388Z"/></g><rect class="e" width="69.66" height="20.537" transform="translate(0 69.521)"/><path class="k" d="M-10.745,0H-11.99V-5.039h-5.64V0h-1.245V-10.708h1.245v4.556h5.64v-4.556h1.245Zm6.233,0H-5.757V-9.6H-9.148v-1.106h8.027V-9.6H-4.512ZM5.229,0,1.6-9.492H1.538q.1,1.128.1,2.681V0H.491V-10.708H2.366L5.757-1.875h.059l3.42-8.833H11.1V0H9.851V-6.9q0-1.187.1-2.578H9.9L6.233,0Zm8.8,0V-10.708h1.245v9.58H20V0Z" transform="translate(34.459 85.404)"/></g><g transform="translate(530 149)"><path class="h" d="M12072.021,6428.36v89.047h68.664v-74.852l-14.182-14.2Z" transform="translate(-12071.521 -6427.86)"/><path class="i" d="M12150.17,6428.361v15.079h15.013Z" transform="translate(-12095.676 -6428.36)"/><g transform="translate(13.977 27.716)"><g transform="translate(0)"><path class="j" d="M91.091,1.526,89.61,0,77.895,11.388,89.61,22.776l1.481-1.527L80.948,11.388Z" transform="translate(-77.895)"/></g></g><g transform="translate(55.059 50.493) rotate(180)"><path class="j" d="M13.2,1.526,11.715,0,0,11.388,11.715,22.776,13.2,21.25,3.053,11.388Z"/></g><rect class="g" width="69.66" height="20.537" transform="translate(0 69.521)"/><path class="k" d="M-10.745,0H-11.99V-5.039h-5.64V0h-1.245V-10.708h1.245v4.556h5.64v-4.556h1.245Zm6.233,0H-5.757V-9.6H-9.148v-1.106h8.027V-9.6H-4.512ZM5.229,0,1.6-9.492H1.538q.1,1.128.1,2.681V0H.491V-10.708H2.366L5.757-1.875h.059l3.42-8.833H11.1V0H9.851V-6.9q0-1.187.1-2.578H9.9L6.233,0Zm8.8,0V-10.708h1.245v9.58H20V0Z" transform="translate(34.459 85.404)"/></g><g transform="translate(177)"><path class="h" d="M12072.021,6428.36v89.047h68.664v-74.852l-14.182-14.2Z" transform="translate(-12071.521 -6427.86)"/><path class="i" d="M12150.17,6428.361v15.079h15.013Z" transform="translate(-12095.676 -6428.36)"/><g transform="translate(13.977 27.716)"><g transform="translate(0)"><path class="j" d="M91.091,1.526,89.61,0,77.895,11.388,89.61,22.776l1.481-1.527L80.948,11.388Z" transform="translate(-77.895)"/></g></g><g transform="translate(55.059 50.493) rotate(180)"><path class="j" d="M13.2,1.526,11.715,0,0,11.388,11.715,22.776,13.2,21.25,3.053,11.388Z"/></g><rect class="f" width="69.66" height="20.537" transform="translate(0 69.521)"/><path class="k" d="M-10.745,0H-11.99V-5.039h-5.64V0h-1.245V-10.708h1.245v4.556h5.64v-4.556h1.245Zm6.233,0H-5.757V-9.6H-9.148v-1.106h8.027V-9.6H-4.512ZM5.229,0,1.6-9.492H1.538q.1,1.128.1,2.681V0H.491V-10.708H2.366L5.757-1.875h.059l3.42-8.833H11.1V0H9.851V-6.9q0-1.187.1-2.578H9.9L6.233,0Zm8.8,0V-10.708h1.245v9.58H20V0Z" transform="translate(34.459 85.404)"/></g><g transform="translate(354)"><path class="h" d="M12072.021,6428.36v89.047h68.664v-74.852l-14.182-14.2Z" transform="translate(-12071.521 -6427.86)"/><path class="i" d="M12150.17,6428.361v15.079h15.013Z" transform="translate(-12095.676 -6428.36)"/><g transform="translate(13.977 27.716)"><g transform="translate(0)"><path class="j" d="M91.091,1.526,89.61,0,77.895,11.388,89.61,22.776l1.481-1.527L80.948,11.388Z" transform="translate(-77.895)"/></g></g><g transform="translate(55.059 50.493) rotate(180)"><path class="j" d="M13.2,1.526,11.715,0,0,11.388,11.715,22.776,13.2,21.25,3.053,11.388Z"/></g><rect class="e" width="69.66" height="20.537" transform="translate(0 69.521)"/><path class="k" d="M-10.745,0H-11.99V-5.039h-5.64V0h-1.245V-10.708h1.245v4.556h5.64v-4.556h1.245Zm6.233,0H-5.757V-9.6H-9.148v-1.106h8.027V-9.6H-4.512ZM5.229,0,1.6-9.492H1.538q.1,1.128.1,2.681V0H.491V-10.708H2.366L5.757-1.875h.059l3.42-8.833H11.1V0H9.851V-6.9q0-1.187.1-2.578H9.9L6.233,0Zm8.8,0V-10.708h1.245v9.58H20V0Z" transform="translate(34.459 85.404)"/></g><g transform="translate(530)"><path class="h" d="M12072.021,6428.36v89.047h68.664v-74.852l-14.182-14.2Z" transform="translate(-12071.521 -6427.86)"/><path class="i" d="M12150.17,6428.361v15.079h15.013Z" transform="translate(-12095.676 -6428.36)"/><g transform="translate(13.977 27.716)"><g transform="translate(0)"><path class="j" d="M91.091,1.526,89.61,0,77.895,11.388,89.61,22.776l1.481-1.527L80.948,11.388Z" transform="translate(-77.895)"/></g></g><g transform="translate(55.059 50.493) rotate(180)"><path class="j" d="M13.2,1.526,11.715,0,0,11.388,11.715,22.776,13.2,21.25,3.053,11.388Z"/></g><rect class="g" width="69.66" height="20.537" transform="translate(0 69.521)"/><path class="k" d="M-10.745,0H-11.99V-5.039h-5.64V0h-1.245V-10.708h1.245v4.556h5.64v-4.556h1.245Zm6.233,0H-5.757V-9.6H-9.148v-1.106h8.027V-9.6H-4.512ZM5.229,0,1.6-9.492H1.538q.1,1.128.1,2.681V0H.491V-10.708H2.366L5.757-1.875h.059l3.42-8.833H11.1V0H9.851V-6.9q0-1.187.1-2.578H9.9L6.233,0Zm8.8,0V-10.708h1.245v9.58H20V0Z" transform="translate(34.459 85.404)"/></g></g></g></svg>