<svg xmlns="http://www.w3.org/2000/svg" xmlns:xlink="http://www.w3.org/1999/xlink" viewBox="5970 0 600 355.5"><defs><style>.a{clip-path:url(#b);}.b{fill:none;stroke:#484848;stroke-width:2px;}.c{fill:#efebe0;stroke:#95989a;}.d{fill:#96999b;}.e{fill:#b9b9b6;}.f{fill:#375178;}.g{fill:#fff;}.h{fill:#d96b50;}.i{fill:#1d1d1d;}.j{fill:rgba(255,255,255,0);}</style><clipPath id="b"><rect x="5970" width="600" height="355.5"/></clipPath></defs><g id="a" class="a"><rect class="j" x="5970" width="600" height="355.5"/><g transform="translate(5970)"><line class="b" y1="152.351" x2="85.773" transform="translate(70.477 45.211)"/><line class="b" y1="152.351" x2="85.773" transform="translate(444.158 45.211)"/><line class="b" x1="85.173" y1="152.351" transform="translate(70.477 45.211)"/><line class="b" x1="85.173" y1="152.351" transform="translate(444.158 45.211)"/><line class="b" x1="85.773" transform="translate(70.477 45.211)"/><line class="b" x1="85.773" transform="translate(444.158 45.211)"/><line class="b" x1="85.173" transform="translate(70.477 197.562)"/><line class="b" x1="85.173" transform="translate(444.158 197.562)"/><line class="b" y1="60.904" transform="translate(190.906 91.017)"/><line class="b" y1="60.904" transform="translate(564.587 91.017)"/><line class="b" y1="60.904" transform="translate(35.263 91.017)"/><line class="b" y1="60.904" transform="translate(408.944 91.017)"/><g transform="translate(0 -0.187)"><path class="c" d="M12072.021,6428.36v90.412h69.771v-76l-14.413-14.414Z" transform="translate(-12071.722 -6427.948)"/><path class="d" d="M12150.172,6428.36v15.092h14.858Z" transform="translate(-12094.963 -6428.36)"/><rect class="e" width="47.778" height="2.108" transform="translate(12.027 19.76)"/><rect class="e" width="47.778" height="2.108" transform="translate(12.027 32.407)"/><rect class="e" width="47.778" height="2.108" transform="translate(12.027 45.054)"/><rect class="e" width="47.778" height="2.108" transform="translate(12.027 57.701)"/><rect class="f" width="70.369" height="19.713" transform="translate(0 71.596)"/><path class="g" d="M-18.5,0H-19.75V-9.6h-3.391v-1.106h8.027V-9.6H-18.5Zm7.727-5.354,2.856-5.354h1.348l-3.574,6.555V0h-1.26V-4.094l-3.567-6.614h1.362ZM1.688-7.588a3,3,0,0,1-1.11,2.5A5.027,5.027,0,0,1-2.6-4.211h-1.26V0H-5.1V-10.708h2.776Q1.688-10.708,1.688-7.588ZM-3.856-5.281h1.121a4.164,4.164,0,0,0,2.4-.535A1.971,1.971,0,0,0,.4-7.529,1.847,1.847,0,0,0-.3-9.111a3.635,3.635,0,0,0-2.168-.52H-3.856ZM9.9,0H3.929V-10.708H9.9V-9.6H5.175v3.45H9.613v1.1H5.175v3.94H9.9ZM19.933,0H18.746V-7.632q0-.952.059-1.8-.154.154-.344.322T16.718-7.683l-.645-.835,2.834-2.19h1.025Z" transform="translate(34.759 87.412)"/></g><g transform="translate(373.68 -0.187)"><path class="c" d="M12072.021,6428.36v90.412h69.771v-76l-14.413-14.414Z" transform="translate(-12071.722 -6427.948)"/><path class="d" d="M12150.172,6428.36v15.092h14.858Z" transform="translate(-12094.963 -6428.36)"/><rect class="e" width="47.778" height="2.108" transform="translate(12.027 19.76)"/><rect class="e" width="47.778" height="2.108" transform="translate(12.027 32.407)"/><rect class="e" width="47.778" height="2.108" transform="translate(12.027 45.054)"/><rect class="e" width="47.778" height="2.108" transform="translate(12.027 57.701)"/><rect class="h" width="70.369" height="19.713" transform="translate(0 71.596)"/><path class="g" d="M-18.5,0H-19.75V-9.6h-3.391v-1.106h8.027V-9.6H-18.5Zm7.727-5.354,2.856-5.354h1.348l-3.574,6.555V0h-1.26V-4.094l-3.567-6.614h1.362ZM1.688-7.588a3,3,0,0,1-1.11,2.5A5.027,5.027,0,0,1-2.6-4.211h-1.26V0H-5.1V-10.708h2.776Q1.688-10.708,1.688-7.588ZM-3.856-5.281h1.121a4.164,4.164,0,0,0,2.4-.535A1.971,1.971,0,0,0,.4-7.529,1.847,1.847,0,0,0-.3-9.111a3.635,3.635,0,0,0-2.168-.52H-3.856ZM9.9,0H3.929V-10.708H9.9V-9.6H5.175v3.45H9.613v1.1H5.175v3.94H9.9ZM22.467,0H15.428V-1.047l2.82-2.834a20.765,20.765,0,0,0,1.7-1.86,4.748,4.748,0,0,0,.615-1.084,3.1,3.1,0,0,0,.205-1.135,1.8,1.8,0,0,0-.52-1.359,1.992,1.992,0,0,0-1.443-.5,3.628,3.628,0,0,0-1.263.22,5.036,5.036,0,0,0-1.329.8l-.645-.828a4.936,4.936,0,0,1,3.223-1.23,3.4,3.4,0,0,1,2.366.773,2.658,2.658,0,0,1,.857,2.076A4.01,4.01,0,0,1,21.442-6,12.788,12.788,0,0,1,19.3-3.479L16.959-1.187v.059h5.508Z" transform="translate(35.759 87.412)"/></g><g transform="translate(0 152.165)"><path class="c" d="M12072.021,6428.36v90.412h69.771v-76l-14.413-14.414Z" transform="translate(-12071.722 -6427.948)"/><path class="d" d="M12150.172,6428.36v15.092h14.858Z" transform="translate(-12094.963 -6428.36)"/><rect class="e" width="47.778" height="2.108" transform="translate(12.027 19.76)"/><rect class="e" width="47.778" height="2.108" transform="translate(12.027 32.407)"/><rect class="e" width="47.778" height="2.108" transform="translate(12.027 45.054)"/><rect class="e" width="47.778" height="2.108" transform="translate(12.027 57.701)"/><rect class="f" width="70.369" height="19.713" transform="translate(0 71.596)"/><path class="g" d="M-18.5,0H-19.75V-9.6h-3.391v-1.106h8.027V-9.6H-18.5Zm7.727-5.354,2.856-5.354h1.348l-3.574,6.555V0h-1.26V-4.094l-3.567-6.614h1.362ZM1.688-7.588a3,3,0,0,1-1.11,2.5A5.027,5.027,0,0,1-2.6-4.211h-1.26V0H-5.1V-10.708h2.776Q1.688-10.708,1.688-7.588ZM-3.856-5.281h1.121a4.164,4.164,0,0,0,2.4-.535A1.971,1.971,0,0,0,.4-7.529,1.847,1.847,0,0,0-.3-9.111a3.635,3.635,0,0,0-2.168-.52H-3.856ZM9.9,0H3.929V-10.708H9.9V-9.6H5.175v3.45H9.613v1.1H5.175v3.94H9.9ZM19.933,0H18.746V-7.632q0-.952.059-1.8-.154.154-.344.322T16.718-7.683l-.645-.835,2.834-2.19h1.025Z" transform="translate(35.759 87.412)"/></g><g transform="translate(373.68 152.165)"><path class="c" d="M12072.021,6428.36v90.412h69.771v-76l-14.413-14.414Z" transform="translate(-12071.722 -6427.948)"/><path class="d" d="M12150.172,6428.36v15.092h14.858Z" transform="translate(-12094.963 -6428.36)"/><rect class="e" width="47.778" height="2.108" transform="translate(12.027 19.76)"/><rect class="e" width="47.778" height="2.108" transform="translate(12.027 32.407)"/><rect class="e" width="47.778" height="2.108" transform="translate(12.027 45.054)"/><rect class="e" width="47.778" height="2.108" transform="translate(12.027 57.701)"/><rect class="h" width="70.369" height="19.713" transform="translate(0 71.596)"/><path class="g" d="M-18.5,0H-19.75V-9.6h-3.391v-1.106h8.027V-9.6H-18.5Zm7.727-5.354,2.856-5.354h1.348l-3.574,6.555V0h-1.26V-4.094l-3.567-6.614h1.362ZM1.688-7.588a3,3,0,0,1-1.11,2.5A5.027,5.027,0,0,1-2.6-4.211h-1.26V0H-5.1V-10.708h2.776Q1.688-10.708,1.688-7.588ZM-3.856-5.281h1.121a4.164,4.164,0,0,0,2.4-.535A1.971,1.971,0,0,0,.4-7.529,1.847,1.847,0,0,0-.3-9.111a3.635,3.635,0,0,0-2.168-.52H-3.856ZM9.9,0H3.929V-10.708H9.9V-9.6H5.175v3.45H9.613v1.1H5.175v3.94H9.9ZM22.467,0H15.428V-1.047l2.82-2.834a20.765,20.765,0,0,0,1.7-1.86,4.748,4.748,0,0,0,.615-1.084,3.1,3.1,0,0,0,.205-1.135,1.8,1.8,0,0,0-.52-1.359,1.992,1.992,0,0,0-1.443-.5,3.628,3.628,0,0,0-1.263.22,5.036,5.036,0,0,0-1.329.8l-.645-.828a4.936,4.936,0,0,1,3.223-1.23,3.4,3.4,0,0,1,2.366.773,2.658,2.658,0,0,1,.857,2.076A4.01,4.01,0,0,1,21.442-6,12.788,12.788,0,0,1,19.3-3.479L16.959-1.187v.059h5.508Z" transform="translate(35.759 87.412)"/></g><g transform="translate(155.95 152.165)"><path class="c" d="M12072.021,6428.36v90.412h69.771v-76l-14.413-14.414Z" transform="translate(-12071.722 -6427.948)"/><path class="d" d="M12150.172,6428.36v15.092h14.858Z" transform="translate(-12094.963 -6428.36)"/><rect class="e" width="47.778" height="2.108" transform="translate(12.027 19.76)"/><rect class="e" width="47.778" height="2.108" transform="translate(12.027 32.407)"/><rect class="e" width="47.778" height="2.108" transform="translate(12.027 45.054)"/><rect class="e" width="47.778" height="2.108" transform="translate(12.027 57.701)"/><rect class="f" width="70.369" height="19.713" transform="translate(0 71.596)"/><path class="g" d="M-18.5,0H-19.75V-9.6h-3.391v-1.106h8.027V-9.6H-18.5Zm7.727-5.354,2.856-5.354h1.348l-3.574,6.555V0h-1.26V-4.094l-3.567-6.614h1.362ZM1.688-7.588a3,3,0,0,1-1.11,2.5A5.027,5.027,0,0,1-2.6-4.211h-1.26V0H-5.1V-10.708h2.776Q1.688-10.708,1.688-7.588ZM-3.856-5.281h1.121a4.164,4.164,0,0,0,2.4-.535A1.971,1.971,0,0,0,.4-7.529,1.847,1.847,0,0,0-.3-9.111a3.635,3.635,0,0,0-2.168-.52H-3.856ZM9.9,0H3.929V-10.708H9.9V-9.6H5.175v3.45H9.613v1.1H5.175v3.94H9.9ZM19.933,0H18.746V-7.632q0-.952.059-1.8-.154.154-.344.322T16.718-7.683l-.645-.835,2.834-2.19h1.025Z" transform="translate(35.759 87.412)"/></g><g transform="translate(529.63 152.165)"><path class="c" d="M12072.021,6428.36v90.412h69.771v-76l-14.413-14.414Z" transform="translate(-12071.722 -6427.948)"/><path class="d" d="M12150.172,6428.36v15.092h14.858Z" transform="translate(-12094.963 -6428.36)"/><rect class="e" width="47.778" height="2.108" transform="translate(12.027 19.76)"/><rect class="e" width="47.778" height="2.108" transform="translate(12.027 32.407)"/><rect class="e" width="47.778" height="2.108" transform="translate(12.027 45.054)"/><rect class="e" width="47.778" height="2.108" transform="translate(12.027 57.701)"/><rect class="h" width="70.369" height="19.713" transform="translate(0 71.596)"/><path class="g" d="M-18.5,0H-19.75V-9.6h-3.391v-1.106h8.027V-9.6H-18.5Zm7.727-5.354,2.856-5.354h1.348l-3.574,6.555V0h-1.26V-4.094l-3.567-6.614h1.362ZM1.688-7.588a3,3,0,0,1-1.11,2.5A5.027,5.027,0,0,1-2.6-4.211h-1.26V0H-5.1V-10.708h2.776Q1.688-10.708,1.688-7.588ZM-3.856-5.281h1.121a4.164,4.164,0,0,0,2.4-.535A1.971,1.971,0,0,0,.4-7.529,1.847,1.847,0,0,0-.3-9.111a3.635,3.635,0,0,0-2.168-.52H-3.856ZM9.9,0H3.929V-10.708H9.9V-9.6H5.175v3.45H9.613v1.1H5.175v3.94H9.9ZM22.467,0H15.428V-1.047l2.82-2.834a20.765,20.765,0,0,0,1.7-1.86,4.748,4.748,0,0,0,.615-1.084,3.1,3.1,0,0,0,.205-1.135,1.8,1.8,0,0,0-.52-1.359,1.992,1.992,0,0,0-1.443-.5,3.628,3.628,0,0,0-1.263.22,5.036,5.036,0,0,0-1.329.8l-.645-.828a4.936,4.936,0,0,1,3.223-1.23,3.4,3.4,0,0,1,2.366.773,2.658,2.658,0,0,1,.857,2.076A4.01,4.01,0,0,1,21.442-6,12.788,12.788,0,0,1,19.3-3.479L16.959-1.187v.059h5.508Z" transform="translate(35.759 87.412)"/></g><g transform="translate(155.95 -0.187)"><path class="c" d="M12072.021,6428.36v90.412h69.771v-76l-14.413-14.414Z" transform="translate(-12071.722 -6427.948)"/><path class="d" d="M12150.172,6428.36v15.092h14.858Z" transform="translate(-12094.963 -6428.36)"/><rect class="e" width="47.778" height="2.108" transform="translate(12.027 19.76)"/><rect class="e" width="47.778" height="2.108" transform="translate(12.027 32.407)"/><rect class="e" width="47.778" height="2.108" transform="translate(12.027 45.054)"/><rect class="e" width="47.778" height="2.108" transform="translate(12.027 57.701)"/><rect class="f" width="70.369" height="19.713" transform="translate(0 71.596)"/><path class="g" d="M-18.5,0H-19.75V-9.6h-3.391v-1.106h8.027V-9.6H-18.5Zm7.727-5.354,2.856-5.354h1.348l-3.574,6.555V0h-1.26V-4.094l-3.567-6.614h1.362ZM1.688-7.588a3,3,0,0,1-1.11,2.5A5.027,5.027,0,0,1-2.6-4.211h-1.26V0H-5.1V-10.708h2.776Q1.688-10.708,1.688-7.588ZM-3.856-5.281h1.121a4.164,4.164,0,0,0,2.4-.535A1.971,1.971,0,0,0,.4-7.529,1.847,1.847,0,0,0-.3-9.111a3.635,3.635,0,0,0-2.168-.52H-3.856ZM9.9,0H3.929V-10.708H9.9V-9.6H5.175v3.45H9.613v1.1H5.175v3.94H9.9ZM19.933,0H18.746V-7.632q0-.952.059-1.8-.154.154-.344.322T16.718-7.683l-.645-.835,2.834-2.19h1.025Z" transform="translate(35.759 87.412)"/></g><g transform="translate(529.63 -0.187)"><path class="c" d="M12072.021,6428.36v90.412h69.771v-76l-14.413-14.414Z" transform="translate(-12071.722 -6427.948)"/><path class="d" d="M12150.172,6428.36v15.092h14.858Z" transform="translate(-12094.963 -6428.36)"/><rect class="e" width="47.778" height="2.108" transform="translate(12.027 19.76)"/><rect class="e" width="47.778" height="2.108" transform="translate(12.027 32.407)"/><rect class="e" width="47.778" height="2.108" transform="translate(12.027 45.054)"/><rect class="e" width="47.778" height="2.108" transform="translate(12.027 57.701)"/><rect class="h" width="70.369" height="19.713" transform="translate(0 71.596)"/><path class="g" d="M-18.5,0H-19.75V-9.6h-3.391v-1.106h8.027V-9.6H-18.5Zm7.727-5.354,2.856-5.354h1.348l-3.574,6.555V0h-1.26V-4.094l-3.567-6.614h1.362ZM1.688-7.588a3,3,0,0,1-1.11,2.5A5.027,5.027,0,0,1-2.6-4.211h-1.26V0H-5.1V-10.708h2.776Q1.688-10.708,1.688-7.588ZM-3.856-5.281h1.121a4.164,4.164,0,0,0,2.4-.535A1.971,1.971,0,0,0,.4-7.529,1.847,1.847,0,0,0-.3-9.111a3.635,3.635,0,0,0-2.168-.52H-3.856ZM9.9,0H3.929V-10.708H9.9V-9.6H5.175v3.45H9.613v1.1H5.175v3.94H9.9ZM22.467,0H15.428V-1.047l2.82-2.834a20.765,20.765,0,0,0,1.7-1.86,4.748,4.748,0,0,0,.615-1.084,3.1,3.1,0,0,0,.205-1.135,1.8,1.8,0,0,0-.52-1.359,1.992,1.992,0,0,0-1.443-.5,3.628,3.628,0,0,0-1.263.22,5.036,5.036,0,0,0-1.329.8l-.645-.828a4.936,4.936,0,0,1,3.223-1.23,3.4,3.4,0,0,1,2.366.773,2.658,2.658,0,0,1,.857,2.076A4.01,4.01,0,0,1,21.442-6,12.788,12.788,0,0,1,19.3-3.479L16.959-1.187v.059h5.508Z" transform="translate(35.759 87.412)"/></g><path class="i" d="M-21.888-2.908A2.7,2.7,0,0,1-22.921-.667,4.494,4.494,0,0,1-25.77.146a6.8,6.8,0,0,1-2.974-.564V-2.073a8.082,8.082,0,0,0,1.556.542,6.6,6.6,0,0,0,1.534.2,2.441,2.441,0,0,0,1.534-.4,1.29,1.29,0,0,0,.494-1.062,1.331,1.331,0,0,0-.454-1.018A6.836,6.836,0,0,0-25.953-4.8a4.96,4.96,0,0,1-2.065-1.355,2.867,2.867,0,0,1-.6-1.831,2.564,2.564,0,0,1,.952-2.109,3.95,3.95,0,0,1,2.556-.769,7.51,7.51,0,0,1,3.062.674l-.557,1.428a6.689,6.689,0,0,0-2.549-.6,1.956,1.956,0,0,0-1.289.37,1.215,1.215,0,0,0-.439.978,1.377,1.377,0,0,0,.176.714,1.8,1.8,0,0,0,.579.56,9.787,9.787,0,0,0,1.45.7,7.935,7.935,0,0,1,1.729.916,2.693,2.693,0,0,1,.806.959A2.886,2.886,0,0,1-21.888-2.908ZM-16.461.146a3.919,3.919,0,0,1-2.955-1.1,4.184,4.184,0,0,1-1.066-3.036,4.591,4.591,0,0,1,.989-3.12,3.415,3.415,0,0,1,2.717-1.135,3.338,3.338,0,0,1,2.534.974,3.722,3.722,0,0,1,.93,2.681v.93h-5.4a2.661,2.661,0,0,0,.637,1.813,2.219,2.219,0,0,0,1.692.634,6.246,6.246,0,0,0,1.337-.135,7.006,7.006,0,0,0,1.329-.45V-.4a5.285,5.285,0,0,1-1.274.425A7.815,7.815,0,0,1-16.461.146Zm-.315-7.09a1.729,1.729,0,0,0-1.315.52,2.478,2.478,0,0,0-.59,1.516H-15a2.242,2.242,0,0,0-.483-1.52A1.653,1.653,0,0,0-16.776-6.943Zm9.529-1.3a4.143,4.143,0,0,1,.857.073l-.168,1.6a3.253,3.253,0,0,0-.762-.088,2.2,2.2,0,0,0-1.674.674,2.436,2.436,0,0,0-.641,1.75V0h-1.721V-8.1h1.348l.227,1.428h.088a3.209,3.209,0,0,1,1.051-1.15A2.5,2.5,0,0,1-7.247-8.247ZM-3.043,0-6.119-8.1H-4.3l1.648,4.709a9.332,9.332,0,0,1,.513,1.919h.059a12.885,12.885,0,0,1,.513-1.919L.077-8.1H1.908L-1.183,0ZM6.676.146a3.919,3.919,0,0,1-2.955-1.1A4.184,4.184,0,0,1,2.655-3.992a4.591,4.591,0,0,1,.989-3.12A3.415,3.415,0,0,1,6.361-8.247,3.338,3.338,0,0,1,8.9-7.273a3.722,3.722,0,0,1,.93,2.681v.93h-5.4a2.661,2.661,0,0,0,.637,1.813,2.219,2.219,0,0,0,1.692.634,6.246,6.246,0,0,0,1.337-.135A7.006,7.006,0,0,0,9.423-1.8V-.4A5.285,5.285,0,0,1,8.148.022,7.815,7.815,0,0,1,6.676.146Zm-.315-7.09a1.729,1.729,0,0,0-1.315.52,2.478,2.478,0,0,0-.59,1.516H8.134a2.242,2.242,0,0,0-.483-1.52A1.653,1.653,0,0,0,6.361-6.943Zm9.529-1.3a4.143,4.143,0,0,1,.857.073l-.168,1.6a3.253,3.253,0,0,0-.762-.088,2.2,2.2,0,0,0-1.674.674,2.436,2.436,0,0,0-.641,1.75V0H11.781V-8.1h1.348l.227,1.428h.088a3.209,3.209,0,0,1,1.051-1.15A2.5,2.5,0,0,1,15.89-8.247ZM26.627,0H24.906V-6.914q0-1.238.059-1.963-.168.176-.414.388T22.906-7.141l-.864-1.091,3.149-2.476h1.436Z" transform="translate(113.14 351.452)"/><path class="i" d="M-21.888-2.908A2.7,2.7,0,0,1-22.921-.667,4.494,4.494,0,0,1-25.77.146a6.8,6.8,0,0,1-2.974-.564V-2.073a8.082,8.082,0,0,0,1.556.542,6.6,6.6,0,0,0,1.534.2,2.441,2.441,0,0,0,1.534-.4,1.29,1.29,0,0,0,.494-1.062,1.331,1.331,0,0,0-.454-1.018A6.836,6.836,0,0,0-25.953-4.8a4.96,4.96,0,0,1-2.065-1.355,2.867,2.867,0,0,1-.6-1.831,2.564,2.564,0,0,1,.952-2.109,3.95,3.95,0,0,1,2.556-.769,7.51,7.51,0,0,1,3.062.674l-.557,1.428a6.689,6.689,0,0,0-2.549-.6,1.956,1.956,0,0,0-1.289.37,1.215,1.215,0,0,0-.439.978,1.377,1.377,0,0,0,.176.714,1.8,1.8,0,0,0,.579.56,9.787,9.787,0,0,0,1.45.7,7.935,7.935,0,0,1,1.729.916,2.693,2.693,0,0,1,.806.959A2.886,2.886,0,0,1-21.888-2.908ZM-16.461.146a3.919,3.919,0,0,1-2.955-1.1,4.184,4.184,0,0,1-1.066-3.036,4.591,4.591,0,0,1,.989-3.12,3.415,3.415,0,0,1,2.717-1.135,3.338,3.338,0,0,1,2.534.974,3.722,3.722,0,0,1,.93,2.681v.93h-5.4a2.661,2.661,0,0,0,.637,1.813,2.219,2.219,0,0,0,1.692.634,6.246,6.246,0,0,0,1.337-.135,7.006,7.006,0,0,0,1.329-.45V-.4a5.285,5.285,0,0,1-1.274.425A7.815,7.815,0,0,1-16.461.146Zm-.315-7.09a1.729,1.729,0,0,0-1.315.52,2.478,2.478,0,0,0-.59,1.516H-15a2.242,2.242,0,0,0-.483-1.52A1.653,1.653,0,0,0-16.776-6.943Zm9.529-1.3a4.143,4.143,0,0,1,.857.073l-.168,1.6a3.253,3.253,0,0,0-.762-.088,2.2,2.2,0,0,0-1.674.674,2.436,2.436,0,0,0-.641,1.75V0h-1.721V-8.1h1.348l.227,1.428h.088a3.209,3.209,0,0,1,1.051-1.15A2.5,2.5,0,0,1-7.247-8.247ZM-3.043,0-6.119-8.1H-4.3l1.648,4.709a9.332,9.332,0,0,1,.513,1.919h.059a12.885,12.885,0,0,1,.513-1.919L.077-8.1H1.908L-1.183,0ZM6.676.146a3.919,3.919,0,0,1-2.955-1.1A4.184,4.184,0,0,1,2.655-3.992a4.591,4.591,0,0,1,.989-3.12A3.415,3.415,0,0,1,6.361-8.247,3.338,3.338,0,0,1,8.9-7.273a3.722,3.722,0,0,1,.93,2.681v.93h-5.4a2.661,2.661,0,0,0,.637,1.813,2.219,2.219,0,0,0,1.692.634,6.246,6.246,0,0,0,1.337-.135A7.006,7.006,0,0,0,9.423-1.8V-.4A5.285,5.285,0,0,1,8.148.022,7.815,7.815,0,0,1,6.676.146Zm-.315-7.09a1.729,1.729,0,0,0-1.315.52,2.478,2.478,0,0,0-.59,1.516H8.134a2.242,2.242,0,0,0-.483-1.52A1.653,1.653,0,0,0,6.361-6.943Zm9.529-1.3a4.143,4.143,0,0,1,.857.073l-.168,1.6a3.253,3.253,0,0,0-.762-.088,2.2,2.2,0,0,0-1.674.674,2.436,2.436,0,0,0-.641,1.75V0H11.781V-8.1h1.348l.227,1.428h.088a3.209,3.209,0,0,1,1.051-1.15A2.5,2.5,0,0,1,15.89-8.247ZM28.832,0H21.573V-1.3L24.335-4.08a23.487,23.487,0,0,0,1.622-1.776,4.24,4.24,0,0,0,.582-.985,2.656,2.656,0,0,0,.183-.989,1.508,1.508,0,0,0-.436-1.143,1.67,1.67,0,0,0-1.2-.417,3.212,3.212,0,0,0-1.19.227,5.571,5.571,0,0,0-1.329.82l-.93-1.135a6,6,0,0,1,1.736-1.069,5.081,5.081,0,0,1,1.794-.315,3.531,3.531,0,0,1,2.4.78,2.635,2.635,0,0,1,.9,2.1,3.682,3.682,0,0,1-.26,1.377,5.6,5.6,0,0,1-.8,1.344,18.244,18.244,0,0,1-1.791,1.871l-1.86,1.8v.073h5.083Z" transform="translate(487.458 351.452)"/><path class="f" d="M4.786-4.786H43.071V-9.571H4.786Zm0-19.143H43.071v-4.786H4.786ZM62.364-4.636a3.461,3.461,0,0,0,1.047-2.542,3.461,3.461,0,0,0-1.047-2.542,3.461,3.461,0,0,0-2.542-1.047,3.461,3.461,0,0,0-2.542,1.047,3.461,3.461,0,0,0-1.047,2.542,3.461,3.461,0,0,0,1.047,2.542,3.461,3.461,0,0,0,2.542,1.047A3.461,3.461,0,0,0,62.364-4.636ZM4.786-43.071H43.071v-4.786H4.786ZM62.364-23.779a3.461,3.461,0,0,0,1.047-2.542,3.461,3.461,0,0,0-1.047-2.542,3.461,3.461,0,0,0-2.542-1.047,3.461,3.461,0,0,0-2.542,1.047,3.461,3.461,0,0,0-1.047,2.542,3.461,3.461,0,0,0,1.047,2.542,3.461,3.461,0,0,0,2.542,1.047A3.461,3.461,0,0,0,62.364-23.779Zm0-19.143a3.461,3.461,0,0,0,1.047-2.542,3.461,3.461,0,0,0-1.047-2.542,3.461,3.461,0,0,0-2.542-1.047,3.461,3.461,0,0,0-2.542,1.047,3.461,3.461,0,0,0-1.047,2.542,3.461,3.461,0,0,0,1.047,2.542,3.461,3.461,0,0,0,2.542,1.047A3.461,3.461,0,0,0,62.364-42.922ZM67-14.357V0H0V-14.357ZM67-33.5v14.357H0V-33.5Zm0-19.143v14.357H0V-52.643Z" transform="translate(78.685 332.421)"/><path class="h" d="M4.786-4.786H43.071V-9.571H4.786Zm0-19.143H43.071v-4.786H4.786ZM62.364-4.636a3.461,3.461,0,0,0,1.047-2.542,3.461,3.461,0,0,0-1.047-2.542,3.461,3.461,0,0,0-2.542-1.047,3.461,3.461,0,0,0-2.542,1.047,3.461,3.461,0,0,0-1.047,2.542,3.461,3.461,0,0,0,1.047,2.542,3.461,3.461,0,0,0,2.542,1.047A3.461,3.461,0,0,0,62.364-4.636ZM4.786-43.071H43.071v-4.786H4.786ZM62.364-23.779a3.461,3.461,0,0,0,1.047-2.542,3.461,3.461,0,0,0-1.047-2.542,3.461,3.461,0,0,0-2.542-1.047,3.461,3.461,0,0,0-2.542,1.047,3.461,3.461,0,0,0-1.047,2.542,3.461,3.461,0,0,0,1.047,2.542,3.461,3.461,0,0,0,2.542,1.047A3.461,3.461,0,0,0,62.364-23.779Zm0-19.143a3.461,3.461,0,0,0,1.047-2.542,3.461,3.461,0,0,0-1.047-2.542,3.461,3.461,0,0,0-2.542-1.047,3.461,3.461,0,0,0-2.542,1.047,3.461,3.461,0,0,0-1.047,2.542,3.461,3.461,0,0,0,1.047,2.542,3.461,3.461,0,0,0,2.542,1.047A3.461,3.461,0,0,0,62.364-42.922ZM67-14.357V0H0V-14.357ZM67-33.5v14.357H0V-33.5Zm0-19.143v14.357H0V-52.643Z" transform="translate(452.004 332.421)"/></g></g></svg>