<svg xmlns="http://www.w3.org/2000/svg" xmlns:xlink="http://www.w3.org/1999/xlink" viewBox="6640 0 600 351"><defs><style>.a{clip-path:url(#b);}.b{fill:none;stroke:#484848;stroke-width:2px;}.c{fill:#1d1d1d;font-family:OpenSans-SemiBold, Open Sans;font-weight:600;}.c,.l{font-size:15px;}.d,.k{fill:#418eeb;}.d,.e,.f,.g{font-size:68px;font-family:FontAwesome;}.e,.n{fill:#d96b50;}.f,.m{fill:#375178;}.g,.o{fill:#28bd84;}.h{fill:#efebe0;stroke:#95989a;}.i{fill:#96999b;}.j{fill:#3a3a3a;}.l{fill:#fff;font-family:OpenSans-Regular, Open Sans;}.p{fill:rgba(255,255,255,0);}</style><clipPath id="b"><rect x="6640" width="600" height="351"/></clipPath></defs><g id="a" class="a"><rect class="p" x="6640" width="600" height="351"/><g transform="translate(6640)"><line class="b" x2="285.527" y2="149.403" transform="translate(69.168 44.821)"/><line class="b" x2="462.597" y2="149.403" transform="translate(69.168 44.821)"/><line class="b" x2="108.456" transform="translate(423.31 194.224)"/><line class="b" x2="108.456" transform="translate(246.239 194.224)"/><line class="b" x2="110.438" transform="translate(68.062 194.224)"/><line class="b" y1="149.403" x2="108.456" transform="translate(423.31 44.821)"/><line class="b" y1="149.403" x2="108.456" transform="translate(246.239 44.821)"/><line class="b" y1="149.403" x2="108.456" transform="translate(68.062 44.821)"/><line class="b" x2="108.456" transform="translate(423.31 44.821)"/><line class="b" x2="108.456" transform="translate(246.239 44.821)"/><line class="b" x2="110.438" transform="translate(68.062 44.821)"/><line class="b" x2="108.456" y2="149.403" transform="translate(423.31 44.821)"/><line class="b" x2="108.456" y2="149.403" transform="translate(246.239 44.821)"/><line class="b" x2="108.456" y2="149.403" transform="translate(68.062 44.821)"/><line class="b" y1="149.403" x2="285.527" transform="translate(246.239 44.821)"/><line class="b" y1="149.403" x2="462.597" transform="translate(69.168 44.821)"/><line class="b" y1="149.403" x2="285.527" transform="translate(69.168 44.821)"/><line class="b" y2="59.761" transform="translate(34.861 89.089)"/><line class="b" y2="59.761" transform="translate(389.216 89.089)"/><line class="b" y2="59.761" transform="translate(211.718 89.089)"/><line class="b" y2="59.761" transform="translate(565.073 89.089)"/><line class="b" x2="285.527" y2="149.403" transform="translate(246.239 44.821)"/><text class="c" transform="translate(35.213 346.901)"><tspan x="-29.476" y="0">Server 1</tspan></text><text class="c" transform="translate(388.355 346.901)"><tspan x="-29.476" y="0">Server 3</tspan></text><text class="c" transform="translate(211.284 346.901)"><tspan x="-29.476" y="0">Server 2</tspan></text><text class="c" transform="translate(566.426 346.901)"><tspan x="-29.476" y="0">Server 4</tspan></text><text class="d" transform="translate(0 328.033)"><tspan x="0" y="0"></tspan></text><text class="e" transform="translate(354.141 328.033)"><tspan x="0" y="0"></tspan></text><text class="f" transform="translate(177.071 328.033)"><tspan x="0" y="0"></tspan></text><text class="g" transform="translate(531.212 328.033)"><tspan x="0" y="0"></tspan></text><g transform="translate(0)"><path class="h" d="M12072.021,6428.36v89.047h68.664v-74.852l-14.182-14.2Z" transform="translate(-12071.521 -6427.86)"/><path class="i" d="M12150.17,6428.361v15.079h15.013Z" transform="translate(-12095.676 -6428.36)"/><g transform="translate(13.977 27.716)"><g transform="translate(0)"><path class="j" d="M91.091,1.526,89.61,0,77.895,11.388,89.61,22.776l1.481-1.527L80.948,11.388Z" transform="translate(-77.895)"/></g></g><g transform="translate(55.059 50.493) rotate(180)"><path class="j" d="M13.2,1.526,11.715,0,0,11.388,11.715,22.776,13.2,21.25,3.053,11.388Z"/></g><rect class="k" width="69.66" height="20.537" transform="translate(0 69.521)"/><text class="l" transform="translate(34.459 85.404)"><tspan x="-20.347" y="0">HTML</tspan></text></g><g transform="translate(0 149)"><path class="h" d="M12072.021,6428.36v89.047h68.664v-74.852l-14.182-14.2Z" transform="translate(-12071.521 -6427.86)"/><path class="i" d="M12150.17,6428.361v15.079h15.013Z" transform="translate(-12095.676 -6428.36)"/><g transform="translate(13.977 27.716)"><g transform="translate(0)"><path class="j" d="M91.091,1.526,89.61,0,77.895,11.388,89.61,22.776l1.481-1.527L80.948,11.388Z" transform="translate(-77.895)"/></g></g><g transform="translate(55.059 50.493) rotate(180)"><path class="j" d="M13.2,1.526,11.715,0,0,11.388,11.715,22.776,13.2,21.25,3.053,11.388Z"/></g><rect class="k" width="69.66" height="20.537" transform="translate(0 69.521)"/><text class="l" transform="translate(34.459 85.404)"><tspan x="-20.347" y="0">HTML</tspan></text></g><g transform="translate(177 149)"><path class="h" d="M12072.021,6428.36v89.047h68.664v-74.852l-14.182-14.2Z" transform="translate(-12071.521 -6427.86)"/><path class="i" d="M12150.17,6428.361v15.079h15.013Z" transform="translate(-12095.676 -6428.36)"/><g transform="translate(13.977 27.716)"><g transform="translate(0)"><path class="j" d="M91.091,1.526,89.61,0,77.895,11.388,89.61,22.776l1.481-1.527L80.948,11.388Z" transform="translate(-77.895)"/></g></g><g transform="translate(55.059 50.493) rotate(180)"><path class="j" d="M13.2,1.526,11.715,0,0,11.388,11.715,22.776,13.2,21.25,3.053,11.388Z"/></g><rect class="m" width="69.66" height="20.537" transform="translate(0 69.521)"/><text class="l" transform="translate(34.459 85.404)"><tspan x="-20.347" y="0">HTML</tspan></text></g><g transform="translate(354 149)"><path class="h" d="M12072.021,6428.36v89.047h68.664v-74.852l-14.182-14.2Z" transform="translate(-12071.521 -6427.86)"/><path class="i" d="M12150.17,6428.361v15.079h15.013Z" transform="translate(-12095.676 -6428.36)"/><g transform="translate(13.977 27.716)"><g transform="translate(0)"><path class="j" d="M91.091,1.526,89.61,0,77.895,11.388,89.61,22.776l1.481-1.527L80.948,11.388Z" transform="translate(-77.895)"/></g></g><g transform="translate(55.059 50.493) rotate(180)"><path class="j" d="M13.2,1.526,11.715,0,0,11.388,11.715,22.776,13.2,21.25,3.053,11.388Z"/></g><rect class="n" width="69.66" height="20.537" transform="translate(0 69.521)"/><text class="l" transform="translate(34.459 85.404)"><tspan x="-20.347" y="0">HTML</tspan></text></g><g transform="translate(530 149)"><path class="h" d="M12072.021,6428.36v89.047h68.664v-74.852l-14.182-14.2Z" transform="translate(-12071.521 -6427.86)"/><path class="i" d="M12150.17,6428.361v15.079h15.013Z" transform="translate(-12095.676 -6428.36)"/><g transform="translate(13.977 27.716)"><g transform="translate(0)"><path class="j" d="M91.091,1.526,89.61,0,77.895,11.388,89.61,22.776l1.481-1.527L80.948,11.388Z" transform="translate(-77.895)"/></g></g><g transform="translate(55.059 50.493) rotate(180)"><path class="j" d="M13.2,1.526,11.715,0,0,11.388,11.715,22.776,13.2,21.25,3.053,11.388Z"/></g><rect class="o" width="69.66" height="20.537" transform="translate(0 69.521)"/><text class="l" transform="translate(34.459 85.404)"><tspan x="-20.347" y="0">HTML</tspan></text></g><g transform="translate(177)"><path class="h" d="M12072.021,6428.36v89.047h68.664v-74.852l-14.182-14.2Z" transform="translate(-12071.521 -6427.86)"/><path class="i" d="M12150.17,6428.361v15.079h15.013Z" transform="translate(-12095.676 -6428.36)"/><g transform="translate(13.977 27.716)"><g transform="translate(0)"><path class="j" d="M91.091,1.526,89.61,0,77.895,11.388,89.61,22.776l1.481-1.527L80.948,11.388Z" transform="translate(-77.895)"/></g></g><g transform="translate(55.059 50.493) rotate(180)"><path class="j" d="M13.2,1.526,11.715,0,0,11.388,11.715,22.776,13.2,21.25,3.053,11.388Z"/></g><rect class="m" width="69.66" height="20.537" transform="translate(0 69.521)"/><text class="l" transform="translate(34.459 85.404)"><tspan x="-20.347" y="0">HTML</tspan></text></g><g transform="translate(354)"><path class="h" d="M12072.021,6428.36v89.047h68.664v-74.852l-14.182-14.2Z" transform="translate(-12071.521 -6427.86)"/><path class="i" d="M12150.17,6428.361v15.079h15.013Z" transform="translate(-12095.676 -6428.36)"/><g transform="translate(13.977 27.716)"><g transform="translate(0)"><path class="j" d="M91.091,1.526,89.61,0,77.895,11.388,89.61,22.776l1.481-1.527L80.948,11.388Z" transform="translate(-77.895)"/></g></g><g transform="translate(55.059 50.493) rotate(180)"><path class="j" d="M13.2,1.526,11.715,0,0,11.388,11.715,22.776,13.2,21.25,3.053,11.388Z"/></g><rect class="n" width="69.66" height="20.537" transform="translate(0 69.521)"/><text class="l" transform="translate(34.459 85.404)"><tspan x="-20.347" y="0">HTML</tspan></text></g><g transform="translate(530)"><path class="h" d="M12072.021,6428.36v89.047h68.664v-74.852l-14.182-14.2Z" transform="translate(-12071.521 -6427.86)"/><path class="i" d="M12150.17,6428.361v15.079h15.013Z" transform="translate(-12095.676 -6428.36)"/><g transform="translate(13.977 27.716)"><g transform="translate(0)"><path class="j" d="M91.091,1.526,89.61,0,77.895,11.388,89.61,22.776l1.481-1.527L80.948,11.388Z" transform="translate(-77.895)"/></g></g><g transform="translate(55.059 50.493) rotate(180)"><path class="j" d="M13.2,1.526,11.715,0,0,11.388,11.715,22.776,13.2,21.25,3.053,11.388Z"/></g><rect class="o" width="69.66" height="20.537" transform="translate(0 69.521)"/><text class="l" transform="translate(34.459 85.404)"><tspan x="-20.347" y="0">HTML</tspan></text></g></g></g></svg>