<svg xmlns="http://www.w3.org/2000/svg" xmlns:xlink="http://www.w3.org/1999/xlink" width="1076" height="574" viewBox="0 0 1076 574"><defs><clipPath id="b"><rect width="1076" height="574"/></clipPath></defs><g id="a" clip-path="url(#b)"><rect width="1076" height="574" fill="rgba(255,255,255,0)"/><path d="M0,0S61.719-9.282,140.969,48.468,317,231,317,231" transform="translate(75.5 78.5)" fill="none" stroke="#fff" stroke-width="4"/><path d="M0,27S64.921,46.406,143.921,39.656,316,0,316,0" transform="translate(76.5 309.5)" fill="none" stroke="#fff" stroke-width="4"/><path d="M0,207s81.648-37.023,132.148-88.773S202,0,202,0" transform="translate(190.5 309.5)" fill="none" stroke="#fff" stroke-width="4"/><path d="M204,194s-96.123,1.453-147.123-47.047S0,0,0,0" transform="translate(392.5 309.5)" fill="none" stroke="#fff" stroke-width="4"/><path d="M129,0S59.411-3.163,19.7,43.3-24.229,186.929-24.229,186.929" transform="translate(392.5 84.5)" fill="none" stroke="#fff" stroke-width="4"/><path d="M383,0S311.459-17,215.709,21,0,152,0,152" transform="translate(392.5 157.5)" fill="none" stroke="#fff" stroke-width="4"/><path d="M322.159-12.62s-70.8,4.253-147.174,29.654S35.5,101.6,35.5,101.6" transform="translate(392.5 280.5)" fill="none" stroke="#fff" stroke-width="4"/><path d="M629,0S587.192,98.479,426.5,136.751,174.986,15.937,174.986,15.937" transform="translate(392.5 280.5)" fill="none" stroke="#fff" stroke-width="4"/><circle cx="130.5" cy="130.5" r="130.5" transform="translate(262 172)" fill="#fff"/><circle cx="45.5" cy="45.5" r="45.5" transform="translate(171 84)" fill="#fff"/><circle cx="64" cy="64" r="64" transform="translate(12 272)" fill="#fff"/><circle cx="69.5" cy="69.5" r="69.5" transform="translate(1 1)" fill="#fff"/><circle cx="59" cy="59" r="59" transform="translate(537 444)" fill="#fff"/><circle cx="42.5" cy="42.5" r="42.5" transform="translate(733 115)" fill="#fff"/><circle cx="29" cy="29" r="29" transform="translate(585 148)" fill="#fff"/><circle cx="75.5" cy="75.5" r="75.5" transform="translate(446 9)" fill="#fff"/><circle cx="63.5" cy="63.5" r="63.5" transform="translate(649 204)" fill="#fff"/><circle cx="56.5" cy="56.5" r="56.5" transform="translate(134 460)" fill="#fff"/><circle cx="88" cy="88" r="88" transform="translate(753 330)" fill="#fff"/><circle cx="53.5" cy="53.5" r="53.5" transform="translate(968 227)" fill="#fff"/><path d="M26.25.35a21.051,21.051,0,0,1-9.485-2.135A23.579,23.579,0,0,1,9.38-7.455,25.781,25.781,0,0,1,4.62-15.54a26.68,26.68,0,0,1-1.68-9.31,25.836,25.836,0,0,1,1.785-9.52A26.243,26.243,0,0,1,9.66-42.42a23.861,23.861,0,0,1,7.42-5.565,20.942,20.942,0,0,1,9.24-2.065,20.5,20.5,0,0,1,9.485,2.2,23.822,23.822,0,0,1,7.35,5.775,26.694,26.694,0,0,1,4.725,8.085,26.2,26.2,0,0,1,1.68,9.205,25.836,25.836,0,0,1-1.785,9.52,26.154,26.154,0,0,1-4.9,8.015,23.7,23.7,0,0,1-7.385,5.53A20.942,20.942,0,0,1,26.25.35ZM7.84-24.85a23.149,23.149,0,0,0,1.33,7.805,21.236,21.236,0,0,0,3.78,6.65,18.581,18.581,0,0,0,5.81,4.62A16.234,16.234,0,0,0,26.25-4.06a16.022,16.022,0,0,0,7.63-1.82,18.6,18.6,0,0,0,5.81-4.76,22,22,0,0,0,3.675-6.65,22.788,22.788,0,0,0,1.295-7.56A22.615,22.615,0,0,0,43.3-32.655,21.341,21.341,0,0,0,39.48-39.27a18.811,18.811,0,0,0-5.81-4.585,16.081,16.081,0,0,0-7.42-1.715,16.277,16.277,0,0,0-7.63,1.785,18.186,18.186,0,0,0-5.81,4.725,22,22,0,0,0-3.675,6.65A22.788,22.788,0,0,0,7.84-24.85ZM87.85-40.39a15.126,15.126,0,0,0-5.6-3.85,20.447,20.447,0,0,0-7.98-1.47q-6.58,0-9.59,2.485a8.3,8.3,0,0,0-3.01,6.755,7.455,7.455,0,0,0,.805,3.675A7.026,7.026,0,0,0,64.96-30.31a17.415,17.415,0,0,0,4.305,1.82q2.625.77,6.195,1.54a67.336,67.336,0,0,1,7.175,1.89,20.6,20.6,0,0,1,5.425,2.625,10.888,10.888,0,0,1,3.43,3.815,11.845,11.845,0,0,1,1.19,5.6,12.578,12.578,0,0,1-1.33,5.95,11.859,11.859,0,0,1-3.71,4.2A16.546,16.546,0,0,1,81.97-.385,30.318,30.318,0,0,1,74.76.42,29.634,29.634,0,0,1,54.81-6.79l2.45-3.99a19.42,19.42,0,0,0,3.185,2.66,23.086,23.086,0,0,0,4.13,2.2,26.241,26.241,0,0,0,4.865,1.47,27.439,27.439,0,0,0,5.46.525q5.95,0,9.275-2.135A7.171,7.171,0,0,0,87.5-12.53a7.43,7.43,0,0,0-.945-3.885,8.185,8.185,0,0,0-2.835-2.73,20.086,20.086,0,0,0-4.69-1.995q-2.8-.84-6.51-1.68-3.92-.91-6.86-1.89a18.288,18.288,0,0,1-4.97-2.45A9.544,9.544,0,0,1,57.645-30.7,11.437,11.437,0,0,1,56.63-35.77,13.97,13.97,0,0,1,57.925-41.9a12.033,12.033,0,0,1,3.675-4.48,17.4,17.4,0,0,1,5.6-2.73,25.3,25.3,0,0,1,7.14-.945,24.378,24.378,0,0,1,8.855,1.505A23.778,23.778,0,0,1,90.23-44.31ZM101.29,0V-49.7h4.9V-4.34h28.7V0Zm34.37-25.2a26.565,26.565,0,0,1,1.575-8.925,24.743,24.743,0,0,1,4.585-7.945,23.528,23.528,0,0,1,7.42-5.705,22.08,22.08,0,0,1,10.01-2.205,20.73,20.73,0,0,1,11.375,3.01,18.312,18.312,0,0,1,6.965,7.84l-3.85,2.38a14.707,14.707,0,0,0-2.9-4.13,16.153,16.153,0,0,0-3.675-2.73,15.53,15.53,0,0,0-4.06-1.505,19.467,19.467,0,0,0-4.13-.455,16.624,16.624,0,0,0-7.91,1.82,18.21,18.21,0,0,0-5.775,4.76,20.774,20.774,0,0,0-3.535,6.615,24.061,24.061,0,0,0-1.19,7.455,22.1,22.1,0,0,0,1.435,7.91,22.434,22.434,0,0,0,3.92,6.685,18.852,18.852,0,0,0,5.88,4.62A16.144,16.144,0,0,0,159.18-3.99a18.553,18.553,0,0,0,4.3-.525,16.591,16.591,0,0,0,4.27-1.68,17.971,17.971,0,0,0,3.815-2.87,14.844,14.844,0,0,0,2.94-4.165l4.06,2.1A15.2,15.2,0,0,1,175.21-6.2a22.091,22.091,0,0,1-4.83,3.605,24.071,24.071,0,0,1-5.635,2.24A23.268,23.268,0,0,1,158.9.42a19.881,19.881,0,0,1-9.38-2.24,24.6,24.6,0,0,1-7.35-5.845,27.124,27.124,0,0,1-4.795-8.19A26.479,26.479,0,0,1,135.66-25.2Z" transform="translate(302.06 327.05)" fill="#100330"/><path d="M-42.84,0V-31.95h13.23a8.294,8.294,0,0,1,3.8.878,10.02,10.02,0,0,1,2.993,2.3,10.889,10.889,0,0,1,1.98,3.217,9.74,9.74,0,0,1,.72,3.645,10.861,10.861,0,0,1-.675,3.8A10.29,10.29,0,0,1-22.68-14.9a9.5,9.5,0,0,1-2.9,2.25,8.194,8.194,0,0,1-3.757.855H-39.69V0Zm3.15-14.58h10.215a5.349,5.349,0,0,0,2.542-.608,6.189,6.189,0,0,0,1.958-1.62,7.629,7.629,0,0,0,1.26-2.34,8.561,8.561,0,0,0,.45-2.767,7.674,7.674,0,0,0-.517-2.813,7.64,7.64,0,0,0-1.4-2.317,6.371,6.371,0,0,0-2.07-1.552,5.786,5.786,0,0,0-2.5-.562H-39.69ZM-14.85,0V-31.95h3.15V-2.79H6.75V0ZM39.69,0V-26.235L28.035-5.94H26.19l-11.655-20.3V0h-3.15V-31.95h3.24L27.09-10.08,39.645-31.95h3.2V0Z" transform="translate(840.84 433.95)" fill="#100330"/><path d="M-49.764,0V-20.59h8.7a5.345,5.345,0,0,1,2.45.566,6.457,6.457,0,0,1,1.929,1.479,6.782,6.782,0,0,1,1.262,2.073,6.454,6.454,0,0,1,.45,2.349,6.967,6.967,0,0,1-.334,2.16,6.679,6.679,0,0,1-.928,1.856,5.614,5.614,0,0,1-1.435,1.392,5.076,5.076,0,0,1-1.885.768L-34.51,0H-36.8l-4.843-7.6h-6.09V0Zm2.03-9.4h6.728a3.447,3.447,0,0,0,1.639-.392,3.908,3.908,0,0,0,1.261-1.059,5.15,5.15,0,0,0,.812-1.508A5.388,5.388,0,0,0-37-14.123a4.868,4.868,0,0,0-.334-1.783,4.924,4.924,0,0,0-.9-1.494,4.29,4.29,0,0,0-1.334-1.015,3.61,3.61,0,0,0-1.61-.377h-6.554ZM-25.143.29a7.264,7.264,0,0,1-3.031-.624,7.427,7.427,0,0,1-2.392-1.711,7.945,7.945,0,0,1-1.581-2.508A8.159,8.159,0,0,1-32.712-7.6a7.97,7.97,0,0,1,.565-3,7.769,7.769,0,0,1,1.566-2.465,7.432,7.432,0,0,1,2.392-1.682,7.293,7.293,0,0,1,3.016-.623,7.264,7.264,0,0,1,3.03.623,7.2,7.2,0,0,1,2.364,1.7,7.911,7.911,0,0,1,1.537,2.465,7.963,7.963,0,0,1,.551,2.958v.464a1.167,1.167,0,0,1-.029.319H-30.653A6.36,6.36,0,0,0-30.088-4.6a6.178,6.178,0,0,0,1.233,1.783A5.522,5.522,0,0,0-27.13-1.639a5.163,5.163,0,0,0,2.073.421,5.356,5.356,0,0,0,1.45-.2,5.862,5.862,0,0,0,1.334-.551,4.961,4.961,0,0,0,1.1-.855,3.674,3.674,0,0,0,.754-1.117l1.711.464a5.024,5.024,0,0,1-.986,1.522A6.883,6.883,0,0,1-21.17-.769a7.243,7.243,0,0,1-1.856.783A8.046,8.046,0,0,1-25.143.29Zm5.568-8.642a6.1,6.1,0,0,0-.566-2.219A6.039,6.039,0,0,0-21.359-12.3a5.387,5.387,0,0,0-1.711-1.131,5.323,5.323,0,0,0-2.073-.406,5.43,5.43,0,0,0-2.088.406A5.345,5.345,0,0,0-28.957-12.3a5.558,5.558,0,0,0-1.189,1.74,6.587,6.587,0,0,0-.537,2.2ZM-6.931.29A5.97,5.97,0,0,1-10.31-.682a7.727,7.727,0,0,1-2.363-2.45V6.177h-1.972V-15.109h1.769v2.929a7.323,7.323,0,0,1,2.407-2.306A6.159,6.159,0,0,1-7.25-15.37a6.329,6.329,0,0,1,2.871.652,7.381,7.381,0,0,1,2.262,1.74A8.077,8.077,0,0,1-.624-10.469,8.227,8.227,0,0,1-.087-7.54,9.136,9.136,0,0,1-.58-4.524,7.7,7.7,0,0,1-1.987-2.03a6.763,6.763,0,0,1-2.175,1.7A6.164,6.164,0,0,1-6.931.29Zm-.551-1.74a4.723,4.723,0,0,0,2.218-.522A5.518,5.518,0,0,0-3.553-3.35,6.181,6.181,0,0,0-2.465-5.293,6.814,6.814,0,0,0-2.088-7.54a6.261,6.261,0,0,0-.435-2.32A6.4,6.4,0,0,0-3.712-11.8,5.645,5.645,0,0,0-5.5-13.137a5.07,5.07,0,0,0-2.219-.493,4.569,4.569,0,0,0-1.58.3,6.5,6.5,0,0,0-1.537.812,5.473,5.473,0,0,0-1.218,1.189,3.2,3.2,0,0,0-.623,1.435v4.64a6.934,6.934,0,0,0,.884,1.508,6.241,6.241,0,0,0,1.218,1.2,5.834,5.834,0,0,0,1.465.8A4.639,4.639,0,0,0-7.482-1.45ZM9.686.29A7.165,7.165,0,0,1,6.67-.334a7.412,7.412,0,0,1-2.364-1.7A7.7,7.7,0,0,1,2.755-4.524,8.19,8.19,0,0,1,2.2-7.511a8.081,8.081,0,0,1,.566-3.016,7.9,7.9,0,0,1,1.566-2.494A7.605,7.605,0,0,1,6.7-14.732a6.958,6.958,0,0,1,2.987-.638,7.054,7.054,0,0,1,3,.638,7.556,7.556,0,0,1,2.378,1.711,7.9,7.9,0,0,1,1.566,2.494A8.081,8.081,0,0,1,17.2-7.511a8.19,8.19,0,0,1-.551,2.987A7.7,7.7,0,0,1,15.094-2.03a7.367,7.367,0,0,1-2.378,1.7A7.264,7.264,0,0,1,9.686.29ZM4.2-7.482A6.306,6.306,0,0,0,4.64-5.119,6.415,6.415,0,0,0,5.814-3.2a5.309,5.309,0,0,0,1.74,1.291,5.005,5.005,0,0,0,2.132.464,4.878,4.878,0,0,0,2.132-.479,5.661,5.661,0,0,0,1.754-1.3,6.218,6.218,0,0,0,1.189-1.929A6.418,6.418,0,0,0,15.2-7.54,6.452,6.452,0,0,0,14.761-9.9a6.178,6.178,0,0,0-1.189-1.943,5.661,5.661,0,0,0-1.754-1.305,4.878,4.878,0,0,0-2.132-.479,4.785,4.785,0,0,0-2.117.479,5.611,5.611,0,0,0-1.74,1.319A6.36,6.36,0,0,0,4.64-9.875,6.532,6.532,0,0,0,4.2-7.482Zm23.838-5.887a6.2,6.2,0,0,0-3.48,1.1A5.557,5.557,0,0,0,22.475-9.4V0H20.5V-15.109h1.856v3.625a6.872,6.872,0,0,1,2.262-2.726,5.243,5.243,0,0,1,3.045-.986,1.988,1.988,0,0,1,.377.029ZM37.932-.725q-.174.087-.507.232t-.768.29a9,9,0,0,1-.986.261,5.62,5.62,0,0,1-1.16.116A4.216,4.216,0,0,1,33.292,0a2.84,2.84,0,0,1-1.015-.536,2.641,2.641,0,0,1-.7-.914,2.949,2.949,0,0,1-.261-1.276V-13.543H29.232v-1.566H31.32v-5.1h1.972v5.1h3.48v1.566h-3.48V-3.277a1.566,1.566,0,0,0,.595,1.233,2.037,2.037,0,0,0,1.232.391A3.7,3.7,0,0,0,36.6-1.929a6.52,6.52,0,0,0,.812-.392ZM45.414.29a10.515,10.515,0,0,1-3.451-.58,8.294,8.294,0,0,1-2.9-1.682l.9-1.334a9.832,9.832,0,0,0,2.6,1.566,7.616,7.616,0,0,0,2.828.522,5.1,5.1,0,0,0,2.914-.74,2.393,2.393,0,0,0,1.088-2.1,1.822,1.822,0,0,0-.29-1.059,2.511,2.511,0,0,0-.855-.74,6.679,6.679,0,0,0-1.421-.565q-.856-.246-1.987-.508-1.3-.319-2.262-.638a6.918,6.918,0,0,1-1.58-.725,2.615,2.615,0,0,1-.928-1,3.26,3.26,0,0,1-.3-1.493,4.3,4.3,0,0,1,.45-2,4.08,4.08,0,0,1,1.218-1.436,5.533,5.533,0,0,1,1.8-.856,8.041,8.041,0,0,1,2.189-.29,8.481,8.481,0,0,1,3.161.566,6.247,6.247,0,0,1,2.291,1.493l-.957,1.16a5.306,5.306,0,0,0-2.044-1.3,7.323,7.323,0,0,0-2.509-.435,6.228,6.228,0,0,0-1.45.16,3.491,3.491,0,0,0-1.175.507,2.5,2.5,0,0,0-.8.885,2.614,2.614,0,0,0-.29,1.261,2.077,2.077,0,0,0,.2.986,1.732,1.732,0,0,0,.667.653,5.432,5.432,0,0,0,1.174.493q.711.217,1.726.45,1.45.348,2.552.7a8.016,8.016,0,0,1,1.842.812,3.2,3.2,0,0,1,1.116,1.131A3.254,3.254,0,0,1,51.3-4.234a3.939,3.939,0,0,1-1.6,3.306A6.9,6.9,0,0,1,45.414.29Z" transform="translate(74.764 343.59)" fill="#100330"/><path d="M-12.032-1.984V0H-27.3V-22.72H-12.32v1.984H-25.056v8.192h11.1v1.888h-11.1v8.672ZM-7.808,0V-22.72h9.6a5.9,5.9,0,0,1,2.7.624,7.126,7.126,0,0,1,2.128,1.632,7.484,7.484,0,0,1,1.392,2.288,7.122,7.122,0,0,1,.5,2.592A7.687,7.687,0,0,1,8.144-13.2,7.37,7.37,0,0,1,7.12-11.152,6.2,6.2,0,0,1,5.536-9.616a5.6,5.6,0,0,1-2.08.848L9.024,0H6.5L1.152-8.384h-6.72V0Zm2.24-10.368H1.856A3.8,3.8,0,0,0,3.664-10.8a4.313,4.313,0,0,0,1.392-1.168,5.682,5.682,0,0,0,.9-1.664,5.946,5.946,0,0,0,.32-1.952A5.371,5.371,0,0,0,5.9-17.552,5.433,5.433,0,0,0,4.912-19.2,4.734,4.734,0,0,0,3.44-20.32a3.983,3.983,0,0,0-1.776-.416H-5.568ZM13.088,0V-22.72H22.5a5.9,5.9,0,0,1,2.7.624,7.126,7.126,0,0,1,2.128,1.632,7.743,7.743,0,0,1,1.408,2.288,6.926,6.926,0,0,1,.512,2.592,7.723,7.723,0,0,1-.48,2.7,7.317,7.317,0,0,1-1.344,2.288,6.758,6.758,0,0,1-2.064,1.6,5.827,5.827,0,0,1-2.672.608h-7.36V0Zm2.24-10.368h7.264A3.8,3.8,0,0,0,24.4-10.8a4.4,4.4,0,0,0,1.392-1.152,5.425,5.425,0,0,0,.9-1.664,6.088,6.088,0,0,0,.32-1.968,5.457,5.457,0,0,0-.368-2,5.433,5.433,0,0,0-.992-1.648,4.53,4.53,0,0,0-1.472-1.1,4.114,4.114,0,0,0-1.776-.4H15.328Z" transform="translate(711.296 278.72)" fill="#100330"/><path d="M-19.618,0V-24.14h2.38V0ZM-4.352.34A8.4,8.4,0,0,1-7.888-.391,8.69,8.69,0,0,1-10.659-2.38,9.025,9.025,0,0,1-12.478-5.3a9.6,9.6,0,0,1-.646-3.5,9.474,9.474,0,0,1,.663-3.536,9.266,9.266,0,0,1,1.836-2.924,8.917,8.917,0,0,1,2.771-2.006,8.157,8.157,0,0,1,3.5-.748,8.27,8.27,0,0,1,3.519.748,8.859,8.859,0,0,1,2.788,2.006,9.266,9.266,0,0,1,1.836,2.924,9.474,9.474,0,0,1,.663,3.536,9.6,9.6,0,0,1-.646,3.5A9.025,9.025,0,0,1,1.989-2.38,8.638,8.638,0,0,1-.8-.391,8.516,8.516,0,0,1-4.352.34Zm-6.426-9.112A7.393,7.393,0,0,0-10.268-6,7.521,7.521,0,0,0-8.891-3.757a6.225,6.225,0,0,0,2.04,1.513,5.868,5.868,0,0,0,2.5.544,5.719,5.719,0,0,0,2.5-.561A6.637,6.637,0,0,0,.2-3.791,7.29,7.29,0,0,0,1.6-6.052a7.525,7.525,0,0,0,.51-2.788,7.565,7.565,0,0,0-.51-2.771A7.243,7.243,0,0,0,.2-13.889a6.637,6.637,0,0,0-2.057-1.53,5.719,5.719,0,0,0-2.5-.561,5.61,5.61,0,0,0-2.482.561,6.578,6.578,0,0,0-2.04,1.547,7.457,7.457,0,0,0-1.394,2.3A7.658,7.658,0,0,0-10.778-8.772Zm32.844-13.26h-8.6V0h-2.38V-22.032h-8.6V-24.14H22.066Z" transform="translate(594.618 515.14)" fill="#100330"/><path d="M-36.337-10.44a11.005,11.005,0,0,1,.653-3.7,10.251,10.251,0,0,1,1.9-3.292,9.747,9.747,0,0,1,3.074-2.363,9.147,9.147,0,0,1,4.147-.914,8.588,8.588,0,0,1,4.712,1.247,7.586,7.586,0,0,1,2.885,3.248l-1.595.986a6.093,6.093,0,0,0-1.2-1.711,6.692,6.692,0,0,0-1.522-1.131,6.434,6.434,0,0,0-1.682-.623,8.065,8.065,0,0,0-1.711-.189,6.887,6.887,0,0,0-3.277.754,7.544,7.544,0,0,0-2.392,1.972,8.607,8.607,0,0,0-1.465,2.741,9.968,9.968,0,0,0-.493,3.089,9.156,9.156,0,0,0,.594,3.277,9.294,9.294,0,0,0,1.624,2.77,7.81,7.81,0,0,0,2.436,1.914,6.688,6.688,0,0,0,3.06.711,7.686,7.686,0,0,0,1.783-.217,6.874,6.874,0,0,0,1.769-.7,7.445,7.445,0,0,0,1.58-1.189,6.15,6.15,0,0,0,1.218-1.726l1.682.87a6.3,6.3,0,0,1-1.392,2.045,9.152,9.152,0,0,1-2,1.493,9.972,9.972,0,0,1-2.335.928,9.639,9.639,0,0,1-2.421.319,8.236,8.236,0,0,1-3.886-.928A10.191,10.191,0,0,1-33.64-3.176a11.237,11.237,0,0,1-1.986-3.393A10.97,10.97,0,0,1-36.337-10.44ZM-9.048.29a7.165,7.165,0,0,1-3.016-.624,7.412,7.412,0,0,1-2.364-1.7,7.7,7.7,0,0,1-1.551-2.494,8.19,8.19,0,0,1-.551-2.987,8.081,8.081,0,0,1,.565-3.016A7.9,7.9,0,0,1-14.4-13.021a7.605,7.605,0,0,1,2.364-1.711,6.958,6.958,0,0,1,2.987-.638,7.054,7.054,0,0,1,3,.638,7.556,7.556,0,0,1,2.378,1.711A7.9,7.9,0,0,1-2.1-10.527a8.081,8.081,0,0,1,.566,3.016,8.19,8.19,0,0,1-.551,2.987A7.7,7.7,0,0,1-3.639-2.03a7.367,7.367,0,0,1-2.378,1.7A7.264,7.264,0,0,1-9.048.29Zm-5.481-7.772a6.306,6.306,0,0,0,.435,2.364A6.415,6.415,0,0,0-12.919-3.2a5.309,5.309,0,0,0,1.74,1.291,5.005,5.005,0,0,0,2.132.464,4.878,4.878,0,0,0,2.132-.479,5.661,5.661,0,0,0,1.754-1.3A6.218,6.218,0,0,0-3.973-5.162,6.418,6.418,0,0,0-3.538-7.54,6.452,6.452,0,0,0-3.973-9.9a6.178,6.178,0,0,0-1.189-1.943,5.661,5.661,0,0,0-1.754-1.305,4.878,4.878,0,0,0-2.132-.479,4.785,4.785,0,0,0-2.117.479,5.611,5.611,0,0,0-1.74,1.319,6.36,6.36,0,0,0-1.189,1.957A6.532,6.532,0,0,0-14.529-7.482ZM6.786.29A10.515,10.515,0,0,1,3.335-.29a8.294,8.294,0,0,1-2.9-1.682l.9-1.334A9.832,9.832,0,0,0,3.93-1.74a7.616,7.616,0,0,0,2.827.522,5.1,5.1,0,0,0,2.915-.74,2.393,2.393,0,0,0,1.088-2.1,1.822,1.822,0,0,0-.29-1.059,2.511,2.511,0,0,0-.856-.74,6.679,6.679,0,0,0-1.421-.565q-.856-.246-1.987-.508Q4.9-7.25,3.944-7.569a6.918,6.918,0,0,1-1.581-.725,2.615,2.615,0,0,1-.928-1,3.26,3.26,0,0,1-.3-1.493,4.3,4.3,0,0,1,.45-2A4.08,4.08,0,0,1,2.8-14.225a5.533,5.533,0,0,1,1.8-.856,8.041,8.041,0,0,1,2.189-.29,8.481,8.481,0,0,1,3.161.566,6.247,6.247,0,0,1,2.291,1.493l-.957,1.16a5.306,5.306,0,0,0-2.045-1.3,7.323,7.323,0,0,0-2.508-.435,6.228,6.228,0,0,0-1.45.16,3.491,3.491,0,0,0-1.174.507,2.5,2.5,0,0,0-.8.885,2.614,2.614,0,0,0-.29,1.261,2.077,2.077,0,0,0,.2.986,1.732,1.732,0,0,0,.667.653,5.432,5.432,0,0,0,1.175.493q.711.217,1.726.45,1.45.348,2.552.7a8.016,8.016,0,0,1,1.842.812A3.2,3.2,0,0,1,12.3-5.858a3.254,3.254,0,0,1,.377,1.624,3.939,3.939,0,0,1-1.6,3.306A6.9,6.9,0,0,1,6.786.29ZM23.142-.725q-.174.087-.507.232t-.768.29a9,9,0,0,1-.986.261,5.62,5.62,0,0,1-1.16.116A4.216,4.216,0,0,1,18.5,0a2.84,2.84,0,0,1-1.015-.536,2.641,2.641,0,0,1-.7-.914,2.949,2.949,0,0,1-.261-1.276V-13.543H14.442v-1.566H16.53v-5.1H18.5v5.1h3.48v1.566H18.5V-3.277A1.566,1.566,0,0,0,19.1-2.045a2.037,2.037,0,0,0,1.232.391,3.7,3.7,0,0,0,1.479-.275,6.52,6.52,0,0,0,.812-.392ZM30.624.29a10.515,10.515,0,0,1-3.451-.58,8.294,8.294,0,0,1-2.9-1.682l.9-1.334a9.832,9.832,0,0,0,2.6,1.566,7.616,7.616,0,0,0,2.827.522,5.1,5.1,0,0,0,2.914-.74A2.393,2.393,0,0,0,34.6-4.06a1.822,1.822,0,0,0-.29-1.059,2.511,2.511,0,0,0-.855-.74,6.679,6.679,0,0,0-1.421-.565q-.856-.246-1.987-.508-1.305-.319-2.262-.638a6.918,6.918,0,0,1-1.58-.725,2.615,2.615,0,0,1-.928-1,3.26,3.26,0,0,1-.3-1.493,4.3,4.3,0,0,1,.449-2,4.08,4.08,0,0,1,1.218-1.436,5.533,5.533,0,0,1,1.8-.856,8.041,8.041,0,0,1,2.19-.29,8.481,8.481,0,0,1,3.161.566,6.247,6.247,0,0,1,2.291,1.493l-.957,1.16a5.306,5.306,0,0,0-2.044-1.3,7.323,7.323,0,0,0-2.509-.435,6.228,6.228,0,0,0-1.45.16,3.491,3.491,0,0,0-1.174.507,2.5,2.5,0,0,0-.8.885,2.614,2.614,0,0,0-.29,1.261,2.077,2.077,0,0,0,.2.986,1.732,1.732,0,0,0,.667.653,5.432,5.432,0,0,0,1.174.493q.711.217,1.726.45,1.45.348,2.552.7a8.016,8.016,0,0,1,1.842.812,3.2,3.2,0,0,1,1.116,1.131,3.254,3.254,0,0,1,.377,1.624,3.939,3.939,0,0,1-1.6,3.306A6.9,6.9,0,0,1,30.624.29Z" transform="translate(216.337 139)" fill="#100330"/><path d="M-10.672-16.733a6.266,6.266,0,0,0-2.32-1.6,8.471,8.471,0,0,0-3.306-.609,6.211,6.211,0,0,0-3.973,1.03,3.437,3.437,0,0,0-1.247,2.8,3.088,3.088,0,0,0,.333,1.523,2.911,2.911,0,0,0,1.029,1.029,7.215,7.215,0,0,0,1.784.754q1.088.319,2.567.638a27.9,27.9,0,0,1,2.972.783,8.533,8.533,0,0,1,2.248,1.087A4.511,4.511,0,0,1-9.164-7.714a4.907,4.907,0,0,1,.493,2.32,5.211,5.211,0,0,1-.551,2.465,4.913,4.913,0,0,1-1.537,1.74A6.855,6.855,0,0,1-13.108-.16a12.56,12.56,0,0,1-2.987.334A12.277,12.277,0,0,1-24.36-2.813l1.015-1.653a8.045,8.045,0,0,0,1.319,1.1,9.564,9.564,0,0,0,1.711.913,10.871,10.871,0,0,0,2.016.609,11.368,11.368,0,0,0,2.262.217,7.087,7.087,0,0,0,3.843-.885,2.971,2.971,0,0,0,1.377-2.682,3.078,3.078,0,0,0-.391-1.61,3.391,3.391,0,0,0-1.175-1.131,8.321,8.321,0,0,0-1.943-.826q-1.16-.348-2.7-.7-1.624-.377-2.842-.783a7.576,7.576,0,0,1-2.059-1.015,3.954,3.954,0,0,1-1.261-1.464,4.738,4.738,0,0,1-.421-2.1,5.787,5.787,0,0,1,.537-2.537,4.985,4.985,0,0,1,1.523-1.856,7.21,7.21,0,0,1,2.32-1.131,10.483,10.483,0,0,1,2.958-.391,10.1,10.1,0,0,1,3.668.623,9.851,9.851,0,0,1,2.915,1.755ZM-5.51,0V-15.109h1.972V0Zm0-18.27v-2.9h1.972v2.9ZM23.287,0H21.315V-8.439a7.069,7.069,0,0,0-.841-3.886,2.812,2.812,0,0,0-2.494-1.247,4.231,4.231,0,0,0-1.639.319,5.037,5.037,0,0,0-1.421.9,6.163,6.163,0,0,0-1.146,1.378,6.637,6.637,0,0,0-.754,1.755V0H11.049V-8.439a7.253,7.253,0,0,0-.812-3.915,2.789,2.789,0,0,0-2.494-1.218A4.448,4.448,0,0,0,4.7-12.383,6.621,6.621,0,0,0,2.784-9.251V0H.812V-15.109h1.8v3.422A7.143,7.143,0,0,1,5.046-14.4a6.031,6.031,0,0,1,3.335-.972A4.3,4.3,0,0,1,11.441-14.3a4.672,4.672,0,0,1,1.406,2.813q2.117-3.886,5.829-3.886a4.6,4.6,0,0,1,2.16.464,3.656,3.656,0,0,1,1.421,1.319,6.18,6.18,0,0,1,.783,2.059,13.41,13.41,0,0,1,.247,2.682Z" transform="translate(191.36 527.17)" fill="#100330"/><path d="M-36.829-9.36a9.867,9.867,0,0,1,.585-3.315,9.19,9.19,0,0,1,1.7-2.951,8.739,8.739,0,0,1,2.756-2.119,8.2,8.2,0,0,1,3.718-.819,7.7,7.7,0,0,1,4.225,1.118,6.8,6.8,0,0,1,2.587,2.912l-1.43.884a5.462,5.462,0,0,0-1.079-1.534A6,6,0,0,0-25.129-16.2a5.768,5.768,0,0,0-1.508-.559,7.231,7.231,0,0,0-1.534-.169,6.175,6.175,0,0,0-2.938.676,6.764,6.764,0,0,0-2.145,1.768,7.716,7.716,0,0,0-1.313,2.457,8.937,8.937,0,0,0-.442,2.769,8.208,8.208,0,0,0,.533,2.938A8.333,8.333,0,0,0-33.02-3.835a7,7,0,0,0,2.184,1.716,6,6,0,0,0,2.743.637,6.891,6.891,0,0,0,1.6-.195A6.163,6.163,0,0,0-24.908-2.3a6.675,6.675,0,0,0,1.417-1.066A5.513,5.513,0,0,0-22.4-4.914l1.508.78A5.644,5.644,0,0,1-22.139-2.3,8.205,8.205,0,0,1-23.933-.962a8.941,8.941,0,0,1-2.093.832A8.642,8.642,0,0,1-28.2.156a7.384,7.384,0,0,1-3.484-.832,9.137,9.137,0,0,1-2.73-2.171,10.075,10.075,0,0,1-1.781-3.042A9.835,9.835,0,0,1-36.829-9.36ZM-17.771,0V-18.46h1.82V0ZM1.339-18.46-10.933,0h-2L-.663-18.46Zm1.248,9.1a9.867,9.867,0,0,1,.585-3.315,9.19,9.19,0,0,1,1.7-2.951,8.739,8.739,0,0,1,2.756-2.119,8.2,8.2,0,0,1,3.718-.819,7.7,7.7,0,0,1,4.225,1.118,6.8,6.8,0,0,1,2.587,2.912l-1.43.884a5.462,5.462,0,0,0-1.079-1.534A6,6,0,0,0,14.287-16.2a5.768,5.768,0,0,0-1.508-.559,7.231,7.231,0,0,0-1.534-.169,6.175,6.175,0,0,0-2.938.676,6.764,6.764,0,0,0-2.145,1.768,7.716,7.716,0,0,0-1.313,2.457,8.937,8.937,0,0,0-.442,2.769A8.208,8.208,0,0,0,4.94-6.318,8.333,8.333,0,0,0,6.4-3.835,7,7,0,0,0,8.58-2.119a6,6,0,0,0,2.743.637,6.891,6.891,0,0,0,1.6-.195A6.163,6.163,0,0,0,14.508-2.3a6.675,6.675,0,0,0,1.417-1.066,5.513,5.513,0,0,0,1.092-1.547l1.508.78A5.644,5.644,0,0,1,17.277-2.3,8.205,8.205,0,0,1,15.483-.962,8.941,8.941,0,0,1,13.39-.13a8.642,8.642,0,0,1-2.171.286A7.384,7.384,0,0,1,7.735-.676a9.137,9.137,0,0,1-2.73-2.171A10.075,10.075,0,0,1,3.224-5.889,9.835,9.835,0,0,1,2.587-9.36ZM21.645,0V-18.46h6.266a9.5,9.5,0,0,1,3.861.728,7.852,7.852,0,0,1,2.756,1.976,8.329,8.329,0,0,1,1.664,2.925,11.233,11.233,0,0,1,.559,3.575,11.008,11.008,0,0,1-.624,3.809,8.263,8.263,0,0,1-1.781,2.912A7.959,7.959,0,0,1,31.564-.663,9.593,9.593,0,0,1,27.911,0ZM34.931-9.256a9.531,9.531,0,0,0-.468-3.055A6.9,6.9,0,0,0,33.1-14.716a6.113,6.113,0,0,0-2.2-1.573,7.51,7.51,0,0,0-2.99-.559H23.465V-1.612h4.446A7.378,7.378,0,0,0,30.94-2.2a6.16,6.16,0,0,0,2.2-1.612,6.991,6.991,0,0,0,1.339-2.418A9.692,9.692,0,0,0,34.931-9.256Z" transform="translate(775.829 166.564)" fill="#100330"/><path d="M16.641-3.781,1.625-10.375v-1.531l15.016-7.484v2.328l-12.219,5.8L16.641-6.141ZM29.719-22.844,21.2,0H18.609l8.516-22.844Zm1.953,16.7,12.234-5.094L31.672-17.062v-2.328l15.016,7.484v1.531L31.672-3.781Z" transform="translate(589.375 188.844)" fill="#100330"/><path d="M2.584-8.024a5.623,5.623,0,0,1,3.587,2.04A6.345,6.345,0,0,1,7.514-1.87,6.889,6.889,0,0,1,6.953.935a6.1,6.1,0,0,1-1.6,2.176A7.358,7.358,0,0,1,2.873,4.505,9.9,9.9,0,0,1-.34,5,9.444,9.444,0,0,1-4.862,3.961,6.945,6.945,0,0,1-7.786,1.088l1.6-1.462a5.509,5.509,0,0,0,2.176,2.38A6.992,6.992,0,0,0-.34,2.89,6,6,0,0,0,3.672,1.649,4.4,4.4,0,0,0,5.134-1.9,4.706,4.706,0,0,0,3.6-5.61,6.448,6.448,0,0,0-.816-6.97h-.85V-8.942h.918a5.954,5.954,0,0,0,4.012-1.207,3.963,3.963,0,0,0,1.394-3.145,4.13,4.13,0,0,0-.374-1.8,3.671,3.671,0,0,0-1.037-1.309,4.637,4.637,0,0,0-1.564-.8,6.737,6.737,0,0,0-1.955-.272,6.631,6.631,0,0,0-3.417.867,5.547,5.547,0,0,0-2.227,2.4l-1.5-1.428a5.44,5.44,0,0,1,1.156-1.615,7.45,7.45,0,0,1,1.7-1.241,9.138,9.138,0,0,1,2.108-.8,9.776,9.776,0,0,1,2.38-.289,8.933,8.933,0,0,1,2.873.442A6.917,6.917,0,0,1,5.066-17.9,5.572,5.572,0,0,1,6.545-15.98,5.765,5.765,0,0,1,7.072-13.5a6.245,6.245,0,0,1-.306,1.955,5.336,5.336,0,0,1-.884,1.666A5.072,5.072,0,0,1,4.471-8.653,4.89,4.89,0,0,1,2.584-8.024Z" transform="translate(1010 290)" fill="#100330"/><path d="M-9.129,0V-24.14H-.935a12.425,12.425,0,0,1,5.049.952,10.268,10.268,0,0,1,3.6,2.584,10.892,10.892,0,0,1,2.176,3.825,14.689,14.689,0,0,1,.731,4.675,14.4,14.4,0,0,1-.816,4.981A10.805,10.805,0,0,1,7.48-3.315,10.408,10.408,0,0,1,3.842-.867,12.544,12.544,0,0,1-.935,0ZM8.245-12.1a12.463,12.463,0,0,0-.612-4,9.029,9.029,0,0,0-1.785-3.145A7.994,7.994,0,0,0,2.975-21.3a9.821,9.821,0,0,0-3.91-.731H-6.749V-2.108H-.935a9.648,9.648,0,0,0,3.961-.765A8.055,8.055,0,0,0,5.9-4.981,9.142,9.142,0,0,0,7.65-8.143,12.675,12.675,0,0,0,8.245-12.1Z" transform="translate(1031 295)" fill="#100330"/><path d="M-25.137,0V-22.154L-34.979-5.016h-1.558l-9.842-17.138V0h-2.66V-26.98H-46.3L-35.777-8.512l10.6-18.468h2.7V0ZM4.579-6.954a6.4,6.4,0,0,1-.608,2.793,7.044,7.044,0,0,1-1.634,2.2A7.376,7.376,0,0,1-.057-.513,8.265,8.265,0,0,1-2.983,0h-12.73V-26.98h13a5.324,5.324,0,0,1,2.546.608A6.356,6.356,0,0,1,1.767-24.8,7.227,7.227,0,0,1,3-22.591,7.416,7.416,0,0,1,3.439-20.1a7.077,7.077,0,0,1-1.026,3.743,6.351,6.351,0,0,1-2.85,2.527A6.743,6.743,0,0,1,3.23-11.286,7.189,7.189,0,0,1,4.579-6.954ZM1.919-7.41a5.523,5.523,0,0,0-.342-1.919,5.037,5.037,0,0,0-.969-1.634A5.04,5.04,0,0,0-.874-12.1a3.991,3.991,0,0,0-1.843-.437H-13.053V-2.318h10.07a4.47,4.47,0,0,0,1.919-.418A5.1,5.1,0,0,0,.494-3.857,5.227,5.227,0,0,0,1.539-5.491,5.033,5.033,0,0,0,1.919-7.41ZM-13.053-24.662v9.956h9.272a4.14,4.14,0,0,0,1.843-.418,4.69,4.69,0,0,0,1.463-1.1A5.09,5.09,0,0,0,.475-17.8a5.214,5.214,0,0,0,.342-1.881,5.762,5.762,0,0,0-.323-1.938A4.73,4.73,0,0,0-.418-23.2,4.559,4.559,0,0,0-1.8-24.263a3.853,3.853,0,0,0-1.748-.4Zm38.418,2.736a8.211,8.211,0,0,0-3.04-2.09,11.1,11.1,0,0,0-4.332-.8q-3.572,0-5.206,1.349A4.5,4.5,0,0,0,11.153-19.8,4.047,4.047,0,0,0,11.59-17.8a3.814,3.814,0,0,0,1.349,1.349,9.454,9.454,0,0,0,2.337.988q1.425.418,3.363.836a36.554,36.554,0,0,1,3.9,1.026,11.181,11.181,0,0,1,2.945,1.425,5.91,5.91,0,0,1,1.862,2.071,6.43,6.43,0,0,1,.646,3.04,6.828,6.828,0,0,1-.722,3.23,6.438,6.438,0,0,1-2.014,2.28A8.982,8.982,0,0,1,22.173-.209a16.459,16.459,0,0,1-3.914.437A16.087,16.087,0,0,1,7.429-3.686l1.33-2.166a10.542,10.542,0,0,0,1.729,1.444,12.532,12.532,0,0,0,2.242,1.2,14.245,14.245,0,0,0,2.641.8,14.9,14.9,0,0,0,2.964.285A9.286,9.286,0,0,0,23.37-3.287a3.893,3.893,0,0,0,1.8-3.515,4.033,4.033,0,0,0-.513-2.109,4.443,4.443,0,0,0-1.539-1.482,10.9,10.9,0,0,0-2.546-1.083q-1.52-.456-3.534-.912-2.128-.494-3.724-1.026a9.928,9.928,0,0,1-2.7-1.33,5.181,5.181,0,0,1-1.653-1.919,6.209,6.209,0,0,1-.551-2.755,7.583,7.583,0,0,1,.7-3.325,6.532,6.532,0,0,1,1.995-2.432,9.447,9.447,0,0,1,3.04-1.482,13.736,13.736,0,0,1,3.876-.513,13.234,13.234,0,0,1,4.807.817,12.908,12.908,0,0,1,3.819,2.3ZM50.787-2.356V0H32.661V-26.98H50.445v2.356H35.321V-14.9H48.507v2.242H35.321v10.3Z" transform="translate(71 84)" fill="#100330"/><path d="M-25.047-23.43H-23.1L-13.365,0h-2.442l-3.036-7.326H-29.37l-3,7.326h-2.475Zm5.676,14.289L-24.09-20.724-28.875-9.141ZM-10,0V-23.43h2.31V-2.046H5.841V0ZM30,0V-19.239L21.45-4.356H20.1L11.55-19.239V0H9.24V-23.43h2.376L20.757-7.392,29.964-23.43h2.343V0Z" transform="translate(522 96)" fill="#100330"/></g></svg>